%FSAX44Y44*%
%MOMM*%
G71*
G01*
G75*
G04 Layer_Color=2752767*
%ADD10O,1.9500X0.6000*%
%ADD11R,1.5000X1.0000*%
%ADD12R,1.0000X1.5000*%
%ADD13R,0.8000X1.2000*%
%ADD14R,1.2000X0.6000*%
%ADD15R,2.2000X1.2000*%
%ADD16R,3.0500X1.1000*%
%ADD17R,6.5000X5.5500*%
%ADD18R,1.1000X3.0500*%
%ADD19R,5.5500X6.5000*%
%ADD20R,1.1000X1.3500*%
%ADD21R,1.3500X1.1000*%
%ADD22R,1.2500X1.4500*%
%ADD23R,1.4500X1.2500*%
%ADD24R,1.5000X1.2000*%
%ADD25R,1.5000X1.0000*%
%ADD26C,1.0000*%
%ADD27C,0.6000*%
%ADD28C,1.5000*%
%ADD29C,0.8000*%
%ADD30C,0.4000*%
%ADD31C,0.3000*%
%ADD32C,0.2000*%
%ADD33R,1.5000X1.5000*%
%ADD34C,1.5000*%
%ADD35R,1.5000X1.5000*%
%ADD36R,1.5240X1.5240*%
%ADD37C,1.5240*%
%ADD38C,4.7600*%
%ADD39R,1.6900X1.6900*%
%ADD40C,1.6900*%
%ADD41O,2.5000X1.5000*%
%ADD42C,0.7000*%
%ADD43C,1.2700*%
%ADD44R,5.3000X2.8000*%
%ADD45R,6.0000X2.1000*%
%ADD46R,3.9500X2.0500*%
%ADD47R,9.4000X6.8000*%
%ADD48R,2.4500X2.5500*%
%ADD49R,8.0000X10.0000*%
%ADD50C,0.5000*%
%ADD51C,0.2500*%
%ADD52C,0.2540*%
%ADD53C,0.0254*%
%ADD54C,0.1000*%
%ADD55C,0.1540*%
%ADD56C,0.1500*%
%ADD57O,2.1500X0.8000*%
%ADD58R,1.7000X1.2000*%
%ADD59R,1.2000X1.7000*%
%ADD60R,1.0000X1.4000*%
%ADD61R,1.4000X0.8000*%
%ADD62R,2.4000X1.4000*%
%ADD63R,3.2500X1.3000*%
%ADD64R,6.7000X5.7500*%
%ADD65R,1.3000X3.2500*%
%ADD66R,5.7500X6.7000*%
%ADD67R,1.3000X1.5500*%
%ADD68R,1.5500X1.3000*%
%ADD69R,1.4500X1.6500*%
%ADD70R,1.6500X1.4500*%
%ADD71R,1.7000X1.4000*%
%ADD72R,1.7000X1.2000*%
%ADD73R,1.7000X1.7000*%
%ADD74C,1.7000*%
%ADD75R,1.7000X1.7000*%
%ADD76R,1.6256X1.6256*%
%ADD77C,1.6256*%
%ADD78C,4.9600*%
%ADD79R,1.8900X1.8900*%
%ADD80C,1.8900*%
%ADD81O,2.7000X1.7000*%
%ADD82C,0.9000*%
%ADD83C,1.4700*%
%ADD84R,5.5000X3.0000*%
%ADD85R,6.2000X2.3000*%
%ADD86R,4.1500X2.2500*%
%ADD87R,9.6000X7.0000*%
%ADD88R,2.6500X2.7500*%
%ADD89R,8.2000X10.2000*%
%ADD90R,1.3080X1.0160*%
%ADD91R,1.3330X1.0160*%
%ADD92R,4.6000X1.0222*%
%ADD93C,0.1270*%
%ADD94C,0.1693*%
D93*
X00687920Y00958420D02*
Y00968580D01*
X00698080D01*
Y00958420D01*
X00687920D01*
X00713320D02*
Y00968580D01*
X00723480D01*
Y00958420D01*
X00713320D01*
X00612670Y00959170D02*
Y00969330D01*
X00622830D01*
Y00959170D01*
X00612670D01*
X00638070D02*
Y00969330D01*
X00648230D01*
Y00959170D01*
X00638070D01*
X00660920Y00339420D02*
Y00349580D01*
X00671080D01*
Y00339420D01*
X00660920D01*
Y00314020D02*
Y00324180D01*
X00671080D01*
Y00314020D01*
X00660920D01*
X01316920Y00830170D02*
Y00840330D01*
X01327080D01*
Y00830170D01*
X01316920D01*
Y00855570D02*
Y00865730D01*
X01327080D01*
Y00855570D01*
X01316920D01*
X00028420Y00838420D02*
Y00848580D01*
X00038580D01*
Y00838420D01*
X00028420D01*
Y00863820D02*
Y00873980D01*
X00038580D01*
Y00863820D01*
X00028420D01*
X00999920Y00235170D02*
Y00245330D01*
X01010080D01*
Y00235170D01*
X00999920D01*
X01025320D02*
Y00245330D01*
X01035480D01*
Y00235170D01*
X01025320D01*
X00310420Y00276670D02*
Y00286830D01*
X00320580D01*
Y00276670D01*
X00310420D01*
Y00302070D02*
Y00312230D01*
X00320580D01*
Y00302070D01*
X00310420D01*
X00327800Y00160170D02*
X00322720Y00170330D01*
X00332880D01*
X00327800Y00160170D01*
X00577700D02*
X00572620Y00170330D01*
X00582780D01*
X00577700Y00160170D01*
X00508150Y00174370D02*
X00510690Y00176910D01*
X00513230D01*
X00510690Y00179450D01*
X00513230Y00181990D01*
X00510690D01*
X00508150Y00184530D01*
X00505610Y00181990D01*
X00503070D01*
X00505610Y00179450D01*
X00503070Y00176910D01*
X00505610D01*
X00508150Y00174370D01*
X00494300Y00145970D02*
X00496840Y00148510D01*
X00499380D01*
X00496840Y00151050D01*
X00499380Y00153590D01*
X00496840D01*
X00494300Y00156130D01*
X00491760Y00153590D01*
X00489220D01*
X00491760Y00151050D01*
X00489220Y00148510D01*
X00491760D01*
X00494300Y00145970D01*
X00480450Y00174370D02*
X00482990Y00176910D01*
X00485530D01*
X00482990Y00179450D01*
X00485530Y00181990D01*
X00482990D01*
X00480450Y00184530D01*
X00477910Y00181990D01*
X00475370D01*
X00477910Y00179450D01*
X00475370Y00176910D01*
X00477910D01*
X00480450Y00174370D01*
X00466600Y00145970D02*
X00469140Y00148510D01*
X00471680D01*
X00469140Y00151050D01*
X00471680Y00153590D01*
X00469140D01*
X00466600Y00156130D01*
X00464060Y00153590D01*
X00461520D01*
X00464060Y00151050D01*
X00461520Y00148510D01*
X00464060D01*
X00466600Y00145970D01*
X00452750Y00174370D02*
X00455290Y00176910D01*
X00457830D01*
X00455290Y00179450D01*
X00457830Y00181990D01*
X00455290D01*
X00452750Y00184530D01*
X00450210Y00181990D01*
X00447670D01*
X00450210Y00179450D01*
X00447670Y00176910D01*
X00450210D01*
X00452750Y00174370D01*
X00438900Y00145970D02*
X00441440Y00148510D01*
X00443980D01*
X00441440Y00151050D01*
X00443980Y00153590D01*
X00441440D01*
X00438900Y00156130D01*
X00436360Y00153590D01*
X00433820D01*
X00436360Y00151050D01*
X00433820Y00148510D01*
X00436360D01*
X00438900Y00145970D01*
X00425050Y00174370D02*
X00427590Y00176910D01*
X00430130D01*
X00427590Y00179450D01*
X00430130Y00181990D01*
X00427590D01*
X00425050Y00184530D01*
X00422510Y00181990D01*
X00419970D01*
X00422510Y00179450D01*
X00419970Y00176910D01*
X00422510D01*
X00425050Y00174370D01*
X00411200Y00145970D02*
X00413740Y00148510D01*
X00416280D01*
X00413740Y00151050D01*
X00416280Y00153590D01*
X00413740D01*
X00411200Y00156130D01*
X00408660Y00153590D01*
X00406120D01*
X00408660Y00151050D01*
X00406120Y00148510D01*
X00408660D01*
X00411200Y00145970D01*
X00397350Y00174370D02*
X00399890Y00176910D01*
X00402430D01*
X00399890Y00179450D01*
X00402430Y00181990D01*
X00399890D01*
X00397350Y00184530D01*
X00394810Y00181990D01*
X00392270D01*
X00394810Y00179450D01*
X00392270Y00176910D01*
X00394810D01*
X00397350Y00174370D01*
X00780420Y00336920D02*
Y00347080D01*
X00790580D01*
Y00336920D01*
X00780420D01*
Y00311520D02*
Y00321680D01*
X00790580D01*
Y00311520D01*
X00780420D01*
X00694550Y00159420D02*
X00689470Y00169580D01*
X00699630D01*
X00694550Y00159420D01*
X00944450D02*
X00939370Y00169580D01*
X00949530D01*
X00944450Y00159420D01*
X00874900Y00173620D02*
X00877440Y00176160D01*
X00879980D01*
X00877440Y00178700D01*
X00879980Y00181240D01*
X00877440D01*
X00874900Y00183780D01*
X00872360Y00181240D01*
X00869820D01*
X00872360Y00178700D01*
X00869820Y00176160D01*
X00872360D01*
X00874900Y00173620D01*
X00861050Y00145220D02*
X00863590Y00147760D01*
X00866130D01*
X00863590Y00150300D01*
X00866130Y00152840D01*
X00863590D01*
X00861050Y00155380D01*
X00858510Y00152840D01*
X00855970D01*
X00858510Y00150300D01*
X00855970Y00147760D01*
X00858510D01*
X00861050Y00145220D01*
X00847200Y00173620D02*
X00849740Y00176160D01*
X00852280D01*
X00849740Y00178700D01*
X00852280Y00181240D01*
X00849740D01*
X00847200Y00183780D01*
X00844660Y00181240D01*
X00842120D01*
X00844660Y00178700D01*
X00842120Y00176160D01*
X00844660D01*
X00847200Y00173620D01*
X00833350Y00145220D02*
X00835890Y00147760D01*
X00838430D01*
X00835890Y00150300D01*
X00838430Y00152840D01*
X00835890D01*
X00833350Y00155380D01*
X00830810Y00152840D01*
X00828270D01*
X00830810Y00150300D01*
X00828270Y00147760D01*
X00830810D01*
X00833350Y00145220D01*
X00819500Y00173620D02*
X00822040Y00176160D01*
X00824580D01*
X00822040Y00178700D01*
X00824580Y00181240D01*
X00822040D01*
X00819500Y00183780D01*
X00816960Y00181240D01*
X00814420D01*
X00816960Y00178700D01*
X00814420Y00176160D01*
X00816960D01*
X00819500Y00173620D01*
X00805650Y00145220D02*
X00808190Y00147760D01*
X00810730D01*
X00808190Y00150300D01*
X00810730Y00152840D01*
X00808190D01*
X00805650Y00155380D01*
X00803110Y00152840D01*
X00800570D01*
X00803110Y00150300D01*
X00800570Y00147760D01*
X00803110D01*
X00805650Y00145220D01*
X00791800Y00173620D02*
X00794340Y00176160D01*
X00796880D01*
X00794340Y00178700D01*
X00796880Y00181240D01*
X00794340D01*
X00791800Y00183780D01*
X00789260Y00181240D01*
X00786720D01*
X00789260Y00178700D01*
X00786720Y00176160D01*
X00789260D01*
X00791800Y00173620D01*
X00777950Y00145220D02*
X00780490Y00147760D01*
X00783030D01*
X00780490Y00150300D01*
X00783030Y00152840D01*
X00780490D01*
X00777950Y00155380D01*
X00775410Y00152840D01*
X00772870D01*
X00775410Y00150300D01*
X00772870Y00147760D01*
X00775410D01*
X00777950Y00145220D01*
X00764100Y00173620D02*
X00766640Y00176160D01*
X00769180D01*
X00766640Y00178700D01*
X00769180Y00181240D01*
X00766640D01*
X00764100Y00183780D01*
X00761560Y00181240D01*
X00759020D01*
X00761560Y00178700D01*
X00759020Y00176160D01*
X00761560D01*
X00764100Y00173620D01*
X01144920Y00107420D02*
Y00117580D01*
X01155080D01*
Y00107420D01*
X01144920D01*
X01119520D02*
Y00117580D01*
X01129680D01*
Y00107420D01*
X01119520D01*
X00079420Y00722420D02*
X00081960Y00727500D01*
X00079420Y00732580D01*
X00084500Y00730040D01*
X00089580Y00732580D01*
X00087040Y00727500D01*
X00089580Y00722420D01*
X00084500Y00724960D01*
X00079420Y00722420D01*
X00102670Y00723170D02*
X00105210Y00728250D01*
X00102670Y00733330D01*
X00107750Y00730790D01*
X00112830Y00733330D01*
X00110290Y00728250D01*
X00112830Y00723170D01*
X00107750Y00725710D01*
X00102670Y00723170D01*
X00126420D02*
X00128960Y00728250D01*
X00126420Y00733330D01*
X00131500Y00730790D01*
X00136580Y00733330D01*
X00134040Y00728250D01*
X00136580Y00723170D01*
X00131500Y00725710D01*
X00126420Y00723170D01*
X00079670Y00692170D02*
X00082210Y00697250D01*
X00079670Y00702330D01*
X00084750Y00699790D01*
X00089830Y00702330D01*
X00087290Y00697250D01*
X00089830Y00692170D01*
X00084750Y00694710D01*
X00079670Y00692170D01*
X00102920D02*
X00105460Y00697250D01*
X00102920Y00702330D01*
X00108000Y00699790D01*
X00113080Y00702330D01*
X00110540Y00697250D01*
X00113080Y00692170D01*
X00108000Y00694710D01*
X00102920Y00692170D01*
X00126170D02*
X00128710Y00697250D01*
X00126170Y00702330D01*
X00131250Y00699790D01*
X00136330Y00702330D01*
X00133790Y00697250D01*
X00136330Y00692170D01*
X00131250Y00694710D01*
X00126170Y00692170D01*
X00080420Y00662670D02*
X00082960Y00667750D01*
X00080420Y00672830D01*
X00085500Y00670290D01*
X00090580Y00672830D01*
X00088040Y00667750D01*
X00090580Y00662670D01*
X00085500Y00665210D01*
X00080420Y00662670D01*
X00103920Y00661920D02*
X00106460Y00667000D01*
X00103920Y00672080D01*
X00109000Y00669540D01*
X00114080Y00672080D01*
X00111540Y00667000D01*
X00114080Y00661920D01*
X00109000Y00664460D01*
X00103920Y00661920D01*
X00126170Y00661670D02*
X00128710Y00666750D01*
X00126170Y00671830D01*
X00131250Y00669290D01*
X00136330Y00671830D01*
X00133790Y00666750D01*
X00136330Y00661670D01*
X00131250Y00664210D01*
X00126170Y00661670D01*
X01225170Y00695670D02*
X01227710Y00700750D01*
X01225170Y00705830D01*
X01230250Y00703290D01*
X01235330Y00705830D01*
X01232790Y00700750D01*
X01235330Y00695670D01*
X01230250Y00698210D01*
X01225170Y00695670D01*
X01249670D02*
X01252210Y00700750D01*
X01249670Y00705830D01*
X01254750Y00703290D01*
X01259830Y00705830D01*
X01257290Y00700750D01*
X01259830Y00695670D01*
X01254750Y00698210D01*
X01249670Y00695670D01*
X01201170D02*
X01203710Y00700750D01*
X01201170Y00705830D01*
X01206250Y00703290D01*
X01211330Y00705830D01*
X01208790Y00700750D01*
X01211330Y00695670D01*
X01206250Y00698210D01*
X01201170Y00695670D01*
X01201920Y00666420D02*
X01204460Y00671500D01*
X01201920Y00676580D01*
X01207000Y00674040D01*
X01212080Y00676580D01*
X01209540Y00671500D01*
X01212080Y00666420D01*
X01207000Y00668960D01*
X01201920Y00666420D01*
X01225420Y00665670D02*
X01227960Y00670750D01*
X01225420Y00675830D01*
X01230500Y00673290D01*
X01235580Y00675830D01*
X01233040Y00670750D01*
X01235580Y00665670D01*
X01230500Y00668210D01*
X01225420Y00665670D01*
X01250170Y00664920D02*
X01252710Y00670000D01*
X01250170Y00675080D01*
X01255250Y00672540D01*
X01260330Y00675080D01*
X01257790Y00670000D01*
X01260330Y00664920D01*
X01255250Y00667460D01*
X01250170Y00664920D01*
X01226170Y00726920D02*
X01228710Y00732000D01*
X01226170Y00737080D01*
X01231250Y00734540D01*
X01236330Y00737080D01*
X01233790Y00732000D01*
X01236330Y00726920D01*
X01231250Y00729460D01*
X01226170Y00726920D01*
X01249420Y00726670D02*
X01251960Y00731750D01*
X01249420Y00736830D01*
X01254500Y00734290D01*
X01259580Y00736830D01*
X01257040Y00731750D01*
X01259580Y00726670D01*
X01254500Y00729210D01*
X01249420Y00726670D01*
X01201920Y00726920D02*
X01204460Y00732000D01*
X01201920Y00737080D01*
X01207000Y00734540D01*
X01212080Y00737080D01*
X01209540Y00732000D01*
X01212080Y00726920D01*
X01207000Y00729460D01*
X01201920Y00726920D01*
X00193070Y00114920D02*
Y00125080D01*
X00203230D01*
Y00114920D01*
X00193070D01*
X00167670D02*
Y00125080D01*
X00177830D01*
Y00114920D01*
X00167670D01*
X00760710Y00488960D02*
Y00486420D01*
X00765790D01*
Y00488960D01*
X00768330D01*
Y00494040D01*
X00765790D01*
Y00496580D01*
X00760710D01*
Y00494040D01*
X00758170D01*
Y00488960D01*
X00760710D01*
X00760960Y00454710D02*
Y00452170D01*
X00766040D01*
Y00454710D01*
X00768580D01*
Y00459790D01*
X00766040D01*
Y00462330D01*
X00760960D01*
Y00459790D01*
X00758420D01*
Y00454710D01*
X00760960D01*
X00172710Y00346210D02*
Y00343670D01*
X00177790D01*
Y00346210D01*
X00180330D01*
Y00351290D01*
X00177790D01*
Y00353830D01*
X00172710D01*
Y00351290D01*
X00170170D01*
Y00346210D01*
X00172710D01*
X00760960Y00554960D02*
Y00552420D01*
X00766040D01*
Y00554960D01*
X00768580D01*
Y00560040D01*
X00766040D01*
Y00562580D01*
X00760960D01*
Y00560040D01*
X00758420D01*
Y00554960D01*
X00760960D01*
X01301460Y00503460D02*
Y00500920D01*
X01306540D01*
Y00503460D01*
X01309080D01*
Y00508540D01*
X01306540D01*
Y00511080D01*
X01301460D01*
Y00508540D01*
X01298920D01*
Y00503460D01*
X01301460D01*
X01204460Y00237460D02*
Y00234920D01*
X01209540D01*
Y00237460D01*
X01212080D01*
Y00242540D01*
X01209540D01*
Y00245080D01*
X01204460D01*
Y00242540D01*
X01201920D01*
Y00237460D01*
X01204460D01*
X00975460Y00645210D02*
Y00642670D01*
X00980540D01*
Y00645210D01*
X00983080D01*
Y00650290D01*
X00980540D01*
Y00652830D01*
X00975460D01*
Y00650290D01*
X00972920D01*
Y00645210D01*
X00975460D01*
X01123210Y00169710D02*
Y00167170D01*
X01128290D01*
Y00169710D01*
X01130830D01*
Y00174790D01*
X01128290D01*
Y00177330D01*
X01123210D01*
Y00174790D01*
X01120670D01*
Y00169710D01*
X01123210D01*
X01145210Y00234960D02*
Y00232420D01*
X01150290D01*
Y00234960D01*
X01152830D01*
Y00240040D01*
X01150290D01*
Y00242580D01*
X01145210D01*
Y00240040D01*
X01142670D01*
Y00234960D01*
X01145210D01*
X00477710Y00271960D02*
Y00269420D01*
X00482790D01*
Y00271960D01*
X00485330D01*
Y00277040D01*
X00482790D01*
Y00279580D01*
X00477710D01*
Y00277040D01*
X00475170D01*
Y00271960D01*
X00477710D01*
X00474710Y00580710D02*
Y00578170D01*
X00479790D01*
Y00580710D01*
X00482330D01*
Y00585790D01*
X00479790D01*
Y00588330D01*
X00474710D01*
Y00585790D01*
X00472170D01*
Y00580710D01*
X00474710D01*
X00711960Y00883710D02*
Y00881170D01*
X00717040D01*
Y00883710D01*
X00719580D01*
Y00888790D01*
X00717040D01*
Y00891330D01*
X00711960D01*
Y00888790D01*
X00709420D01*
Y00883710D01*
X00711960D01*
X00100710Y00492460D02*
Y00489920D01*
X00105790D01*
Y00492460D01*
X00108330D01*
Y00497540D01*
X00105790D01*
Y00500080D01*
X00100710D01*
Y00497540D01*
X00098170D01*
Y00492460D01*
X00100710D01*
X00201710Y00398210D02*
Y00395670D01*
X00206790D01*
Y00398210D01*
X00209330D01*
Y00403290D01*
X00206790D01*
Y00405830D01*
X00201710D01*
Y00403290D01*
X00199170D01*
Y00398210D01*
X00201710D01*
X00487960Y00451210D02*
Y00448670D01*
X00493040D01*
Y00451210D01*
X00495580D01*
Y00456290D01*
X00493040D01*
Y00458830D01*
X00487960D01*
Y00456290D01*
X00485420D01*
Y00451210D01*
X00487960D01*
X00124210Y00459460D02*
Y00456920D01*
X00129290D01*
Y00459460D01*
X00131830D01*
Y00464540D01*
X00129290D01*
Y00467080D01*
X00124210D01*
Y00464540D01*
X00121670D01*
Y00459460D01*
X00124210D01*
X00584710Y00528960D02*
Y00526420D01*
X00589790D01*
Y00528960D01*
X00592330D01*
Y00534040D01*
X00589790D01*
Y00536580D01*
X00584710D01*
Y00534040D01*
X00582170D01*
Y00528960D01*
X00584710D01*
X00473710Y00492210D02*
Y00489670D01*
X00478790D01*
Y00492210D01*
X00481330D01*
Y00497290D01*
X00478790D01*
Y00499830D01*
X00473710D01*
Y00497290D01*
X00471170D01*
Y00492210D01*
X00473710D01*
X00672710Y00409460D02*
Y00406920D01*
X00677790D01*
Y00409460D01*
X00680330D01*
Y00414540D01*
X00677790D01*
Y00417080D01*
X00672710D01*
Y00414540D01*
X00670170D01*
Y00409460D01*
X00672710D01*
Y00453460D02*
Y00450920D01*
X00677790D01*
Y00453460D01*
X00680330D01*
Y00458540D01*
X00677790D01*
Y00461080D01*
X00672710D01*
Y00458540D01*
X00670170D01*
Y00453460D01*
X00672710D01*
X00787210Y00504460D02*
Y00501920D01*
X00792290D01*
Y00504460D01*
X00794830D01*
Y00509540D01*
X00792290D01*
Y00512080D01*
X00787210D01*
Y00509540D01*
X00784670D01*
Y00504460D01*
X00787210D01*
X00831960Y00569960D02*
Y00567420D01*
X00837040D01*
Y00569960D01*
X00839580D01*
Y00575040D01*
X00837040D01*
Y00577580D01*
X00831960D01*
Y00575040D01*
X00829420D01*
Y00569960D01*
X00831960D01*
X01171710Y00170210D02*
Y00167670D01*
X01176790D01*
Y00170210D01*
X01179330D01*
Y00175290D01*
X01176790D01*
Y00177830D01*
X01171710D01*
Y00175290D01*
X01169170D01*
Y00170210D01*
X01171710D01*
X01274210Y00336210D02*
Y00333670D01*
X01279290D01*
Y00336210D01*
X01281830D01*
Y00341290D01*
X01279290D01*
Y00343830D01*
X01274210D01*
Y00341290D01*
X01271670D01*
Y00336210D01*
X01274210D01*
X00390710Y00348460D02*
Y00345920D01*
X00395790D01*
Y00348460D01*
X00398330D01*
Y00353540D01*
X00395790D01*
Y00356080D01*
X00390710D01*
Y00353540D01*
X00388170D01*
Y00348460D01*
X00390710D01*
Y00598710D02*
Y00596170D01*
X00395790D01*
Y00598710D01*
X00398330D01*
Y00603790D01*
X00395790D01*
Y00606330D01*
X00390710D01*
Y00603790D01*
X00388170D01*
Y00598710D01*
X00390710D01*
X00985710Y00449460D02*
Y00446920D01*
X00990790D01*
Y00449460D01*
X00993330D01*
Y00454540D01*
X00990790D01*
Y00457080D01*
X00985710D01*
Y00454540D01*
X00983170D01*
Y00449460D01*
X00985710D01*
X00961385Y00535824D02*
Y00533284D01*
X00966465D01*
Y00535824D01*
X00969005D01*
Y00540904D01*
X00966465D01*
Y00543444D01*
X00961385D01*
Y00540904D01*
X00958845D01*
Y00535824D01*
X00961385D01*
X00580210Y00397960D02*
Y00395420D01*
X00585290D01*
Y00397960D01*
X00587830D01*
Y00403040D01*
X00585290D01*
Y00405580D01*
X00580210D01*
Y00403040D01*
X00577670D01*
Y00397960D01*
X00580210D01*
X00542460Y00338460D02*
Y00335920D01*
X00547540D01*
Y00338460D01*
X00550080D01*
Y00343540D01*
X00547540D01*
Y00346080D01*
X00542460D01*
Y00343540D01*
X00539920D01*
Y00338460D01*
X00542460D01*
X01102710Y00431960D02*
Y00429420D01*
X01107790D01*
Y00431960D01*
X01110330D01*
Y00437040D01*
X01107790D01*
Y00439580D01*
X01102710D01*
Y00437040D01*
X01100170D01*
Y00431960D01*
X01102710D01*
X00173710Y00459460D02*
Y00456920D01*
X00178790D01*
Y00459460D01*
X00181330D01*
Y00464540D01*
X00178790D01*
Y00467080D01*
X00173710D01*
Y00464540D01*
X00171170D01*
Y00459460D01*
X00173710D01*
X00390210Y00503460D02*
Y00500920D01*
X00395290D01*
Y00503460D01*
X00397830D01*
Y00508540D01*
X00395290D01*
Y00511080D01*
X00390210D01*
Y00508540D01*
X00387670D01*
Y00503460D01*
X00390210D01*
D94*
X00452874Y00290753D02*
G03*
X00452874Y00290753I-00005080J00000000D01*
G01*
X00427474D02*
G03*
X00427474Y00290753I-00005080J00000000D01*
G01*
X00452874Y00493953D02*
G03*
X00452874Y00493953I-00005080J00000000D01*
G01*
X00427474Y00468553D02*
G03*
X00427474Y00468553I-00005080J00000000D01*
G01*
X00452874D02*
G03*
X00452874Y00468553I-00005080J00000000D01*
G01*
Y00417753D02*
G03*
X00452874Y00417753I-00005080J00000000D01*
G01*
X00427474Y00443153D02*
G03*
X00427474Y00443153I-00005080J00000000D01*
G01*
Y00417753D02*
G03*
X00427474Y00417753I-00005080J00000000D01*
G01*
X00452874Y00519353D02*
G03*
X00452874Y00519353I-00005080J00000000D01*
G01*
Y00443153D02*
G03*
X00452874Y00443153I-00005080J00000000D01*
G01*
X00427474Y00493953D02*
G03*
X00427474Y00493953I-00005080J00000000D01*
G01*
Y00595553D02*
G03*
X00427474Y00595553I-00005080J00000000D01*
G01*
X00452874Y00392353D02*
G03*
X00452874Y00392353I-00005080J00000000D01*
G01*
Y00366953D02*
G03*
X00452874Y00366953I-00005080J00000000D01*
G01*
X00427474D02*
G03*
X00427474Y00366953I-00005080J00000000D01*
G01*
Y00392353D02*
G03*
X00427474Y00392353I-00005080J00000000D01*
G01*
Y00620953D02*
G03*
X00427474Y00620953I-00005080J00000000D01*
G01*
X00452874D02*
G03*
X00452874Y00620953I-00005080J00000000D01*
G01*
Y00646353D02*
G03*
X00452874Y00646353I-00005080J00000000D01*
G01*
X00427474D02*
G03*
X00427474Y00646353I-00005080J00000000D01*
G01*
X00452874Y00849553D02*
G03*
X00452874Y00849553I-00005080J00000000D01*
G01*
X00427474Y00824153D02*
G03*
X00427474Y00824153I-00005080J00000000D01*
G01*
X00452874Y00798753D02*
G03*
X00452874Y00798753I-00005080J00000000D01*
G01*
X00427474D02*
G03*
X00427474Y00798753I-00005080J00000000D01*
G01*
X00452874Y00773353D02*
G03*
X00452874Y00773353I-00005080J00000000D01*
G01*
X00427474D02*
G03*
X00427474Y00773353I-00005080J00000000D01*
G01*
Y00747953D02*
G03*
X00427474Y00747953I-00005080J00000000D01*
G01*
Y00722553D02*
G03*
X00427474Y00722553I-00005080J00000000D01*
G01*
Y00697153D02*
G03*
X00427474Y00697153I-00005080J00000000D01*
G01*
X00452874Y00722553D02*
G03*
X00452874Y00722553I-00005080J00000000D01*
G01*
Y00697153D02*
G03*
X00452874Y00697153I-00005080J00000000D01*
G01*
Y00671753D02*
G03*
X00452874Y00671753I-00005080J00000000D01*
G01*
X00427474D02*
G03*
X00427474Y00671753I-00005080J00000000D01*
G01*
X00452874Y00341553D02*
G03*
X00452874Y00341553I-00005080J00000000D01*
G01*
X00427474D02*
G03*
X00427474Y00341553I-00005080J00000000D01*
G01*
Y00519353D02*
G03*
X00427474Y00519353I-00005080J00000000D01*
G01*
X00452874Y00595553D02*
G03*
X00452874Y00595553I-00005080J00000000D01*
G01*
X00427474Y00570153D02*
G03*
X00427474Y00570153I-00005080J00000000D01*
G01*
X00452874Y00747953D02*
G03*
X00452874Y00747953I-00005080J00000000D01*
G01*
X00427474Y00849553D02*
G03*
X00427474Y00849553I-00005080J00000000D01*
G01*
X00452874Y00824153D02*
G03*
X00452874Y00824153I-00005080J00000000D01*
G01*
Y00544753D02*
G03*
X00452874Y00544753I-00005080J00000000D01*
G01*
Y00570153D02*
G03*
X00452874Y00570153I-00005080J00000000D01*
G01*
X00427474Y00544753D02*
G03*
X00427474Y00544753I-00005080J00000000D01*
G01*
X00452874Y00316153D02*
G03*
X00452874Y00316153I-00005080J00000000D01*
G01*
X00427474D02*
G03*
X00427474Y00316153I-00005080J00000000D01*
G01*
X00935700Y00290780D02*
G03*
X00935700Y00290780I-00005080J00000000D01*
G01*
X00910300D02*
G03*
X00910300Y00290780I-00005080J00000000D01*
G01*
X00935700Y00493980D02*
G03*
X00935700Y00493980I-00005080J00000000D01*
G01*
X00910300Y00468580D02*
G03*
X00910300Y00468580I-00005080J00000000D01*
G01*
X00935700D02*
G03*
X00935700Y00468580I-00005080J00000000D01*
G01*
Y00417780D02*
G03*
X00935700Y00417780I-00005080J00000000D01*
G01*
X00910300Y00443180D02*
G03*
X00910300Y00443180I-00005080J00000000D01*
G01*
Y00417780D02*
G03*
X00910300Y00417780I-00005080J00000000D01*
G01*
X00935700Y00519380D02*
G03*
X00935700Y00519380I-00005080J00000000D01*
G01*
Y00443180D02*
G03*
X00935700Y00443180I-00005080J00000000D01*
G01*
X00910300Y00493980D02*
G03*
X00910300Y00493980I-00005080J00000000D01*
G01*
Y00595580D02*
G03*
X00910300Y00595580I-00005080J00000000D01*
G01*
X00935700Y00392380D02*
G03*
X00935700Y00392380I-00005080J00000000D01*
G01*
Y00366980D02*
G03*
X00935700Y00366980I-00005080J00000000D01*
G01*
X00910300D02*
G03*
X00910300Y00366980I-00005080J00000000D01*
G01*
Y00392380D02*
G03*
X00910300Y00392380I-00005080J00000000D01*
G01*
Y00620980D02*
G03*
X00910300Y00620980I-00005080J00000000D01*
G01*
X00935700D02*
G03*
X00935700Y00620980I-00005080J00000000D01*
G01*
Y00646380D02*
G03*
X00935700Y00646380I-00005080J00000000D01*
G01*
X00910300D02*
G03*
X00910300Y00646380I-00005080J00000000D01*
G01*
X00935700Y00849580D02*
G03*
X00935700Y00849580I-00005080J00000000D01*
G01*
X00910300Y00824180D02*
G03*
X00910300Y00824180I-00005080J00000000D01*
G01*
X00935700Y00798780D02*
G03*
X00935700Y00798780I-00005080J00000000D01*
G01*
X00910300D02*
G03*
X00910300Y00798780I-00005080J00000000D01*
G01*
X00935700Y00773380D02*
G03*
X00935700Y00773380I-00005080J00000000D01*
G01*
X00910300D02*
G03*
X00910300Y00773380I-00005080J00000000D01*
G01*
Y00747980D02*
G03*
X00910300Y00747980I-00005080J00000000D01*
G01*
Y00722580D02*
G03*
X00910300Y00722580I-00005080J00000000D01*
G01*
Y00697180D02*
G03*
X00910300Y00697180I-00005080J00000000D01*
G01*
X00935700Y00722580D02*
G03*
X00935700Y00722580I-00005080J00000000D01*
G01*
Y00697180D02*
G03*
X00935700Y00697180I-00005080J00000000D01*
G01*
Y00671780D02*
G03*
X00935700Y00671780I-00005080J00000000D01*
G01*
X00910300D02*
G03*
X00910300Y00671780I-00005080J00000000D01*
G01*
X00935700Y00341580D02*
G03*
X00935700Y00341580I-00005080J00000000D01*
G01*
X00910300D02*
G03*
X00910300Y00341580I-00005080J00000000D01*
G01*
Y00519380D02*
G03*
X00910300Y00519380I-00005080J00000000D01*
G01*
X00935700Y00595580D02*
G03*
X00935700Y00595580I-00005080J00000000D01*
G01*
X00910300Y00570180D02*
G03*
X00910300Y00570180I-00005080J00000000D01*
G01*
X00935700Y00747980D02*
G03*
X00935700Y00747980I-00005080J00000000D01*
G01*
X00910300Y00849580D02*
G03*
X00910300Y00849580I-00005080J00000000D01*
G01*
X00935700Y00824180D02*
G03*
X00935700Y00824180I-00005080J00000000D01*
G01*
Y00544780D02*
G03*
X00935700Y00544780I-00005080J00000000D01*
G01*
Y00570180D02*
G03*
X00935700Y00570180I-00005080J00000000D01*
G01*
X00910300Y00544780D02*
G03*
X00910300Y00544780I-00005080J00000000D01*
G01*
X00935700Y00316180D02*
G03*
X00935700Y00316180I-00005080J00000000D01*
G01*
X00910300D02*
G03*
X00910300Y00316180I-00005080J00000000D01*
G01*
X00308660Y00659150D02*
G03*
X00308660Y00659150I-00005080J00000000D01*
G01*
Y00684550D02*
G03*
X00308660Y00684550I-00005080J00000000D01*
G01*
Y00709950D02*
G03*
X00308660Y00709950I-00005080J00000000D01*
G01*
Y00735350D02*
G03*
X00308660Y00735350I-00005080J00000000D01*
G01*
X00265480Y00722650D02*
G03*
X00265480Y00722650I-00005080J00000000D01*
G01*
Y00671850D02*
G03*
X00265480Y00671850I-00005080J00000000D01*
G01*
Y00697250D02*
G03*
X00265480Y00697250I-00005080J00000000D01*
G01*
X01082930Y00700750D02*
G03*
X01082930Y00700750I-00005080J00000000D01*
G01*
Y00726150D02*
G03*
X01082930Y00726150I-00005080J00000000D01*
G01*
Y00675350D02*
G03*
X01082930Y00675350I-00005080J00000000D01*
G01*
X01039750Y00662650D02*
G03*
X01039750Y00662650I-00005080J00000000D01*
G01*
Y00688050D02*
G03*
X01039750Y00688050I-00005080J00000000D01*
G01*
Y00713450D02*
G03*
X01039750Y00713450I-00005080J00000000D01*
G01*
Y00738850D02*
G03*
X01039750Y00738850I-00005080J00000000D01*
G01*
M02*
