%FSLAX44Y44*%
%MOMM*%
G71*
G01*
G75*
G04 Layer_Color=16711935*
%ADD10O,1.9500X0.6000*%
%ADD11R,1.5000X1.0000*%
%ADD12R,1.0000X1.5000*%
%ADD13R,0.8000X1.2000*%
%ADD14R,1.2000X0.6000*%
%ADD15R,2.2000X1.2000*%
%ADD16R,3.0500X1.1000*%
%ADD17R,6.5000X5.5500*%
%ADD18R,1.1000X3.0500*%
%ADD19R,5.5500X6.5000*%
%ADD20R,1.1000X1.3500*%
%ADD21R,1.3500X1.1000*%
%ADD22R,1.2500X1.4500*%
%ADD23R,1.4500X1.2500*%
%ADD24R,1.5000X1.2000*%
%ADD25R,1.5000X1.0000*%
%ADD26C,1.0000*%
%ADD27C,0.6000*%
%ADD28C,1.5000*%
%ADD29C,0.8000*%
%ADD30C,0.4000*%
%ADD31C,0.3000*%
%ADD32C,0.2000*%
%ADD33R,1.5000X1.5000*%
%ADD34C,1.5000*%
%ADD35R,1.5000X1.5000*%
%ADD36R,1.5240X1.5240*%
%ADD37C,1.5240*%
%ADD38C,4.7600*%
%ADD39R,1.6900X1.6900*%
%ADD40C,1.6900*%
%ADD41O,2.5000X1.5000*%
%ADD42C,0.7000*%
%ADD43C,1.2700*%
%ADD44R,5.3000X2.8000*%
%ADD45R,6.0000X2.1000*%
%ADD46R,3.9500X2.0500*%
%ADD47R,9.4000X6.8000*%
%ADD48R,2.4500X2.5500*%
%ADD49R,8.0000X10.0000*%
%ADD50C,0.5000*%
%ADD51C,0.2500*%
%ADD52C,0.2540*%
%ADD53C,0.0254*%
%ADD54C,0.1000*%
%ADD55C,0.1540*%
%ADD56C,0.1500*%
%ADD57O,2.1500X0.8000*%
%ADD58R,1.7000X1.2000*%
%ADD59R,1.2000X1.7000*%
%ADD60R,1.0000X1.4000*%
%ADD61R,1.4000X0.8000*%
%ADD62R,2.4000X1.4000*%
%ADD63R,3.2500X1.3000*%
%ADD64R,6.7000X5.7500*%
%ADD65R,1.3000X3.2500*%
%ADD66R,5.7500X6.7000*%
%ADD67R,1.3000X1.5500*%
%ADD68R,1.5500X1.3000*%
%ADD69R,1.4500X1.6500*%
%ADD70R,1.6500X1.4500*%
%ADD71R,1.7000X1.4000*%
%ADD72R,1.7000X1.2000*%
%ADD73R,1.7000X1.7000*%
%ADD74C,1.7000*%
%ADD75R,1.7000X1.7000*%
%ADD76R,1.6256X1.6256*%
%ADD77C,1.6256*%
%ADD78C,4.9600*%
%ADD79R,1.8900X1.8900*%
%ADD80C,1.8900*%
%ADD81O,2.7000X1.7000*%
%ADD82C,0.9000*%
%ADD83C,1.4700*%
%ADD84R,5.5000X3.0000*%
%ADD85R,6.2000X2.3000*%
%ADD86R,4.1500X2.2500*%
%ADD87R,9.6000X7.0000*%
%ADD88R,2.6500X2.7500*%
%ADD89R,8.2000X10.2000*%
%ADD90R,1.3080X1.0160*%
%ADD91R,1.3330X1.0160*%
%ADD92R,4.6000X1.0222*%
D54*
X656000Y680000D02*
G03*
X656000Y680000I-5000J0D01*
G01*
X173250Y520750D02*
G03*
X173250Y520750I-5000J0D01*
G01*
X1075500Y545250D02*
G03*
X1075500Y545250I-5000J0D01*
G01*
X660500Y670500D02*
Y720500D01*
X620500Y670500D02*
Y720500D01*
Y670500D02*
X660500D01*
X620500Y720500D02*
X660500D01*
X746500Y413000D02*
X761000D01*
X746500Y435000D02*
X761000D01*
X746500Y413000D02*
Y435000D01*
X761000Y413000D02*
Y435000D01*
X81000Y493250D02*
Y515250D01*
X66500Y493250D02*
Y515250D01*
X81000D01*
X66500Y493250D02*
X81000D01*
X131750Y970000D02*
X146250D01*
X131750Y948000D02*
X146250D01*
X131750D02*
Y970000D01*
X146250Y948000D02*
Y970000D01*
X1204250Y948500D02*
Y970500D01*
X1189750Y948500D02*
Y970500D01*
Y948500D02*
X1204250D01*
X1189750Y970500D02*
X1204250D01*
X269000Y230750D02*
X283500D01*
X269000Y208750D02*
X283500D01*
X269000D02*
Y230750D01*
X283500Y208750D02*
Y230750D01*
X1228500Y380000D02*
Y402000D01*
X1214000Y380000D02*
Y402000D01*
Y380000D02*
X1228500D01*
X1214000Y402000D02*
X1228500D01*
X151500Y341250D02*
Y355750D01*
X129500Y341250D02*
Y355750D01*
Y341250D02*
X151500D01*
X129500Y355750D02*
X151500D01*
X1071250Y422750D02*
X1093250D01*
X1071250Y408250D02*
X1093250D01*
X1071250D02*
Y422750D01*
X1093250Y408250D02*
Y422750D01*
X698500Y582750D02*
X713000D01*
X698500Y604750D02*
X713000D01*
X698500Y582750D02*
Y604750D01*
X713000Y582750D02*
Y604750D01*
X68500Y308750D02*
X90500D01*
X68500Y294250D02*
X90500D01*
X68500D02*
Y308750D01*
X90500Y294250D02*
Y308750D01*
X185750Y970000D02*
X200250D01*
X185750Y948000D02*
X200250D01*
X185750D02*
Y970000D01*
X200250Y948000D02*
Y970000D01*
X1158250Y948500D02*
Y970500D01*
X1143750Y948500D02*
Y970500D01*
Y948500D02*
X1158250D01*
X1143750Y970500D02*
X1158250D01*
X86750Y213500D02*
X101250D01*
X86750Y235500D02*
X101250D01*
Y213500D02*
Y235500D01*
X86750Y213500D02*
Y235500D01*
X1076000Y266250D02*
X1098000D01*
X1076000Y251750D02*
X1098000D01*
Y266250D01*
X1076000Y251750D02*
Y266250D01*
X157500Y193750D02*
Y208250D01*
X135500Y193750D02*
Y208250D01*
Y193750D02*
X157500D01*
X135500Y208250D02*
X157500D01*
X1110750Y263500D02*
X1132750D01*
X1110750Y249000D02*
X1132750D01*
X1110750D02*
Y263500D01*
X1132750Y249000D02*
Y263500D01*
X250250Y948000D02*
Y970000D01*
X235750Y948000D02*
Y970000D01*
Y948000D02*
X250250D01*
X235750Y970000D02*
X250250D01*
X1091750Y970500D02*
X1106250D01*
X1091750Y948500D02*
X1106250D01*
X1091750D02*
Y970500D01*
X1106250Y948500D02*
Y970500D01*
X65750Y443500D02*
Y465500D01*
X80250Y443500D02*
Y465500D01*
X65750Y443500D02*
X80250D01*
X65750Y465500D02*
X80250D01*
X286000Y970000D02*
X300500D01*
X286000Y948000D02*
X300500D01*
X286000D02*
Y970000D01*
X300500Y948000D02*
Y970000D01*
X1056250Y948500D02*
Y970500D01*
X1041750Y948500D02*
Y970500D01*
Y948500D02*
X1056250D01*
X1041750Y970500D02*
X1056250D01*
X300000Y376000D02*
X314500D01*
X300000Y398000D02*
X314500D01*
X300000Y376000D02*
Y398000D01*
X314500Y376000D02*
Y398000D01*
X314250Y429250D02*
Y451250D01*
X299750Y429250D02*
Y451250D01*
X314250D01*
X299750Y429250D02*
X314250D01*
X366000Y345500D02*
Y360000D01*
X344000Y345500D02*
Y360000D01*
Y345500D02*
X366000D01*
X344000Y360000D02*
X366000D01*
X993250Y473000D02*
Y495000D01*
X1007750Y473000D02*
Y495000D01*
X993250Y473000D02*
X1007750D01*
X993250Y495000D02*
X1007750D01*
X1017000Y358500D02*
Y373000D01*
X995000Y358500D02*
Y373000D01*
Y358500D02*
X1017000D01*
X995000Y373000D02*
X1017000D01*
X1006500Y527750D02*
Y549750D01*
X992000Y527750D02*
Y549750D01*
X1006500D01*
X992000Y527750D02*
X1006500D01*
X1255500Y459500D02*
X1270000D01*
X1255500Y481500D02*
X1270000D01*
X1255500Y459500D02*
Y481500D01*
X1270000Y459500D02*
Y481500D01*
X1205500Y315500D02*
X1227500D01*
X1205500Y301000D02*
X1227500D01*
X1205500D02*
Y315500D01*
X1227500Y301000D02*
Y315500D01*
X501500Y710500D02*
Y725000D01*
X523500Y710500D02*
Y725000D01*
X501500D02*
X523500D01*
X501500Y710500D02*
X523500D01*
X502500Y678250D02*
X524500D01*
X502500Y692750D02*
X524500D01*
Y678250D02*
Y692750D01*
X502500Y678250D02*
Y692750D01*
X1254250Y405000D02*
X1268750D01*
X1254250Y427000D02*
X1268750D01*
X1254250Y405000D02*
Y427000D01*
X1268750Y405000D02*
Y427000D01*
X1238000Y355250D02*
X1252000D01*
X1238000Y380750D02*
X1252000D01*
Y355250D02*
Y380750D01*
X1238000Y355250D02*
Y380750D01*
X348500Y409000D02*
Y434500D01*
X362500Y409000D02*
Y434500D01*
X348500D02*
X362500D01*
X348500Y409000D02*
X362500D01*
X157850Y250500D02*
X211150D01*
X157850Y189500D02*
X211150D01*
X157850D02*
Y250500D01*
X211150Y189500D02*
Y250500D01*
X1257900Y204500D02*
Y265500D01*
X1204600Y204500D02*
Y265500D01*
Y204500D02*
X1257900D01*
X1204600Y265500D02*
X1257900D01*
X1013750Y825250D02*
X1028250D01*
X1013750Y847250D02*
X1028250D01*
Y825250D02*
Y847250D01*
X1013750Y825250D02*
Y847250D01*
X78250Y305750D02*
Y372750D01*
X140250Y305750D02*
Y372750D01*
X78250Y305750D02*
X140250D01*
X78250Y372750D02*
X140250D01*
X1054000Y333500D02*
X1116000D01*
X1054000Y400500D02*
X1116000D01*
X1054000Y333500D02*
Y400500D01*
X1116000Y333500D02*
Y400500D01*
X150000Y252000D02*
Y319000D01*
X212000Y252000D02*
Y319000D01*
X150000D02*
X212000D01*
X150000Y252000D02*
X212000D01*
X1086250Y317500D02*
X1148250D01*
X1086250Y384500D02*
X1148250D01*
Y317500D02*
Y384500D01*
X1086250Y317500D02*
Y384500D01*
X726750Y689750D02*
X793750D01*
X726750Y751750D02*
X793750D01*
X726750Y689750D02*
Y751750D01*
X793750Y689750D02*
Y751750D01*
X193750Y496250D02*
Y600750D01*
X285150Y496250D02*
Y600750D01*
X193750Y496250D02*
X285150D01*
X193750Y600750D02*
X285150D01*
X1070600Y576500D02*
X1162000D01*
X1070600Y472000D02*
X1162000D01*
X1070600D02*
Y576500D01*
X1162000Y472000D02*
Y576500D01*
X90500Y260750D02*
Y274250D01*
X69500Y260750D02*
Y274250D01*
Y260750D02*
X90500D01*
X69500Y274250D02*
X90500D01*
X272000Y428750D02*
Y449750D01*
X258500Y428750D02*
Y449750D01*
X272000D01*
X258500Y428750D02*
X272000D01*
X258500Y375250D02*
X272000D01*
X258500Y396250D02*
X272000D01*
X258500Y375250D02*
Y396250D01*
X272000Y375250D02*
Y396250D01*
X637750Y557750D02*
Y578750D01*
X651250Y557750D02*
Y578750D01*
X637750Y557750D02*
X651250D01*
X637750Y578750D02*
X651250D01*
X622500Y321250D02*
X636000D01*
X622500Y342250D02*
X636000D01*
X622500Y321250D02*
Y342250D01*
X636000Y321250D02*
Y342250D01*
X995750Y336250D02*
X1016750D01*
X995750Y322750D02*
X1016750D01*
X995750D02*
Y336250D01*
X1016750Y322750D02*
Y336250D01*
X1197250Y457000D02*
X1210750D01*
X1197250Y478000D02*
X1210750D01*
X1197250Y457000D02*
Y478000D01*
X1210750Y457000D02*
Y478000D01*
X1211250Y404750D02*
Y425750D01*
X1197750Y404750D02*
Y425750D01*
X1211250D01*
X1197750Y404750D02*
X1211250D01*
X641750Y411750D02*
X655250D01*
X641750Y432750D02*
X655250D01*
X641750Y411750D02*
Y432750D01*
X655250Y411750D02*
Y432750D01*
X580750Y320500D02*
Y341500D01*
X567250Y320500D02*
Y341500D01*
X580750D01*
X567250Y320500D02*
X580750D01*
X189250Y340500D02*
Y355000D01*
X211250Y340500D02*
Y355000D01*
X189250D02*
X211250D01*
X189250Y340500D02*
X211250D01*
X1124250Y406750D02*
X1146250D01*
X1124250Y421250D02*
X1146250D01*
Y406750D02*
Y421250D01*
X1124250Y406750D02*
Y421250D01*
X737750Y583250D02*
X752250D01*
X737750Y605250D02*
X752250D01*
X737750Y583250D02*
Y605250D01*
X752250Y583250D02*
Y605250D01*
X767000Y793000D02*
Y807500D01*
X745000Y793000D02*
Y807500D01*
Y793000D02*
X767000D01*
X745000Y807500D02*
X767000D01*
X158750Y442750D02*
Y530250D01*
X198750Y442750D02*
Y530250D01*
X158750D02*
X198750D01*
X158750Y442750D02*
X198750D01*
X1061000Y467250D02*
X1101000D01*
X1061000Y554750D02*
X1101000D01*
Y467250D02*
Y554750D01*
X1061000Y467250D02*
Y554750D01*
X347000Y749750D02*
Y771750D01*
X361500Y749750D02*
Y771750D01*
X347000D02*
X361500D01*
X347000Y749750D02*
X361500D01*
X527500Y896500D02*
Y972500D01*
X573500Y896500D02*
Y972500D01*
X527500D02*
X573500D01*
X527500Y896500D02*
X573500D01*
X444250Y895750D02*
Y971750D01*
X490250Y895750D02*
Y971750D01*
X444250D02*
X490250D01*
X444250Y895750D02*
X490250D01*
X361500Y894000D02*
X407500D01*
X361500Y970000D02*
X407500D01*
Y894000D02*
Y970000D01*
X361500Y894000D02*
Y970000D01*
X958000Y899750D02*
X1004000D01*
X958000Y975750D02*
X1004000D01*
Y899750D02*
Y975750D01*
X958000Y899750D02*
Y975750D01*
X867000Y899750D02*
X913000D01*
X867000Y975750D02*
X913000D01*
Y899750D02*
Y975750D01*
X867000Y899750D02*
Y975750D01*
X780500Y900000D02*
Y976000D01*
X826500Y900000D02*
Y976000D01*
X780500D02*
X826500D01*
X780500Y900000D02*
X826500D01*
D92*
X550500Y901612D02*
D03*
X467250Y900862D02*
D03*
X384500Y899112D02*
D03*
X981000Y904862D02*
D03*
X890000D02*
D03*
X803500Y905112D02*
D03*
M02*
