%FSAX44Y44*%
%MOMM*%
G71*
G01*
G75*
%ADD10O,1.9500X0.6000*%
%ADD11R,1.5000X1.0000*%
%ADD12R,1.0000X1.5000*%
%ADD13R,0.8000X1.2000*%
%ADD14R,1.2000X0.6000*%
%ADD15R,2.2000X1.2000*%
%ADD16R,3.0500X1.1000*%
%ADD17R,6.5000X5.5500*%
%ADD18R,1.1000X3.0500*%
%ADD19R,5.5500X6.5000*%
%ADD20R,1.1000X1.3500*%
%ADD21R,1.3500X1.1000*%
%ADD22R,1.2500X1.4500*%
%ADD23R,1.4500X1.2500*%
%ADD24R,1.5000X1.2000*%
%ADD25R,1.5000X1.0000*%
%ADD26C,1.0000*%
%ADD27C,0.6000*%
%ADD28C,1.5000*%
%ADD29C,0.8000*%
%ADD30C,0.4000*%
%ADD31C,0.3000*%
%ADD32C,0.2000*%
%ADD33R,1.5000X1.5000*%
%ADD34C,1.5000*%
%ADD35R,1.5000X1.5000*%
%ADD36R,1.5240X1.5240*%
%ADD37C,1.5240*%
%ADD38C,4.7600*%
%ADD39R,1.6900X1.6900*%
%ADD40C,1.6900*%
%ADD41O,2.5000X1.5000*%
%ADD42C,0.7000*%
%ADD43C,1.2700*%
%ADD44R,5.3000X2.8000*%
%ADD45R,6.0000X2.1000*%
%ADD46R,3.9500X2.0500*%
%ADD47R,9.4000X6.8000*%
%ADD48R,2.4500X2.5500*%
%ADD49R,8.0000X10.0000*%
%ADD50C,0.5000*%
%ADD51C,0.2500*%
%ADD52C,0.2540*%
%ADD53C,0.0254*%
%ADD54C,0.1000*%
%ADD55C,0.1540*%
%ADD56C,0.1500*%
D27*
X00645250Y00680500D02*
G03*
X00645250Y00680500I-00003000J00000000D01*
G01*
X00180000Y00520500D02*
G03*
X00180000Y00520500I-00003000J00000000D01*
G01*
X01082250Y00545000D02*
G03*
X01082250Y00545000I-00003000J00000000D01*
G01*
D32*
X00364150Y00017200D02*
G03*
X00371100Y00010250I00006950J00000000D01*
G01*
X00364100Y00063250D02*
G03*
X00357150Y00070200I-00006950J00000000D01*
G01*
X00534400Y00010250D02*
G03*
X00541350Y00017200I00000000J00006950D01*
G01*
X00548350Y00070200D02*
G03*
X00541400Y00063250I00000000J-00006950D01*
G01*
X00730900Y00016450D02*
G03*
X00737850Y00009500I00006950J00000000D01*
G01*
X00730850Y00062500D02*
G03*
X00723900Y00069450I-00006950J00000000D01*
G01*
X00901150Y00009500D02*
G03*
X00908100Y00016450I00000000J00006950D01*
G01*
X00915100Y00069450D02*
G03*
X00908150Y00062500I00000000J-00006950D01*
G01*
X00731100Y00950800D02*
Y00976200D01*
X00680300Y00950800D02*
X00731100D01*
X00680300D02*
Y00976200D01*
X00731100D01*
X00655850Y00951550D02*
Y00976950D01*
X00605050Y00951550D02*
X00655850D01*
X00605050D02*
Y00976950D01*
X00655850D01*
X00653300Y00306400D02*
X00678700D01*
X00653300D02*
Y00357200D01*
X00678700D01*
Y00306400D02*
Y00357200D01*
X01309300Y00873350D02*
X01334700D01*
Y00822550D02*
Y00873350D01*
X01309300Y00822550D02*
X01334700D01*
X01309300D02*
Y00873350D01*
X00020800Y00881600D02*
X00046200D01*
Y00830800D02*
Y00881600D01*
X00020800Y00830800D02*
X00046200D01*
X00020800D02*
Y00881600D01*
X00410722Y00276125D02*
X00426472D01*
X00893548Y00276152D02*
X00909298D01*
X00652250Y00670500D02*
Y00720500D01*
X00628750Y00670500D02*
Y00720500D01*
Y00670500D02*
X00652250D01*
X00628750Y00720500D02*
X00652250D01*
X01043100Y00227550D02*
Y00252950D01*
X00992300Y00227550D02*
X01043100D01*
X00992300D02*
Y00252950D01*
X01043100D01*
X00302800Y00319850D02*
X00328200D01*
Y00269050D02*
Y00319850D01*
X00302800Y00269050D02*
X00328200D01*
X00302800D02*
Y00319850D01*
X00364100Y00017250D02*
Y00063250D01*
X00541400Y00017250D02*
Y00063250D01*
X00522750Y00100250D02*
Y00194250D01*
X00298750Y00070250D02*
X00606750D01*
X00382750Y00100250D02*
Y00194250D01*
X00298750Y00194250D02*
X00606750D01*
X00371100Y00010250D02*
X00534400D01*
X00606750Y00070250D02*
Y00194250D01*
X00298750Y00070250D02*
Y00194250D01*
Y00100250D02*
X00606750D01*
X00772800Y00303900D02*
X00798200D01*
X00772800D02*
Y00354700D01*
X00798200D01*
Y00303900D02*
Y00354700D01*
X00730850Y00016500D02*
Y00062500D01*
X00908150Y00016500D02*
Y00062500D01*
X00889500Y00099500D02*
Y00193500D01*
X00665500Y00069500D02*
X00973500D01*
X00749500Y00099500D02*
Y00193500D01*
X00665500Y00193500D02*
X00973500D01*
X00737850Y00009500D02*
X00901150D01*
X00973500Y00069500D02*
Y00193500D01*
X00665500Y00069500D02*
Y00193500D01*
Y00099500D02*
X00973500D01*
X01111900Y00099800D02*
Y00125200D01*
X01162700D01*
Y00099800D02*
Y00125200D01*
X01111900Y00099800D02*
X01162700D01*
X01252000Y00355250D02*
Y00361000D01*
X01247000Y00355250D02*
X01252000D01*
Y00375000D02*
Y00380750D01*
X01247000D02*
X01252000D01*
X00357500Y00434500D02*
X00362500D01*
Y00428750D02*
Y00434500D01*
X00357500Y00409000D02*
X00362500D01*
Y00414750D01*
X01168500Y00533250D02*
X01277250D01*
Y00593000D01*
X01168500D02*
X01277250D01*
X01168500Y00533250D02*
Y00592500D01*
X00252000Y00465250D02*
Y00524500D01*
Y00525000D02*
X00360750D01*
Y00465250D02*
Y00525000D01*
X00252000Y00465250D02*
X00360750D01*
X00150000Y00319000D02*
X00158000D01*
X00150000Y00252000D02*
Y00319000D01*
Y00252000D02*
X00158000D01*
X01086250Y00317500D02*
X01094250D01*
X01086250D02*
Y00384500D01*
X01094250D01*
X00726750Y00689750D02*
Y00697750D01*
Y00689750D02*
X00793750D01*
Y00697750D01*
X00707500Y00442250D02*
X00717500D01*
Y00393750D02*
Y00442250D01*
X00692500Y00393750D02*
X00717500D01*
X00692500D02*
Y00442250D01*
X00707500D01*
X00167000Y00442500D02*
Y00530500D01*
X00190500Y00442500D02*
Y00530500D01*
X00167000D02*
X00190500D01*
X00167000Y00442500D02*
X00190500D01*
X01069250Y00467000D02*
X01092750D01*
X01069250Y00555000D02*
X01092750D01*
Y00467000D02*
Y00555000D01*
X01069250Y00467000D02*
Y00555000D01*
X00160050Y00132700D02*
X00210850D01*
X00160050Y00107300D02*
Y00132700D01*
Y00107300D02*
X00210850D01*
Y00132700D01*
D51*
X00667250Y00667950D02*
G03*
X00667250Y00667950I-00001250J00000000D01*
G01*
X01227500Y00383000D02*
G03*
X01227500Y00383000I-00001250J00000000D01*
G01*
X00338000Y00436750D02*
G03*
X00338000Y00436750I-00001250J00000000D01*
G01*
X00112000Y00321000D02*
G03*
X00112000Y00321000I-00001250J00000000D01*
G01*
X01048250Y00386500D02*
G03*
X01048250Y00386500I-00001250J00000000D01*
G01*
X00726000Y00650500D02*
G03*
X00726000Y00650500I-00001250J00000000D01*
G01*
X00154000Y00533500D02*
G03*
X00154000Y00533500I-00001250J00000000D01*
G01*
X01056250Y00558000D02*
G03*
X01056250Y00558000I-00001250J00000000D01*
G01*
D52*
X01173738Y00589433D02*
G03*
X01173750Y00589250I-00001402J-00000183D01*
G01*
X00257238Y00521433D02*
G03*
X00257250Y00521250I-00001402J-00000183D01*
G01*
X00696000Y00445250D02*
X00714000D01*
X00679500Y00990500D02*
Y01005735D01*
X00687117D01*
X00689657Y01003196D01*
Y00998118D01*
X00687117Y00995578D01*
X00679500D01*
X00684578D02*
X00689657Y00990500D01*
X00702353D02*
X00697274D01*
X00694735Y00993039D01*
Y00998118D01*
X00697274Y01000657D01*
X00702353D01*
X00704892Y00998118D01*
Y00995578D01*
X00694735D01*
X00715049Y00985422D02*
X00717588D01*
X00720127Y00987961D01*
Y01000657D01*
X00712509D01*
X00709970Y00998118D01*
Y00993039D01*
X00712509Y00990500D01*
X00720127D01*
X00735362D02*
X00725205D01*
X00735362Y01000657D01*
Y01003196D01*
X00732823Y01005735D01*
X00727744D01*
X00725205Y01003196D01*
X00604500Y00990250D02*
Y01005485D01*
X00612118D01*
X00614657Y01002946D01*
Y00997868D01*
X00612118Y00995328D01*
X00604500D01*
X00609578D02*
X00614657Y00990250D01*
X00627353D02*
X00622274D01*
X00619735Y00992789D01*
Y00997868D01*
X00622274Y01000407D01*
X00627353D01*
X00629892Y00997868D01*
Y00995328D01*
X00619735D01*
X00640049Y00985172D02*
X00642588D01*
X00645127Y00987711D01*
Y01000407D01*
X00637509D01*
X00634970Y00997868D01*
Y00992789D01*
X00637509Y00990250D01*
X00645127D01*
X00650205D02*
X00655284D01*
X00652744D01*
Y01005485D01*
X00650205Y01002946D01*
X01045650Y00583261D02*
X01055807D01*
X01050728D01*
Y00568026D01*
X01071042Y00583261D02*
X01065963D01*
X01068503D01*
Y00570565D01*
X01065963Y00568026D01*
X01063424D01*
X01060885Y00570565D01*
X01076120Y00568026D02*
Y00578183D01*
X01081199Y00583261D01*
X01086277Y00578183D01*
Y00568026D01*
Y00575644D01*
X01076120D01*
X01091355Y00568026D02*
X01096434D01*
X01093894D01*
Y00583261D01*
X01091355Y00580722D01*
X01104051D02*
X01106590Y00583261D01*
X01111669D01*
X01114208Y00580722D01*
Y00570565D01*
X01111669Y00568026D01*
X01106590D01*
X01104051Y00570565D01*
Y00580722D01*
X01126904Y00568026D02*
Y00583261D01*
X01119286Y00575644D01*
X01129443D01*
X01134521Y00580722D02*
X01137060Y00583261D01*
X01142139D01*
X01144678Y00580722D01*
Y00578183D01*
X01142139Y00575644D01*
X01139600D01*
X01142139D01*
X01144678Y00573104D01*
Y00570565D01*
X01142139Y00568026D01*
X01137060D01*
X01134521Y00570565D01*
X00129500Y00555735D02*
X00139657D01*
X00134578D01*
Y00540500D01*
X00154892Y00555735D02*
X00149813D01*
X00152353D01*
Y00543039D01*
X00149813Y00540500D01*
X00147274D01*
X00144735Y00543039D01*
X00159970Y00540500D02*
Y00550657D01*
X00165049Y00555735D01*
X00170127Y00550657D01*
Y00540500D01*
Y00548117D01*
X00159970D01*
X00175205Y00540500D02*
X00180284D01*
X00177744D01*
Y00555735D01*
X00175205Y00553196D01*
X00187901D02*
X00190440Y00555735D01*
X00195519D01*
X00198058Y00553196D01*
Y00543039D01*
X00195519Y00540500D01*
X00190440D01*
X00187901Y00543039D01*
Y00553196D01*
X00210754Y00540500D02*
Y00555735D01*
X00203136Y00548117D01*
X00213293D01*
X00218371Y00553196D02*
X00220910Y00555735D01*
X00225989D01*
X00228528Y00553196D01*
Y00550657D01*
X00225989Y00548117D01*
X00223450D01*
X00225989D01*
X00228528Y00545578D01*
Y00543039D01*
X00225989Y00540500D01*
X00220910D01*
X00218371Y00543039D01*
X00604936Y00746435D02*
X00615093D01*
X00610014D01*
Y00731200D01*
X00630328Y00746435D02*
X00625249D01*
X00627789D01*
Y00733739D01*
X00625249Y00731200D01*
X00622710D01*
X00620171Y00733739D01*
X00635406Y00731200D02*
Y00741357D01*
X00640484Y00746435D01*
X00645563Y00741357D01*
Y00731200D01*
Y00738818D01*
X00635406D01*
X00650641Y00731200D02*
X00655720D01*
X00653180D01*
Y00746435D01*
X00650641Y00743896D01*
X00663337D02*
X00665876Y00746435D01*
X00670955D01*
X00673494Y00743896D01*
Y00733739D01*
X00670955Y00731200D01*
X00665876D01*
X00663337Y00733739D01*
Y00743896D01*
X00688729Y00731200D02*
X00678572D01*
X00688729Y00741357D01*
Y00743896D01*
X00686190Y00746435D01*
X00681111D01*
X00678572Y00743896D01*
X00693807Y00746435D02*
X00703964D01*
Y00743896D01*
X00693807Y00733739D01*
Y00731200D01*
X00554250Y00359500D02*
Y00374735D01*
X00561867D01*
X00564407Y00372196D01*
Y00367118D01*
X00561867Y00364578D01*
X00554250D01*
X00559328D02*
X00564407Y00359500D01*
X00577103D02*
Y00374735D01*
X00569485Y00367118D01*
X00579642D01*
X00594877Y00359500D02*
X00584720D01*
X00594877Y00369657D01*
Y00372196D01*
X00592338Y00374735D01*
X00587259D01*
X00584720Y00372196D01*
X00589750Y00414750D02*
Y00429985D01*
X00597368D01*
X00599907Y00427446D01*
Y00422368D01*
X00597368Y00419828D01*
X00589750D01*
X00594828D02*
X00599907Y00414750D01*
X00604985Y00427446D02*
X00607524Y00429985D01*
X00612603D01*
X00615142Y00427446D01*
Y00424907D01*
X00612603Y00422368D01*
X00610063D01*
X00612603D01*
X00615142Y00419828D01*
Y00417289D01*
X00612603Y00414750D01*
X00607524D01*
X00604985Y00417289D01*
X00627838Y00414750D02*
Y00429985D01*
X00620220Y00422368D01*
X00630377D01*
X01184250Y00374500D02*
Y00389735D01*
X01191868D01*
X01194407Y00387196D01*
Y00382118D01*
X01191868Y00379578D01*
X01184250D01*
X01189328D02*
X01194407Y00374500D01*
X01209642D02*
X01199485D01*
X01209642Y00384657D01*
Y00387196D01*
X01207103Y00389735D01*
X01202024D01*
X01199485Y00387196D01*
X01214720D02*
X01217259Y00389735D01*
X01222338D01*
X01224877Y00387196D01*
Y00384657D01*
X01222338Y00382118D01*
X01219799D01*
X01222338D01*
X01224877Y00379578D01*
Y00377039D01*
X01222338Y00374500D01*
X01217259D01*
X01214720Y00377039D01*
X01181250Y00496000D02*
Y00511235D01*
X01188867D01*
X01191407Y00508696D01*
Y00503618D01*
X01188867Y00501078D01*
X01181250D01*
X01186328D02*
X01191407Y00496000D01*
X01206642D02*
X01196485D01*
X01206642Y00506157D01*
Y00508696D01*
X01204103Y00511235D01*
X01199024D01*
X01196485Y00508696D01*
X01221877Y00496000D02*
X01211720D01*
X01221877Y00506157D01*
Y00508696D01*
X01219338Y00511235D01*
X01214259D01*
X01211720Y00508696D01*
X00990750Y00294250D02*
Y00309485D01*
X00998367D01*
X01000907Y00306946D01*
Y00301868D01*
X00998367Y00299328D01*
X00990750D01*
X00995828D02*
X01000907Y00294250D01*
X01016142D02*
X01005985D01*
X01016142Y00304407D01*
Y00306946D01*
X01013603Y00309485D01*
X01008524D01*
X01005985Y00306946D01*
X01021220Y00294250D02*
X01026299D01*
X01023759D01*
Y00309485D01*
X01021220Y00306946D01*
X00613500Y00359000D02*
Y00374235D01*
X00621118D01*
X00623657Y00371696D01*
Y00366618D01*
X00621118Y00364078D01*
X00613500D01*
X00618578D02*
X00623657Y00359000D01*
X00628735D02*
X00633813D01*
X00631274D01*
Y00374235D01*
X00628735Y00371696D01*
X00649048Y00359000D02*
Y00374235D01*
X00641431Y00366618D01*
X00651588D01*
X00631500Y00594000D02*
Y00609235D01*
X00639118D01*
X00641657Y00606696D01*
Y00601618D01*
X00639118Y00599078D01*
X00631500D01*
X00636578D02*
X00641657Y00594000D01*
X00646735D02*
X00651813D01*
X00649274D01*
Y00609235D01*
X00646735Y00606696D01*
X00659431Y00594000D02*
X00664509D01*
X00661970D01*
Y00609235D01*
X00659431Y00606696D01*
X00252500Y00345250D02*
Y00360485D01*
X00260117D01*
X00262657Y00357946D01*
Y00352868D01*
X00260117Y00350328D01*
X00252500D01*
X00257578D02*
X00262657Y00345250D01*
X00267735Y00357946D02*
X00270274Y00360485D01*
X00275353D01*
X00277892Y00357946D01*
Y00355407D01*
X00275353Y00352868D01*
X00272813D01*
X00275353D01*
X00277892Y00350328D01*
Y00347789D01*
X00275353Y00345250D01*
X00270274D01*
X00267735Y00347789D01*
X00252500Y00465250D02*
Y00480485D01*
X00260117D01*
X00262657Y00477946D01*
Y00472868D01*
X00260117Y00470328D01*
X00252500D01*
X00257578D02*
X00262657Y00465250D01*
X00277892D02*
X00267735D01*
X00277892Y00475407D01*
Y00477946D01*
X00275353Y00480485D01*
X00270274D01*
X00267735Y00477946D01*
X00067500Y00233750D02*
Y00248985D01*
X00075118D01*
X00077657Y00246446D01*
Y00241368D01*
X00075118Y00238828D01*
X00067500D01*
X00072578D02*
X00077657Y00233750D01*
X00082735D02*
X00087813D01*
X00085274D01*
Y00248985D01*
X00082735Y00246446D01*
X00805000Y00706750D02*
Y00721985D01*
X00812618D01*
X00815157Y00719446D01*
Y00714368D01*
X00812618Y00711828D01*
X00805000D01*
X00820235Y00706750D02*
Y00721985D01*
X00825313Y00716907D01*
X00830392Y00721985D01*
Y00706750D01*
X00843088Y00721985D02*
X00838009D01*
X00835470Y00719446D01*
Y00709289D01*
X00838009Y00706750D01*
X00843088D01*
X00845627Y00709289D01*
Y00719446D01*
X00843088Y00721985D01*
X00860862Y00719446D02*
X00858323Y00721985D01*
X00853244D01*
X00850705Y00719446D01*
Y00716907D01*
X00853244Y00714368D01*
X00858323D01*
X00860862Y00711828D01*
Y00709289D01*
X00858323Y00706750D01*
X00853244D01*
X00850705Y00709289D01*
X01092000Y00289000D02*
Y00304235D01*
X01099617D01*
X01102157Y00301696D01*
Y00296618D01*
X01099617Y00294078D01*
X01092000D01*
X01107235Y00289000D02*
Y00304235D01*
X01112313Y00299157D01*
X01117392Y00304235D01*
Y00289000D01*
X01130088Y00304235D02*
X01125009D01*
X01122470Y00301696D01*
Y00291539D01*
X01125009Y00289000D01*
X01130088D01*
X01132627Y00291539D01*
Y00301696D01*
X01130088Y00304235D01*
X01147862Y00301696D02*
X01145323Y00304235D01*
X01140244D01*
X01137705Y00301696D01*
Y00299157D01*
X01140244Y00296618D01*
X01145323D01*
X01147862Y00294078D01*
Y00291539D01*
X01145323Y00289000D01*
X01140244D01*
X01137705Y00291539D01*
X00144000Y00224500D02*
Y00239735D01*
X00151618D01*
X00154157Y00237196D01*
Y00232118D01*
X00151618Y00229578D01*
X00144000D01*
X00159235Y00224500D02*
Y00239735D01*
X00164313Y00234657D01*
X00169392Y00239735D01*
Y00224500D01*
X00182088Y00239735D02*
X00177009D01*
X00174470Y00237196D01*
Y00227039D01*
X00177009Y00224500D01*
X00182088D01*
X00184627Y00227039D01*
Y00237196D01*
X00182088Y00239735D01*
X00199862Y00237196D02*
X00197323Y00239735D01*
X00192244D01*
X00189705Y00237196D01*
Y00234657D01*
X00192244Y00232118D01*
X00197323D01*
X00199862Y00229578D01*
Y00227039D01*
X00197323Y00224500D01*
X00192244D01*
X00189705Y00227039D01*
X00576000Y00865000D02*
Y00880235D01*
X00583618D01*
X00586157Y00877696D01*
Y00872618D01*
X00583618Y00870078D01*
X00576000D01*
X00601392Y00880235D02*
X00591235D01*
Y00865000D01*
X00601392D01*
X00591235Y00872618D02*
X00596313D01*
X00616627Y00877696D02*
X00614088Y00880235D01*
X00609009D01*
X00606470Y00877696D01*
Y00875157D01*
X00609009Y00872618D01*
X00614088D01*
X00616627Y00870078D01*
Y00867539D01*
X00614088Y00865000D01*
X00609009D01*
X00606470Y00867539D01*
X00621705Y00880235D02*
Y00865000D01*
X00629323D01*
X00631862Y00867539D01*
Y00877696D01*
X00629323Y00880235D01*
X00621705D01*
X00636940D02*
Y00865000D01*
X00647097D01*
X00329500Y00445250D02*
Y00460485D01*
X00337118D01*
X00339657Y00457946D01*
Y00452868D01*
X00337118Y00450328D01*
X00329500D01*
X00354892Y00460485D02*
X00344735D01*
Y00445250D01*
X00354892D01*
X00344735Y00452868D02*
X00349813D01*
X00370127Y00457946D02*
X00367588Y00460485D01*
X00362509D01*
X00359970Y00457946D01*
Y00455407D01*
X00362509Y00452868D01*
X00367588D01*
X00370127Y00450328D01*
Y00447789D01*
X00367588Y00445250D01*
X00362509D01*
X00359970Y00447789D01*
X00375205Y00460485D02*
Y00445250D01*
X00382823D01*
X00385362Y00447789D01*
Y00457946D01*
X00382823Y00460485D01*
X00375205D01*
X00400597Y00457946D02*
X00398058Y00460485D01*
X00392980D01*
X00390440Y00457946D01*
Y00447789D01*
X00392980Y00445250D01*
X00398058D01*
X00400597Y00447789D01*
X01213250Y00393250D02*
Y00408485D01*
X01220867D01*
X01223407Y00405946D01*
Y00400868D01*
X01220867Y00398328D01*
X01213250D01*
X01238642Y00408485D02*
X01228485D01*
Y00393250D01*
X01238642D01*
X01228485Y00400868D02*
X01233563D01*
X01253877Y00405946D02*
X01251338Y00408485D01*
X01246259D01*
X01243720Y00405946D01*
Y00403407D01*
X01246259Y00400868D01*
X01251338D01*
X01253877Y00398328D01*
Y00395789D01*
X01251338Y00393250D01*
X01246259D01*
X01243720Y00395789D01*
X01258955Y00408485D02*
Y00393250D01*
X01266573D01*
X01269112Y00395789D01*
Y00405946D01*
X01266573Y00408485D01*
X01258955D01*
X01284347Y00405946D02*
X01281808Y00408485D01*
X01276730D01*
X01274190Y00405946D01*
Y00395789D01*
X01276730Y00393250D01*
X01281808D01*
X01284347Y00395789D01*
X00906500Y00871250D02*
Y00886485D01*
X00914118D01*
X00916657Y00883946D01*
Y00878868D01*
X00914118Y00876328D01*
X00906500D01*
X00921735Y00873789D02*
X00924274Y00871250D01*
X00929353D01*
X00931892Y00873789D01*
Y00883946D01*
X00929353Y00886485D01*
X00924274D01*
X00921735Y00883946D01*
Y00881407D01*
X00924274Y00878868D01*
X00931892D01*
X00422000Y00870250D02*
Y00885485D01*
X00429618D01*
X00432157Y00882946D01*
Y00877868D01*
X00429618Y00875328D01*
X00422000D01*
X00437235Y00882946D02*
X00439774Y00885485D01*
X00444853D01*
X00447392Y00882946D01*
Y00880407D01*
X00444853Y00877868D01*
X00447392Y00875328D01*
Y00872789D01*
X00444853Y00870250D01*
X00439774D01*
X00437235Y00872789D01*
Y00875328D01*
X00439774Y00877868D01*
X00437235Y00880407D01*
Y00882946D01*
X00439774Y00877868D02*
X00444853D01*
X00583000Y00776735D02*
Y00761500D01*
X00593157D01*
X00608392Y00776735D02*
X00598235D01*
Y00769118D01*
X00603313D01*
X00598235D01*
Y00761500D01*
X00621088D02*
X00616009D01*
X00613470Y00764039D01*
Y00769118D01*
X00616009Y00771657D01*
X00621088D01*
X00623627Y00769118D01*
Y00766578D01*
X00613470D01*
X00628705Y00771657D02*
Y00761500D01*
Y00766578D01*
X00631244Y00769118D01*
X00633784Y00771657D01*
X00636323D01*
X00643940D02*
Y00761500D01*
Y00766578D01*
X00646479Y00769118D01*
X00649019Y00771657D01*
X00651558D01*
X00732750Y00637985D02*
Y00622750D01*
X00742907D01*
X00758142Y00637985D02*
X00747985D01*
Y00630368D01*
X00753063D01*
X00747985D01*
Y00622750D01*
X00770838D02*
X00765759D01*
X00763220Y00625289D01*
Y00630368D01*
X00765759Y00632907D01*
X00770838D01*
X00773377Y00630368D01*
Y00627828D01*
X00763220D01*
X00778455Y00632907D02*
Y00622750D01*
Y00627828D01*
X00780994Y00630368D01*
X00783534Y00632907D01*
X00786073D01*
X00793690D02*
Y00622750D01*
Y00627828D01*
X00796229Y00630368D01*
X00798769Y00632907D01*
X00801308D01*
X00808925Y00620211D02*
X00819082D01*
X00824160Y00622750D02*
Y00637985D01*
X00829239Y00632907D01*
X00834317Y00637985D01*
Y00622750D01*
X01115250Y00451235D02*
Y00436000D01*
X01125407D01*
X01140642Y00451235D02*
X01130485D01*
Y00443618D01*
X01135563D01*
X01130485D01*
Y00436000D01*
X01145720Y00433461D02*
X01155877D01*
X01160955Y00436000D02*
Y00451235D01*
X01166034Y00446157D01*
X01171112Y00451235D01*
Y00436000D01*
X00179500Y00381735D02*
Y00366500D01*
X00189657D01*
X00204892Y00381735D02*
X00194735D01*
Y00374118D01*
X00199813D01*
X00194735D01*
Y00366500D01*
X00209970Y00363961D02*
X00220127D01*
X00225205Y00366500D02*
Y00381735D01*
X00230284Y00376657D01*
X00235362Y00381735D01*
Y00366500D01*
X00242000Y00309485D02*
X00247078D01*
X00244539D01*
Y00294250D01*
X00242000D01*
X00247078D01*
X00254696D02*
Y00309485D01*
X00264853Y00294250D01*
Y00309485D01*
X00269931D02*
Y00294250D01*
Y00301868D01*
X00280088D01*
Y00309485D01*
Y00294250D01*
X00285166D02*
X00290244D01*
X00287705D01*
Y00309485D01*
X00285166Y00306946D01*
X00784507Y00378583D02*
X00774350D01*
Y00363348D01*
X00784507D01*
X00774350Y00370965D02*
X00779428D01*
X00789585Y00363348D02*
Y00378583D01*
X00799742Y00363348D01*
Y00378583D01*
X00814977Y00363348D02*
X00804820D01*
X00814977Y00373505D01*
Y00376044D01*
X00812438Y00378583D01*
X00807359D01*
X00804820Y00376044D01*
X00658657Y00383235D02*
X00648500D01*
Y00368000D01*
X00658657D01*
X00648500Y00375617D02*
X00653578D01*
X00663735Y00368000D02*
Y00383235D01*
X00673892Y00368000D01*
Y00383235D01*
X00678970Y00368000D02*
X00684048D01*
X00681509D01*
Y00383235D01*
X00678970Y00380696D01*
X01279500Y00885500D02*
X01284578D01*
X01282039D01*
Y00900735D01*
X01279500Y00898196D01*
X01302353Y00885500D02*
X01292196D01*
X01302353Y00895657D01*
Y00898196D01*
X01299813Y00900735D01*
X01294735D01*
X01292196Y00898196D01*
X01307431Y00900735D02*
Y00890578D01*
X01312509Y00885500D01*
X01317588Y00890578D01*
Y00900735D01*
X01332823Y00885500D02*
X01322666D01*
X01332823Y00895657D01*
Y00898196D01*
X01330284Y00900735D01*
X01325205D01*
X01322666Y00898196D01*
X00016250Y00890750D02*
X00021328D01*
X00018789D01*
Y00905985D01*
X00016250Y00903446D01*
X00039103Y00890750D02*
X00028946D01*
X00039103Y00900907D01*
Y00903446D01*
X00036563Y00905985D01*
X00031485D01*
X00028946Y00903446D01*
X00044181Y00905985D02*
Y00895828D01*
X00049259Y00890750D01*
X00054338Y00895828D01*
Y00905985D01*
X00059416Y00890750D02*
X00064494D01*
X00061955D01*
Y00905985D01*
X00059416Y00903446D01*
X00682250Y00469485D02*
Y00454250D01*
X00689867D01*
X00692407Y00456789D01*
Y00466946D01*
X00689867Y00469485D01*
X00682250D01*
X00697485D02*
X00707642D01*
Y00466946D01*
X00697485Y00456789D01*
Y00454250D01*
X00707642D01*
X00720338D02*
X00715259D01*
X00712720Y00456789D01*
Y00461868D01*
X00715259Y00464407D01*
X00720338D01*
X00722877Y00461868D01*
Y00459328D01*
X00712720D01*
X00727955Y00454250D02*
Y00464407D01*
X00735573D01*
X00738112Y00461868D01*
Y00454250D01*
X00743190D02*
X00748269D01*
X00745730D01*
Y00469485D01*
X00743190Y00466946D01*
X00294657Y00543696D02*
X00292118Y00546235D01*
X00287039D01*
X00284500Y00543696D01*
Y00533539D01*
X00287039Y00531000D01*
X00292118D01*
X00294657Y00533539D01*
X00299735Y00531000D02*
Y00546235D01*
X00304813Y00541157D01*
X00309892Y00546235D01*
Y00531000D01*
X00325127Y00543696D02*
X00322588Y00546235D01*
X00317509D01*
X00314970Y00543696D01*
Y00533539D01*
X00317509Y00531000D01*
X00322588D01*
X00325127Y00533539D01*
X01206407Y00613696D02*
X01203867Y00616235D01*
X01198789D01*
X01196250Y00613696D01*
Y00603539D01*
X01198789Y00601000D01*
X01203867D01*
X01206407Y00603539D01*
X01211485Y00601000D02*
Y00616235D01*
X01216563Y00611157D01*
X01221642Y00616235D01*
Y00601000D01*
X01236877Y00613696D02*
X01234338Y00616235D01*
X01229259D01*
X01226720Y00613696D01*
Y00603539D01*
X01229259Y00601000D01*
X01234338D01*
X01236877Y00603539D01*
X00675907Y00223946D02*
X00673367Y00226485D01*
X00668289D01*
X00665750Y00223946D01*
Y00213789D01*
X00668289Y00211250D01*
X00673367D01*
X00675907Y00213789D01*
X00680985Y00211250D02*
Y00221407D01*
X00686063Y00226485D01*
X00691142Y00221407D01*
Y00211250D01*
Y00218867D01*
X00680985D01*
X00696220Y00211250D02*
Y00226485D01*
X00706377Y00211250D01*
Y00226485D01*
X00721612Y00223946D02*
X00719073Y00226485D01*
X00713994D01*
X00711455Y00223946D01*
Y00213789D01*
X00713994Y00211250D01*
X00719073D01*
X00721612Y00213789D01*
X00726690Y00211250D02*
X00731769D01*
X00729230D01*
Y00226485D01*
X00726690Y00223946D01*
X01252407Y00386946D02*
X01249867Y00389485D01*
X01244789D01*
X01242250Y00386946D01*
Y00376789D01*
X01244789Y00374250D01*
X01249867D01*
X01252407Y00376789D01*
X01265103Y00374250D02*
Y00389485D01*
X01257485Y00381868D01*
X01267642D01*
X01282877Y00374250D02*
X01272720D01*
X01282877Y00384407D01*
Y00386946D01*
X01280338Y00389485D01*
X01275259D01*
X01272720Y00386946D01*
X00504907Y00664696D02*
X00502368Y00667235D01*
X00497289D01*
X00494750Y00664696D01*
Y00654539D01*
X00497289Y00652000D01*
X00502368D01*
X00504907Y00654539D01*
X00509985Y00664696D02*
X00512524Y00667235D01*
X00517603D01*
X00520142Y00664696D01*
Y00662157D01*
X00517603Y00659618D01*
X00515063D01*
X00517603D01*
X00520142Y00657078D01*
Y00654539D01*
X00517603Y00652000D01*
X00512524D01*
X00509985Y00654539D01*
X00535377Y00667235D02*
X00530299Y00664696D01*
X00525220Y00659618D01*
Y00654539D01*
X00527759Y00652000D01*
X00532838D01*
X00535377Y00654539D01*
Y00657078D01*
X00532838Y00659618D01*
X00525220D01*
X00507009Y00748684D02*
X00504469Y00751223D01*
X00499391D01*
X00496852Y00748684D01*
Y00738527D01*
X00499391Y00735988D01*
X00504469D01*
X00507009Y00738527D01*
X00512087Y00748684D02*
X00514626Y00751223D01*
X00519705D01*
X00522244Y00748684D01*
Y00746145D01*
X00519705Y00743605D01*
X00517165D01*
X00519705D01*
X00522244Y00741066D01*
Y00738527D01*
X00519705Y00735988D01*
X00514626D01*
X00512087Y00738527D01*
X00527322Y00748684D02*
X00529861Y00751223D01*
X00534940D01*
X00537479Y00748684D01*
Y00746145D01*
X00534940Y00743605D01*
X00532401D01*
X00534940D01*
X00537479Y00741066D01*
Y00738527D01*
X00534940Y00735988D01*
X00529861D01*
X00527322Y00738527D01*
X01202657Y00338946D02*
X01200117Y00341485D01*
X01195039D01*
X01192500Y00338946D01*
Y00328789D01*
X01195039Y00326250D01*
X01200117D01*
X01202657Y00328789D01*
X01217892Y00326250D02*
X01207735D01*
X01217892Y00336407D01*
Y00338946D01*
X01215353Y00341485D01*
X01210274D01*
X01207735Y00338946D01*
X01233127Y00341485D02*
X01228048Y00338946D01*
X01222970Y00333868D01*
Y00328789D01*
X01225509Y00326250D01*
X01230588D01*
X01233127Y00328789D01*
Y00331328D01*
X01230588Y00333868D01*
X01222970D01*
X01253407Y00509696D02*
X01250868Y00512235D01*
X01245789D01*
X01243250Y00509696D01*
Y00499539D01*
X01245789Y00497000D01*
X01250868D01*
X01253407Y00499539D01*
X01268642Y00497000D02*
X01258485D01*
X01268642Y00507157D01*
Y00509696D01*
X01266103Y00512235D01*
X01261024D01*
X01258485Y00509696D01*
X01283877Y00512235D02*
X01273720D01*
Y00504618D01*
X01278799Y00507157D01*
X01281338D01*
X01283877Y00504618D01*
Y00499539D01*
X01281338Y00497000D01*
X01276259D01*
X01273720Y00499539D01*
X00989157Y00579196D02*
X00986618Y00581735D01*
X00981539D01*
X00979000Y00579196D01*
Y00569039D01*
X00981539Y00566500D01*
X00986618D01*
X00989157Y00569039D01*
X01004392Y00566500D02*
X00994235D01*
X01004392Y00576657D01*
Y00579196D01*
X01001853Y00581735D01*
X00996774D01*
X00994235Y00579196D01*
X01019627Y00566500D02*
X01009470D01*
X01019627Y00576657D01*
Y00579196D01*
X01017088Y00581735D01*
X01012009D01*
X01009470Y00579196D01*
X00998657Y00397196D02*
X00996117Y00399735D01*
X00991039D01*
X00988500Y00397196D01*
Y00387039D01*
X00991039Y00384500D01*
X00996117D01*
X00998657Y00387039D01*
X01013892Y00384500D02*
X01003735D01*
X01013892Y00394657D01*
Y00397196D01*
X01011353Y00399735D01*
X01006274D01*
X01003735Y00397196D01*
X01018970Y00384500D02*
X01024048D01*
X01021509D01*
Y00399735D01*
X01018970Y00397196D01*
X00992157Y00454196D02*
X00989617Y00456735D01*
X00984539D01*
X00982000Y00454196D01*
Y00444039D01*
X00984539Y00441500D01*
X00989617D01*
X00992157Y00444039D01*
X00997235Y00441500D02*
X01002313D01*
X00999774D01*
Y00456735D01*
X00997235Y00454196D01*
X01009931D02*
X01012470Y00456735D01*
X01017549D01*
X01020088Y00454196D01*
Y00451657D01*
X01017549Y00449118D01*
X01015009D01*
X01017549D01*
X01020088Y00446578D01*
Y00444039D01*
X01017549Y00441500D01*
X01012470D01*
X01009931Y00444039D01*
X00352157Y00329196D02*
X00349618Y00331735D01*
X00344539D01*
X00342000Y00329196D01*
Y00319039D01*
X00344539Y00316500D01*
X00349618D01*
X00352157Y00319039D01*
X00367392Y00331735D02*
X00362313Y00329196D01*
X00357235Y00324118D01*
Y00319039D01*
X00359774Y00316500D01*
X00364853D01*
X00367392Y00319039D01*
Y00321578D01*
X00364853Y00324118D01*
X00357235D01*
X00306657Y00478696D02*
X00304118Y00481235D01*
X00299039D01*
X00296500Y00478696D01*
Y00468539D01*
X00299039Y00466000D01*
X00304118D01*
X00306657Y00468539D01*
X00321892Y00481235D02*
X00311735D01*
Y00473618D01*
X00316813Y00476157D01*
X00319353D01*
X00321892Y00473618D01*
Y00468539D01*
X00319353Y00466000D01*
X00314274D01*
X00311735Y00468539D01*
X00305907Y00357196D02*
X00303368Y00359735D01*
X00298289D01*
X00295750Y00357196D01*
Y00347039D01*
X00298289Y00344500D01*
X00303368D01*
X00305907Y00347039D01*
X00318603Y00344500D02*
Y00359735D01*
X00310985Y00352118D01*
X00321142D01*
X00071907Y00427196D02*
X00069368Y00429735D01*
X00064289D01*
X00061750Y00427196D01*
Y00417039D01*
X00064289Y00414500D01*
X00069368D01*
X00071907Y00417039D01*
X00076985Y00427196D02*
X00079524Y00429735D01*
X00084603D01*
X00087142Y00427196D01*
Y00424657D01*
X00084603Y00422118D01*
X00082063D01*
X00084603D01*
X00087142Y00419578D01*
Y00417039D01*
X00084603Y00414500D01*
X00079524D01*
X00076985Y00417039D01*
X00751407Y00833196D02*
X00748867Y00835735D01*
X00743789D01*
X00741250Y00833196D01*
Y00823039D01*
X00743789Y00820500D01*
X00748867D01*
X00751407Y00823039D01*
X00766642Y00820500D02*
X00756485D01*
X00766642Y00830657D01*
Y00833196D01*
X00764103Y00835735D01*
X00759024D01*
X00756485Y00833196D01*
X01119907Y00233446D02*
X01117367Y00235985D01*
X01112289D01*
X01109750Y00233446D01*
Y00223289D01*
X01112289Y00220750D01*
X01117367D01*
X01119907Y00223289D01*
X01135142Y00220750D02*
X01124985D01*
X01135142Y00230907D01*
Y00233446D01*
X01132603Y00235985D01*
X01127524D01*
X01124985Y00233446D01*
X00143657Y00179946D02*
X00141117Y00182485D01*
X00136039D01*
X00133500Y00179946D01*
Y00169789D01*
X00136039Y00167250D01*
X00141117D01*
X00143657Y00169789D01*
X00158892Y00167250D02*
X00148735D01*
X00158892Y00177407D01*
Y00179946D01*
X00156353Y00182485D01*
X00151274D01*
X00148735Y00179946D01*
X00073943Y00332382D02*
X00071403Y00334921D01*
X00066325D01*
X00063786Y00332382D01*
Y00322225D01*
X00066325Y00319686D01*
X00071403D01*
X00073943Y00322225D01*
X00079021Y00319686D02*
X00084099D01*
X00081560D01*
Y00334921D01*
X00079021Y00332382D01*
X00705907Y00632196D02*
X00703367Y00634735D01*
X00698289D01*
X00695750Y00632196D01*
Y00622039D01*
X00698289Y00619500D01*
X00703367D01*
X00705907Y00622039D01*
X00710985Y00619500D02*
X00716063D01*
X00713524D01*
Y00634735D01*
X00710985Y00632196D01*
X01076751Y00446282D02*
X01074212Y00448821D01*
X01069133D01*
X01066594Y00446282D01*
Y00436125D01*
X01069133Y00433586D01*
X01074212D01*
X01076751Y00436125D01*
X01081829Y00433586D02*
X01086907D01*
X01084368D01*
Y00448821D01*
X01081829Y00446282D01*
X00134833Y00379278D02*
X00132294Y00381817D01*
X00127215D01*
X00124676Y00379278D01*
Y00369121D01*
X00127215Y00366582D01*
X00132294D01*
X00134833Y00369121D01*
X00139911Y00366582D02*
X00144989D01*
X00142450D01*
Y00381817D01*
X00139911Y00379278D01*
X01093500Y00152235D02*
Y00137000D01*
X01101117D01*
X01103657Y00139539D01*
Y00142078D01*
X01101117Y00144618D01*
X01093500D01*
X01101117D01*
X01103657Y00147157D01*
Y00149696D01*
X01101117Y00152235D01*
X01093500D01*
X01108735Y00137000D02*
Y00147157D01*
X01113813Y00152235D01*
X01118892Y00147157D01*
Y00137000D01*
Y00144618D01*
X01108735D01*
X01123970Y00152235D02*
X01134127D01*
X01129048D01*
Y00137000D01*
X01139205Y00134461D02*
X01149362D01*
X01154440Y00152235D02*
X01159519D01*
X01156980D01*
Y00137000D01*
X01154440D01*
X01159519D01*
X01167136D02*
Y00152235D01*
X01177293Y00137000D01*
Y00152235D01*
X00071907Y00542446D02*
X00069368Y00544985D01*
X00064289D01*
X00061750Y00542446D01*
Y00532289D01*
X00064289Y00529750D01*
X00069368D01*
X00071907Y00532289D01*
X00087142Y00529750D02*
X00076985D01*
X00087142Y00539907D01*
Y00542446D01*
X00084603Y00544985D01*
X00079524D01*
X00076985Y00542446D01*
X00991250Y00278235D02*
X00996328D01*
X00993789D01*
Y00263000D01*
X00991250D01*
X00996328D01*
X01003946D02*
Y00278235D01*
X01014103Y00263000D01*
Y00278235D01*
X01019181D02*
Y00263000D01*
Y00270618D01*
X01029338D01*
Y00278235D01*
Y00263000D01*
X01044573D02*
X01034416D01*
X01044573Y00273157D01*
Y00275696D01*
X01042034Y00278235D01*
X01036955D01*
X01034416Y00275696D01*
X00783157Y00428446D02*
X00780618Y00430985D01*
X00775539D01*
X00773000Y00428446D01*
Y00418289D01*
X00775539Y00415750D01*
X00780618D01*
X00783157Y00418289D01*
X00788235Y00428446D02*
X00790774Y00430985D01*
X00795853D01*
X00798392Y00428446D01*
Y00425907D01*
X00795853Y00423368D01*
X00793313D01*
X00795853D01*
X00798392Y00420828D01*
Y00418289D01*
X00795853Y00415750D01*
X00790774D01*
X00788235Y00418289D01*
X00813627Y00415750D02*
X00803470D01*
X00813627Y00425907D01*
Y00428446D01*
X00811088Y00430985D01*
X00806009D01*
X00803470Y00428446D01*
X00302907Y00221696D02*
X00300368Y00224235D01*
X00295289D01*
X00292750Y00221696D01*
Y00211539D01*
X00295289Y00209000D01*
X00300368D01*
X00302907Y00211539D01*
X00307985Y00209000D02*
Y00219157D01*
X00313063Y00224235D01*
X00318142Y00219157D01*
Y00209000D01*
Y00216618D01*
X00307985D01*
X00323220Y00209000D02*
Y00224235D01*
X00333377Y00209000D01*
Y00224235D01*
X00348612Y00221696D02*
X00346073Y00224235D01*
X00340994D01*
X00338455Y00221696D01*
Y00211539D01*
X00340994Y00209000D01*
X00346073D01*
X00348612Y00211539D01*
X00363847Y00209000D02*
X00353690D01*
X00363847Y00219157D01*
Y00221696D01*
X00361308Y00224235D01*
X00356230D01*
X00353690Y00221696D01*
X00168000Y00097985D02*
Y00082750D01*
X00178157D01*
X00183235Y00097985D02*
X00188313D01*
X00185774D01*
Y00082750D01*
X00183235D01*
X00188313D01*
X00195931D02*
Y00097985D01*
X00206088Y00082750D01*
Y00097985D01*
D53*
X00460494Y00278053D02*
Y00303453D01*
X00409694Y00278053D02*
X00460494D01*
X00409694D02*
Y00303453D01*
Y00862253D01*
X00460494D01*
Y00303453D02*
Y00862253D01*
X00943320Y00278080D02*
Y00303480D01*
X00892520Y00278080D02*
X00943320D01*
X00892520D02*
Y00303480D01*
Y00862280D01*
X00943320D01*
Y00303480D02*
Y00862280D01*
D54*
X00765750Y00405500D02*
Y00443500D01*
X00741500Y00405500D02*
X00765750D01*
X00741500D02*
Y00443500D01*
X00765750D01*
X00061500Y00523750D02*
X00085750D01*
X00061500Y00485750D02*
Y00523750D01*
Y00485750D02*
X00085750D01*
Y00523750D01*
X00121000Y00360500D02*
X00159000D01*
Y00336250D02*
Y00360500D01*
X00121000Y00336250D02*
X00159000D01*
X00121000D02*
Y00360500D01*
X01062750Y00403250D02*
Y00427500D01*
Y00403250D02*
X01100750D01*
Y00427500D01*
X01062750D02*
X01100750D01*
X00717750Y00575250D02*
Y00613250D01*
X00693500Y00575250D02*
X00717750D01*
X00693500D02*
Y00613250D01*
X00717750D01*
X00060000Y00289250D02*
Y00313500D01*
Y00289250D02*
X00098000D01*
Y00313500D01*
X00060000D02*
X00098000D01*
X00127000Y00213000D02*
X00165000D01*
Y00188750D02*
Y00213000D01*
X00127000Y00188750D02*
X00165000D01*
X00127000D02*
Y00213000D01*
X01102250Y00244000D02*
Y00268250D01*
Y00244000D02*
X01140250D01*
Y00268250D01*
X01102250D02*
X01140250D01*
X00061000Y00435000D02*
X00085250D01*
Y00473000D01*
X00061000D02*
X00085250D01*
X00061000Y00435000D02*
Y00473000D01*
X00319250Y00368500D02*
Y00406500D01*
X00295000Y00368500D02*
X00319250D01*
X00295000D02*
Y00406500D01*
X00319250D01*
X00294750Y00459750D02*
X00319000D01*
X00294750Y00421750D02*
Y00459750D01*
Y00421750D02*
X00319000D01*
Y00459750D01*
X00335500Y00364750D02*
X00373500D01*
Y00340500D02*
Y00364750D01*
X00335500Y00340500D02*
X00373500D01*
X00335500D02*
Y00364750D01*
X00988500Y00464500D02*
X01012750D01*
Y00502500D01*
X00988500D02*
X01012750D01*
X00988500Y00464500D02*
Y00502500D01*
X00986500Y00377750D02*
X01024500D01*
Y00353500D02*
Y00377750D01*
X00986500Y00353500D02*
X01024500D01*
X00986500D02*
Y00377750D01*
X00987000Y00558250D02*
X01011250D01*
X00987000Y00520250D02*
Y00558250D01*
Y00520250D02*
X01011250D01*
Y00558250D01*
X01274750Y00452000D02*
Y00490000D01*
X01250500Y00452000D02*
X01274750D01*
X01250500D02*
Y00490000D01*
X01274750D01*
X01197000Y00296000D02*
Y00320250D01*
Y00296000D02*
X01235000D01*
Y00320250D01*
X01197000D02*
X01235000D01*
X00494000Y00705750D02*
X00532000D01*
X00494000D02*
Y00730000D01*
X00532000D01*
Y00705750D02*
Y00730000D01*
X00533000Y00673500D02*
Y00697750D01*
X00495000D02*
X00533000D01*
X00495000Y00673500D02*
Y00697750D01*
Y00673500D02*
X00533000D01*
X01273500Y00397500D02*
Y00435500D01*
X01249250Y00397500D02*
X01273500D01*
X01249250D02*
Y00435500D01*
X01273500D01*
X01224750Y00384250D02*
X01265500D01*
Y00351500D02*
Y00384250D01*
X01224750Y00351500D02*
X01265500D01*
X01224750D02*
Y00384250D01*
X00335250Y00405250D02*
Y00438000D01*
Y00405250D02*
X00376000D01*
Y00438000D01*
X00335250D02*
X00376000D01*
X00231750Y00249500D02*
Y00321500D01*
X00110000Y00249500D02*
Y00321500D01*
Y00249500D02*
X00231750D01*
X00110000Y00321500D02*
X00231750D01*
X01046250Y00387000D02*
X01168000D01*
X01046250Y00315000D02*
X01168000D01*
X01046250D02*
Y00387000D01*
X01168000Y00315000D02*
Y00387000D01*
X00724250Y00771500D02*
X00796250D01*
X00724250Y00649750D02*
X00796250D01*
Y00771500D01*
X00724250Y00649750D02*
Y00771500D01*
X00061500Y00257000D02*
Y00277750D01*
X00098500D01*
Y00257000D02*
Y00277750D01*
X00061500Y00257000D02*
X00098500D01*
X00254750Y00420750D02*
Y00457750D01*
Y00420750D02*
X00275500D01*
Y00457750D01*
X00254750D02*
X00275500D01*
X00254750Y00404250D02*
X00275500D01*
Y00367250D02*
Y00404250D01*
X00254750Y00367250D02*
X00275500D01*
X00254750D02*
Y00404250D01*
X00655000Y00549750D02*
Y00586750D01*
X00634250D02*
X00655000D01*
X00634250Y00549750D02*
Y00586750D01*
Y00549750D02*
X00655000D01*
X00618750Y00350250D02*
X00639500D01*
Y00313250D02*
Y00350250D01*
X00618750Y00313250D02*
X00639500D01*
X00618750D02*
Y00350250D01*
X00987750Y00319000D02*
X01024750D01*
Y00339750D01*
X00987750D02*
X01024750D01*
X00987750Y00319000D02*
Y00339750D01*
X01193500Y00486000D02*
X01214250D01*
Y00449000D02*
Y00486000D01*
X01193500Y00449000D02*
X01214250D01*
X01193500D02*
Y00486000D01*
X01194000Y00396750D02*
Y00433750D01*
Y00396750D02*
X01214750D01*
Y00433750D01*
X01194000D02*
X01214750D01*
X00638000Y00440750D02*
X00658750D01*
Y00403750D02*
Y00440750D01*
X00638000Y00403750D02*
X00658750D01*
X00638000D02*
Y00440750D01*
X00563500Y00312500D02*
Y00349500D01*
Y00312500D02*
X00584250D01*
Y00349500D01*
X00563500D02*
X00584250D01*
X00218750Y00337250D02*
Y00358500D01*
X00182000Y00337250D02*
Y00358500D01*
Y00337250D02*
X00218750D01*
X00182000Y00358500D02*
X00218750D01*
X01117000Y00424750D02*
X01153750D01*
X01117000Y00403500D02*
X01153750D01*
X01117000D02*
Y00424750D01*
X01153750Y00403500D02*
Y00424750D01*
X00734250Y00612750D02*
X00755500D01*
X00734250Y00576000D02*
X00755500D01*
Y00612750D01*
X00734250Y00576000D02*
Y00612750D01*
X00736500Y00812250D02*
X00774500D01*
Y00788000D02*
Y00812250D01*
X00736500Y00788000D02*
X00774500D01*
X00736500D02*
Y00812250D01*
D55*
X00600500Y00804250D02*
X00631750D01*
X00598250Y00786000D02*
Y00802000D01*
X00600500Y00804250D01*
X00598250Y00786000D02*
X00602000Y00782250D01*
X00631500D01*
X00634250Y00785000D01*
Y00801750D01*
X00631750Y00804250D02*
X00634250Y00801750D01*
D56*
X00582000Y00856250D02*
X00636750D01*
X00582000Y00833250D02*
X00636750D01*
Y00856250D01*
X00582000Y00833250D02*
Y00856250D01*
X00489303Y00105005D02*
X00494302Y00107504D01*
X00499300Y00112502D01*
Y00117501D01*
X00496801Y00120000D01*
X00491802D01*
X00489303Y00117501D01*
Y00115002D01*
X00491802Y00112502D01*
X00499300D01*
X00416200Y00117501D02*
X00413701Y00120000D01*
X00408702D01*
X00406203Y00117501D01*
Y00107504D01*
X00408702Y00105005D01*
X00413701D01*
X00416200Y00107504D01*
Y00110003D01*
X00413701Y00112502D01*
X00406203D01*
X00392353Y00199005D02*
X00402350D01*
Y00206502D01*
X00397352Y00204003D01*
X00394852D01*
X00392353Y00206502D01*
Y00211501D01*
X00394852Y00214000D01*
X00399851D01*
X00402350Y00211501D01*
X00510650Y00214000D02*
X00505652D01*
X00508151D01*
Y00199005D01*
X00510650Y00201504D01*
X00856053Y00104255D02*
X00861052Y00106754D01*
X00866050Y00111752D01*
Y00116751D01*
X00863551Y00119250D01*
X00858552D01*
X00856053Y00116751D01*
Y00114252D01*
X00858552Y00111752D01*
X00866050D01*
X00782950Y00116751D02*
X00780451Y00119250D01*
X00775452D01*
X00772953Y00116751D01*
Y00106754D01*
X00775452Y00104255D01*
X00780451D01*
X00782950Y00106754D01*
Y00109253D01*
X00780451Y00111752D01*
X00772953D01*
X00877400Y00213250D02*
X00872402D01*
X00874901D01*
Y00198255D01*
X00877400Y00200754D01*
X00759103Y00198255D02*
X00769100D01*
Y00205752D01*
X00764102Y00203253D01*
X00761602D01*
X00759103Y00205752D01*
Y00210751D01*
X00761602Y00213250D01*
X00766601D01*
X00769100Y00210751D01*
M02*
