%FSLAX44Y44*%
%MOMM*%
G71*
G01*
G75*
G04 Layer_Physical_Order=2*
G04 Layer_Color=16711680*
%ADD10O,1.9500X0.6000*%
%ADD11R,1.5000X1.0000*%
%ADD12R,1.0000X1.5000*%
%ADD13R,0.8000X1.2000*%
%ADD14R,1.2000X0.6000*%
%ADD15R,2.2000X1.2000*%
%ADD16R,3.0500X1.1000*%
%ADD17R,6.5000X5.5500*%
%ADD18R,1.1000X3.0500*%
%ADD19R,5.5500X6.5000*%
%ADD20R,1.1000X1.3500*%
%ADD21R,1.3500X1.1000*%
%ADD22R,1.2500X1.4500*%
%ADD23R,1.4500X1.2500*%
%ADD24R,1.5000X1.2000*%
%ADD25R,1.5000X1.0000*%
%ADD26C,1.0000*%
%ADD27C,0.6000*%
%ADD28C,1.5000*%
%ADD29C,0.8000*%
%ADD30C,0.4000*%
%ADD31C,0.3000*%
%ADD32C,0.2000*%
%ADD33R,1.5000X1.5000*%
%ADD34C,1.5000*%
%ADD35R,1.5000X1.5000*%
%ADD36R,1.5240X1.5240*%
%ADD37C,1.5240*%
%ADD38C,4.7600*%
%ADD39R,1.6900X1.6900*%
%ADD40C,1.6900*%
%ADD41O,2.5000X1.5000*%
%ADD42C,0.7000*%
%ADD43C,1.2700*%
%ADD44R,5.3000X2.8000*%
%ADD45R,6.0000X2.1000*%
%ADD46R,3.9500X2.0500*%
%ADD47R,9.4000X6.8000*%
%ADD48R,2.4500X2.5500*%
%ADD49R,8.0000X10.0000*%
%ADD50C,0.5000*%
G36*
X387442Y606576D02*
X386393Y605209D01*
X385602Y603299D01*
X385332Y601250D01*
X385602Y599201D01*
X386393Y597291D01*
X387651Y595651D01*
X389250Y594425D01*
Y527449D01*
Y515916D01*
X359875Y486561D01*
X358564Y485250D01*
X133793D01*
X113074Y505956D01*
X111500Y507529D01*
Y530228D01*
X127216Y545944D01*
X176250D01*
X177947Y546167D01*
X178602Y546439D01*
X179528Y546822D01*
X180886Y547864D01*
X196886Y563864D01*
X197928Y565222D01*
X198199Y565877D01*
X198583Y566803D01*
X198806Y568500D01*
Y596034D01*
X245022Y642250D01*
X351745D01*
X387442Y606576D01*
D02*
G37*
G36*
X1338530Y845517D02*
X1344194Y840817D01*
Y558467D01*
X1227340Y461517D01*
X1160144Y405767D01*
Y403767D01*
Y357767D01*
X1150803Y350017D01*
X1123985Y327767D01*
X1120299D01*
Y351944D01*
X1139552Y371198D01*
X1140105Y372025D01*
X1140137Y372186D01*
X1140299Y373000D01*
Y385290D01*
X1152750D01*
Y399290D01*
X1123382D01*
Y415517D01*
X1168111Y452626D01*
X1172352D01*
X1172363Y452631D01*
X1172374Y452627D01*
X1172936Y452868D01*
X1173500Y453102D01*
X1173505Y453113D01*
X1173516Y453118D01*
X1193672Y473834D01*
X1197079Y477335D01*
X1197079Y477335D01*
X1206482Y487000D01*
X1221250D01*
Y496268D01*
Y496714D01*
X1221669Y497062D01*
X1222249Y498161D01*
X1222249D01*
X1222249D01*
X1222592Y498267D01*
X1222951Y498251D01*
X1223163Y498443D01*
X1223436Y498528D01*
X1272238Y539017D01*
X1309618Y570030D01*
X1309655Y570101D01*
X1309729Y570132D01*
X1309940Y570641D01*
X1310198Y571129D01*
X1310174Y571206D01*
X1310205Y571280D01*
Y572517D01*
Y592705D01*
Y841517D01*
X1311109Y842267D01*
X1316231Y846517D01*
X1337324D01*
X1338530Y845517D01*
D02*
G37*
G36*
X390578Y787532D02*
X390672Y787303D01*
Y670041D01*
X390444Y669490D01*
X386929Y665975D01*
X368852Y647898D01*
X364599Y643645D01*
X353656D01*
X353357Y643522D01*
X353034D01*
X352902Y643389D01*
X352892Y643399D01*
X352315Y643637D01*
X351745Y643874D01*
X248305D01*
X247819Y645047D01*
X265036Y662264D01*
X265426Y662772D01*
X271350D01*
X273699Y663082D01*
X275889Y663989D01*
X277769Y665431D01*
X288319Y675981D01*
X289761Y677861D01*
X290189Y678894D01*
X291448Y679060D01*
X292161Y678131D01*
X294041Y676689D01*
X296231Y675782D01*
X298580Y675472D01*
X308580D01*
X310930Y675782D01*
X313119Y676689D01*
X314999Y678131D01*
X316441Y680011D01*
X317348Y682200D01*
X317658Y684550D01*
X317348Y686899D01*
X316441Y689089D01*
X314999Y690969D01*
X313119Y692411D01*
X310930Y693318D01*
X308580Y693628D01*
X298580D01*
X296231Y693318D01*
X294041Y692411D01*
X292161Y690969D01*
X290978Y691371D01*
Y702470D01*
X291146Y702806D01*
X291987Y703450D01*
X292151Y703472D01*
X292300Y703398D01*
X292338Y703396D01*
X293553Y702463D01*
X293872Y702219D01*
X293872D01*
X294041Y702089D01*
X296231Y701182D01*
X297895Y700963D01*
X298474Y700886D01*
D01*
X298580Y700872D01*
X308580D01*
X308686Y700886D01*
D01*
X309515Y700995D01*
X310238Y700900D01*
X310238D01*
X310450Y700872D01*
X310662Y700900D01*
X310662D01*
X311760Y701045D01*
X312799Y701182D01*
X314989Y702089D01*
X315158Y702219D01*
X315158D01*
X316470Y703225D01*
X316869Y703531D01*
X316944Y703606D01*
D01*
X336321Y722984D01*
X355794Y742456D01*
X356007Y742735D01*
X357106Y744167D01*
Y744167D01*
X357237Y744336D01*
X357822Y745750D01*
X357822Y745750D01*
X358145D01*
X363250D01*
Y758750D01*
X357719D01*
X357410Y759127D01*
X357718Y760359D01*
X357789Y760388D01*
X357958Y760519D01*
D01*
X359584Y761766D01*
D01*
X359669Y761831D01*
X359669Y761831D01*
X359669Y761831D01*
X359744Y761906D01*
D01*
X360150Y762312D01*
X360359Y762522D01*
X360733Y762677D01*
X360733Y762677D01*
X360911Y762750D01*
X363250D01*
Y768660D01*
X363328Y769250D01*
X363250Y769840D01*
Y775750D01*
X361455D01*
X361455D01*
Y775750D01*
D01*
X361062Y776699D01*
X360969Y776923D01*
X361198Y777152D01*
X361198Y777152D01*
X371444Y787398D01*
X371995Y787626D01*
X390350D01*
X390578Y787532D01*
D02*
G37*
G36*
X385061Y507734D02*
X384832Y506000D01*
X385102Y503951D01*
X385893Y502041D01*
X387151Y500401D01*
X388791Y499143D01*
X390701Y498352D01*
X392750Y498082D01*
X393711Y498209D01*
X394273Y497070D01*
X381522Y484319D01*
X361589D01*
X361103Y485492D01*
X383922Y508296D01*
X385061Y507734D01*
D02*
G37*
G36*
X200496Y929450D02*
X180115Y909511D01*
X180111Y909502D01*
X180102Y909499D01*
X179867Y908933D01*
X179627Y908369D01*
X179630Y908360D01*
X179626Y908351D01*
Y902472D01*
Y845641D01*
X179630Y845632D01*
X179627Y845623D01*
X179867Y845059D01*
X180102Y844493D01*
X180111Y844489D01*
X180115Y844481D01*
X184121Y840561D01*
X226199Y799396D01*
Y785115D01*
X225900Y784393D01*
X225323Y783817D01*
X224445Y783642D01*
X158486Y849602D01*
X150034Y858054D01*
X149806Y858605D01*
Y861493D01*
Y919583D01*
X149912Y919826D01*
X149913Y919844D01*
X149926Y919857D01*
X150028Y920102D01*
X150263Y920328D01*
X160778Y930403D01*
X161041Y930505D01*
X161055Y930518D01*
X161073D01*
X161334Y930626D01*
X200016D01*
X200496Y929450D01*
D02*
G37*
G36*
X751375Y971750D02*
X789125Y934000D01*
X1018625D01*
X1021875Y937250D01*
X1023957Y939332D01*
X1025227Y939327D01*
X1026638Y937892D01*
X1026638Y937892D01*
X1028080Y936425D01*
X1028087Y936422D01*
X1028090Y936416D01*
X1028657Y936180D01*
X1029224Y935940D01*
X1029231Y935943D01*
X1029238Y935940D01*
X1164575D01*
X1178276Y922006D01*
X1178276D01*
Y922006D01*
X1178772Y921502D01*
Y817074D01*
Y811139D01*
X1151361Y783263D01*
X1143592Y775362D01*
X1143362Y774792D01*
X1143126Y774223D01*
Y773874D01*
X1143068D01*
X1142810D01*
X1142809Y773874D01*
X1142796D01*
X1142796Y773874D01*
X1142796Y773874D01*
X1142230Y773633D01*
X1141908Y773500D01*
X1113912D01*
X1110581Y770169D01*
X1104250Y763838D01*
X1103331Y762919D01*
X1101889Y761039D01*
X1100982Y758849D01*
X1100672Y756500D01*
Y735354D01*
X1100158Y734098D01*
X1100157Y734097D01*
X1099374Y733833D01*
X1099374D01*
X1098806Y733595D01*
X1098233Y733358D01*
X1097125Y732250D01*
X1092875Y728000D01*
X1092126D01*
X1092074Y727978D01*
X1092020Y727997D01*
X1091507Y727744D01*
X1090978Y727524D01*
X1090956Y727472D01*
X1090906Y727447D01*
X1090707Y727221D01*
X1090555Y726772D01*
X1090318Y726362D01*
X1090036Y724224D01*
X1089293Y722430D01*
X1088111Y720889D01*
X1086570Y719707D01*
X1084776Y718963D01*
X1082744Y718696D01*
X1072956D01*
X1070924Y718963D01*
X1069130Y719707D01*
X1067589Y720889D01*
X1066407Y722430D01*
X1065664Y724224D01*
X1065410Y726150D01*
X1065664Y728076D01*
X1065947Y728761D01*
Y729083D01*
X1066071Y729382D01*
X1065947Y729680D01*
Y730003D01*
X1065719Y730231D01*
X1065595Y730530D01*
X1064660Y731465D01*
X1062625Y733500D01*
Y733823D01*
Y734500D01*
Y738750D01*
Y786250D01*
X1068375Y792000D01*
X1078875Y802500D01*
X1125414D01*
X1125705Y803204D01*
X1141990D01*
X1143138Y803680D01*
X1156820Y817362D01*
X1157296Y818510D01*
Y835796D01*
X1158375Y836875D01*
Y896250D01*
X1157625Y897000D01*
X1136625Y918000D01*
X1068875D01*
X1067625Y916750D01*
X1036625Y885750D01*
X770375D01*
X766375Y889750D01*
X708625Y947500D01*
Y954750D01*
Y966750D01*
X711375Y969500D01*
X716625Y974750D01*
X748375D01*
X751375Y971750D01*
D02*
G37*
G36*
X355940Y757602D02*
X355940Y757602D01*
Y757602D01*
X355940D01*
X356093Y757538D01*
X356186Y757400D01*
X356650Y757308D01*
X357088Y757126D01*
X361626D01*
Y747374D01*
X357822D01*
X357524Y747250D01*
X357201D01*
X356972Y747022D01*
X356674Y746898D01*
X356550Y746600D01*
X356322Y746371D01*
X355818Y745155D01*
X354571Y743529D01*
X315796Y704754D01*
X314170Y703507D01*
X312376Y702764D01*
X310450Y702510D01*
X309727Y702605D01*
X309515Y702548D01*
X309303Y702605D01*
X308474Y702496D01*
X298686D01*
X296654Y702764D01*
X294860Y703507D01*
X293150Y704819D01*
X292989Y704862D01*
X292879Y704987D01*
X292407Y705018D01*
X291949Y705141D01*
X290978Y706824D01*
Y719628D01*
X291158Y720995D01*
Y726500D01*
X292704D01*
X297602Y721602D01*
X298750Y721126D01*
X299898Y721602D01*
X300173Y721876D01*
X311162D01*
X312310Y722352D01*
X333060Y743102D01*
X333060D01*
X344029Y754071D01*
X345113Y754902D01*
X345655Y755318D01*
X345871Y755408D01*
X346100Y755636D01*
X346398Y755760D01*
X346522Y756058D01*
X346750Y756286D01*
Y756609D01*
X346874Y756908D01*
Y757126D01*
X354486D01*
X354564Y757159D01*
X354645Y757134D01*
X355128Y757392D01*
X355634Y757602D01*
X355666Y757680D01*
X355666D01*
D01*
X355940Y757602D01*
D02*
G37*
G36*
X156250Y367750D02*
X160500Y363500D01*
Y362000D01*
Y316750D01*
X159650Y315900D01*
X156852Y313102D01*
X156376Y311954D01*
Y273649D01*
X147750Y265012D01*
D01*
X145101Y262360D01*
X144865Y261788D01*
X144626Y261213D01*
Y259701D01*
Y237277D01*
X144865Y236702D01*
X145101Y236130D01*
X148373Y232854D01*
X163221Y217989D01*
X163222Y217988D01*
X163222Y217988D01*
X163793Y217751D01*
X164369Y217512D01*
X164370Y217513D01*
X164370Y217512D01*
X222988D01*
X228750Y211750D01*
Y183500D01*
Y182500D01*
X212750Y166500D01*
X208250Y162000D01*
X110250D01*
X83750Y188500D01*
X82750Y189500D01*
Y207750D01*
Y209750D01*
Y220250D01*
X86000Y223500D01*
X89000Y226500D01*
X103000D01*
Y239500D01*
X103000Y239500D01*
X103000D01*
X102707Y240207D01*
D01*
Y298543D01*
X93000Y308250D01*
X86750Y314500D01*
Y315500D01*
Y364750D01*
X86250Y365250D01*
X89500Y368500D01*
X155500D01*
X156250Y367750D01*
D02*
G37*
G36*
X1110500Y400000D02*
X1116250Y394250D01*
Y355105D01*
X1115948Y354802D01*
X1115395Y353975D01*
X1115201Y353000D01*
Y320250D01*
X1115395Y319275D01*
X1115948Y318448D01*
X1116250Y318145D01*
Y306500D01*
X1092750Y283000D01*
X1088250Y278500D01*
Y243250D01*
Y241250D01*
X1107500Y222000D01*
X1205250D01*
X1214343Y231093D01*
Y231225D01*
X1215247Y232118D01*
X1215366Y232116D01*
X1216261Y233011D01*
Y233011D01*
Y233011D01*
X1216383Y232883D01*
X1222689Y239189D01*
X1223959Y239189D01*
X1227015Y236130D01*
X1227015Y236129D01*
X1227016Y236129D01*
X1227587Y235892D01*
X1228163Y235653D01*
X1228163Y235654D01*
X1228164Y235653D01*
X1260562D01*
X1275407Y222774D01*
X1277440Y221009D01*
Y197000D01*
Y196991D01*
X1266186Y187226D01*
X1266186Y187226D01*
X1258327Y180408D01*
X1258327Y180408D01*
X1251518Y174500D01*
X1181937D01*
X1181898Y174799D01*
X1181107Y176709D01*
X1179849Y178349D01*
X1178209Y179607D01*
X1176299Y180398D01*
X1174250Y180668D01*
X1172201Y180398D01*
X1170291Y179607D01*
X1168651Y178349D01*
X1167393Y176709D01*
X1167231Y176319D01*
X1132523D01*
X1131349Y177849D01*
X1129709Y179107D01*
X1127799Y179898D01*
X1125750Y180168D01*
X1123701Y179898D01*
X1121791Y179107D01*
X1120151Y177849D01*
X1118893Y176209D01*
X1118185Y174500D01*
X1098000D01*
X1051250Y221250D01*
X1045000Y227500D01*
Y321750D01*
Y330750D01*
X1035500Y340250D01*
X1028250Y347500D01*
Y395000D01*
Y399500D01*
X1039750Y411000D01*
X1043750Y415000D01*
X1095500D01*
X1110500Y400000D01*
D02*
G37*
G36*
X293876Y902000D02*
X294352Y900852D01*
X295500Y900376D01*
X305124D01*
X412000Y793500D01*
Y693250D01*
Y631134D01*
X387924Y607058D01*
X387651Y606849D01*
X385580Y608438D01*
X353170Y640848D01*
X353656Y642022D01*
X365272D01*
X365744Y642494D01*
X365743Y642496D01*
X365747Y642497D01*
X370000Y646750D01*
X391820Y668570D01*
X392296Y669718D01*
Y787626D01*
X391820Y788774D01*
X390672Y789250D01*
X371673D01*
X370524Y788774D01*
X359821Y778071D01*
X359698Y777773D01*
X359469Y777545D01*
Y777222D01*
X359346Y776923D01*
X359469Y776625D01*
Y776302D01*
X359955Y775129D01*
X360184Y774900D01*
X360307Y774602D01*
X360606Y774478D01*
X360834Y774250D01*
X361157D01*
X361455Y774126D01*
X361626D01*
Y769840D01*
X361669Y769736D01*
X361640Y769628D01*
X361690Y769250D01*
X361640Y768872D01*
X361669Y768764D01*
X361626Y768660D01*
Y764626D01*
X361374Y764374D01*
X360588D01*
D01*
X360588D01*
X360112Y764177D01*
X359440Y763898D01*
Y763898D01*
X359440D01*
X358596Y763054D01*
X356970Y761807D01*
X356219Y761496D01*
X355884Y761161D01*
X355490Y760898D01*
X355458Y760734D01*
X355340Y760617D01*
Y760143D01*
X355248Y759679D01*
X354486Y758750D01*
X345250D01*
Y756908D01*
X344836Y756737D01*
X342956Y755294D01*
X332328Y744666D01*
X331912Y744250D01*
X311162Y723500D01*
X299500D01*
X298750Y722750D01*
X293000Y728500D01*
Y733500D01*
Y741750D01*
Y744250D01*
X294000Y745250D01*
X294173Y745423D01*
X339524Y790775D01*
X340000Y791923D01*
Y802250D01*
Y816328D01*
X339524Y817476D01*
X315500Y841500D01*
X288976Y868025D01*
X287827Y868500D01*
X242000D01*
X241772Y868728D01*
X239250Y871250D01*
X233695Y876805D01*
X233397Y876929D01*
X233168Y877157D01*
X232845D01*
X232547Y877281D01*
X232430Y877232D01*
X231374Y877938D01*
Y895876D01*
X231876D01*
X233025Y896352D01*
X233500Y897500D01*
Y898427D01*
Y898750D01*
X233728Y898978D01*
X233750Y899000D01*
X234898Y900148D01*
X235126Y900376D01*
X239500D01*
X240648Y900852D01*
X241124Y902000D01*
Y902626D01*
X293876D01*
Y902000D01*
D02*
G37*
G36*
X235681Y872523D02*
X238102Y870102D01*
X240624Y867580D01*
X240852Y867352D01*
X241150Y867228D01*
D01*
X241702Y867000D01*
X241702D01*
X242000Y866876D01*
X287505D01*
X288056Y866648D01*
X314352Y840352D01*
X338148Y816556D01*
X338376Y816005D01*
Y802250D01*
Y792245D01*
X338148Y791694D01*
X316623Y770169D01*
X292852Y746398D01*
X291852Y745398D01*
X291376Y744250D01*
Y741750D01*
Y741645D01*
X290621Y741095D01*
X290041Y741558D01*
X290040Y741592D01*
Y758173D01*
X290150Y758431D01*
X290150Y758441D01*
X290157Y758447D01*
X290265Y758707D01*
X290804Y759235D01*
X301537Y769735D01*
X301596Y769793D01*
D01*
X301821Y770013D01*
X301825Y770022D01*
X301833Y770025D01*
X302068Y770592D01*
X302309Y771156D01*
X302305Y771164D01*
X302309Y771173D01*
Y773133D01*
Y796894D01*
X302305Y796903D01*
X302309Y796912D01*
X302178Y797217D01*
Y797217D01*
X302141Y797305D01*
X302068Y797476D01*
X301833Y798042D01*
X301825Y798046D01*
X301821Y798055D01*
X301596Y798275D01*
D01*
X300318Y799525D01*
X291310Y808337D01*
X264987Y834660D01*
X231602Y868046D01*
X231374Y868597D01*
Y873604D01*
X231673Y874326D01*
X232249Y874903D01*
X233127Y875077D01*
X235681Y872523D01*
D02*
G37*
G36*
X41671Y853990D02*
X50553Y845910D01*
Y843385D01*
Y831770D01*
X49119Y830465D01*
Y417645D01*
Y385654D01*
X49573Y385150D01*
X51846Y382631D01*
X72752D01*
X77524Y377341D01*
X82750Y371548D01*
Y368713D01*
X82721D01*
X82750Y368687D01*
Y356315D01*
X82472Y355052D01*
X76644Y349750D01*
X25018D01*
X23352Y351265D01*
X12556Y361087D01*
Y789510D01*
Y844673D01*
X23907Y855000D01*
X40561D01*
X41671Y853990D01*
D02*
G37*
G36*
X1344194Y407337D02*
Y195212D01*
X1222123Y73000D01*
X1150014D01*
X1149528Y74173D01*
X1151802Y76448D01*
X1152355Y77275D01*
X1152549Y78250D01*
Y103500D01*
X1159000D01*
Y116750D01*
Y121500D01*
X1141000D01*
Y116750D01*
Y103500D01*
X1147451D01*
Y79306D01*
X1141145Y73000D01*
X1009465D01*
X967941Y114573D01*
X950827Y131706D01*
Y139996D01*
X954179Y141013D01*
X958574Y143362D01*
X962426Y146524D01*
X965588Y150376D01*
X967937Y154771D01*
X969384Y159540D01*
X969872Y164500D01*
X969384Y169460D01*
X967937Y174229D01*
X965588Y178624D01*
X962426Y182476D01*
X958574Y185638D01*
X954179Y187987D01*
X949958Y189268D01*
X949410Y189434D01*
X944450Y189922D01*
X939490Y189434D01*
X935904Y188346D01*
X924750Y199500D01*
X922750Y201500D01*
X305000D01*
X297694Y208806D01*
X296998D01*
X286931Y218884D01*
X286680Y219136D01*
X164370D01*
X149522Y234002D01*
X146250Y237277D01*
Y259701D01*
Y261213D01*
X158000Y272977D01*
Y311954D01*
X161648Y315602D01*
X162124Y316750D01*
Y362000D01*
Y363500D01*
X161648Y364648D01*
X161398Y364898D01*
X163000Y366500D01*
X163000Y366500D01*
Y366500D01*
X169500Y373000D01*
X170500Y374000D01*
X196500D01*
X209000Y361500D01*
X210250Y360250D01*
Y313500D01*
Y311250D01*
X239250Y282250D01*
X242146Y279354D01*
X291713D01*
X302555Y268500D01*
X334395D01*
X336198Y266698D01*
X337024Y266145D01*
X337186Y266113D01*
X338000Y265951D01*
X354049D01*
X354500Y265500D01*
X963000D01*
X969807Y258694D01*
X971464D01*
X996000Y234129D01*
Y231250D01*
X998876D01*
X1004946Y225172D01*
X1033401D01*
X1081915Y175293D01*
X1098256Y158491D01*
X1235544D01*
X1267250Y186000D01*
X1279064Y196250D01*
Y197000D01*
Y221750D01*
X1276471Y224000D01*
X1261168Y237277D01*
X1228164D01*
X1213819Y251639D01*
X1209288Y256174D01*
Y270536D01*
Y271543D01*
X1220865Y283134D01*
X1234707Y296991D01*
X1294352D01*
X1298500Y301144D01*
D01*
X1305928Y308581D01*
X1306460Y309114D01*
X1306697Y309686D01*
X1306935Y310261D01*
Y358469D01*
Y360821D01*
X1306697Y361396D01*
X1306460Y361968D01*
X1294100Y374343D01*
X1286047Y382405D01*
X1242005D01*
X1232190Y392232D01*
X1228164Y396263D01*
Y412892D01*
Y415160D01*
X1238734Y425742D01*
X1239740Y426750D01*
X1324803D01*
X1344194Y407337D01*
D02*
G37*
G36*
X660410Y963794D02*
X660995Y963222D01*
X664124Y960160D01*
X664500Y959792D01*
Y959478D01*
Y947358D01*
X664976Y946210D01*
X666124Y945734D01*
X686325D01*
X686811Y944561D01*
X685250Y943000D01*
Y941500D01*
X664500D01*
Y941175D01*
Y937991D01*
X647474Y921334D01*
X598397Y873322D01*
X374049D01*
X372879Y874467D01*
D01*
X351451Y895430D01*
X345209Y901537D01*
X344639Y901766D01*
X344073Y902000D01*
X309079D01*
X308781Y901876D01*
X308458D01*
X308229Y901648D01*
X307931Y901525D01*
X307882Y901407D01*
X306637Y901159D01*
X306272Y901525D01*
X305124Y902000D01*
X295500D01*
Y902323D01*
Y902626D01*
Y904250D01*
X239500D01*
Y902000D01*
X235126D01*
X234277Y901648D01*
D01*
X234009Y901537D01*
X233978Y901525D01*
X232602Y900148D01*
X232352Y899898D01*
X231876Y898750D01*
Y897500D01*
X231374D01*
X230226Y897025D01*
X229750Y895876D01*
Y877938D01*
X229814Y877784D01*
X229781Y877621D01*
X230044Y877227D01*
X230226Y876789D01*
X230379Y876726D01*
X230226Y876319D01*
X230226Y876319D01*
X230226Y876319D01*
X230102Y876021D01*
X229874Y875792D01*
Y875469D01*
X229750Y875171D01*
Y868274D01*
X230226Y867126D01*
X290162Y807189D01*
X290171Y807186D01*
X290175Y807177D01*
X299183Y798364D01*
X300685Y796894D01*
Y773133D01*
Y771173D01*
X289668Y760395D01*
X289557Y760286D01*
X288905Y759648D01*
X288901Y759639D01*
X288892Y759635D01*
X288657Y759069D01*
X288416Y758505D01*
X288420Y758496D01*
X288416Y758487D01*
Y741569D01*
Y741569D01*
X288437Y740826D01*
Y740826D01*
X288416Y740817D01*
Y731000D01*
X274483D01*
X274348Y732019D01*
X273442Y734209D01*
X271999Y736089D01*
X227822Y780265D01*
Y799589D01*
Y800079D01*
X185256Y841722D01*
X181250Y845641D01*
Y902472D01*
Y908351D01*
X202533Y929172D01*
X203785Y930397D01*
X594892D01*
X620296Y955250D01*
X626750D01*
Y961564D01*
X639211Y973755D01*
Y974000D01*
X649977D01*
X660410Y963794D01*
D02*
G37*
G36*
X1155672Y892990D02*
Y892750D01*
Y862422D01*
X1130750Y837500D01*
X1033500D01*
X1031750Y835750D01*
X1025204D01*
X1023350Y836518D01*
X1021000Y836828D01*
X1018651Y836518D01*
X1016796Y835750D01*
X1004750D01*
X1002500Y838000D01*
X984000Y819500D01*
Y818500D01*
Y708250D01*
X986250Y706000D01*
X1019250Y673000D01*
X1037250D01*
X1039750Y670500D01*
X1046750Y663500D01*
Y663000D01*
Y634303D01*
X1078713Y601452D01*
X1078892Y601526D01*
X1106977Y573441D01*
X1130349D01*
X1151248Y551962D01*
X1152273Y550909D01*
Y530903D01*
Y528587D01*
X1161083Y519532D01*
X1161493Y519110D01*
X1199193D01*
X1204930Y513214D01*
X1205750Y512372D01*
Y490260D01*
Y488576D01*
X1195915Y478467D01*
X1172352Y454250D01*
X1019091D01*
X992660Y481416D01*
X992455Y481626D01*
Y626298D01*
Y628404D01*
X1004749Y641039D01*
X1004999D01*
X1006500Y642541D01*
Y643000D01*
Y648750D01*
X1004250Y651000D01*
X953750Y701500D01*
Y707000D01*
Y852250D01*
X954500Y853000D01*
X965500Y864000D01*
X998000D01*
X1002000Y868000D01*
X1018126Y884126D01*
X1036625D01*
X1037773Y884602D01*
X1057843Y904672D01*
X1143990D01*
X1155672Y892990D01*
D02*
G37*
G36*
X749285Y872035D02*
X751104Y870819D01*
X753250Y870392D01*
X932177D01*
X940892Y861677D01*
Y851134D01*
X939625Y851051D01*
X939505Y851961D01*
X938586Y854179D01*
X937124Y856084D01*
X935219Y857546D01*
X933001Y858465D01*
X930620Y858779D01*
X928239Y858465D01*
X926021Y857546D01*
X924116Y856084D01*
X922654Y854179D01*
X921735Y851961D01*
X921421Y849580D01*
X921735Y847199D01*
X922654Y844981D01*
X924116Y843075D01*
X926021Y841614D01*
X928239Y840695D01*
X930620Y840381D01*
X933001Y840695D01*
X935219Y841614D01*
X937124Y843075D01*
X938586Y844981D01*
X939505Y847199D01*
X939625Y848109D01*
X940892Y848026D01*
Y825734D01*
X939625Y825651D01*
X939505Y826561D01*
X938586Y828779D01*
X937124Y830684D01*
X935219Y832146D01*
X933001Y833065D01*
X930620Y833379D01*
X928239Y833065D01*
X926021Y832146D01*
X924116Y830684D01*
X922654Y828779D01*
X921735Y826561D01*
X921421Y824180D01*
X921735Y821799D01*
X922654Y819581D01*
X924116Y817675D01*
X926021Y816214D01*
X928239Y815295D01*
X930620Y814981D01*
X933001Y815295D01*
X935219Y816214D01*
X937124Y817675D01*
X938586Y819581D01*
X939505Y821799D01*
X939625Y822709D01*
X940892Y822626D01*
Y800334D01*
X939625Y800251D01*
X939505Y801161D01*
X938586Y803379D01*
X937124Y805284D01*
X935219Y806746D01*
X933001Y807665D01*
X930620Y807979D01*
X928239Y807665D01*
X926021Y806746D01*
X924116Y805284D01*
X922654Y803379D01*
X921735Y801161D01*
X921421Y798780D01*
X921735Y796399D01*
X922654Y794181D01*
X924116Y792275D01*
X926021Y790814D01*
X928239Y789895D01*
X930620Y789581D01*
X933001Y789895D01*
X935219Y790814D01*
X937124Y792275D01*
X938586Y794181D01*
X939505Y796399D01*
X939625Y797309D01*
X940892Y797226D01*
Y774934D01*
X939625Y774851D01*
X939505Y775761D01*
X938586Y777979D01*
X937124Y779884D01*
X935219Y781346D01*
X933001Y782265D01*
X930620Y782579D01*
X928239Y782265D01*
X926021Y781346D01*
X924116Y779884D01*
X922654Y777979D01*
X921735Y775761D01*
X921421Y773380D01*
X921735Y770999D01*
X922654Y768781D01*
X924116Y766876D01*
X926021Y765414D01*
X928239Y764495D01*
X930620Y764181D01*
X933001Y764495D01*
X935219Y765414D01*
X937124Y766876D01*
X938586Y768781D01*
X939505Y770999D01*
X939625Y771909D01*
X940892Y771826D01*
Y749534D01*
X939625Y749451D01*
X939505Y750361D01*
X938586Y752579D01*
X937124Y754484D01*
X935219Y755946D01*
X933001Y756865D01*
X930620Y757179D01*
X928239Y756865D01*
X926021Y755946D01*
X924116Y754484D01*
X922654Y752579D01*
X921735Y750361D01*
X921421Y747980D01*
X921735Y745599D01*
X922654Y743381D01*
X924116Y741476D01*
X926021Y740014D01*
X928239Y739095D01*
X930620Y738781D01*
X933001Y739095D01*
X935219Y740014D01*
X937124Y741476D01*
X938586Y743381D01*
X939505Y745599D01*
X939625Y746509D01*
X940892Y746426D01*
Y724134D01*
X939625Y724051D01*
X939505Y724961D01*
X938586Y727179D01*
X937124Y729084D01*
X935219Y730546D01*
X933001Y731465D01*
X930620Y731779D01*
X928239Y731465D01*
X926021Y730546D01*
X924116Y729084D01*
X922654Y727179D01*
X921735Y724961D01*
X921421Y722580D01*
X921735Y720199D01*
X922654Y717981D01*
X924116Y716076D01*
X926021Y714614D01*
X928239Y713695D01*
X930620Y713381D01*
X933001Y713695D01*
X935219Y714614D01*
X937124Y716076D01*
X938586Y717981D01*
X939505Y720199D01*
X939625Y721109D01*
X940892Y721026D01*
Y698734D01*
X939625Y698651D01*
X939505Y699561D01*
X938586Y701779D01*
X937124Y703684D01*
X935219Y705146D01*
X933001Y706065D01*
X930620Y706379D01*
X928239Y706065D01*
X926021Y705146D01*
X924116Y703684D01*
X922654Y701779D01*
X921735Y699561D01*
X921421Y697180D01*
X921735Y694799D01*
X922654Y692581D01*
X924116Y690676D01*
X926021Y689214D01*
X928239Y688295D01*
X930620Y687981D01*
X933001Y688295D01*
X935219Y689214D01*
X937124Y690676D01*
X938586Y692581D01*
X939505Y694799D01*
X939625Y695709D01*
X940892Y695626D01*
Y689000D01*
X941319Y686854D01*
X942535Y685035D01*
X958318Y669252D01*
Y543951D01*
X957068Y542323D01*
X956277Y540413D01*
X956008Y538364D01*
X956277Y536315D01*
X957068Y534405D01*
X958327Y532765D01*
X959967Y531507D01*
X961876Y530716D01*
X963925Y530446D01*
X965975Y530716D01*
X967884Y531507D01*
X969524Y532765D01*
X970782Y534405D01*
X971573Y536315D01*
X971843Y538364D01*
X971573Y540413D01*
X970782Y542323D01*
X969533Y543951D01*
Y644423D01*
X970779Y644671D01*
X971143Y643791D01*
X972401Y642151D01*
X974041Y640893D01*
X974431Y640731D01*
Y310728D01*
X946272Y282569D01*
X939740D01*
Y299900D01*
X921500D01*
Y282569D01*
X911475D01*
X911067Y283771D01*
X911724Y284275D01*
X913186Y286181D01*
X914105Y288399D01*
X914419Y290780D01*
X914105Y293161D01*
X913186Y295379D01*
X911724Y297284D01*
X909819Y298746D01*
X907601Y299665D01*
X905220Y299979D01*
X902839Y299665D01*
X900621Y298746D01*
X898716Y297284D01*
X897254Y295379D01*
X896335Y293161D01*
X896021Y290780D01*
X896335Y288399D01*
X897254Y286181D01*
X898716Y284275D01*
X899373Y283771D01*
X898964Y282569D01*
X848478D01*
X810273Y320773D01*
X809116Y321547D01*
X807750Y321819D01*
X792840D01*
X791919Y323019D01*
X790039Y324462D01*
X787850Y325368D01*
X785500Y325678D01*
X783150Y325368D01*
X780961Y324462D01*
X779081Y323019D01*
X777639Y321139D01*
X776732Y318950D01*
X776422Y316600D01*
X776732Y314251D01*
X777639Y312061D01*
X779081Y310181D01*
X780961Y308738D01*
X783150Y307832D01*
X785500Y307522D01*
X787850Y307832D01*
X790039Y308738D01*
X791919Y310181D01*
X793362Y312061D01*
X794268Y314251D01*
X794325Y314681D01*
X806272D01*
X844477Y276477D01*
X845634Y275703D01*
X847000Y275431D01*
X947750D01*
X949116Y275703D01*
X950273Y276477D01*
X980523Y306727D01*
X981297Y307884D01*
X981569Y309250D01*
Y445796D01*
X982708Y446358D01*
X984291Y445143D01*
X986201Y444352D01*
X988250Y444082D01*
X990299Y444352D01*
X990689Y444514D01*
X1003227Y431977D01*
X1004384Y431203D01*
X1005750Y430931D01*
X1098231D01*
X1098393Y430541D01*
X1099651Y428901D01*
X1101291Y427643D01*
X1103201Y426852D01*
X1105250Y426582D01*
X1107299Y426852D01*
X1109209Y427643D01*
X1110849Y428901D01*
X1112107Y430541D01*
X1112898Y432451D01*
X1113168Y434500D01*
X1112898Y436549D01*
X1112107Y438459D01*
X1110849Y440099D01*
X1109209Y441357D01*
X1107299Y442148D01*
X1105250Y442418D01*
X1103201Y442148D01*
X1101291Y441357D01*
X1099651Y440099D01*
X1098393Y438459D01*
X1098231Y438069D01*
X1007228D01*
X995736Y449561D01*
X995898Y449951D01*
X996168Y452000D01*
X995898Y454049D01*
X995107Y455959D01*
X993849Y457599D01*
X992209Y458857D01*
X990299Y459648D01*
X988250Y459918D01*
X986201Y459648D01*
X984291Y458857D01*
X982708Y457642D01*
X981569Y458204D01*
Y640731D01*
X981959Y640893D01*
X983599Y642151D01*
X984857Y643791D01*
X985648Y645701D01*
X985918Y647750D01*
X985648Y649799D01*
X984857Y651709D01*
X983599Y653349D01*
X981959Y654607D01*
X980049Y655398D01*
X978000Y655668D01*
X975951Y655398D01*
X974041Y654607D01*
X972401Y653349D01*
X971143Y651709D01*
X970779Y650829D01*
X969533Y651077D01*
Y671575D01*
X969106Y673721D01*
X967891Y675540D01*
X952108Y691323D01*
Y699187D01*
X953281Y699673D01*
X1003102Y649852D01*
X1004876Y648077D01*
Y643213D01*
X1004027Y642364D01*
X1003600Y642188D01*
X1003596Y642176D01*
X1003585Y642172D01*
X991291Y629537D01*
X991065Y628969D01*
X990831Y628404D01*
Y626298D01*
Y481626D01*
X991065Y481061D01*
X991291Y480494D01*
X991496Y480283D01*
X991496D01*
X991496Y480283D01*
X1017927Y453118D01*
X1017939Y453113D01*
X1017943Y453102D01*
X1018508Y452868D01*
X1019069Y452627D01*
X1019080Y452631D01*
X1019091Y452626D01*
X1163697D01*
X1164128Y451432D01*
X1122346Y416767D01*
X1122308Y416696D01*
X1122234Y416665D01*
X1122023Y416156D01*
X1121766Y415668D01*
X1121789Y415591D01*
X1121759Y415517D01*
Y399290D01*
X1122234Y398142D01*
X1123382Y397666D01*
X1151126D01*
Y386914D01*
X1140299D01*
X1139151Y386438D01*
X1138675Y385290D01*
Y373160D01*
X1138576Y372658D01*
X1138291Y372233D01*
X1119151Y353092D01*
X1118675Y351944D01*
Y327767D01*
X1119151Y326619D01*
X1120299Y326143D01*
X1123985D01*
X1124495Y326354D01*
X1125022Y326517D01*
X1134896Y334710D01*
X1152750D01*
Y346412D01*
X1169669Y363331D01*
X1169669Y363331D01*
X1169669Y363331D01*
X1171111Y365211D01*
X1172018Y367401D01*
X1172328Y369750D01*
Y400490D01*
X1250266Y478428D01*
X1343044Y555403D01*
X1344194Y554863D01*
Y411295D01*
X1343020Y410809D01*
X1325952Y427897D01*
X1325952Y427898D01*
X1325951Y427898D01*
X1325380Y428135D01*
X1324804Y428374D01*
X1324804Y428373D01*
X1324803Y428374D01*
X1239740D01*
X1239740Y428373D01*
X1239739Y428374D01*
X1239164Y428135D01*
X1238592Y427898D01*
X1238592Y427898D01*
X1238592Y427897D01*
X1237585Y426890D01*
X1227015Y416307D01*
X1226778Y415735D01*
X1226540Y415160D01*
Y412892D01*
Y408578D01*
X1221250D01*
X1218901Y408268D01*
X1216711Y407361D01*
X1214937Y406000D01*
X1212250D01*
Y400090D01*
X1212172Y399500D01*
X1212250Y398910D01*
Y393000D01*
X1214937D01*
X1216711Y391639D01*
X1218901Y390732D01*
X1221250Y390422D01*
X1231703D01*
X1240856Y381258D01*
X1240857Y381258D01*
X1240857Y381257D01*
X1241429Y381021D01*
X1242004Y380782D01*
X1242005Y380782D01*
X1242005Y380782D01*
X1285374D01*
X1292951Y373195D01*
D01*
X1297961Y368179D01*
D01*
X1300192Y365947D01*
X1305083Y361049D01*
X1305197Y360775D01*
X1305197Y360775D01*
Y360774D01*
X1305311Y360498D01*
Y358469D01*
Y310584D01*
X1305197Y310308D01*
Y310307D01*
X1305197Y310307D01*
X1305083Y310033D01*
X1304780Y309729D01*
X1297351Y302292D01*
D01*
X1293679Y298615D01*
X1234707D01*
X1234706Y298615D01*
X1234706Y298615D01*
X1234148Y298384D01*
X1233559Y298139D01*
X1233559Y298139D01*
X1233558Y298139D01*
X1219716Y284281D01*
X1208948Y273500D01*
X1199750D01*
Y249500D01*
X1213660D01*
X1220643Y242509D01*
X1221527Y240373D01*
X1221541Y240337D01*
X1215547Y234343D01*
X1215140Y234186D01*
X1215132Y234167D01*
X1215113Y234159D01*
X1214314Y233360D01*
X1214112Y233279D01*
X1214110Y233274D01*
X1214105Y233272D01*
X1213202Y232380D01*
X1213200Y232375D01*
X1213195Y232373D01*
X1213102Y232148D01*
X1204577Y223624D01*
X1108173D01*
X1089874Y241922D01*
Y243250D01*
Y277827D01*
X1093898Y281852D01*
X1117398Y305352D01*
X1117874Y306500D01*
Y318145D01*
X1117398Y319293D01*
X1117209Y319483D01*
X1116925Y319908D01*
X1116825Y320410D01*
Y352840D01*
X1116925Y353342D01*
X1117209Y353767D01*
X1117398Y353957D01*
X1117874Y355105D01*
Y394250D01*
X1117398Y395398D01*
X1111648Y401148D01*
X1096648Y416148D01*
X1095500Y416624D01*
X1043750D01*
X1042602Y416148D01*
X1038602Y412148D01*
X1027102Y400648D01*
X1026626Y399500D01*
Y395000D01*
Y347500D01*
X1027102Y346352D01*
X1034352Y339102D01*
X1043376Y330078D01*
Y321750D01*
Y227500D01*
X1043852Y226352D01*
X1050102Y220102D01*
X1096852Y173352D01*
X1098000Y172876D01*
X1117283D01*
X1117832Y172250D01*
X1118102Y170201D01*
X1118893Y168291D01*
X1120151Y166651D01*
X1121791Y165393D01*
X1123701Y164602D01*
X1125750Y164332D01*
X1127799Y164602D01*
X1129709Y165393D01*
X1131349Y166651D01*
X1132607Y168291D01*
X1132976Y169181D01*
X1167231D01*
X1167393Y168791D01*
X1168651Y167151D01*
X1170291Y165893D01*
X1172201Y165102D01*
X1174250Y164832D01*
X1176299Y165102D01*
X1178209Y165893D01*
X1179849Y167151D01*
X1181107Y168791D01*
X1181898Y170701D01*
X1182168Y172750D01*
X1182279Y172876D01*
X1247831D01*
X1248275Y171687D01*
X1234937Y160115D01*
X1098942D01*
X1083079Y176425D01*
X1034565Y226304D01*
X1034554Y226309D01*
X1034550Y226320D01*
X1033985Y226554D01*
X1033424Y226796D01*
X1033413Y226791D01*
X1033401Y226796D01*
X1005619D01*
X1002342Y230077D01*
X1002829Y231250D01*
X1014000D01*
Y249250D01*
X996000D01*
Y238087D01*
X994827Y237601D01*
X972613Y259841D01*
X972612Y259841D01*
X972612Y259842D01*
X972040Y260078D01*
X971465Y260317D01*
X971464Y260317D01*
X971464Y260317D01*
X970479D01*
X964148Y266648D01*
X963000Y267124D01*
X726828D01*
Y378740D01*
X769919Y421831D01*
X769919Y421831D01*
X770545Y422647D01*
X771361Y423711D01*
X772003Y425259D01*
X772268Y425900D01*
X772304Y426174D01*
X772578Y428250D01*
X772578Y428250D01*
Y457250D01*
X772268Y459599D01*
X771361Y461789D01*
X769919Y463669D01*
X768039Y465112D01*
X765850Y466018D01*
X763500Y466328D01*
X761151Y466018D01*
X758961Y465112D01*
X757081Y463669D01*
X755639Y461789D01*
X754732Y459599D01*
X754422Y457250D01*
Y432010D01*
X711331Y388919D01*
X709889Y387039D01*
X709513Y386132D01*
X708982Y384850D01*
X708672Y382500D01*
X708672Y382500D01*
X708672D01*
X708672Y382500D01*
X708672D01*
Y267124D01*
X485507D01*
X485099Y268326D01*
X485849Y268901D01*
X487107Y270541D01*
X487898Y272451D01*
X488168Y274500D01*
X487898Y276549D01*
X487107Y278459D01*
X485849Y280099D01*
X484209Y281357D01*
X482299Y282148D01*
X480250Y282418D01*
X478201Y282148D01*
X476291Y281357D01*
X474651Y280099D01*
X473393Y278459D01*
X472602Y276549D01*
X472332Y274500D01*
X472602Y272451D01*
X472745Y272105D01*
X472040Y271049D01*
X461505D01*
X461019Y272222D01*
X488478Y299681D01*
X629400D01*
X630766Y299953D01*
X631923Y300727D01*
X646728Y315531D01*
X657737D01*
X658139Y314561D01*
X659581Y312681D01*
X661461Y311238D01*
X663651Y310332D01*
X666000Y310022D01*
X668350Y310332D01*
X670539Y311238D01*
X672419Y312681D01*
X673861Y314561D01*
X674768Y316751D01*
X675078Y319100D01*
X674768Y321450D01*
X673861Y323639D01*
X672419Y325519D01*
X670539Y326961D01*
X668350Y327868D01*
X666000Y328178D01*
X663651Y327868D01*
X661461Y326961D01*
X659581Y325519D01*
X658139Y323639D01*
X657737Y322669D01*
X645250D01*
X643884Y322397D01*
X642727Y321623D01*
X627922Y306819D01*
X487000D01*
X485634Y306547D01*
X484477Y305773D01*
X456022Y277319D01*
X411978D01*
X396819Y292478D01*
Y343981D01*
X397209Y344143D01*
X398849Y345401D01*
X400107Y347041D01*
X400898Y348951D01*
X401168Y351000D01*
X400898Y353049D01*
X400107Y354959D01*
X398849Y356599D01*
X397209Y357857D01*
X395299Y358648D01*
X393250Y358918D01*
X391201Y358648D01*
X389291Y357857D01*
X387651Y356599D01*
X386393Y354959D01*
X385602Y353049D01*
X385332Y351000D01*
X385602Y348951D01*
X386393Y347041D01*
X387651Y345401D01*
X389291Y344143D01*
X389681Y343981D01*
Y291000D01*
X389681Y291000D01*
X389681D01*
X389953Y289634D01*
X390727Y288477D01*
X406981Y272222D01*
X406495Y271049D01*
X339056D01*
X326552Y283552D01*
X325726Y284105D01*
X324750Y284299D01*
X324500D01*
Y290750D01*
X306500D01*
Y272750D01*
X324500D01*
Y276736D01*
X325673Y277222D01*
X331598Y271297D01*
X331112Y270124D01*
X303228D01*
X292862Y280502D01*
X292861Y280502D01*
X292861Y280502D01*
X292290Y280739D01*
X291714Y280978D01*
X291714Y280978D01*
X291713Y280978D01*
X242818D01*
X240398Y283398D01*
X211874Y311922D01*
Y313500D01*
Y360250D01*
X211398Y361398D01*
X210148Y362648D01*
X197648Y375148D01*
X196500Y375624D01*
X170500D01*
X169352Y375148D01*
X168352Y374148D01*
X161852Y367648D01*
D01*
X161852Y367648D01*
X160250Y366046D01*
X157398Y368898D01*
X156648Y369648D01*
X155500Y370124D01*
X89500D01*
X88352Y369648D01*
X85547Y366843D01*
X84374Y367329D01*
Y368687D01*
X84368Y368700D01*
X84374Y368713D01*
Y371548D01*
X84151Y372086D01*
X83956Y372635D01*
X78729Y378429D01*
X78729Y378429D01*
X73957Y383719D01*
X73917Y383738D01*
X73900Y383779D01*
X73361Y384002D01*
X72835Y384253D01*
X72793Y384238D01*
X72752Y384255D01*
X52568D01*
X50779Y386238D01*
X50779Y386238D01*
X50743Y386278D01*
Y417645D01*
Y829748D01*
X51646Y830569D01*
X51663Y830606D01*
X51701Y830622D01*
X51925Y831163D01*
X52175Y831693D01*
X52161Y831732D01*
X52177Y831770D01*
Y843385D01*
Y845910D01*
X52161Y845948D01*
X52175Y845987D01*
X52175Y845987D01*
X52175Y845987D01*
D01*
X52027Y846559D01*
D01*
D01*
X54071Y847406D01*
X54351Y847522D01*
X54674D01*
X103417D01*
X103690Y847407D01*
X103693D01*
X103696Y847405D01*
X103962Y847294D01*
X203054Y747454D01*
X246573Y703606D01*
X246576Y703605D01*
X246577Y703602D01*
X247145Y703367D01*
X247719Y703126D01*
X247722Y703128D01*
X247725Y703126D01*
X250390D01*
X250873Y703327D01*
X251378Y703462D01*
X251680Y703693D01*
X253474Y704436D01*
X255506Y704704D01*
X265294D01*
X265873Y704628D01*
X266987Y704481D01*
X267326Y704436D01*
X269120Y703693D01*
X269422Y703462D01*
X269927Y703327D01*
X270410Y703126D01*
X271236D01*
X271238Y703128D01*
X271242Y703126D01*
X271241D01*
X271845Y703293D01*
X272822Y700931D01*
Y686160D01*
X267590Y680928D01*
X255400D01*
X253050Y680618D01*
X250861Y679712D01*
X248981Y678269D01*
X247539Y676389D01*
X246632Y674200D01*
X246322Y671850D01*
X246632Y669501D01*
X247539Y667311D01*
X248981Y665431D01*
X249023Y664795D01*
X187614Y603386D01*
X186572Y602028D01*
X186245Y601237D01*
X185917Y600447D01*
X185694Y598750D01*
Y571216D01*
X173534Y559056D01*
X124500D01*
X122803Y558833D01*
X121222Y558178D01*
X119864Y557136D01*
X98614Y535886D01*
X97572Y534528D01*
X97189Y533602D01*
X96917Y532947D01*
X96694Y531250D01*
Y499351D01*
X96393Y498959D01*
X95602Y497049D01*
X95332Y495000D01*
X95602Y492951D01*
X96393Y491041D01*
X97651Y489401D01*
X99291Y488143D01*
X101201Y487352D01*
X103250Y487082D01*
X105299Y487352D01*
X107209Y488143D01*
X108849Y489401D01*
X110107Y491041D01*
X110898Y492951D01*
X111168Y495000D01*
X110898Y497049D01*
X110107Y498959D01*
X109806Y499351D01*
Y504879D01*
X109948Y505270D01*
X111188Y505545D01*
X111926Y504808D01*
X132646Y484102D01*
X133223Y483863D01*
X133793Y483626D01*
X134420D01*
X134906Y482453D01*
X123727Y471273D01*
X122953Y470116D01*
X122687Y468777D01*
X121151Y467599D01*
X119893Y465959D01*
X119102Y464049D01*
X118832Y462000D01*
X119102Y459951D01*
X119893Y458041D01*
X121151Y456401D01*
X122791Y455143D01*
X124701Y454352D01*
X126750Y454082D01*
X128799Y454352D01*
X130709Y455143D01*
X132349Y456401D01*
X133607Y458041D01*
X134398Y459951D01*
X134668Y462000D01*
X134398Y464049D01*
X133607Y465959D01*
X132349Y467599D01*
X131866Y467969D01*
X131783Y469236D01*
X139728Y477181D01*
X383000D01*
X384366Y477453D01*
X385523Y478227D01*
X410478Y503181D01*
X417587D01*
X417834Y501936D01*
X417795Y501920D01*
X415890Y500458D01*
X414428Y498553D01*
X413509Y496334D01*
X413195Y493953D01*
X413509Y491572D01*
X414428Y489354D01*
X415890Y487449D01*
X417795Y485987D01*
X419419Y485314D01*
X419171Y484069D01*
X398750D01*
X397384Y483797D01*
X396227Y483023D01*
X360022Y446819D01*
X193228D01*
X182629Y457418D01*
X183107Y458041D01*
X183898Y459951D01*
X184168Y462000D01*
X183898Y464049D01*
X183107Y465959D01*
X181849Y467599D01*
X180209Y468857D01*
X178299Y469648D01*
X176250Y469918D01*
X174201Y469648D01*
X172291Y468857D01*
X170651Y467599D01*
X169393Y465959D01*
X168602Y464049D01*
X168332Y462000D01*
X168602Y459951D01*
X169393Y458041D01*
X170651Y456401D01*
X172291Y455143D01*
X174201Y454352D01*
X175814Y454140D01*
X189227Y440727D01*
X190384Y439953D01*
X191750Y439681D01*
X361500D01*
X362866Y439953D01*
X364023Y440727D01*
X400228Y476931D01*
X416356D01*
X416764Y475729D01*
X415890Y475058D01*
X414428Y473153D01*
X413509Y470934D01*
X413195Y468553D01*
X413509Y466172D01*
X414428Y463954D01*
X415890Y462049D01*
X417795Y460587D01*
X420013Y459668D01*
X422394Y459355D01*
X424775Y459668D01*
X426993Y460587D01*
X428899Y462049D01*
X430360Y463954D01*
X431279Y466172D01*
X431593Y468553D01*
X431279Y470934D01*
X430360Y473153D01*
X428899Y475058D01*
X428024Y475729D01*
X428432Y476931D01*
X441756D01*
X442164Y475729D01*
X441290Y475058D01*
X439828Y473153D01*
X438909Y470934D01*
X438596Y468553D01*
X438909Y466172D01*
X439828Y463954D01*
X441290Y462049D01*
X443195Y460587D01*
X445413Y459668D01*
X447794Y459355D01*
X450175Y459668D01*
X452393Y460587D01*
X454299Y462049D01*
X455760Y463954D01*
X456679Y466172D01*
X456993Y468553D01*
X456679Y470934D01*
X455760Y473153D01*
X454299Y475058D01*
X453424Y475729D01*
X453832Y476931D01*
X815540D01*
X816906Y477203D01*
X818063Y477977D01*
X818063Y477977D01*
X818063Y477977D01*
X901808Y561722D01*
X902839Y561295D01*
X905220Y560981D01*
X907601Y561295D01*
X909819Y562214D01*
X911724Y563675D01*
X913186Y565581D01*
X914105Y567799D01*
X914419Y570180D01*
X914105Y572561D01*
X913186Y574779D01*
X911724Y576684D01*
X909819Y578146D01*
X907601Y579065D01*
X905220Y579379D01*
X902839Y579065D01*
X900621Y578146D01*
X898716Y576684D01*
X897254Y574779D01*
X896335Y572561D01*
X896021Y570180D01*
X896335Y567799D01*
X896762Y566768D01*
X814062Y484069D01*
X770328D01*
X769766Y485208D01*
X771111Y486961D01*
X772018Y489151D01*
X772328Y491500D01*
Y555601D01*
X772578Y557500D01*
X772268Y559850D01*
X771361Y562039D01*
X769919Y563919D01*
X768039Y565362D01*
X765849Y566268D01*
X763500Y566578D01*
X761151Y566268D01*
X758961Y565362D01*
X757081Y563919D01*
X756831Y563669D01*
X755388Y561789D01*
X755013Y560882D01*
X754482Y559599D01*
X754172Y557250D01*
Y491500D01*
X754482Y489151D01*
X755388Y486961D01*
X756734Y485208D01*
X756172Y484069D01*
X451017D01*
X450770Y485314D01*
X452393Y485987D01*
X454299Y487449D01*
X455760Y489354D01*
X456679Y491572D01*
X456993Y493953D01*
X456679Y496334D01*
X455760Y498553D01*
X454299Y500458D01*
X452393Y501920D01*
X450175Y502838D01*
X447794Y503152D01*
X445413Y502838D01*
X444383Y502411D01*
X437521Y509273D01*
X436363Y510047D01*
X434997Y510319D01*
X427577D01*
X427169Y511521D01*
X428899Y512849D01*
X430360Y514754D01*
X431279Y516972D01*
X431593Y519353D01*
X431279Y521734D01*
X430360Y523952D01*
X428899Y525858D01*
X426993Y527319D01*
X424775Y528238D01*
X422394Y528552D01*
X420013Y528238D01*
X417795Y527319D01*
X415890Y525858D01*
X414428Y523952D01*
X413509Y521734D01*
X413195Y519353D01*
X413509Y516972D01*
X414428Y514754D01*
X415890Y512849D01*
X417620Y511521D01*
X417212Y510319D01*
X409000D01*
X407634Y510047D01*
X406477Y509273D01*
X401680Y504477D01*
X400541Y505039D01*
X400668Y506000D01*
X400398Y508049D01*
X399607Y509959D01*
X398349Y511599D01*
X396819Y512773D01*
Y594231D01*
X397209Y594393D01*
X398849Y595651D01*
X400107Y597291D01*
X400898Y599201D01*
X401168Y601250D01*
X400898Y603299D01*
X400107Y605209D01*
X398849Y606849D01*
X397209Y608107D01*
X395299Y608898D01*
X393860Y609087D01*
X393452Y610290D01*
X413148Y629986D01*
X413624Y631134D01*
Y640826D01*
X414826Y641235D01*
X415890Y639849D01*
X417795Y638387D01*
X420013Y637468D01*
X422394Y637155D01*
X424775Y637468D01*
X426993Y638387D01*
X428899Y639849D01*
X430360Y641754D01*
X431279Y643972D01*
X431593Y646353D01*
X431279Y648734D01*
X430360Y650953D01*
X428899Y652858D01*
X426993Y654320D01*
X424775Y655238D01*
X422394Y655552D01*
X420013Y655238D01*
X417795Y654320D01*
X415890Y652858D01*
X414826Y651472D01*
X413624Y651880D01*
Y666226D01*
X414826Y666635D01*
X415890Y665249D01*
X417795Y663787D01*
X420013Y662868D01*
X422394Y662554D01*
X424775Y662868D01*
X426993Y663787D01*
X428899Y665249D01*
X430360Y667154D01*
X431279Y669372D01*
X431593Y671753D01*
X431279Y674134D01*
X430360Y676352D01*
X428899Y678258D01*
X426993Y679719D01*
X424775Y680638D01*
X422394Y680952D01*
X420013Y680638D01*
X417795Y679719D01*
X415890Y678258D01*
X414826Y676872D01*
X413624Y677280D01*
Y691626D01*
X414826Y692035D01*
X415890Y690649D01*
X417795Y689187D01*
X420013Y688268D01*
X422394Y687954D01*
X424775Y688268D01*
X426993Y689187D01*
X428899Y690649D01*
X430360Y692554D01*
X431279Y694772D01*
X431593Y697153D01*
X431279Y699534D01*
X430360Y701752D01*
X428899Y703658D01*
X426993Y705119D01*
X424775Y706038D01*
X422394Y706352D01*
X420013Y706038D01*
X417795Y705119D01*
X415890Y703658D01*
X414826Y702272D01*
X413624Y702680D01*
Y717026D01*
X414826Y717435D01*
X415890Y716049D01*
X417795Y714587D01*
X420013Y713668D01*
X422394Y713354D01*
X424775Y713668D01*
X426993Y714587D01*
X428899Y716049D01*
X430360Y717954D01*
X431279Y720172D01*
X431593Y722553D01*
X431279Y724934D01*
X430360Y727152D01*
X428899Y729058D01*
X426993Y730519D01*
X424775Y731438D01*
X422394Y731752D01*
X420013Y731438D01*
X417795Y730519D01*
X415890Y729058D01*
X414826Y727672D01*
X413624Y728080D01*
Y742426D01*
X414826Y742835D01*
X415890Y741449D01*
X417795Y739987D01*
X420013Y739068D01*
X422394Y738755D01*
X424775Y739068D01*
X426993Y739987D01*
X428899Y741449D01*
X430360Y743354D01*
X431279Y745572D01*
X431593Y747953D01*
X431279Y750334D01*
X430360Y752552D01*
X428899Y754458D01*
X426993Y755919D01*
X424775Y756838D01*
X422394Y757152D01*
X420013Y756838D01*
X417795Y755919D01*
X415890Y754458D01*
X414826Y753072D01*
X413624Y753480D01*
Y767826D01*
X414826Y768235D01*
X415890Y766849D01*
X417795Y765387D01*
X420013Y764468D01*
X422394Y764155D01*
X424775Y764468D01*
X426993Y765387D01*
X428899Y766849D01*
X430360Y768754D01*
X431279Y770972D01*
X431593Y773353D01*
X431279Y775734D01*
X430360Y777952D01*
X428899Y779858D01*
X426993Y781320D01*
X424775Y782238D01*
X422394Y782552D01*
X420013Y782238D01*
X417795Y781320D01*
X415890Y779858D01*
X414826Y778472D01*
X413624Y778880D01*
Y793226D01*
X414826Y793635D01*
X415890Y792249D01*
X417795Y790787D01*
X420013Y789868D01*
X422394Y789555D01*
X424775Y789868D01*
X426993Y790787D01*
X428899Y792249D01*
X430360Y794154D01*
X431279Y796372D01*
X431593Y798753D01*
X431279Y801134D01*
X430360Y803353D01*
X428899Y805258D01*
X426993Y806720D01*
X424775Y807638D01*
X422394Y807952D01*
X420013Y807638D01*
X417795Y806720D01*
X415890Y805258D01*
X414428Y803353D01*
X413509Y801134D01*
X413195Y798753D01*
X413509Y796372D01*
X413738Y795820D01*
X412682Y795114D01*
X309701Y898095D01*
X309376Y898881D01*
X309402Y898817D01*
Y899632D01*
X309899Y900376D01*
X343750D01*
X344018Y900266D01*
X344027D01*
X344034Y900259D01*
X344304Y900151D01*
X361477Y883350D01*
X371743Y873306D01*
X371743Y873306D01*
X372914Y872161D01*
X373483Y871932D01*
X374049Y871698D01*
X598397D01*
X598964Y871933D01*
X599533Y872161D01*
X648609Y920173D01*
X648609Y920173D01*
X664932Y936142D01*
X685177D01*
X749285Y872035D01*
D02*
G37*
G36*
X1344194Y941784D02*
Y844421D01*
X1343044Y843881D01*
X1339566Y846767D01*
X1339566D01*
Y846767D01*
X1338361Y847767D01*
X1337834Y847930D01*
X1337324Y848141D01*
X1316231D01*
X1315722Y847930D01*
X1315195Y847767D01*
X1310072Y843517D01*
D01*
X1309168Y842767D01*
X1309131Y842696D01*
X1309057Y842665D01*
X1308846Y842156D01*
X1308588Y841668D01*
X1308612Y841591D01*
X1308581Y841517D01*
Y592705D01*
X1308581Y592705D01*
X1308581D01*
Y572517D01*
Y571544D01*
X1308504Y571399D01*
X1308497Y571319D01*
X1308440Y571263D01*
X1308377Y571111D01*
X1271201Y540267D01*
X1223061Y500326D01*
X1221843Y500688D01*
X1221250Y502607D01*
Y510500D01*
X1207374D01*
Y512372D01*
X1207140Y512937D01*
X1206914Y513504D01*
X1206094Y514346D01*
X1200357Y520243D01*
X1200346Y520247D01*
X1200341Y520258D01*
X1199777Y520492D01*
X1199216Y520734D01*
X1199204Y520729D01*
X1199193Y520734D01*
X1162178D01*
X1153896Y529246D01*
Y530903D01*
Y550909D01*
X1153662Y551474D01*
X1153436Y552041D01*
X1152412Y553094D01*
X1152412Y553094D01*
X1148000Y557628D01*
Y559750D01*
X1145936D01*
X1131513Y574574D01*
X1131501Y574578D01*
X1131497Y574590D01*
X1130932Y574823D01*
X1130371Y575065D01*
X1130360Y575060D01*
X1130349Y575065D01*
X1107649D01*
X1080040Y602675D01*
X1079742Y602798D01*
X1079513Y603027D01*
X1079446D01*
X1048374Y634962D01*
Y660144D01*
X1048438Y660301D01*
X1048748Y662650D01*
X1048438Y664999D01*
X1047532Y667189D01*
X1046089Y669069D01*
X1044209Y670511D01*
X1042020Y671418D01*
X1040993Y671553D01*
X1040898Y671648D01*
X1039093Y673453D01*
X1039579Y674626D01*
X1042250D01*
X1043398Y675102D01*
X1049648Y681352D01*
X1050148Y681852D01*
X1050624Y683000D01*
Y693500D01*
Y695250D01*
X1050148Y696398D01*
X1042898Y703648D01*
X1042744Y703712D01*
Y704982D01*
X1044209Y705589D01*
X1046089Y707031D01*
X1047532Y708911D01*
X1048438Y711100D01*
X1048748Y713450D01*
X1048438Y715799D01*
X1047532Y717989D01*
X1046089Y719869D01*
X1044209Y721311D01*
X1042020Y722218D01*
X1039670Y722528D01*
X1029670D01*
X1027320Y722218D01*
X1025131Y721311D01*
X1023251Y719869D01*
X1021808Y717989D01*
X1020902Y715799D01*
X1020869Y715547D01*
X1020435Y715360D01*
X1019374Y716057D01*
Y737274D01*
X1020329Y738111D01*
X1020696Y738063D01*
X1020902Y736500D01*
X1021808Y734311D01*
X1023251Y732431D01*
X1025131Y730989D01*
X1027320Y730082D01*
X1029670Y729772D01*
X1039670D01*
X1042020Y730082D01*
X1044209Y730989D01*
X1046089Y732431D01*
X1047532Y734311D01*
X1048438Y736500D01*
X1048748Y738850D01*
X1048438Y741199D01*
X1047532Y743389D01*
X1046089Y745269D01*
X1044209Y746712D01*
X1042020Y747618D01*
X1039670Y747928D01*
X1029670D01*
X1027320Y747618D01*
X1025131Y746712D01*
X1023251Y745269D01*
X1021808Y743389D01*
X1020902Y741199D01*
X1020696Y739638D01*
X1020329Y739589D01*
X1019374Y740426D01*
Y752750D01*
Y794005D01*
X1019602Y794556D01*
X1039148Y814102D01*
X1041725Y816679D01*
X1042898Y817852D01*
X1043374Y819000D01*
Y835876D01*
X1130750D01*
X1131898Y836352D01*
X1154499Y858953D01*
X1155672Y858467D01*
Y835796D01*
Y818833D01*
X1155444Y818282D01*
X1148831Y811669D01*
X1142218Y805056D01*
X1141667Y804828D01*
X1083500D01*
X1083500Y804828D01*
X1081151Y804518D01*
X1080198Y804124D01*
X1078875D01*
X1077727Y803648D01*
X1067227Y793148D01*
X1061477Y787398D01*
X1061001Y786250D01*
Y738750D01*
Y734500D01*
Y733823D01*
Y733500D01*
X1061125Y733202D01*
Y733202D01*
X1061353Y732650D01*
D01*
X1061477Y732352D01*
X1061705Y732124D01*
X1064447Y729382D01*
D01*
Y729382D01*
X1064164Y728697D01*
Y728697D01*
X1064082Y728500D01*
X1064054Y728288D01*
Y728288D01*
X1063800Y726362D01*
Y726362D01*
X1063772Y726150D01*
X1063800Y725938D01*
Y725938D01*
X1064002Y724409D01*
X1064082Y723801D01*
X1064351Y723149D01*
X1064907Y721809D01*
D01*
X1064988Y721611D01*
X1066431Y719731D01*
X1066601Y719601D01*
Y719601D01*
X1068142Y718419D01*
X1068142D01*
X1068311Y718289D01*
X1068509Y718207D01*
X1068509Y718207D01*
X1070303Y717464D01*
D01*
X1070500Y717382D01*
X1072165Y717162D01*
X1072744Y717086D01*
D01*
X1072850Y717072D01*
X1082850D01*
X1082956Y717086D01*
D01*
X1083303Y717132D01*
X1085200Y717382D01*
X1085851Y717651D01*
X1087191Y718207D01*
D01*
X1087389Y718289D01*
X1089269Y719731D01*
X1089399Y719901D01*
X1089399D01*
X1090581Y721442D01*
Y721442D01*
X1090712Y721611D01*
X1090793Y721809D01*
X1090793Y721809D01*
X1091537Y723603D01*
D01*
X1091618Y723801D01*
X1091816Y725304D01*
X1091886Y725830D01*
X1091961Y725960D01*
X1091982Y726125D01*
X1092062Y726216D01*
X1092128Y726244D01*
X1092168Y726284D01*
X1092225Y726287D01*
X1092406Y726376D01*
X1092875D01*
X1093173Y726500D01*
X1093173D01*
X1093725Y726728D01*
D01*
X1094023Y726852D01*
X1098273Y731102D01*
X1098497Y731326D01*
X1099156Y731263D01*
X1099413Y730431D01*
X1095835Y726792D01*
Y726792D01*
X1095608Y726562D01*
X1095487Y726262D01*
X1095487Y726262D01*
X1095377Y725991D01*
Y725991D01*
X1095142Y725423D01*
Y725100D01*
Y702803D01*
X1094914Y702252D01*
X1092076Y699413D01*
X1091524Y699185D01*
X1091271D01*
X1090972Y699061D01*
X1090649D01*
X1090649Y699061D01*
X1090649D01*
X1090421Y698833D01*
X1090123Y698709D01*
X1090123Y698709D01*
X1089999Y698411D01*
X1089771Y698183D01*
X1089771Y698183D01*
X1089771Y698183D01*
X1089584Y697731D01*
Y697731D01*
X1089293Y697030D01*
X1088862Y696468D01*
X1088702Y696260D01*
X1088111Y695489D01*
X1086570Y694307D01*
X1086570Y694307D01*
X1086570Y694307D01*
X1085229Y693752D01*
X1085229D01*
X1084776Y693564D01*
X1083091Y693342D01*
D01*
X1083091D01*
X1083091D01*
X1082744Y693296D01*
X1072956D01*
X1072377Y693372D01*
X1071263Y693519D01*
X1070924Y693564D01*
X1070924Y693564D01*
X1069767Y694043D01*
X1069130Y694307D01*
X1069130Y694307D01*
D01*
D01*
X1067558Y695513D01*
X1067246Y695596D01*
X1067246Y695596D01*
X1067047Y695650D01*
X1066556Y695848D01*
X1066459Y695807D01*
X1066358Y695835D01*
X1065900Y695570D01*
X1065412Y695363D01*
X1058119Y687946D01*
D01*
X1058119Y687946D01*
D01*
X1058103Y687929D01*
X1056677Y686480D01*
X1056447Y685910D01*
X1056211Y685341D01*
Y676787D01*
Y674588D01*
X1056447Y674019D01*
X1056677Y673449D01*
X1061243Y668806D01*
X1063646Y666362D01*
X1063653Y666359D01*
X1063656Y666352D01*
X1064224Y666116D01*
X1064790Y665876D01*
X1064797Y665879D01*
X1064804Y665876D01*
X1110704D01*
X1110711Y665879D01*
X1110718Y665876D01*
X1111284Y666116D01*
X1111852Y666352D01*
X1111855Y666359D01*
X1111862Y666362D01*
X1132288Y687136D01*
X1132288Y687136D01*
X1133971Y688847D01*
X1134201Y689416D01*
X1134436Y689985D01*
Y715891D01*
Y722236D01*
X1134548Y722506D01*
Y722514D01*
X1134554Y722519D01*
X1134663Y722789D01*
X1203408Y792703D01*
Y792703D01*
X1204863Y794184D01*
X1204863Y794184D01*
X1209443Y798841D01*
Y798841D01*
X1209669Y799072D01*
X1209900Y799641D01*
X1210135Y800210D01*
Y808040D01*
X1210271Y809073D01*
X1210314Y809394D01*
D01*
X1210328Y809500D01*
X1210328Y809500D01*
Y922596D01*
X1210440Y922867D01*
Y922874D01*
X1210445Y922879D01*
X1210554Y923150D01*
X1213796Y926447D01*
X1214883Y927552D01*
X1215152Y927665D01*
X1215154Y927667D01*
X1215158Y927667D01*
X1215427Y927781D01*
X1216336Y927785D01*
X1216365Y927797D01*
X1219074Y925089D01*
X1266756Y877406D01*
X1266831Y877331D01*
X1266916Y877266D01*
X1266916Y877266D01*
X1268542Y876019D01*
X1268542D01*
X1268711Y875889D01*
X1268909Y875807D01*
X1268909Y875807D01*
X1269806Y875435D01*
X1270900Y874982D01*
X1272565Y874763D01*
X1273144Y874686D01*
D01*
X1273250Y874672D01*
X1273417D01*
X1273968Y874444D01*
Y874444D01*
X1273968Y874444D01*
X1273968D01*
X1288838Y859575D01*
X1294181Y854231D01*
X1296061Y852789D01*
X1298250Y851882D01*
X1300600Y851572D01*
X1322000D01*
X1324350Y851882D01*
X1326539Y852789D01*
X1328419Y854231D01*
X1329861Y856111D01*
X1330768Y858300D01*
X1331078Y860650D01*
Y865500D01*
X1330768Y867850D01*
X1329861Y870039D01*
X1328419Y871919D01*
X1236544Y963794D01*
X1234664Y965236D01*
X1232475Y966143D01*
X1230493Y966404D01*
X1228174Y968763D01*
X1228167Y968766D01*
X1228164Y968773D01*
X1227596Y969008D01*
X1227030Y969249D01*
X1227023Y969246D01*
X1227016Y969249D01*
X1206000D01*
X1204852Y968773D01*
X1204376Y967625D01*
Y963124D01*
X1189624D01*
Y964431D01*
X1189148Y965580D01*
X1188000Y966055D01*
X1160000D01*
X1158852Y965580D01*
X1158376Y964431D01*
Y963124D01*
X1143624D01*
Y964431D01*
X1143148Y965580D01*
X1142000Y966055D01*
X1108000D01*
X1106852Y965580D01*
X1106376Y964431D01*
Y963124D01*
X1091624D01*
Y964431D01*
X1091148Y965580D01*
X1090000Y966055D01*
X1058000D01*
X1056852Y965580D01*
X1056376Y964431D01*
Y963124D01*
X1041624D01*
Y965181D01*
X1041148Y966329D01*
X1040000Y966805D01*
X1012431D01*
X1011283Y966329D01*
X1007352Y962398D01*
X1006876Y961250D01*
Y960500D01*
Y945250D01*
X1007352Y944102D01*
X1014657Y936797D01*
X1014171Y935624D01*
X789798D01*
X752523Y972898D01*
X749523Y975898D01*
X748375Y976374D01*
X716625D01*
X715477Y975898D01*
X710227Y970648D01*
X707477Y967898D01*
X707001Y966750D01*
Y954750D01*
Y947500D01*
X707477Y946352D01*
X765227Y888602D01*
X769227Y884602D01*
X770375Y884126D01*
X1014171D01*
X1014657Y882953D01*
X1000852Y869148D01*
X997327Y865624D01*
X965500D01*
X964352Y865148D01*
X953352Y854148D01*
X953281Y854077D01*
X952108Y854563D01*
Y864000D01*
X951681Y866146D01*
X950465Y867965D01*
X938465Y879965D01*
X936646Y881181D01*
X934500Y881608D01*
X755573D01*
X691465Y945715D01*
X689646Y946931D01*
X687500Y947358D01*
X666447D01*
X666218Y947452D01*
X666124Y947681D01*
Y959478D01*
Y959792D01*
X666120Y959801D01*
X666124Y959810D01*
X665993Y960115D01*
Y960115D01*
X665956Y960203D01*
X665883Y960374D01*
X665648Y960940D01*
X665639Y960944D01*
X665635Y960953D01*
X662130Y964382D01*
X651363Y974916D01*
D01*
X651113Y975161D01*
X650544Y975389D01*
X649977Y975624D01*
X639211D01*
X638063Y975148D01*
X637892Y974736D01*
X625615Y962725D01*
X625611Y962716D01*
X625602Y962712D01*
X625367Y962146D01*
X625126Y961582D01*
X625130Y961573D01*
X625126Y961564D01*
Y956874D01*
X620296D01*
X619729Y956639D01*
X619160Y956411D01*
X594230Y932021D01*
X297878D01*
X297405Y933199D01*
X300826Y936477D01*
X300998D01*
X301001Y936478D01*
X301005Y936477D01*
X301573Y936715D01*
X302146Y936953D01*
X302148Y936956D01*
X302151Y936957D01*
X305152Y939981D01*
X305152Y939981D01*
X305902Y940737D01*
X306138Y941312D01*
X306374Y941881D01*
Y952717D01*
Y959017D01*
X306136Y959589D01*
X305902Y960160D01*
X303780Y962299D01*
X303480Y962424D01*
X303251Y962654D01*
X302930Y962655D01*
X302633Y962779D01*
X302333Y962656D01*
X302009Y962657D01*
X301929Y962624D01*
X285874D01*
Y963931D01*
X285398Y965079D01*
X284250Y965555D01*
X252000D01*
X250852Y965079D01*
X250376Y963931D01*
Y963000D01*
Y962624D01*
X235624D01*
Y963000D01*
Y963931D01*
X235148Y965079D01*
X234000Y965555D01*
X202000D01*
X200852Y965079D01*
X200376Y963931D01*
Y963000D01*
Y962624D01*
X185624D01*
Y963000D01*
Y963931D01*
X185148Y965079D01*
X184000Y965555D01*
X148000D01*
X146852Y965079D01*
X146376Y963931D01*
Y963000D01*
Y962624D01*
X131624D01*
Y963000D01*
X131148Y964148D01*
X130000Y964624D01*
X122003D01*
X121444Y964392D01*
X120879Y964172D01*
X119836Y963172D01*
X119836Y963172D01*
X108877Y952672D01*
X108869Y952655D01*
X108852Y952648D01*
X108620Y952089D01*
X108377Y951535D01*
X108384Y951517D01*
X108376Y951500D01*
Y949750D01*
Y890831D01*
X106151Y887624D01*
X23500D01*
X23360Y887566D01*
X23212Y887598D01*
X22802Y887334D01*
X22352Y887148D01*
X22294Y887008D01*
X22166Y886926D01*
X20916Y885125D01*
D01*
X20916Y885125D01*
X14791Y876300D01*
X14688Y875824D01*
X14501Y875375D01*
Y866658D01*
X14651Y866295D01*
X14686Y865905D01*
X14751Y865851D01*
Y857209D01*
Y855445D01*
X14988Y854874D01*
X15223Y854301D01*
X17187Y852322D01*
X17155Y851052D01*
X13718Y847925D01*
X12556Y848439D01*
Y939534D01*
X86966Y1013944D01*
X1272034D01*
X1344194Y941784D01*
D02*
G37*
G36*
X1041750Y819000D02*
X1038045Y815295D01*
X1038000Y815250D01*
X1018225Y795475D01*
X1017750Y794327D01*
Y752750D01*
Y739302D01*
X1017937Y738850D01*
X1017750Y738398D01*
Y715278D01*
X1017803Y715150D01*
X1017772Y715014D01*
X1018035Y714591D01*
X1018225Y714130D01*
X1018354Y714077D01*
X1018428Y713959D01*
X1019460Y713219D01*
X1019596Y713187D01*
X1019688Y713083D01*
X1020185Y713050D01*
X1020660Y712939D01*
X1020902Y711100D01*
X1021808Y708911D01*
X1023251Y707031D01*
X1025131Y705589D01*
X1027320Y704682D01*
X1029500Y704395D01*
Y702250D01*
X1041500D01*
X1041750Y702500D01*
X1042000Y702250D01*
X1049000Y695250D01*
Y683000D01*
X1048500Y682500D01*
X1042250Y676250D01*
X1022838D01*
X985624Y713464D01*
Y818500D01*
Y818828D01*
X1002468Y835672D01*
X1002532D01*
X1003602Y834602D01*
X1004750Y834126D01*
X1016796D01*
X1017094Y834250D01*
X1017417D01*
X1019074Y834937D01*
X1021000Y835190D01*
X1022926Y834937D01*
X1024583Y834250D01*
X1024906D01*
X1025204Y834126D01*
X1031750D01*
X1032898Y834602D01*
X1034173Y835876D01*
X1041750D01*
Y819000D01*
D02*
G37*
G36*
X22260Y350064D02*
X23925Y348549D01*
X24476Y348351D01*
X25018Y348126D01*
X76644D01*
X77185Y348351D01*
X77736Y348549D01*
X83565Y353852D01*
X83775Y354299D01*
X83915Y354498D01*
X85126Y354118D01*
Y315500D01*
Y314500D01*
X85602Y313352D01*
X88750Y310204D01*
Y310000D01*
X88954D01*
X91852Y307102D01*
X101083Y297870D01*
Y240207D01*
X101207Y239909D01*
Y239586D01*
X101376Y239177D01*
Y228124D01*
X89000D01*
X87852Y227648D01*
X84852Y224648D01*
X81602Y221398D01*
X81126Y220250D01*
Y209750D01*
Y207750D01*
Y189500D01*
X81602Y188352D01*
X82602Y187352D01*
X109102Y160852D01*
X110250Y160376D01*
X208250D01*
X209398Y160852D01*
X213898Y165352D01*
X229898Y181352D01*
X230374Y182500D01*
Y183500D01*
Y211750D01*
X229898Y212898D01*
X226457Y216339D01*
X226943Y217512D01*
X286007D01*
X295849Y207658D01*
X295850Y207658D01*
X295850Y207658D01*
X296422Y207421D01*
X296997Y207182D01*
X296998Y207182D01*
X296998Y207182D01*
X297022D01*
X303852Y200352D01*
X305000Y199876D01*
X922077D01*
X923602Y198352D01*
X933476Y188478D01*
X933289Y187222D01*
X930326Y185638D01*
X926474Y182476D01*
X923312Y178624D01*
X920963Y174229D01*
X919516Y169460D01*
X919028Y164500D01*
X919516Y159540D01*
X920963Y154771D01*
X923312Y150376D01*
X926474Y146524D01*
X930326Y143362D01*
X934721Y141013D01*
X939490Y139566D01*
X944450Y139078D01*
X948263Y139453D01*
X949204Y138600D01*
Y131706D01*
X949442Y131131D01*
X949678Y130559D01*
X966792Y113426D01*
D01*
X1008317Y71853D01*
X1008317Y71852D01*
X1008317Y71852D01*
X1008889Y71615D01*
X1009465Y71376D01*
X1009465Y71377D01*
X1009465Y71376D01*
X1141145D01*
X1142293Y71852D01*
X1148599Y78158D01*
X1149075Y79306D01*
Y103500D01*
X1148599Y104648D01*
X1147451Y105124D01*
X1142624D01*
Y119876D01*
X1157376D01*
Y116750D01*
Y105124D01*
X1152549D01*
X1151401Y104648D01*
X1150925Y103500D01*
Y78410D01*
X1150826Y77908D01*
X1150541Y77483D01*
X1148380Y75321D01*
X1148256Y75023D01*
X1148028Y74795D01*
Y74472D01*
X1147905Y74173D01*
X1148028Y73875D01*
Y73552D01*
X1148514Y72379D01*
X1148743Y72150D01*
X1148866Y71852D01*
X1149164Y71728D01*
X1149393Y71500D01*
X1149716D01*
X1150014Y71376D01*
X1222123D01*
X1222124Y71377D01*
X1222124Y71376D01*
X1222700Y71615D01*
X1223272Y71852D01*
X1223272Y71852D01*
X1223272Y71853D01*
X1343020Y191740D01*
X1344194Y191254D01*
Y127966D01*
X1284334Y68106D01*
X78166D01*
X12556Y133716D01*
Y357321D01*
X13718Y357835D01*
X22260Y350064D01*
D02*
G37*
G36*
X1229900Y964692D02*
X1232674Y961871D01*
X1233296Y962473D01*
X1303648Y894394D01*
X1312750Y885292D01*
Y884750D01*
Y880433D01*
X1313289Y879885D01*
Y864976D01*
X1306079Y857644D01*
X1296947D01*
X1293920Y860723D01*
X1289986D01*
X1274888Y875820D01*
X1273740Y876296D01*
X1273356D01*
X1271324Y876563D01*
X1269530Y877307D01*
X1267904Y878554D01*
X1220222Y926237D01*
X1221053Y927196D01*
X1249523Y905876D01*
X1225094Y930720D01*
X1216665D01*
X1216803Y930587D01*
X1216329Y929409D01*
X1215100Y929404D01*
X1215097Y929402D01*
X1215093Y929404D01*
X1214524Y929162D01*
X1213954Y928923D01*
X1213953Y928920D01*
X1213949Y928918D01*
X1212638Y927585D01*
X1209170Y924058D01*
X1208940Y923488D01*
X1208704Y922919D01*
Y872500D01*
Y863596D01*
Y860723D01*
Y809606D01*
X1208526Y808252D01*
X1208555Y808144D01*
X1208512Y808040D01*
Y800210D01*
X1203706Y795322D01*
D01*
D01*
X1133279Y723697D01*
X1133048Y723128D01*
X1132813Y722559D01*
Y715891D01*
Y689985D01*
X1131131Y688274D01*
X1110704Y667500D01*
X1064804D01*
X1062401Y669944D01*
X1057835Y674588D01*
Y676787D01*
Y685341D01*
X1059277Y686808D01*
X1066343Y693995D01*
D01*
X1066570Y694225D01*
X1068311Y692889D01*
X1068509Y692807D01*
D01*
X1070303Y692064D01*
X1070500Y691982D01*
X1072165Y691762D01*
D01*
X1072850Y691672D01*
X1082850D01*
X1082956Y691686D01*
D01*
X1085200Y691982D01*
X1085397Y692064D01*
X1085851Y692251D01*
X1087389Y692889D01*
X1089269Y694331D01*
X1090712Y696211D01*
X1090732Y696260D01*
X1091084Y697110D01*
X1091271Y697561D01*
X1091847D01*
X1092995Y698037D01*
X1096290Y701332D01*
X1096766Y702480D01*
Y725100D01*
Y725423D01*
X1096992Y725653D01*
X1096992Y725654D01*
X1101440Y730177D01*
X1101672Y730750D01*
X1101906Y731322D01*
X1101905Y731326D01*
X1101906Y731329D01*
X1101664Y731899D01*
X1101426Y732468D01*
X1101426Y732468D01*
X1101426Y732468D01*
X1101187Y733005D01*
Y733005D01*
X1101612Y733376D01*
X1101613Y733396D01*
X1101629Y733411D01*
X1101631Y733453D01*
X1101661Y733483D01*
X1102175Y734739D01*
X1102174Y735059D01*
X1102296Y735354D01*
Y756394D01*
X1102563Y758426D01*
X1103307Y760220D01*
X1104555Y761846D01*
X1105398Y762690D01*
X1111729Y769021D01*
X1114585Y771876D01*
X1141908D01*
X1142206Y772000D01*
X1142529D01*
X1142588Y772024D01*
X1142810Y772250D01*
X1144750D01*
Y773901D01*
Y774223D01*
X1144977Y774454D01*
X1144977D01*
X1147726Y777250D01*
X1147726D01*
X1152519Y782124D01*
X1180395Y810475D01*
Y817074D01*
Y922166D01*
X1179434Y923144D01*
X1165255Y937564D01*
X1029238D01*
X1029016Y937789D01*
D01*
X1027796Y939030D01*
D01*
D01*
X1026385Y940465D01*
X1026381Y940467D01*
X1026380Y940470D01*
D01*
X1025812Y940708D01*
X1025241Y940950D01*
X1025237Y940949D01*
X1025234Y940950D01*
X1023964Y940956D01*
X1023960Y940954D01*
X1023957Y940956D01*
X1023384Y940718D01*
X1022814Y940485D01*
X1022812Y940481D01*
X1022809Y940480D01*
X1020727Y938398D01*
X1019204Y936875D01*
X1016875D01*
X1008500Y945250D01*
Y960500D01*
Y961250D01*
X1012431Y965181D01*
X1040000D01*
Y961500D01*
X1058000D01*
Y964431D01*
X1090000D01*
Y961500D01*
X1108000D01*
Y964431D01*
X1142000D01*
Y961500D01*
X1160000D01*
Y964431D01*
X1188000D01*
Y961500D01*
X1206000D01*
Y967625D01*
X1227016D01*
X1229900Y964692D01*
D02*
G37*
G36*
X284250Y961000D02*
X302250D01*
X302250Y961000D01*
Y961000D01*
X302627Y961155D01*
X304750Y959017D01*
Y952717D01*
Y941881D01*
X304000Y941125D01*
X300998Y938101D01*
X300174D01*
X294067Y932250D01*
X161012D01*
X160452Y932018D01*
X159888Y931799D01*
X149139Y921500D01*
X148682Y921062D01*
X148675Y921045D01*
X148658Y921038D01*
X148426Y920479D01*
X148182Y919925D01*
X148189Y919907D01*
X148182Y919890D01*
Y861493D01*
Y858282D01*
X148658Y857134D01*
X223877Y781914D01*
X224176Y781791D01*
X224404Y781562D01*
X224727D01*
X225025Y781439D01*
X225143Y781487D01*
X226199Y780782D01*
Y780265D01*
X226674Y779117D01*
X260933Y744858D01*
X261081Y744666D01*
X270924Y734823D01*
X272023Y733390D01*
X272767Y731596D01*
X272873Y730788D01*
X273002Y730564D01*
Y722183D01*
X272937Y721687D01*
X272888Y721311D01*
X272822Y720816D01*
Y705000D01*
X271484D01*
X271236Y704750D01*
X270410D01*
X270084Y705000D01*
X269939Y705111D01*
X267750Y706018D01*
X265400Y706328D01*
X255400D01*
X255294Y706314D01*
D01*
X253050Y706018D01*
X250861Y705111D01*
X250716Y705000D01*
X250390Y704750D01*
X247725D01*
X247477Y705000D01*
X247332Y705146D01*
X204206Y748598D01*
X104889Y848665D01*
X104886Y848667D01*
X104885Y848670D01*
X104317Y848905D01*
X103743Y849145D01*
X103740Y849144D01*
X103737Y849145D01*
X54351D01*
X54052Y849022D01*
X53729D01*
X51406Y848059D01*
X51177Y847831D01*
X50956Y847739D01*
X49410Y849145D01*
X47224Y851134D01*
D01*
X46742Y851572D01*
X46344Y851934D01*
D01*
X46315Y851961D01*
X42764Y855191D01*
X42764D01*
Y855191D01*
X41654Y856201D01*
X41102Y856399D01*
X40561Y856624D01*
X23907D01*
X23366Y856399D01*
X22987Y856263D01*
D01*
X22815Y856201D01*
X19036Y852764D01*
X16375Y855445D01*
Y857209D01*
Y866580D01*
X16125Y866658D01*
Y875375D01*
X22250Y884199D01*
X23500Y886000D01*
X107000D01*
X110000Y890322D01*
Y949750D01*
Y951500D01*
X120959Y962000D01*
X122003Y963000D01*
X130000D01*
Y961000D01*
X148000D01*
Y963931D01*
X184000D01*
Y961000D01*
X202000D01*
Y963931D01*
X234000D01*
Y961000D01*
X252000D01*
Y963931D01*
X284250D01*
Y961000D01*
D02*
G37*
%LPC*%
G36*
X930620Y350779D02*
X928239Y350465D01*
X926021Y349546D01*
X924116Y348084D01*
X922654Y346179D01*
X921735Y343961D01*
X921421Y341580D01*
X921735Y339199D01*
X922654Y336981D01*
X924116Y335075D01*
X926021Y333614D01*
X928239Y332695D01*
X930620Y332381D01*
X933001Y332695D01*
X935219Y333614D01*
X937124Y335075D01*
X938586Y336981D01*
X939505Y339199D01*
X939819Y341580D01*
X939505Y343961D01*
X938586Y346179D01*
X937124Y348084D01*
X935219Y349546D01*
X933001Y350465D01*
X930620Y350779D01*
D02*
G37*
G36*
X905220D02*
X902839Y350465D01*
X900621Y349546D01*
X898716Y348084D01*
X897254Y346179D01*
X896335Y343961D01*
X896021Y341580D01*
X896335Y339199D01*
X897254Y336981D01*
X898716Y335075D01*
X900621Y333614D01*
X902839Y332695D01*
X905220Y332381D01*
X907601Y332695D01*
X909819Y333614D01*
X911724Y335075D01*
X913186Y336981D01*
X914105Y339199D01*
X914419Y341580D01*
X914105Y343961D01*
X913186Y346179D01*
X911724Y348084D01*
X909819Y349546D01*
X907601Y350465D01*
X905220Y350779D01*
D02*
G37*
G36*
X447794Y350752D02*
X445413Y350438D01*
X443195Y349520D01*
X441290Y348058D01*
X439828Y346152D01*
X438909Y343934D01*
X438596Y341553D01*
X438909Y339172D01*
X439828Y336954D01*
X441290Y335049D01*
X443195Y333587D01*
X445413Y332668D01*
X447794Y332355D01*
X450175Y332668D01*
X452393Y333587D01*
X454299Y335049D01*
X455760Y336954D01*
X456679Y339172D01*
X456993Y341553D01*
X456679Y343934D01*
X455760Y346152D01*
X454299Y348058D01*
X452393Y349520D01*
X450175Y350438D01*
X447794Y350752D01*
D02*
G37*
G36*
X422394D02*
X420013Y350438D01*
X417795Y349520D01*
X415890Y348058D01*
X414428Y346152D01*
X413509Y343934D01*
X413195Y341553D01*
X413509Y339172D01*
X414428Y336954D01*
X415890Y335049D01*
X417795Y333587D01*
X420013Y332668D01*
X422394Y332355D01*
X424775Y332668D01*
X426993Y333587D01*
X428899Y335049D01*
X430360Y336954D01*
X431279Y339172D01*
X431593Y341553D01*
X431279Y343934D01*
X430360Y346152D01*
X428899Y348058D01*
X426993Y349520D01*
X424775Y350438D01*
X422394Y350752D01*
D02*
G37*
G36*
Y325352D02*
X420013Y325038D01*
X417795Y324119D01*
X415890Y322658D01*
X414428Y320752D01*
X413509Y318534D01*
X413195Y316153D01*
X413509Y313772D01*
X414428Y311554D01*
X415890Y309649D01*
X417795Y308187D01*
X420013Y307268D01*
X422394Y306954D01*
X424775Y307268D01*
X426993Y308187D01*
X428899Y309649D01*
X430360Y311554D01*
X431279Y313772D01*
X431593Y316153D01*
X431279Y318534D01*
X430360Y320752D01*
X428899Y322658D01*
X426993Y324119D01*
X424775Y325038D01*
X422394Y325352D01*
D02*
G37*
G36*
X315500Y316228D02*
X313151Y315918D01*
X310961Y315012D01*
X309081Y313569D01*
X307639Y311689D01*
X306732Y309499D01*
X306422Y307150D01*
X306732Y304801D01*
X307639Y302611D01*
X309081Y300731D01*
X310961Y299289D01*
X313151Y298382D01*
X315500Y298072D01*
X317850Y298382D01*
X320039Y299289D01*
X321919Y300731D01*
X323362Y302611D01*
X324268Y304801D01*
X324578Y307150D01*
X324268Y309499D01*
X323362Y311689D01*
X321919Y313569D01*
X320039Y315012D01*
X317850Y315918D01*
X315500Y316228D01*
D02*
G37*
G36*
X447794Y325352D02*
X445413Y325038D01*
X443195Y324119D01*
X441290Y322658D01*
X439828Y320752D01*
X438909Y318534D01*
X438596Y316153D01*
X438909Y313772D01*
X439828Y311554D01*
X441290Y309649D01*
X443195Y308187D01*
X445413Y307268D01*
X447794Y306954D01*
X450175Y307268D01*
X452393Y308187D01*
X454299Y309649D01*
X455760Y311554D01*
X456679Y313772D01*
X456993Y316153D01*
X456679Y318534D01*
X455760Y320752D01*
X454299Y322658D01*
X452393Y324119D01*
X450175Y325038D01*
X447794Y325352D01*
D02*
G37*
G36*
X930620Y325379D02*
X928239Y325065D01*
X926021Y324146D01*
X924116Y322684D01*
X922654Y320779D01*
X921735Y318561D01*
X921421Y316180D01*
X921735Y313799D01*
X922654Y311581D01*
X924116Y309676D01*
X926021Y308214D01*
X928239Y307295D01*
X930620Y306981D01*
X933001Y307295D01*
X935219Y308214D01*
X937124Y309676D01*
X938586Y311581D01*
X939505Y313799D01*
X939819Y316180D01*
X939505Y318561D01*
X938586Y320779D01*
X937124Y322684D01*
X935219Y324146D01*
X933001Y325065D01*
X930620Y325379D01*
D02*
G37*
G36*
X905220D02*
X902839Y325065D01*
X900621Y324146D01*
X898716Y322684D01*
X897254Y320779D01*
X896335Y318561D01*
X896021Y316180D01*
X896335Y313799D01*
X897254Y311581D01*
X898716Y309676D01*
X900621Y308214D01*
X902839Y307295D01*
X905220Y306981D01*
X907601Y307295D01*
X909819Y308214D01*
X911724Y309676D01*
X913186Y311581D01*
X914105Y313799D01*
X914419Y316180D01*
X914105Y318561D01*
X913186Y320779D01*
X911724Y322684D01*
X909819Y324146D01*
X907601Y325065D01*
X905220Y325379D01*
D02*
G37*
G36*
X930620Y376179D02*
X928239Y375865D01*
X926021Y374946D01*
X924116Y373484D01*
X922654Y371579D01*
X921735Y369361D01*
X921421Y366980D01*
X921735Y364599D01*
X922654Y362381D01*
X924116Y360476D01*
X926021Y359014D01*
X928239Y358095D01*
X930620Y357781D01*
X933001Y358095D01*
X935219Y359014D01*
X937124Y360476D01*
X938586Y362381D01*
X939505Y364599D01*
X939819Y366980D01*
X939505Y369361D01*
X938586Y371579D01*
X937124Y373484D01*
X935219Y374946D01*
X933001Y375865D01*
X930620Y376179D01*
D02*
G37*
G36*
X675250Y463918D02*
X673201Y463648D01*
X671291Y462857D01*
X669651Y461599D01*
X668393Y459959D01*
X667602Y458049D01*
X667332Y456000D01*
X667602Y453951D01*
X668393Y452041D01*
X669651Y450401D01*
X671291Y449143D01*
X671681Y448981D01*
Y419019D01*
X671291Y418857D01*
X669651Y417599D01*
X668393Y415959D01*
X667602Y414049D01*
X667332Y412000D01*
X667602Y409951D01*
X668393Y408041D01*
X669651Y406401D01*
X671291Y405143D01*
X673201Y404352D01*
X675250Y404082D01*
X677299Y404352D01*
X679209Y405143D01*
X680849Y406401D01*
X682107Y408041D01*
X682898Y409951D01*
X683168Y412000D01*
X682898Y414049D01*
X682107Y415959D01*
X680849Y417599D01*
X679209Y418857D01*
X678819Y419019D01*
Y448981D01*
X679209Y449143D01*
X680849Y450401D01*
X682107Y452041D01*
X682898Y453951D01*
X683168Y456000D01*
X682898Y458049D01*
X682107Y459959D01*
X680849Y461599D01*
X679209Y462857D01*
X677299Y463648D01*
X675250Y463918D01*
D02*
G37*
G36*
X905220Y401579D02*
X902839Y401265D01*
X900621Y400346D01*
X898716Y398884D01*
X897254Y396979D01*
X896335Y394761D01*
X896021Y392380D01*
X896335Y389999D01*
X897254Y387781D01*
X898716Y385876D01*
X900621Y384414D01*
X902839Y383495D01*
X905220Y383181D01*
X907601Y383495D01*
X909819Y384414D01*
X911724Y385876D01*
X913186Y387781D01*
X914105Y389999D01*
X914419Y392380D01*
X914105Y394761D01*
X913186Y396979D01*
X911724Y398884D01*
X909819Y400346D01*
X907601Y401265D01*
X905220Y401579D01*
D02*
G37*
G36*
X930620D02*
X928239Y401265D01*
X926021Y400346D01*
X924116Y398884D01*
X922654Y396979D01*
X921735Y394761D01*
X921421Y392380D01*
X921735Y389999D01*
X922654Y387781D01*
X924116Y385876D01*
X926021Y384414D01*
X928239Y383495D01*
X930620Y383181D01*
X933001Y383495D01*
X935219Y384414D01*
X937124Y385876D01*
X938586Y387781D01*
X939505Y389999D01*
X939819Y392380D01*
X939505Y394761D01*
X938586Y396979D01*
X937124Y398884D01*
X935219Y400346D01*
X933001Y401265D01*
X930620Y401579D01*
D02*
G37*
G36*
X490500Y461668D02*
X488451Y461398D01*
X486541Y460607D01*
X484901Y459349D01*
X483643Y457709D01*
X482852Y455799D01*
X482582Y453750D01*
X482852Y451701D01*
X483643Y449791D01*
X484901Y448151D01*
X486541Y446893D01*
X486931Y446731D01*
Y410978D01*
X459272Y383319D01*
X452977D01*
X452569Y384521D01*
X454299Y385849D01*
X455760Y387754D01*
X456679Y389972D01*
X456993Y392353D01*
X456679Y394734D01*
X455760Y396953D01*
X454299Y398858D01*
X452393Y400320D01*
X450175Y401238D01*
X447794Y401552D01*
X445413Y401238D01*
X443195Y400320D01*
X441290Y398858D01*
X439828Y396953D01*
X438909Y394734D01*
X438596Y392353D01*
X438909Y389972D01*
X439828Y387754D01*
X441290Y385849D01*
X443020Y384521D01*
X442612Y383319D01*
X427577D01*
X427169Y384521D01*
X428899Y385849D01*
X430360Y387754D01*
X431279Y389972D01*
X431593Y392353D01*
X431279Y394734D01*
X430360Y396953D01*
X428899Y398858D01*
X426993Y400320D01*
X424775Y401238D01*
X422394Y401552D01*
X420013Y401238D01*
X417795Y400320D01*
X415890Y398858D01*
X414428Y396953D01*
X413509Y394734D01*
X413195Y392353D01*
X413509Y389972D01*
X414428Y387754D01*
X415890Y385849D01*
X417620Y384521D01*
X417212Y383319D01*
X262478D01*
X252773Y393023D01*
X251616Y393797D01*
X250250Y394069D01*
X215978D01*
X211736Y398311D01*
X211898Y398701D01*
X212168Y400750D01*
X211898Y402799D01*
X211107Y404709D01*
X209849Y406349D01*
X208209Y407607D01*
X206299Y408398D01*
X204250Y408668D01*
X202201Y408398D01*
X200291Y407607D01*
X198651Y406349D01*
X197393Y404709D01*
X196602Y402799D01*
X196332Y400750D01*
X196602Y398701D01*
X197393Y396791D01*
X198651Y395151D01*
X200291Y393893D01*
X202201Y393102D01*
X204250Y392832D01*
X206299Y393102D01*
X206689Y393264D01*
X211977Y387977D01*
X213134Y387203D01*
X214500Y386931D01*
X248772D01*
X258477Y377227D01*
X259634Y376453D01*
X261000Y376181D01*
X417587D01*
X417834Y374936D01*
X417795Y374920D01*
X415890Y373458D01*
X414428Y371553D01*
X413509Y369334D01*
X413195Y366953D01*
X413509Y364572D01*
X414428Y362354D01*
X415890Y360449D01*
X417795Y358987D01*
X420013Y358068D01*
X422394Y357755D01*
X424775Y358068D01*
X426993Y358987D01*
X428899Y360449D01*
X430360Y362354D01*
X431279Y364572D01*
X431593Y366953D01*
X431279Y369334D01*
X430360Y371553D01*
X428899Y373458D01*
X426993Y374920D01*
X426954Y374936D01*
X427202Y376181D01*
X442986D01*
X443234Y374936D01*
X443195Y374920D01*
X441290Y373458D01*
X439828Y371553D01*
X438909Y369334D01*
X438596Y366953D01*
X438909Y364572D01*
X439828Y362354D01*
X441290Y360449D01*
X443195Y358987D01*
X445413Y358068D01*
X447794Y357755D01*
X450175Y358068D01*
X452393Y358987D01*
X454299Y360449D01*
X455760Y362354D01*
X456679Y364572D01*
X456993Y366953D01*
X456679Y369334D01*
X455760Y371553D01*
X454299Y373458D01*
X452393Y374920D01*
X452354Y374936D01*
X452602Y376181D01*
X460750D01*
X462116Y376453D01*
X463273Y377227D01*
X463273Y377227D01*
X463273Y377227D01*
X493023Y406977D01*
X493797Y408134D01*
X494069Y409500D01*
Y446731D01*
X494459Y446893D01*
X496099Y448151D01*
X497357Y449791D01*
X498148Y451701D01*
X498418Y453750D01*
X498148Y455799D01*
X497357Y457709D01*
X496099Y459349D01*
X494459Y460607D01*
X492549Y461398D01*
X490500Y461668D01*
D02*
G37*
G36*
X422394Y426952D02*
X420013Y426638D01*
X417795Y425719D01*
X415890Y424258D01*
X414428Y422352D01*
X413509Y420134D01*
X413195Y417753D01*
X413509Y415372D01*
X414428Y413154D01*
X415890Y411249D01*
X417795Y409787D01*
X420013Y408868D01*
X422394Y408554D01*
X424775Y408868D01*
X426993Y409787D01*
X428899Y411249D01*
X430360Y413154D01*
X431279Y415372D01*
X431593Y417753D01*
X431279Y420134D01*
X430360Y422352D01*
X428899Y424258D01*
X426993Y425719D01*
X424775Y426638D01*
X422394Y426952D01*
D02*
G37*
G36*
X905220Y426979D02*
X902839Y426665D01*
X900621Y425746D01*
X898716Y424284D01*
X897254Y422379D01*
X896335Y420161D01*
X896021Y417780D01*
X896335Y415399D01*
X897254Y413181D01*
X898716Y411275D01*
X900621Y409814D01*
X902839Y408895D01*
X905220Y408581D01*
X907601Y408895D01*
X909819Y409814D01*
X911724Y411275D01*
X913186Y413181D01*
X914105Y415399D01*
X914419Y417780D01*
X914105Y420161D01*
X913186Y422379D01*
X911724Y424284D01*
X909819Y425746D01*
X907601Y426665D01*
X905220Y426979D01*
D02*
G37*
G36*
X794500Y351000D02*
X776500D01*
Y333000D01*
X794500D01*
Y351000D01*
D02*
G37*
G36*
X675000Y353500D02*
X657000D01*
Y335500D01*
X675000D01*
Y353500D01*
D02*
G37*
G36*
X447794Y426952D02*
X445413Y426638D01*
X443195Y425719D01*
X441290Y424258D01*
X439828Y422352D01*
X438909Y420134D01*
X438596Y417753D01*
X438909Y415372D01*
X439828Y413154D01*
X441290Y411249D01*
X443195Y409787D01*
X445413Y408868D01*
X447794Y408554D01*
X450175Y408868D01*
X452393Y409787D01*
X454299Y411249D01*
X455760Y413154D01*
X456679Y415372D01*
X456993Y417753D01*
X456679Y420134D01*
X455760Y422352D01*
X454299Y424258D01*
X452393Y425719D01*
X450175Y426638D01*
X447794Y426952D01*
D02*
G37*
G36*
X905220Y376179D02*
X902839Y375865D01*
X900621Y374946D01*
X898716Y373484D01*
X897254Y371579D01*
X896335Y369361D01*
X896021Y366980D01*
X896335Y364599D01*
X897254Y362381D01*
X898716Y360476D01*
X900621Y359014D01*
X902839Y358095D01*
X905220Y357781D01*
X907601Y358095D01*
X909819Y359014D01*
X911724Y360476D01*
X913186Y362381D01*
X914105Y364599D01*
X914419Y366980D01*
X914105Y369361D01*
X913186Y371579D01*
X911724Y373484D01*
X909819Y374946D01*
X907601Y375865D01*
X905220Y376179D01*
D02*
G37*
G36*
X456914Y299873D02*
X438674D01*
Y281633D01*
X456914D01*
Y299873D01*
D02*
G37*
G36*
X833350Y160336D02*
X830753Y159994D01*
X828332Y158991D01*
X826254Y157396D01*
X824659Y155318D01*
X823656Y152898D01*
X823314Y150300D01*
X823656Y147703D01*
X824659Y145282D01*
X826254Y143204D01*
X828332Y141609D01*
X830753Y140606D01*
X833350Y140264D01*
X835947Y140606D01*
X838368Y141609D01*
X840446Y143204D01*
X842041Y145282D01*
X843044Y147703D01*
X843386Y150300D01*
X843044Y152898D01*
X842041Y155318D01*
X840446Y157396D01*
X838368Y158991D01*
X835947Y159994D01*
X833350Y160336D01*
D02*
G37*
G36*
X805650D02*
X803053Y159994D01*
X800632Y158991D01*
X798554Y157396D01*
X796959Y155318D01*
X795956Y152898D01*
X795614Y150300D01*
X795956Y147703D01*
X796959Y145282D01*
X798554Y143204D01*
X800632Y141609D01*
X803053Y140606D01*
X805650Y140264D01*
X808248Y140606D01*
X810668Y141609D01*
X812746Y143204D01*
X814341Y145282D01*
X815344Y147703D01*
X815686Y150300D01*
X815344Y152898D01*
X814341Y155318D01*
X812746Y157396D01*
X810668Y158991D01*
X808248Y159994D01*
X805650Y160336D01*
D02*
G37*
G36*
X777950D02*
X775353Y159994D01*
X772932Y158991D01*
X770854Y157396D01*
X769259Y155318D01*
X768256Y152898D01*
X767914Y150300D01*
X768256Y147703D01*
X769259Y145282D01*
X770854Y143204D01*
X772932Y141609D01*
X775353Y140606D01*
X777950Y140264D01*
X780547Y140606D01*
X782968Y141609D01*
X785046Y143204D01*
X786641Y145282D01*
X787644Y147703D01*
X787986Y150300D01*
X787644Y152898D01*
X786641Y155318D01*
X785046Y157396D01*
X782968Y158991D01*
X780547Y159994D01*
X777950Y160336D01*
D02*
G37*
G36*
X438900Y161086D02*
X436302Y160744D01*
X433882Y159741D01*
X431804Y158146D01*
X430209Y156068D01*
X429206Y153647D01*
X428864Y151050D01*
X429206Y148453D01*
X430209Y146032D01*
X431804Y143954D01*
X433882Y142359D01*
X436302Y141356D01*
X438900Y141014D01*
X441497Y141356D01*
X443918Y142359D01*
X445996Y143954D01*
X447591Y146032D01*
X448594Y148453D01*
X448936Y151050D01*
X448594Y153647D01*
X447591Y156068D01*
X445996Y158146D01*
X443918Y159741D01*
X441497Y160744D01*
X438900Y161086D01*
D02*
G37*
G36*
X411200D02*
X408602Y160744D01*
X406182Y159741D01*
X404104Y158146D01*
X402509Y156068D01*
X401506Y153647D01*
X401164Y151050D01*
X401506Y148453D01*
X402509Y146032D01*
X404104Y143954D01*
X406182Y142359D01*
X408602Y141356D01*
X411200Y141014D01*
X413797Y141356D01*
X416218Y142359D01*
X418296Y143954D01*
X419891Y146032D01*
X420894Y148453D01*
X421236Y151050D01*
X420894Y153647D01*
X419891Y156068D01*
X418296Y158146D01*
X416218Y159741D01*
X413797Y160744D01*
X411200Y161086D01*
D02*
G37*
G36*
X861050Y160336D02*
X858453Y159994D01*
X856032Y158991D01*
X853954Y157396D01*
X852359Y155318D01*
X851356Y152898D01*
X851014Y150300D01*
X851356Y147703D01*
X852359Y145282D01*
X853954Y143204D01*
X856032Y141609D01*
X858453Y140606D01*
X861050Y140264D01*
X863648Y140606D01*
X866068Y141609D01*
X868146Y143204D01*
X869741Y145282D01*
X870744Y147703D01*
X871086Y150300D01*
X870744Y152898D01*
X869741Y155318D01*
X868146Y157396D01*
X866068Y158991D01*
X863648Y159994D01*
X861050Y160336D01*
D02*
G37*
G36*
X181750Y129000D02*
X163750D01*
Y111000D01*
X181750D01*
Y129000D01*
D02*
G37*
G36*
X1296500Y133573D02*
X1293560Y133283D01*
X1290732Y132425D01*
X1288126Y131032D01*
X1285842Y129158D01*
X1283968Y126874D01*
X1282575Y124268D01*
X1281717Y121440D01*
X1281427Y118500D01*
X1281717Y115560D01*
X1282575Y112732D01*
X1283968Y110126D01*
X1285842Y107842D01*
X1288126Y105968D01*
X1290732Y104575D01*
X1293560Y103717D01*
X1296500Y103427D01*
X1299440Y103717D01*
X1302268Y104575D01*
X1304874Y105968D01*
X1307158Y107842D01*
X1309032Y110126D01*
X1310425Y112732D01*
X1311283Y115560D01*
X1311573Y118500D01*
X1311283Y121440D01*
X1310425Y124268D01*
X1309032Y126874D01*
X1307158Y129158D01*
X1304874Y131032D01*
X1302268Y132425D01*
X1299440Y133283D01*
X1296500Y133573D01*
D02*
G37*
G36*
X67750Y132573D02*
X64809Y132283D01*
X61982Y131425D01*
X59376Y130032D01*
X57092Y128158D01*
X55218Y125874D01*
X53825Y123268D01*
X52967Y120441D01*
X52677Y117500D01*
X52967Y114559D01*
X53825Y111732D01*
X55218Y109126D01*
X57092Y106842D01*
X59376Y104968D01*
X61982Y103575D01*
X64809Y102717D01*
X67750Y102428D01*
X70690Y102717D01*
X73518Y103575D01*
X76124Y104968D01*
X78408Y106842D01*
X80282Y109126D01*
X81675Y111732D01*
X82533Y114559D01*
X82823Y117500D01*
X82533Y120441D01*
X81675Y123268D01*
X80282Y125874D01*
X78408Y128158D01*
X76124Y130032D01*
X73518Y131425D01*
X70690Y132283D01*
X67750Y132573D01*
D02*
G37*
G36*
X577700Y190672D02*
X572740Y190184D01*
X567971Y188737D01*
X563576Y186388D01*
X559724Y183226D01*
X556562Y179374D01*
X554213Y174979D01*
X552766Y170210D01*
X552278Y165250D01*
X552766Y160290D01*
X554213Y155521D01*
X556562Y151126D01*
X559724Y147274D01*
X563576Y144112D01*
X567971Y141763D01*
X572740Y140316D01*
X577700Y139828D01*
X582660Y140316D01*
X587429Y141763D01*
X591824Y144112D01*
X595676Y147274D01*
X598838Y151126D01*
X601187Y155521D01*
X602634Y160290D01*
X603122Y165250D01*
X602634Y170210D01*
X601187Y174979D01*
X598838Y179374D01*
X595676Y183226D01*
X591824Y186388D01*
X587429Y188737D01*
X582660Y190184D01*
X577700Y190672D01*
D02*
G37*
G36*
X327800D02*
X322840Y190184D01*
X318071Y188737D01*
X313676Y186388D01*
X309824Y183226D01*
X306662Y179374D01*
X304313Y174979D01*
X302866Y170210D01*
X302378Y165250D01*
X302866Y160290D01*
X304313Y155521D01*
X306662Y151126D01*
X309824Y147274D01*
X313676Y144112D01*
X318071Y141763D01*
X322840Y140316D01*
X327800Y139828D01*
X332760Y140316D01*
X337529Y141763D01*
X341924Y144112D01*
X345776Y147274D01*
X348938Y151126D01*
X351287Y155521D01*
X352734Y160290D01*
X353222Y165250D01*
X352734Y170210D01*
X351287Y174979D01*
X348938Y179374D01*
X345776Y183226D01*
X341924Y186388D01*
X337529Y188737D01*
X332760Y190184D01*
X327800Y190672D01*
D02*
G37*
G36*
X694550Y189922D02*
X689590Y189434D01*
X684821Y187987D01*
X680426Y185638D01*
X676574Y182476D01*
X673412Y178624D01*
X671063Y174229D01*
X669616Y169460D01*
X669128Y164500D01*
X669616Y159540D01*
X671063Y154771D01*
X673412Y150376D01*
X676574Y146524D01*
X680426Y143362D01*
X684821Y141013D01*
X689590Y139566D01*
X694550Y139078D01*
X699510Y139566D01*
X704279Y141013D01*
X708674Y143362D01*
X712526Y146524D01*
X715688Y150376D01*
X718037Y154771D01*
X719484Y159540D01*
X719972Y164500D01*
X719484Y169460D01*
X718037Y174229D01*
X715688Y178624D01*
X712526Y182476D01*
X708674Y185638D01*
X704279Y187987D01*
X699510Y189434D01*
X694550Y189922D01*
D02*
G37*
G36*
X466600Y161086D02*
X464003Y160744D01*
X461582Y159741D01*
X459504Y158146D01*
X457909Y156068D01*
X456906Y153647D01*
X456564Y151050D01*
X456906Y148453D01*
X457909Y146032D01*
X459504Y143954D01*
X461582Y142359D01*
X464003Y141356D01*
X466600Y141014D01*
X469198Y141356D01*
X471618Y142359D01*
X473696Y143954D01*
X475291Y146032D01*
X476294Y148453D01*
X476636Y151050D01*
X476294Y153647D01*
X475291Y156068D01*
X473696Y158146D01*
X471618Y159741D01*
X469198Y160744D01*
X466600Y161086D01*
D02*
G37*
G36*
X518100Y189400D02*
X498200D01*
Y169500D01*
X518100D01*
Y189400D01*
D02*
G37*
G36*
X480450Y189486D02*
X477853Y189144D01*
X475432Y188141D01*
X473354Y186546D01*
X471759Y184468D01*
X470756Y182048D01*
X470414Y179450D01*
X470756Y176853D01*
X471759Y174432D01*
X473354Y172354D01*
X475432Y170759D01*
X477853Y169756D01*
X480450Y169414D01*
X483047Y169756D01*
X485468Y170759D01*
X487546Y172354D01*
X489141Y174432D01*
X490144Y176853D01*
X490486Y179450D01*
X490144Y182048D01*
X489141Y184468D01*
X487546Y186546D01*
X485468Y188141D01*
X483047Y189144D01*
X480450Y189486D01*
D02*
G37*
G36*
X452750D02*
X450153Y189144D01*
X447732Y188141D01*
X445654Y186546D01*
X444059Y184468D01*
X443056Y182048D01*
X442714Y179450D01*
X443056Y176853D01*
X444059Y174432D01*
X445654Y172354D01*
X447732Y170759D01*
X450153Y169756D01*
X452750Y169414D01*
X455348Y169756D01*
X457768Y170759D01*
X459846Y172354D01*
X461441Y174432D01*
X462444Y176853D01*
X462786Y179450D01*
X462444Y182048D01*
X461441Y184468D01*
X459846Y186546D01*
X457768Y188141D01*
X455348Y189144D01*
X452750Y189486D01*
D02*
G37*
G36*
X422394Y299952D02*
X420013Y299638D01*
X417795Y298720D01*
X415890Y297258D01*
X414428Y295352D01*
X413509Y293134D01*
X413195Y290753D01*
X413509Y288372D01*
X414428Y286154D01*
X415890Y284249D01*
X417795Y282787D01*
X420013Y281868D01*
X422394Y281555D01*
X424775Y281868D01*
X426993Y282787D01*
X428899Y284249D01*
X430360Y286154D01*
X431279Y288372D01*
X431593Y290753D01*
X431279Y293134D01*
X430360Y295352D01*
X428899Y297258D01*
X426993Y298720D01*
X424775Y299638D01*
X422394Y299952D01*
D02*
G37*
G36*
X1207000Y247918D02*
X1204951Y247648D01*
X1203041Y246857D01*
X1201401Y245599D01*
X1200143Y243959D01*
X1199352Y242049D01*
X1199223Y241069D01*
X1154769D01*
X1154607Y241459D01*
X1153349Y243099D01*
X1151709Y244357D01*
X1149799Y245148D01*
X1147750Y245418D01*
X1145701Y245148D01*
X1143791Y244357D01*
X1142151Y243099D01*
X1140893Y241459D01*
X1140102Y239549D01*
X1139832Y237500D01*
X1140102Y235451D01*
X1140893Y233541D01*
X1142151Y231901D01*
X1143791Y230643D01*
X1145701Y229852D01*
X1147750Y229582D01*
X1149799Y229852D01*
X1151709Y230643D01*
X1153349Y231901D01*
X1154607Y233541D01*
X1154769Y233931D01*
X1202014D01*
X1203041Y233143D01*
X1204951Y232352D01*
X1207000Y232082D01*
X1209049Y232352D01*
X1210959Y233143D01*
X1212599Y234401D01*
X1213857Y236041D01*
X1214648Y237951D01*
X1214918Y240000D01*
X1214648Y242049D01*
X1213857Y243959D01*
X1212599Y245599D01*
X1210959Y246857D01*
X1209049Y247648D01*
X1207000Y247918D01*
D02*
G37*
G36*
X1030400Y249328D02*
X1028051Y249018D01*
X1025861Y248111D01*
X1023981Y246669D01*
X1022539Y244789D01*
X1021632Y242600D01*
X1021322Y240250D01*
X1021632Y237901D01*
X1022539Y235711D01*
X1023981Y233831D01*
X1025861Y232389D01*
X1028051Y231482D01*
X1030400Y231172D01*
X1032749Y231482D01*
X1034939Y232389D01*
X1036819Y233831D01*
X1038261Y235711D01*
X1039168Y237901D01*
X1039478Y240250D01*
X1039168Y242600D01*
X1038261Y244789D01*
X1036819Y246669D01*
X1034939Y248111D01*
X1032749Y249018D01*
X1030400Y249328D01*
D02*
G37*
G36*
X819500Y188736D02*
X816903Y188394D01*
X814482Y187391D01*
X812404Y185796D01*
X810809Y183718D01*
X809806Y181297D01*
X809464Y178700D01*
X809806Y176103D01*
X810809Y173682D01*
X812404Y171604D01*
X814482Y170009D01*
X816903Y169006D01*
X819500Y168664D01*
X822097Y169006D01*
X824518Y170009D01*
X826596Y171604D01*
X828191Y173682D01*
X829194Y176103D01*
X829536Y178700D01*
X829194Y181297D01*
X828191Y183718D01*
X826596Y185796D01*
X824518Y187391D01*
X822097Y188394D01*
X819500Y188736D01*
D02*
G37*
G36*
X791800D02*
X789203Y188394D01*
X786782Y187391D01*
X784704Y185796D01*
X783109Y183718D01*
X782106Y181297D01*
X781764Y178700D01*
X782106Y176103D01*
X783109Y173682D01*
X784704Y171604D01*
X786782Y170009D01*
X789203Y169006D01*
X791800Y168664D01*
X794398Y169006D01*
X796818Y170009D01*
X798896Y171604D01*
X800491Y173682D01*
X801494Y176103D01*
X801836Y178700D01*
X801494Y181297D01*
X800491Y183718D01*
X798896Y185796D01*
X796818Y187391D01*
X794398Y188394D01*
X791800Y188736D01*
D02*
G37*
G36*
X494300Y161086D02*
X491702Y160744D01*
X489282Y159741D01*
X487204Y158146D01*
X485609Y156068D01*
X484606Y153647D01*
X484264Y151050D01*
X484606Y148453D01*
X485609Y146032D01*
X487204Y143954D01*
X489282Y142359D01*
X491702Y141356D01*
X494300Y141014D01*
X496898Y141356D01*
X499318Y142359D01*
X501396Y143954D01*
X502991Y146032D01*
X503994Y148453D01*
X504336Y151050D01*
X503994Y153647D01*
X502991Y156068D01*
X501396Y158146D01*
X499318Y159741D01*
X496898Y160744D01*
X494300Y161086D01*
D02*
G37*
G36*
X425050Y189486D02*
X422453Y189144D01*
X420032Y188141D01*
X417954Y186546D01*
X416359Y184468D01*
X415356Y182048D01*
X415014Y179450D01*
X415356Y176853D01*
X416359Y174432D01*
X417954Y172354D01*
X420032Y170759D01*
X422453Y169756D01*
X425050Y169414D01*
X427648Y169756D01*
X430068Y170759D01*
X432146Y172354D01*
X433741Y174432D01*
X434744Y176853D01*
X435086Y179450D01*
X434744Y182048D01*
X433741Y184468D01*
X432146Y186546D01*
X430068Y188141D01*
X427648Y189144D01*
X425050Y189486D01*
D02*
G37*
G36*
X884850Y188650D02*
X864950D01*
Y168750D01*
X884850D01*
Y188650D01*
D02*
G37*
G36*
X847200Y188736D02*
X844603Y188394D01*
X842182Y187391D01*
X840104Y185796D01*
X838509Y183718D01*
X837506Y181297D01*
X837164Y178700D01*
X837506Y176103D01*
X838509Y173682D01*
X840104Y171604D01*
X842182Y170009D01*
X844603Y169006D01*
X847200Y168664D01*
X849798Y169006D01*
X852218Y170009D01*
X854296Y171604D01*
X855891Y173682D01*
X856894Y176103D01*
X857236Y178700D01*
X856894Y181297D01*
X855891Y183718D01*
X854296Y185796D01*
X852218Y187391D01*
X849798Y188394D01*
X847200Y188736D01*
D02*
G37*
G36*
X930620Y426979D02*
X928239Y426665D01*
X926021Y425746D01*
X924116Y424284D01*
X922654Y422379D01*
X921735Y420161D01*
X921421Y417780D01*
X921735Y415399D01*
X922654Y413181D01*
X924116Y411275D01*
X926021Y409814D01*
X928239Y408895D01*
X930620Y408581D01*
X933001Y408895D01*
X935219Y409814D01*
X937124Y411275D01*
X938586Y413181D01*
X939505Y415399D01*
X939819Y417780D01*
X939505Y420161D01*
X938586Y422379D01*
X937124Y424284D01*
X935219Y425746D01*
X933001Y426665D01*
X930620Y426979D01*
D02*
G37*
G36*
X905220Y706379D02*
X902839Y706065D01*
X900621Y705146D01*
X898716Y703684D01*
X897254Y701779D01*
X896335Y699561D01*
X896021Y697180D01*
X896335Y694799D01*
X897254Y692581D01*
X898716Y690676D01*
X900621Y689214D01*
X902839Y688295D01*
X905220Y687981D01*
X907601Y688295D01*
X909819Y689214D01*
X911724Y690676D01*
X913186Y692581D01*
X914105Y694799D01*
X914419Y697180D01*
X914105Y699561D01*
X913186Y701779D01*
X911724Y703684D01*
X909819Y705146D01*
X907601Y706065D01*
X905220Y706379D01*
D02*
G37*
G36*
X447794Y706352D02*
X445413Y706038D01*
X443195Y705119D01*
X441290Y703658D01*
X439828Y701752D01*
X438909Y699534D01*
X438596Y697153D01*
X438909Y694772D01*
X439828Y692554D01*
X441290Y690649D01*
X443195Y689187D01*
X445413Y688268D01*
X447794Y687954D01*
X450175Y688268D01*
X452393Y689187D01*
X454299Y690649D01*
X455760Y692554D01*
X456679Y694772D01*
X456993Y697153D01*
X456679Y699534D01*
X455760Y701752D01*
X454299Y703658D01*
X452393Y705119D01*
X450175Y706038D01*
X447794Y706352D01*
D02*
G37*
G36*
X396500Y785500D02*
Y669750D01*
X399000D01*
Y783000D01*
X397250Y784750D01*
X396500Y785500D01*
D02*
G37*
G36*
X447794Y757152D02*
X445413Y756838D01*
X443195Y755919D01*
X441290Y754458D01*
X439828Y752552D01*
X438909Y750334D01*
X438596Y747953D01*
X438909Y745572D01*
X439828Y743354D01*
X441290Y741449D01*
X443195Y739987D01*
X445413Y739068D01*
X447794Y738755D01*
X450175Y739068D01*
X452393Y739987D01*
X454299Y741449D01*
X455760Y743354D01*
X456679Y745572D01*
X456993Y747953D01*
X456679Y750334D01*
X455760Y752552D01*
X454299Y754458D01*
X452393Y755919D01*
X450175Y756838D01*
X447794Y757152D01*
D02*
G37*
G36*
X905220Y731779D02*
X902839Y731465D01*
X900621Y730546D01*
X898716Y729084D01*
X897254Y727179D01*
X896335Y724961D01*
X896021Y722580D01*
X896335Y720199D01*
X897254Y717981D01*
X898716Y716076D01*
X900621Y714614D01*
X902839Y713695D01*
X905220Y713381D01*
X907601Y713695D01*
X909819Y714614D01*
X911724Y716076D01*
X913186Y717981D01*
X914105Y720199D01*
X914419Y722580D01*
X914105Y724961D01*
X913186Y727179D01*
X911724Y729084D01*
X909819Y730546D01*
X907601Y731465D01*
X905220Y731779D01*
D02*
G37*
G36*
X447794Y731752D02*
X445413Y731438D01*
X443195Y730519D01*
X441290Y729058D01*
X439828Y727152D01*
X438909Y724934D01*
X438596Y722553D01*
X438909Y720172D01*
X439828Y717954D01*
X441290Y716049D01*
X443195Y714587D01*
X445413Y713668D01*
X447794Y713354D01*
X450175Y713668D01*
X452393Y714587D01*
X454299Y716049D01*
X455760Y717954D01*
X456679Y720172D01*
X456993Y722553D01*
X456679Y724934D01*
X455760Y727152D01*
X454299Y729058D01*
X452393Y730519D01*
X450175Y731438D01*
X447794Y731752D01*
D02*
G37*
G36*
X308580Y668228D02*
X298580D01*
X296231Y667918D01*
X294041Y667011D01*
X292161Y665569D01*
X290718Y663689D01*
X289812Y661499D01*
X289502Y659150D01*
X289812Y656801D01*
X290718Y654611D01*
X292161Y652731D01*
X294041Y651289D01*
X296231Y650382D01*
X298580Y650072D01*
X308580D01*
X310930Y650382D01*
X313119Y651289D01*
X314999Y652731D01*
X316441Y654611D01*
X317348Y656801D01*
X317658Y659150D01*
X317348Y661499D01*
X316441Y663689D01*
X314999Y665569D01*
X313119Y667011D01*
X310930Y667918D01*
X308580Y668228D01*
D02*
G37*
G36*
X930620Y655579D02*
X928239Y655265D01*
X926021Y654346D01*
X924116Y652884D01*
X922654Y650979D01*
X921735Y648761D01*
X921421Y646380D01*
X921735Y643999D01*
X922654Y641781D01*
X924116Y639875D01*
X926021Y638414D01*
X928239Y637495D01*
X930620Y637181D01*
X933001Y637495D01*
X935219Y638414D01*
X937124Y639875D01*
X938586Y641781D01*
X939505Y643999D01*
X939819Y646380D01*
X939505Y648761D01*
X938586Y650979D01*
X937124Y652884D01*
X935219Y654346D01*
X933001Y655265D01*
X930620Y655579D01*
D02*
G37*
G36*
X905220D02*
X902839Y655265D01*
X900621Y654346D01*
X898716Y652884D01*
X897254Y650979D01*
X896335Y648761D01*
X896021Y646380D01*
X896335Y643999D01*
X897254Y641781D01*
X898716Y639875D01*
X900621Y638414D01*
X902839Y637495D01*
X905220Y637181D01*
X907601Y637495D01*
X909819Y638414D01*
X911724Y639875D01*
X913186Y641781D01*
X914105Y643999D01*
X914419Y646380D01*
X914105Y648761D01*
X913186Y650979D01*
X911724Y652884D01*
X909819Y654346D01*
X907601Y655265D01*
X905220Y655579D01*
D02*
G37*
G36*
X930620Y680979D02*
X928239Y680665D01*
X926021Y679746D01*
X924116Y678284D01*
X922654Y676379D01*
X921735Y674161D01*
X921421Y671780D01*
X921735Y669399D01*
X922654Y667181D01*
X924116Y665275D01*
X926021Y663814D01*
X928239Y662895D01*
X930620Y662581D01*
X933001Y662895D01*
X935219Y663814D01*
X937124Y665275D01*
X938586Y667181D01*
X939505Y669399D01*
X939819Y671780D01*
X939505Y674161D01*
X938586Y676379D01*
X937124Y678284D01*
X935219Y679746D01*
X933001Y680665D01*
X930620Y680979D01*
D02*
G37*
G36*
X905220D02*
X902839Y680665D01*
X900621Y679746D01*
X898716Y678284D01*
X897254Y676379D01*
X896335Y674161D01*
X896021Y671780D01*
X896335Y669399D01*
X897254Y667181D01*
X898716Y665275D01*
X900621Y663814D01*
X902839Y662895D01*
X905220Y662581D01*
X907601Y662895D01*
X909819Y663814D01*
X911724Y665275D01*
X913186Y667181D01*
X914105Y669399D01*
X914419Y671780D01*
X914105Y674161D01*
X913186Y676379D01*
X911724Y678284D01*
X909819Y679746D01*
X907601Y680665D01*
X905220Y680979D01*
D02*
G37*
G36*
X447794Y680952D02*
X445413Y680638D01*
X443195Y679719D01*
X441290Y678258D01*
X439828Y676352D01*
X438909Y674134D01*
X438596Y671753D01*
X438909Y669372D01*
X439828Y667154D01*
X441290Y665249D01*
X443195Y663787D01*
X445413Y662868D01*
X447794Y662554D01*
X450175Y662868D01*
X452393Y663787D01*
X454299Y665249D01*
X455760Y667154D01*
X456679Y669372D01*
X456993Y671753D01*
X456679Y674134D01*
X455760Y676352D01*
X454299Y678258D01*
X452393Y679719D01*
X450175Y680638D01*
X447794Y680952D01*
D02*
G37*
G36*
X905220Y757179D02*
X902839Y756865D01*
X900621Y755946D01*
X898716Y754484D01*
X897254Y752579D01*
X896335Y750361D01*
X896021Y747980D01*
X896335Y745599D01*
X897254Y743381D01*
X898716Y741476D01*
X900621Y740014D01*
X902839Y739095D01*
X905220Y738781D01*
X907601Y739095D01*
X909819Y740014D01*
X911724Y741476D01*
X913186Y743381D01*
X914105Y745599D01*
X914419Y747980D01*
X914105Y750361D01*
X913186Y752579D01*
X911724Y754484D01*
X909819Y755946D01*
X907601Y756865D01*
X905220Y757179D01*
D02*
G37*
G36*
X447794Y858752D02*
X445413Y858438D01*
X443195Y857520D01*
X441290Y856058D01*
X439828Y854153D01*
X438909Y851934D01*
X438596Y849553D01*
X438909Y847172D01*
X439828Y844954D01*
X441290Y843049D01*
X443195Y841587D01*
X445413Y840668D01*
X447794Y840355D01*
X450175Y840668D01*
X452393Y841587D01*
X454299Y843049D01*
X455760Y844954D01*
X456679Y847172D01*
X456993Y849553D01*
X456679Y851934D01*
X455760Y854153D01*
X454299Y856058D01*
X452393Y857520D01*
X450175Y858438D01*
X447794Y858752D01*
D02*
G37*
G36*
X422394D02*
X420013Y858438D01*
X417795Y857520D01*
X415890Y856058D01*
X414428Y854153D01*
X413509Y851934D01*
X413195Y849553D01*
X413509Y847172D01*
X414428Y844954D01*
X415890Y843049D01*
X417795Y841587D01*
X420013Y840668D01*
X422394Y840355D01*
X424775Y840668D01*
X426993Y841587D01*
X428899Y843049D01*
X430360Y844954D01*
X431279Y847172D01*
X431593Y849553D01*
X431279Y851934D01*
X430360Y854153D01*
X428899Y856058D01*
X426993Y857520D01*
X424775Y858438D01*
X422394Y858752D01*
D02*
G37*
G36*
X905220Y833379D02*
X902839Y833065D01*
X900621Y832146D01*
X898716Y830684D01*
X897254Y828779D01*
X896335Y826561D01*
X896021Y824180D01*
X896335Y821799D01*
X897254Y819581D01*
X898716Y817675D01*
X900621Y816214D01*
X902839Y815295D01*
X905220Y814981D01*
X907601Y815295D01*
X909819Y816214D01*
X911724Y817675D01*
X913186Y819581D01*
X914105Y821799D01*
X914419Y824180D01*
X914105Y826561D01*
X913186Y828779D01*
X911724Y830684D01*
X909819Y832146D01*
X907601Y833065D01*
X905220Y833379D01*
D02*
G37*
G36*
X67500Y973823D02*
X64559Y973533D01*
X61732Y972675D01*
X59126Y971282D01*
X56842Y969408D01*
X54968Y967124D01*
X53575Y964518D01*
X52717Y961691D01*
X52428Y958750D01*
X52717Y955809D01*
X53575Y952982D01*
X54968Y950376D01*
X56842Y948092D01*
X59126Y946218D01*
X61732Y944825D01*
X64559Y943967D01*
X67500Y943678D01*
X70441Y943967D01*
X73268Y944825D01*
X75874Y946218D01*
X78158Y948092D01*
X80032Y950376D01*
X81425Y952982D01*
X82283Y955809D01*
X82573Y958750D01*
X82283Y961691D01*
X81425Y964518D01*
X80032Y967124D01*
X78158Y969408D01*
X75874Y971282D01*
X73268Y972675D01*
X70441Y973533D01*
X67500Y973823D01*
D02*
G37*
G36*
X1291500Y969823D02*
X1288560Y969533D01*
X1285732Y968675D01*
X1283126Y967282D01*
X1280842Y965408D01*
X1278968Y963124D01*
X1277575Y960518D01*
X1276717Y957691D01*
X1276427Y954750D01*
X1276717Y951809D01*
X1277575Y948982D01*
X1278968Y946376D01*
X1280842Y944092D01*
X1283126Y942218D01*
X1285732Y940825D01*
X1288560Y939967D01*
X1291500Y939677D01*
X1294440Y939967D01*
X1297268Y940825D01*
X1299874Y942218D01*
X1302158Y944092D01*
X1304032Y946376D01*
X1305425Y948982D01*
X1306283Y951809D01*
X1306573Y954750D01*
X1306283Y957691D01*
X1305425Y960518D01*
X1304032Y963124D01*
X1302158Y965408D01*
X1299874Y967282D01*
X1297268Y968675D01*
X1294440Y969533D01*
X1291500Y969823D01*
D02*
G37*
G36*
X905220Y858779D02*
X902839Y858465D01*
X900621Y857546D01*
X898716Y856084D01*
X897254Y854179D01*
X896335Y851961D01*
X896021Y849580D01*
X896335Y847199D01*
X897254Y844981D01*
X898716Y843075D01*
X900621Y841614D01*
X902839Y840695D01*
X905220Y840381D01*
X907601Y840695D01*
X909819Y841614D01*
X911724Y843075D01*
X913186Y844981D01*
X914105Y847199D01*
X914419Y849580D01*
X914105Y851961D01*
X913186Y854179D01*
X911724Y856084D01*
X909819Y857546D01*
X907601Y858465D01*
X905220Y858779D01*
D02*
G37*
G36*
X447794Y807952D02*
X445413Y807638D01*
X443195Y806720D01*
X441290Y805258D01*
X439828Y803353D01*
X438909Y801134D01*
X438596Y798753D01*
X438909Y796372D01*
X439828Y794154D01*
X441290Y792249D01*
X443195Y790787D01*
X445413Y789868D01*
X447794Y789555D01*
X450175Y789868D01*
X452393Y790787D01*
X454299Y792249D01*
X455760Y794154D01*
X456679Y796372D01*
X456993Y798753D01*
X456679Y801134D01*
X455760Y803353D01*
X454299Y805258D01*
X452393Y806720D01*
X450175Y807638D01*
X447794Y807952D01*
D02*
G37*
G36*
X905220Y782579D02*
X902839Y782265D01*
X900621Y781346D01*
X898716Y779884D01*
X897254Y777979D01*
X896335Y775761D01*
X896021Y773380D01*
X896335Y770999D01*
X897254Y768781D01*
X898716Y766876D01*
X900621Y765414D01*
X902839Y764495D01*
X905220Y764181D01*
X907601Y764495D01*
X909819Y765414D01*
X911724Y766876D01*
X913186Y768781D01*
X914105Y770999D01*
X914419Y773380D01*
X914105Y775761D01*
X913186Y777979D01*
X911724Y779884D01*
X909819Y781346D01*
X907601Y782265D01*
X905220Y782579D01*
D02*
G37*
G36*
X447794Y782552D02*
X445413Y782238D01*
X443195Y781320D01*
X441290Y779858D01*
X439828Y777952D01*
X438909Y775734D01*
X438596Y773353D01*
X438909Y770972D01*
X439828Y768754D01*
X441290Y766849D01*
X443195Y765387D01*
X445413Y764468D01*
X447794Y764155D01*
X450175Y764468D01*
X452393Y765387D01*
X454299Y766849D01*
X455760Y768754D01*
X456679Y770972D01*
X456993Y773353D01*
X456679Y775734D01*
X455760Y777952D01*
X454299Y779858D01*
X452393Y781320D01*
X450175Y782238D01*
X447794Y782552D01*
D02*
G37*
G36*
Y833352D02*
X445413Y833038D01*
X443195Y832120D01*
X441290Y830658D01*
X439828Y828753D01*
X438909Y826534D01*
X438596Y824153D01*
X438909Y821772D01*
X439828Y819554D01*
X441290Y817649D01*
X443195Y816187D01*
X445413Y815268D01*
X447794Y814955D01*
X450175Y815268D01*
X452393Y816187D01*
X454299Y817649D01*
X455760Y819554D01*
X456679Y821772D01*
X456993Y824153D01*
X456679Y826534D01*
X455760Y828753D01*
X454299Y830658D01*
X452393Y832120D01*
X450175Y833038D01*
X447794Y833352D01*
D02*
G37*
G36*
X422394D02*
X420013Y833038D01*
X417795Y832120D01*
X415890Y830658D01*
X414428Y828753D01*
X413509Y826534D01*
X413195Y824153D01*
X413509Y821772D01*
X414428Y819554D01*
X415890Y817649D01*
X417795Y816187D01*
X420013Y815268D01*
X422394Y814955D01*
X424775Y815268D01*
X426993Y816187D01*
X428899Y817649D01*
X430360Y819554D01*
X431279Y821772D01*
X431593Y824153D01*
X431279Y826534D01*
X430360Y828753D01*
X428899Y830658D01*
X426993Y832120D01*
X424775Y833038D01*
X422394Y833352D01*
D02*
G37*
G36*
X905220Y807979D02*
X902839Y807665D01*
X900621Y806746D01*
X898716Y805284D01*
X897254Y803379D01*
X896335Y801161D01*
X896021Y798780D01*
X896335Y796399D01*
X897254Y794181D01*
X898716Y792275D01*
X900621Y790814D01*
X902839Y789895D01*
X905220Y789581D01*
X907601Y789895D01*
X909819Y790814D01*
X911724Y792275D01*
X913186Y794181D01*
X914105Y796399D01*
X914419Y798780D01*
X914105Y801161D01*
X913186Y803379D01*
X911724Y805284D01*
X909819Y806746D01*
X907601Y807665D01*
X905220Y807979D01*
D02*
G37*
G36*
X447794Y655552D02*
X445413Y655238D01*
X443195Y654320D01*
X441290Y652858D01*
X439828Y650953D01*
X438909Y648734D01*
X438596Y646353D01*
X438909Y643972D01*
X439828Y641754D01*
X441290Y639849D01*
X443195Y638387D01*
X445413Y637468D01*
X447794Y637155D01*
X450175Y637468D01*
X452393Y638387D01*
X454299Y639849D01*
X455760Y641754D01*
X456679Y643972D01*
X456993Y646353D01*
X456679Y648734D01*
X455760Y650953D01*
X454299Y652858D01*
X452393Y654320D01*
X450175Y655238D01*
X447794Y655552D01*
D02*
G37*
G36*
Y528552D02*
X445413Y528238D01*
X443195Y527319D01*
X441290Y525858D01*
X439828Y523952D01*
X438909Y521734D01*
X438596Y519353D01*
X438909Y516972D01*
X439828Y514754D01*
X441290Y512849D01*
X443195Y511387D01*
X445413Y510468D01*
X447794Y510154D01*
X450175Y510468D01*
X452393Y511387D01*
X454299Y512849D01*
X455760Y514754D01*
X456679Y516972D01*
X456993Y519353D01*
X456679Y521734D01*
X455760Y523952D01*
X454299Y525858D01*
X452393Y527319D01*
X450175Y528238D01*
X447794Y528552D01*
D02*
G37*
G36*
X930620Y503179D02*
X928239Y502865D01*
X926021Y501946D01*
X924116Y500484D01*
X922654Y498579D01*
X921735Y496361D01*
X921421Y493980D01*
X921735Y491599D01*
X922654Y489381D01*
X924116Y487476D01*
X926021Y486014D01*
X928239Y485095D01*
X930620Y484781D01*
X933001Y485095D01*
X935219Y486014D01*
X937124Y487476D01*
X938586Y489381D01*
X939505Y491599D01*
X939819Y493980D01*
X939505Y496361D01*
X938586Y498579D01*
X937124Y500484D01*
X935219Y501946D01*
X933001Y502865D01*
X930620Y503179D01*
D02*
G37*
G36*
X905220D02*
X902839Y502865D01*
X900621Y501946D01*
X898716Y500484D01*
X897254Y498579D01*
X896335Y496361D01*
X896021Y493980D01*
X896335Y491599D01*
X897254Y489381D01*
X898716Y487476D01*
X900621Y486014D01*
X902839Y485095D01*
X905220Y484781D01*
X907601Y485095D01*
X909819Y486014D01*
X911724Y487476D01*
X913186Y489381D01*
X914105Y491599D01*
X914419Y493980D01*
X914105Y496361D01*
X913186Y498579D01*
X911724Y500484D01*
X909819Y501946D01*
X907601Y502865D01*
X905220Y503179D01*
D02*
G37*
G36*
X587250Y539418D02*
X585201Y539148D01*
X583291Y538357D01*
X581651Y537099D01*
X580393Y535459D01*
X580231Y535069D01*
X513000D01*
X511634Y534797D01*
X510477Y534023D01*
X478689Y502236D01*
X478299Y502398D01*
X476250Y502668D01*
X474201Y502398D01*
X472291Y501607D01*
X470651Y500349D01*
X469393Y498709D01*
X468602Y496799D01*
X468332Y494750D01*
X468602Y492701D01*
X469393Y490791D01*
X470651Y489151D01*
X472291Y487893D01*
X474201Y487102D01*
X476250Y486832D01*
X478299Y487102D01*
X480209Y487893D01*
X481849Y489151D01*
X483107Y490791D01*
X483898Y492701D01*
X484168Y494750D01*
X483898Y496799D01*
X483736Y497190D01*
X514478Y527932D01*
X580231D01*
X580393Y527541D01*
X581651Y525901D01*
X583291Y524643D01*
X585201Y523852D01*
X587250Y523582D01*
X589299Y523852D01*
X591209Y524643D01*
X592849Y525901D01*
X594107Y527541D01*
X594898Y529451D01*
X595168Y531500D01*
X594898Y533549D01*
X594107Y535459D01*
X592849Y537099D01*
X591209Y538357D01*
X589299Y539148D01*
X587250Y539418D01*
D02*
G37*
G36*
X930620Y528579D02*
X928239Y528265D01*
X926021Y527346D01*
X924116Y525884D01*
X922654Y523979D01*
X921735Y521761D01*
X921421Y519380D01*
X921735Y516999D01*
X922654Y514781D01*
X924116Y512876D01*
X926021Y511414D01*
X928239Y510495D01*
X930620Y510181D01*
X933001Y510495D01*
X935219Y511414D01*
X937124Y512876D01*
X938586Y514781D01*
X939505Y516999D01*
X939819Y519380D01*
X939505Y521761D01*
X938586Y523979D01*
X937124Y525884D01*
X935219Y527346D01*
X933001Y528265D01*
X930620Y528579D01*
D02*
G37*
G36*
X905220D02*
X902839Y528265D01*
X900621Y527346D01*
X898716Y525884D01*
X897254Y523979D01*
X896335Y521761D01*
X896021Y519380D01*
X896335Y516999D01*
X897254Y514781D01*
X898716Y512876D01*
X900621Y511414D01*
X902839Y510495D01*
X905220Y510181D01*
X907601Y510495D01*
X909819Y511414D01*
X911724Y512876D01*
X913186Y514781D01*
X914105Y516999D01*
X914419Y519380D01*
X914105Y521761D01*
X913186Y523979D01*
X911724Y525884D01*
X909819Y527346D01*
X907601Y528265D01*
X905220Y528579D01*
D02*
G37*
G36*
Y452379D02*
X902839Y452065D01*
X900621Y451146D01*
X898716Y449684D01*
X897254Y447779D01*
X896335Y445561D01*
X896021Y443180D01*
X896335Y440799D01*
X897254Y438581D01*
X898716Y436675D01*
X900621Y435214D01*
X902839Y434295D01*
X905220Y433981D01*
X907601Y434295D01*
X909819Y435214D01*
X911724Y436675D01*
X913186Y438581D01*
X914105Y440799D01*
X914419Y443180D01*
X914105Y445561D01*
X913186Y447779D01*
X911724Y449684D01*
X909819Y451146D01*
X907601Y452065D01*
X905220Y452379D01*
D02*
G37*
G36*
X447794Y452352D02*
X445413Y452038D01*
X443195Y451119D01*
X441290Y449658D01*
X439828Y447752D01*
X438909Y445534D01*
X438596Y443153D01*
X438909Y440772D01*
X439828Y438554D01*
X441290Y436649D01*
X443195Y435187D01*
X445413Y434268D01*
X447794Y433955D01*
X450175Y434268D01*
X452393Y435187D01*
X454299Y436649D01*
X455760Y438554D01*
X456679Y440772D01*
X456993Y443153D01*
X456679Y445534D01*
X455760Y447752D01*
X454299Y449658D01*
X452393Y451119D01*
X450175Y452038D01*
X447794Y452352D01*
D02*
G37*
G36*
X422394D02*
X420013Y452038D01*
X417795Y451119D01*
X415890Y449658D01*
X414428Y447752D01*
X413509Y445534D01*
X413195Y443153D01*
X413509Y440772D01*
X414428Y438554D01*
X415890Y436649D01*
X417795Y435187D01*
X420013Y434268D01*
X422394Y433955D01*
X424775Y434268D01*
X426993Y435187D01*
X428899Y436649D01*
X430360Y438554D01*
X431279Y440772D01*
X431593Y443153D01*
X431279Y445534D01*
X430360Y447752D01*
X428899Y449658D01*
X426993Y451119D01*
X424775Y452038D01*
X422394Y452352D01*
D02*
G37*
G36*
X930620Y477779D02*
X928239Y477465D01*
X926021Y476546D01*
X924116Y475084D01*
X922654Y473179D01*
X921735Y470961D01*
X921421Y468580D01*
X921735Y466199D01*
X922654Y463981D01*
X924116Y462076D01*
X926021Y460614D01*
X928239Y459695D01*
X930620Y459381D01*
X933001Y459695D01*
X935219Y460614D01*
X937124Y462076D01*
X938586Y463981D01*
X939505Y466199D01*
X939819Y468580D01*
X939505Y470961D01*
X938586Y473179D01*
X937124Y475084D01*
X935219Y476546D01*
X933001Y477465D01*
X930620Y477779D01*
D02*
G37*
G36*
X905220D02*
X902839Y477465D01*
X900621Y476546D01*
X898716Y475084D01*
X897254Y473179D01*
X896335Y470961D01*
X896021Y468580D01*
X896335Y466199D01*
X897254Y463981D01*
X898716Y462076D01*
X900621Y460614D01*
X902839Y459695D01*
X905220Y459381D01*
X907601Y459695D01*
X909819Y460614D01*
X911724Y462076D01*
X913186Y463981D01*
X914105Y466199D01*
X914419Y468580D01*
X914105Y470961D01*
X913186Y473179D01*
X911724Y475084D01*
X909819Y476546D01*
X907601Y477465D01*
X905220Y477779D01*
D02*
G37*
G36*
X930620Y452379D02*
X928239Y452065D01*
X926021Y451146D01*
X924116Y449684D01*
X922654Y447779D01*
X921735Y445561D01*
X921421Y443180D01*
X921735Y440799D01*
X922654Y438581D01*
X924116Y436675D01*
X926021Y435214D01*
X928239Y434295D01*
X930620Y433981D01*
X933001Y434295D01*
X935219Y435214D01*
X937124Y436675D01*
X938586Y438581D01*
X939505Y440799D01*
X939819Y443180D01*
X939505Y445561D01*
X938586Y447779D01*
X937124Y449684D01*
X935219Y451146D01*
X933001Y452065D01*
X930620Y452379D01*
D02*
G37*
G36*
X422394Y553952D02*
X420013Y553638D01*
X417795Y552719D01*
X415890Y551258D01*
X414428Y549352D01*
X413509Y547134D01*
X413195Y544753D01*
X413509Y542372D01*
X414428Y540154D01*
X415890Y538249D01*
X417795Y536787D01*
X420013Y535868D01*
X422394Y535555D01*
X424775Y535868D01*
X426993Y536787D01*
X428899Y538249D01*
X430360Y540154D01*
X431279Y542372D01*
X431593Y544753D01*
X431279Y547134D01*
X430360Y549352D01*
X428899Y551258D01*
X426993Y552719D01*
X424775Y553638D01*
X422394Y553952D01*
D02*
G37*
G36*
Y630152D02*
X420013Y629838D01*
X417795Y628919D01*
X415890Y627458D01*
X414428Y625552D01*
X413509Y623334D01*
X413195Y620953D01*
X413509Y618572D01*
X414428Y616354D01*
X415890Y614449D01*
X417795Y612987D01*
X420013Y612068D01*
X422394Y611754D01*
X424775Y612068D01*
X426993Y612987D01*
X428899Y614449D01*
X430360Y616354D01*
X431279Y618572D01*
X431593Y620953D01*
X431279Y623334D01*
X430360Y625552D01*
X428899Y627458D01*
X426993Y628919D01*
X424775Y629838D01*
X422394Y630152D01*
D02*
G37*
G36*
X905220Y604779D02*
X902839Y604465D01*
X900621Y603546D01*
X898716Y602084D01*
X897254Y600179D01*
X896335Y597961D01*
X896021Y595580D01*
X896335Y593199D01*
X896762Y592168D01*
X891412Y586819D01*
X484269D01*
X484107Y587209D01*
X482849Y588849D01*
X481209Y590107D01*
X479299Y590898D01*
X477250Y591168D01*
X475201Y590898D01*
X473291Y590107D01*
X471651Y588849D01*
X470393Y587209D01*
X469602Y585299D01*
X469332Y583250D01*
X469602Y581201D01*
X470393Y579291D01*
X471651Y577651D01*
X473291Y576393D01*
X475201Y575602D01*
X477250Y575332D01*
X479299Y575602D01*
X481209Y576393D01*
X482849Y577651D01*
X484107Y579291D01*
X484269Y579681D01*
X828988D01*
X829397Y578479D01*
X828901Y578099D01*
X827643Y576459D01*
X826852Y574549D01*
X826582Y572500D01*
X826852Y570451D01*
X827643Y568541D01*
X828901Y566901D01*
X830541Y565643D01*
X830931Y565481D01*
Y552228D01*
X792897Y514193D01*
X791799Y514648D01*
X789750Y514918D01*
X787701Y514648D01*
X785791Y513857D01*
X784151Y512599D01*
X782893Y510959D01*
X782102Y509049D01*
X781832Y507000D01*
X782102Y504951D01*
X782893Y503041D01*
X784151Y501401D01*
X785791Y500143D01*
X787701Y499352D01*
X789750Y499082D01*
X791799Y499352D01*
X793709Y500143D01*
X795349Y501401D01*
X796607Y503041D01*
X797398Y504951D01*
X797668Y507000D01*
X797450Y508653D01*
X837023Y548227D01*
X837797Y549384D01*
X838069Y550750D01*
X838069Y550750D01*
X838069Y550750D01*
Y550750D01*
Y565481D01*
X838459Y565643D01*
X840099Y566901D01*
X841357Y568541D01*
X842148Y570451D01*
X842418Y572500D01*
X842148Y574549D01*
X841357Y576459D01*
X840099Y578099D01*
X839603Y578479D01*
X840012Y579681D01*
X892890D01*
X894256Y579953D01*
X895413Y580727D01*
X901808Y587122D01*
X902839Y586695D01*
X905220Y586381D01*
X907601Y586695D01*
X909819Y587614D01*
X911724Y589076D01*
X913186Y590981D01*
X914105Y593199D01*
X914419Y595580D01*
X914105Y597961D01*
X913186Y600179D01*
X911724Y602084D01*
X909819Y603546D01*
X907601Y604465D01*
X905220Y604779D01*
D02*
G37*
G36*
X930620D02*
X928239Y604465D01*
X926021Y603546D01*
X924116Y602084D01*
X922654Y600179D01*
X921735Y597961D01*
X921421Y595580D01*
X921735Y593199D01*
X922654Y590981D01*
X924116Y589076D01*
X926021Y587614D01*
X928239Y586695D01*
X930620Y586381D01*
X933001Y586695D01*
X935219Y587614D01*
X937124Y589076D01*
X938586Y590981D01*
X939505Y593199D01*
X939819Y595580D01*
X939505Y597961D01*
X938586Y600179D01*
X937124Y602084D01*
X935219Y603546D01*
X933001Y604465D01*
X930620Y604779D01*
D02*
G37*
G36*
X714500Y894168D02*
X712451Y893898D01*
X710541Y893107D01*
X708901Y891849D01*
X707643Y890209D01*
X706852Y888299D01*
X706582Y886250D01*
X706852Y884201D01*
X707643Y882291D01*
X708901Y880651D01*
X710541Y879393D01*
X711431Y879024D01*
Y871478D01*
X457676Y617722D01*
X456619Y618428D01*
X456679Y618572D01*
X456993Y620953D01*
X456679Y623334D01*
X455760Y625552D01*
X454299Y627458D01*
X452393Y628919D01*
X450175Y629838D01*
X447794Y630152D01*
X445413Y629838D01*
X443195Y628919D01*
X441290Y627458D01*
X439828Y625552D01*
X438909Y623334D01*
X438596Y620953D01*
X438909Y618572D01*
X439828Y616354D01*
X441290Y614449D01*
X442617Y613430D01*
X442209Y612228D01*
X435500D01*
X434134Y611956D01*
X432977Y611182D01*
X425806Y604011D01*
X424775Y604438D01*
X422394Y604752D01*
X420013Y604438D01*
X417795Y603520D01*
X415890Y602058D01*
X414428Y600153D01*
X413509Y597934D01*
X413195Y595553D01*
X413509Y593172D01*
X414428Y590954D01*
X415890Y589049D01*
X417795Y587587D01*
X420013Y586668D01*
X422394Y586354D01*
X424775Y586668D01*
X426993Y587587D01*
X428899Y589049D01*
X430360Y590954D01*
X431279Y593172D01*
X431593Y595553D01*
X431279Y597934D01*
X430853Y598965D01*
X436978Y605090D01*
X443732D01*
X443980Y603845D01*
X443195Y603520D01*
X441290Y602058D01*
X439828Y600153D01*
X438909Y597934D01*
X438596Y595553D01*
X438909Y593172D01*
X439828Y590954D01*
X441290Y589049D01*
X443195Y587587D01*
X445413Y586668D01*
X447794Y586354D01*
X450175Y586668D01*
X452393Y587587D01*
X454299Y589049D01*
X455760Y590954D01*
X456679Y593172D01*
X456993Y595553D01*
X456679Y597934D01*
X455760Y600153D01*
X454299Y602058D01*
X452393Y603520D01*
X451608Y603845D01*
X451856Y605090D01*
X453659D01*
X455025Y605362D01*
X456182Y606136D01*
X717523Y867477D01*
X718297Y868634D01*
X718569Y870000D01*
X718569Y870000D01*
X718569Y870000D01*
Y870000D01*
Y879477D01*
X720099Y880651D01*
X721357Y882291D01*
X722148Y884201D01*
X722418Y886250D01*
X722148Y888299D01*
X721357Y890209D01*
X720099Y891849D01*
X718459Y893107D01*
X716549Y893898D01*
X714500Y894168D01*
D02*
G37*
G36*
X930620Y630179D02*
X928239Y629865D01*
X926021Y628946D01*
X924116Y627484D01*
X922654Y625579D01*
X921735Y623361D01*
X921421Y620980D01*
X921735Y618599D01*
X922654Y616381D01*
X924116Y614476D01*
X926021Y613014D01*
X928239Y612095D01*
X930620Y611781D01*
X933001Y612095D01*
X935219Y613014D01*
X937124Y614476D01*
X938586Y616381D01*
X939505Y618599D01*
X939819Y620980D01*
X939505Y623361D01*
X938586Y625579D01*
X937124Y627484D01*
X935219Y628946D01*
X933001Y629865D01*
X930620Y630179D01*
D02*
G37*
G36*
X905220D02*
X902839Y629865D01*
X900621Y628946D01*
X898716Y627484D01*
X897254Y625579D01*
X896335Y623361D01*
X896021Y620980D01*
X896335Y618599D01*
X897254Y616381D01*
X898716Y614476D01*
X900621Y613014D01*
X902839Y612095D01*
X905220Y611781D01*
X907601Y612095D01*
X909819Y613014D01*
X911724Y614476D01*
X913186Y616381D01*
X914105Y618599D01*
X914419Y620980D01*
X914105Y623361D01*
X913186Y625579D01*
X911724Y627484D01*
X909819Y628946D01*
X907601Y629865D01*
X905220Y630179D01*
D02*
G37*
G36*
X930620Y553979D02*
X928239Y553665D01*
X926021Y552746D01*
X924116Y551284D01*
X922654Y549379D01*
X921735Y547161D01*
X921421Y544780D01*
X921735Y542399D01*
X922654Y540181D01*
X924116Y538275D01*
X926021Y536814D01*
X928239Y535895D01*
X930620Y535581D01*
X933001Y535895D01*
X935219Y536814D01*
X937124Y538275D01*
X938586Y540181D01*
X939505Y542399D01*
X939819Y544780D01*
X939505Y547161D01*
X938586Y549379D01*
X937124Y551284D01*
X935219Y552746D01*
X933001Y553665D01*
X930620Y553979D01*
D02*
G37*
G36*
X905220D02*
X902839Y553665D01*
X900621Y552746D01*
X898716Y551284D01*
X897254Y549379D01*
X896335Y547161D01*
X896021Y544780D01*
X896335Y542399D01*
X897254Y540181D01*
X898716Y538275D01*
X900621Y536814D01*
X902839Y535895D01*
X905220Y535581D01*
X907601Y535895D01*
X909819Y536814D01*
X911724Y538275D01*
X913186Y540181D01*
X914105Y542399D01*
X914419Y544780D01*
X914105Y547161D01*
X913186Y549379D01*
X911724Y551284D01*
X909819Y552746D01*
X907601Y553665D01*
X905220Y553979D01*
D02*
G37*
G36*
X447794Y553952D02*
X445413Y553638D01*
X443195Y552719D01*
X441290Y551258D01*
X439828Y549352D01*
X438909Y547134D01*
X438596Y544753D01*
X438909Y542372D01*
X439828Y540154D01*
X441290Y538249D01*
X443195Y536787D01*
X445413Y535868D01*
X447794Y535555D01*
X450175Y535868D01*
X452393Y536787D01*
X454299Y538249D01*
X455760Y540154D01*
X456679Y542372D01*
X456993Y544753D01*
X456679Y547134D01*
X455760Y549352D01*
X454299Y551258D01*
X452393Y552719D01*
X450175Y553638D01*
X447794Y553952D01*
D02*
G37*
G36*
X930620Y579379D02*
X928239Y579065D01*
X926021Y578146D01*
X924116Y576684D01*
X922654Y574779D01*
X921735Y572561D01*
X921421Y570180D01*
X921735Y567799D01*
X922654Y565581D01*
X924116Y563675D01*
X926021Y562214D01*
X928239Y561295D01*
X930620Y560981D01*
X933001Y561295D01*
X935219Y562214D01*
X937124Y563675D01*
X938586Y565581D01*
X939505Y567799D01*
X939819Y570180D01*
X939505Y572561D01*
X938586Y574779D01*
X937124Y576684D01*
X935219Y578146D01*
X933001Y579065D01*
X930620Y579379D01*
D02*
G37*
G36*
X447794Y579352D02*
X445413Y579038D01*
X443195Y578120D01*
X441290Y576658D01*
X439828Y574753D01*
X438909Y572534D01*
X438596Y570153D01*
X438909Y567772D01*
X439828Y565554D01*
X441290Y563649D01*
X443195Y562187D01*
X445413Y561268D01*
X447794Y560955D01*
X450175Y561268D01*
X452393Y562187D01*
X454299Y563649D01*
X455760Y565554D01*
X456679Y567772D01*
X456993Y570153D01*
X456679Y572534D01*
X455760Y574753D01*
X454299Y576658D01*
X452393Y578120D01*
X450175Y579038D01*
X447794Y579352D01*
D02*
G37*
G36*
X422394D02*
X420013Y579038D01*
X417795Y578120D01*
X415890Y576658D01*
X414428Y574753D01*
X413509Y572534D01*
X413195Y570153D01*
X413509Y567772D01*
X414428Y565554D01*
X415890Y563649D01*
X417795Y562187D01*
X420013Y561268D01*
X422394Y560955D01*
X424775Y561268D01*
X426993Y562187D01*
X428899Y563649D01*
X430360Y565554D01*
X431279Y567772D01*
X431593Y570153D01*
X431279Y572534D01*
X430360Y574753D01*
X428899Y576658D01*
X426993Y578120D01*
X424775Y579038D01*
X422394Y579352D01*
D02*
G37*
%LPD*%
D11*
X139000Y967500D02*
D03*
Y950500D02*
D03*
X1197000Y951000D02*
D03*
Y968000D02*
D03*
X276250Y228250D02*
D03*
Y211250D02*
D03*
X1221250Y382500D02*
D03*
Y399500D02*
D03*
X193000Y967500D02*
D03*
Y950500D02*
D03*
X1151000Y951000D02*
D03*
Y968000D02*
D03*
X94000Y216000D02*
D03*
Y233000D02*
D03*
X243000Y950500D02*
D03*
Y967500D02*
D03*
X1099000Y968000D02*
D03*
Y951000D02*
D03*
X293250Y967500D02*
D03*
Y950500D02*
D03*
X1049000Y951000D02*
D03*
Y968000D02*
D03*
X1021000Y827750D02*
D03*
Y844750D02*
D03*
X354250Y769250D02*
D03*
Y752250D02*
D03*
D12*
X1095500Y259000D02*
D03*
X1078500D02*
D03*
D16*
X58250Y313960D02*
D03*
Y364540D02*
D03*
X1136000Y341710D02*
D03*
Y392290D02*
D03*
D17*
X122750Y339250D02*
D03*
X1071500Y367000D02*
D03*
D26*
X175250Y265250D02*
Y348750D01*
X192250Y598750D02*
X260400Y666900D01*
X103250Y495000D02*
Y531250D01*
X124500Y552500D01*
X176250D01*
X192250Y568500D01*
Y598750D01*
X289520Y888750D02*
X289750D01*
X1031440Y662650D02*
X1034670D01*
X1078750Y227750D02*
Y259250D01*
Y227750D02*
X1085750Y220750D01*
X1098000Y208500D02*
X1231250D01*
X1085750Y220750D02*
X1098000Y208500D01*
X1078500Y261000D02*
Y364500D01*
D28*
X1230125Y957375D02*
X1322000Y865500D01*
Y860650D02*
Y865500D01*
X1300600Y860650D02*
X1322000D01*
X1277500Y883750D02*
X1300600Y860650D01*
X1273250Y883750D02*
X1277500D01*
X1206000Y951000D02*
X1273250Y883750D01*
X1155500Y763750D02*
X1201250Y809500D01*
X1117000Y763750D02*
X1155500D01*
X1109750Y756500D02*
X1117000Y763750D01*
X1109750Y704250D02*
Y756500D01*
X1080850Y675350D02*
X1109750Y704250D01*
X1077850Y675350D02*
X1080850D01*
X1201250Y809500D02*
Y946750D01*
X1164750Y814750D02*
Y896750D01*
X1145750Y795750D02*
X1164750Y814750D01*
X1083500Y795750D02*
X1145750D01*
X1197000Y951000D02*
X1206000D01*
X1163250Y404250D02*
X1321250Y562250D01*
Y834500D02*
X1322000Y835250D01*
X1321250Y562250D02*
Y834500D01*
X1163250Y369750D02*
Y404250D01*
X763250Y557250D02*
X763500Y557500D01*
X763250Y491500D02*
Y557250D01*
X763500Y428250D02*
Y457250D01*
X379750Y921250D02*
X384500Y916500D01*
X224750Y921250D02*
X379750D01*
X206500Y903000D02*
X224750Y921250D01*
X282080Y720995D02*
Y736505D01*
X126350Y868900D02*
X265580Y729670D01*
Y727830D02*
Y729670D01*
X260400Y722650D02*
X265580Y727830D01*
X281900Y682400D02*
Y720816D01*
X267500Y751085D02*
X282080Y736505D01*
X267500Y751085D02*
Y787750D01*
X33500Y868900D02*
X126350D01*
X353250Y768250D02*
X354250Y769250D01*
X345022Y768250D02*
X353250D01*
X312122Y735350D02*
X345022Y768250D01*
X303580Y735350D02*
X312122D01*
X717750Y382500D02*
X763500Y428250D01*
X717750Y248000D02*
Y382500D01*
X1034670Y542830D02*
Y651580D01*
X973750Y712500D02*
X1034670Y651580D01*
X973750Y712500D02*
Y822500D01*
X1077850Y790100D02*
X1083500Y795750D01*
X1077850Y726150D02*
Y790100D01*
X1147750Y913750D02*
X1164750Y896750D01*
X1053250Y913750D02*
X1147750D01*
X1047000Y907500D02*
X1053250Y913750D01*
X1231250Y261500D02*
X1321250D01*
X1265750Y272500D02*
X1266250Y273000D01*
Y274500D01*
X1137750Y344250D02*
X1163250Y369750D01*
X1004750Y712750D02*
X1029450Y688050D01*
X1004750Y811500D02*
X1021000Y827750D01*
X1004750Y712750D02*
Y811500D01*
X1029450Y688050D02*
X1034670D01*
X384500Y901750D02*
X582978D01*
X206500Y858500D02*
X267500Y797500D01*
X643150Y961922D02*
Y964250D01*
X582978Y901750D02*
X643150Y961922D01*
X384500Y901750D02*
Y916500D01*
X206500Y858500D02*
Y903000D01*
X271350Y671850D02*
X281900Y682400D01*
X260400Y671850D02*
X271350D01*
X289750Y888750D02*
X381000Y797500D01*
X394250D01*
X366625Y622625D02*
X399750Y655750D01*
Y792000D01*
X394250Y797500D02*
X399750Y792000D01*
X267500Y888750D02*
X289520D01*
X243000Y950500D02*
X293250D01*
X193000D02*
X243000D01*
X139000D02*
X193000D01*
X139000Y893750D02*
Y950500D01*
X114150Y868900D02*
X139000Y893750D01*
X20000Y830000D02*
X33500Y843500D01*
X20000Y375500D02*
Y830000D01*
Y375500D02*
X30960Y364540D01*
X58250D01*
X116500Y193500D02*
X184500D01*
X126875Y335125D02*
X130750Y331250D01*
Y240500D02*
Y331250D01*
X106250Y216000D02*
X130750Y240500D01*
X94000Y216000D02*
X106250D01*
X94000D02*
X116500Y193500D01*
X184750Y246750D02*
X259250D01*
X277000Y229000D01*
X717750D02*
X943500D01*
X277000D02*
X717750D01*
X184500Y246500D02*
X184750Y246750D01*
X943500Y229000D02*
X1060000Y112500D01*
X1124600D01*
Y129750D01*
X1066000Y889750D02*
X1133500D01*
X973750Y822500D02*
X996000Y844750D01*
X1021000D01*
X1066000Y889750D01*
X718400Y963500D02*
X774400Y907500D01*
X890000D02*
X981000D01*
X774400D02*
X890000D01*
X981000D02*
X1047000D01*
X1197000Y951000D02*
X1201250Y946750D01*
X1151000Y951000D02*
X1197000D01*
X1099000D02*
X1151000D01*
X1049000D02*
X1099000D01*
X1323250Y263500D02*
Y384500D01*
Y212750D02*
Y263500D01*
X1221250Y399500D02*
X1308250D01*
X1323250Y384500D01*
X1321250Y261500D02*
X1323250Y263500D01*
X1251650Y141150D02*
X1323250Y212750D01*
X1136000Y141150D02*
X1251650D01*
X1124600Y129750D02*
X1136000Y141150D01*
X1034670Y542830D02*
X1041250Y536250D01*
X310450Y709950D02*
X349375Y748875D01*
X1041250Y536250D02*
X1101500D01*
X1134750Y498500D02*
X1208750D01*
D29*
X656500Y941750D02*
X687500D01*
X753250Y876000D01*
X934500D01*
X946500Y864000D01*
Y689000D02*
Y864000D01*
Y689000D02*
X963925Y671575D01*
Y538364D02*
Y671575D01*
D30*
X398750Y480500D02*
X815540D01*
X361500Y443250D02*
X398750Y480500D01*
X815540D02*
X905220Y570180D01*
X717750Y229000D02*
Y248000D01*
X1125750Y172250D02*
X1126250Y172750D01*
X1174250D01*
X1147750Y237500D02*
X1208750D01*
X292500Y548500D02*
X366625Y622625D01*
X978000Y647750D02*
X978500D01*
X267500Y787750D02*
Y797500D01*
X629400Y303250D02*
X645250Y319100D01*
X487000Y303250D02*
X629400D01*
X457500Y273750D02*
X487000Y303250D01*
X645250Y319100D02*
X666000D01*
X785500Y316600D02*
X787150Y318250D01*
X807750D01*
X847000Y279000D01*
X947750D01*
X978000Y309250D01*
Y647750D01*
X422394Y595553D02*
X435500Y608659D01*
X477250Y583250D02*
X892890D01*
X905220Y595580D01*
X139000Y967500D02*
X193000D01*
X243000D01*
X293250D01*
X303580Y709950D02*
X310450D01*
X293250Y967500D02*
X379250D01*
X384500Y962250D01*
X108000Y697250D02*
X260400D01*
X58250Y292500D02*
Y313960D01*
Y292500D02*
X94000Y256750D01*
Y233000D02*
Y256750D01*
X1099000Y968000D02*
X1151000D01*
X1197000D01*
X1049000D02*
X1099000D01*
X1194000Y700750D02*
X1230250D01*
X1000750Y968750D02*
X1001500Y968000D01*
X1000750Y968750D02*
X1000750D01*
X1049000D01*
X914250Y968000D02*
X1001500D01*
X1076000Y261500D02*
X1078500Y259000D01*
X550500Y964750D02*
X617250D01*
X617750Y964250D01*
X387000Y964750D02*
X550500D01*
X693000Y963500D02*
X713250Y983750D01*
X788000D01*
X803500Y968250D01*
X980750D01*
X204250Y400750D02*
X214500Y390500D01*
X490500Y409500D02*
Y453750D01*
X513000Y531500D02*
X587250D01*
X476250Y494750D02*
X513000Y531500D01*
X790750Y507000D02*
X834500Y550750D01*
Y572500D01*
X789750Y507000D02*
X790750D01*
X410500Y273750D02*
X457500D01*
X393250Y291000D02*
X410500Y273750D01*
X393250Y291000D02*
Y351000D01*
X617750Y964250D02*
Y973250D01*
X634000Y989500D01*
X676500D01*
X693000Y973000D01*
Y963500D02*
Y973000D01*
X675250Y412000D02*
Y456000D01*
X544000Y361750D02*
X582750Y400500D01*
X545000Y341000D02*
Y397500D01*
X256250Y548500D02*
X292500D01*
X209750D02*
X256250D01*
X184250Y523000D02*
X209750Y548500D01*
X155750Y523000D02*
X184250D01*
X108000Y590500D02*
Y697250D01*
Y590500D02*
X124500Y574000D01*
X155750D01*
X126250Y462500D02*
Y468750D01*
X138250Y480750D01*
X988250Y452000D02*
X1005750Y434500D01*
X1105500D01*
X1238250Y584250D02*
Y692750D01*
X1230250Y700750D02*
X1238250Y692750D01*
X1108500Y537500D02*
X1129750Y516250D01*
X1199250Y545250D02*
X1238250Y584250D01*
X460750Y379750D02*
X490500Y409500D01*
X261000Y379750D02*
X460750D01*
X250250Y390500D02*
X261000Y379750D01*
X214500Y390500D02*
X250250D01*
X434997Y506750D02*
X447794Y493953D01*
X409000Y506750D02*
X434997D01*
X176250Y458750D02*
X191750Y443250D01*
X361500D01*
X176250Y458750D02*
Y462000D01*
X138250Y480750D02*
X383000D01*
X409000Y506750D01*
X392750Y506000D02*
X393250Y506500D01*
Y601250D01*
X435500Y608659D02*
X453659D01*
X715000Y870000D01*
Y885250D01*
D32*
X1137750Y373000D02*
Y392500D01*
X1117750Y353000D02*
X1137750Y373000D01*
X1117750Y320250D02*
Y353000D01*
Y320250D02*
X1128000Y310000D01*
X315500Y281750D02*
X324750D01*
X338000Y268500D01*
X474250D02*
X480250Y274500D01*
X338000Y268500D02*
X474250D01*
X1150000Y78250D02*
Y112500D01*
X1128000Y310000D02*
X1197000D01*
X1221250Y334250D01*
Y382500D01*
X1141500Y69750D02*
X1150000Y78250D01*
X761500Y104750D02*
X796500Y69750D01*
X761500Y104750D02*
Y176100D01*
X764100Y178700D01*
X796500Y69750D02*
X1141500D01*
X444000D02*
X796500D01*
X397350Y116400D02*
X444000Y69750D01*
X397350Y116400D02*
Y179450D01*
D33*
X693000Y963500D02*
D03*
X617750Y964250D02*
D03*
X1005000Y240250D02*
D03*
X1150000Y112500D02*
D03*
X172750Y120000D02*
D03*
D34*
X718400Y963500D02*
D03*
X643150Y964250D02*
D03*
X666000Y319100D02*
D03*
X1322000Y860650D02*
D03*
X33500Y868900D02*
D03*
X1030400Y240250D02*
D03*
X315500Y307150D02*
D03*
X785500Y316600D02*
D03*
X1124600Y112500D02*
D03*
X198150Y120000D02*
D03*
D35*
X666000Y344500D02*
D03*
X1322000Y835250D02*
D03*
X33500Y843500D02*
D03*
X315500Y281750D02*
D03*
X785500Y342000D02*
D03*
D36*
X447794Y290753D02*
D03*
X930620Y290780D02*
D03*
D37*
X422394Y290753D02*
D03*
X447794Y493953D02*
D03*
X422394Y468553D02*
D03*
X447794D02*
D03*
Y417753D02*
D03*
X422394Y443153D02*
D03*
Y417753D02*
D03*
X447794Y519353D02*
D03*
Y443153D02*
D03*
X422394Y493953D02*
D03*
Y595553D02*
D03*
X447794Y392353D02*
D03*
Y366953D02*
D03*
X422394D02*
D03*
Y392353D02*
D03*
Y620953D02*
D03*
X447794D02*
D03*
Y646353D02*
D03*
X422394D02*
D03*
X447794Y849553D02*
D03*
X422394Y824153D02*
D03*
X447794Y798753D02*
D03*
X422394D02*
D03*
X447794Y773353D02*
D03*
X422394D02*
D03*
Y747953D02*
D03*
Y722553D02*
D03*
Y697153D02*
D03*
X447794Y722553D02*
D03*
Y697153D02*
D03*
Y671753D02*
D03*
X422394D02*
D03*
X447794Y341553D02*
D03*
X422394D02*
D03*
Y519353D02*
D03*
X447794Y595553D02*
D03*
X422394Y570153D02*
D03*
X447794Y747953D02*
D03*
X422394Y849553D02*
D03*
X447794Y824153D02*
D03*
Y544753D02*
D03*
Y570153D02*
D03*
X422394Y544753D02*
D03*
X447794Y316153D02*
D03*
X422394D02*
D03*
X905220Y290780D02*
D03*
X930620Y493980D02*
D03*
X905220Y468580D02*
D03*
X930620D02*
D03*
Y417780D02*
D03*
X905220Y443180D02*
D03*
Y417780D02*
D03*
X930620Y519380D02*
D03*
Y443180D02*
D03*
X905220Y493980D02*
D03*
Y595580D02*
D03*
X930620Y392380D02*
D03*
Y366980D02*
D03*
X905220D02*
D03*
Y392380D02*
D03*
Y620980D02*
D03*
X930620D02*
D03*
Y646380D02*
D03*
X905220D02*
D03*
X930620Y849580D02*
D03*
X905220Y824180D02*
D03*
X930620Y798780D02*
D03*
X905220D02*
D03*
X930620Y773380D02*
D03*
X905220D02*
D03*
Y747980D02*
D03*
Y722580D02*
D03*
Y697180D02*
D03*
X930620Y722580D02*
D03*
Y697180D02*
D03*
Y671780D02*
D03*
X905220D02*
D03*
X930620Y341580D02*
D03*
X905220D02*
D03*
Y519380D02*
D03*
X930620Y595580D02*
D03*
X905220Y570180D02*
D03*
X930620Y747980D02*
D03*
X905220Y849580D02*
D03*
X930620Y824180D02*
D03*
Y544780D02*
D03*
Y570180D02*
D03*
X905220Y544780D02*
D03*
X930620Y316180D02*
D03*
X905220D02*
D03*
D38*
X327800Y165250D02*
D03*
X577700D02*
D03*
X694550Y164500D02*
D03*
X944450D02*
D03*
D39*
X508150Y179450D02*
D03*
X874900Y178700D02*
D03*
D40*
X494300Y151050D02*
D03*
X480450Y179450D02*
D03*
X466600Y151050D02*
D03*
X452750Y179450D02*
D03*
X438900Y151050D02*
D03*
X425050Y179450D02*
D03*
X411200Y151050D02*
D03*
X397350Y179450D02*
D03*
X861050Y150300D02*
D03*
X847200Y178700D02*
D03*
X833350Y150300D02*
D03*
X819500Y178700D02*
D03*
X805650Y150300D02*
D03*
X791800Y178700D02*
D03*
X777950Y150300D02*
D03*
X764100Y178700D02*
D03*
D41*
X303580Y659150D02*
D03*
Y684550D02*
D03*
Y709950D02*
D03*
Y735350D02*
D03*
X260400Y722650D02*
D03*
Y671850D02*
D03*
Y697250D02*
D03*
X1077850Y700750D02*
D03*
Y726150D02*
D03*
Y675350D02*
D03*
X1034670Y662650D02*
D03*
Y688050D02*
D03*
Y713450D02*
D03*
Y738850D02*
D03*
D42*
X84500Y727500D02*
D03*
X107750Y728250D02*
D03*
X131500D02*
D03*
X84750Y697250D02*
D03*
X108000D02*
D03*
X131250D02*
D03*
X85500Y667750D02*
D03*
X109000Y667000D02*
D03*
X131250Y666750D02*
D03*
X1230250Y700750D02*
D03*
X1254750D02*
D03*
X1206250D02*
D03*
X1207000Y671500D02*
D03*
X1230500Y670750D02*
D03*
X1255250Y670000D02*
D03*
X1231250Y732000D02*
D03*
X1254500Y731750D02*
D03*
X1207000Y732000D02*
D03*
D43*
X763250Y491500D02*
D03*
X763500Y457250D02*
D03*
X175250Y348750D02*
D03*
X763500Y557500D02*
D03*
X1304000Y506000D02*
D03*
X1207000Y240000D02*
D03*
X978000Y647750D02*
D03*
X1125750Y172250D02*
D03*
X1147750Y237500D02*
D03*
X480250Y274500D02*
D03*
X477250Y583250D02*
D03*
X714500Y886250D02*
D03*
X103250Y495000D02*
D03*
X204250Y400750D02*
D03*
X490500Y453750D02*
D03*
X126750Y462000D02*
D03*
X587250Y531500D02*
D03*
X476250Y494750D02*
D03*
X675250Y412000D02*
D03*
Y456000D02*
D03*
X789750Y507000D02*
D03*
X834500Y572500D02*
D03*
X1174250Y172750D02*
D03*
X1276750Y338750D02*
D03*
X393250Y351000D02*
D03*
Y601250D02*
D03*
X988250Y452000D02*
D03*
X963925Y538364D02*
D03*
X582750Y400500D02*
D03*
X545000Y341000D02*
D03*
X1105250Y434500D02*
D03*
X176250Y462000D02*
D03*
X392750Y506000D02*
D03*
D44*
X267500Y787750D02*
D03*
Y888750D02*
D03*
X1116750Y888750D02*
D03*
Y787750D02*
D03*
D45*
X184500Y246500D02*
D03*
Y193500D02*
D03*
X1231250Y208500D02*
D03*
Y261500D02*
D03*
D46*
X155750Y523000D02*
D03*
Y574000D02*
D03*
X1200000Y549750D02*
D03*
Y498750D02*
D03*
D47*
X256250Y548500D02*
D03*
X1099500Y524250D02*
D03*
D48*
X550500Y964750D02*
D03*
Y904250D02*
D03*
X467250Y964000D02*
D03*
Y903500D02*
D03*
X384500Y901750D02*
D03*
Y962250D02*
D03*
X981000Y907500D02*
D03*
Y968000D02*
D03*
X890000Y907500D02*
D03*
Y968000D02*
D03*
X803500Y968250D02*
D03*
Y907750D02*
D03*
D49*
X108000Y697250D02*
D03*
X1230250Y700750D02*
D03*
D50*
X260400Y666900D02*
Y671850D01*
M02*
