%FSLAX44Y44*%
%MOMM*%
G71*
G01*
G75*
G04 Layer_Color=2752767*
%ADD10O,1.9500X0.6000*%
%ADD11R,1.5000X1.0000*%
%ADD12R,1.0000X1.5000*%
%ADD13R,0.8000X1.2000*%
%ADD14R,1.2000X0.6000*%
%ADD15R,2.2000X1.2000*%
%ADD16R,3.0500X1.1000*%
%ADD17R,6.5000X5.5500*%
%ADD18R,1.1000X3.0500*%
%ADD19R,5.5500X6.5000*%
%ADD20R,1.1000X1.3500*%
%ADD21R,1.3500X1.1000*%
%ADD22R,1.2500X1.4500*%
%ADD23R,1.4500X1.2500*%
%ADD24R,1.5000X1.2000*%
%ADD25R,1.5000X1.0000*%
%ADD26C,1.0000*%
%ADD27C,0.6000*%
%ADD28C,1.5000*%
%ADD29C,0.8000*%
%ADD30C,0.4000*%
%ADD31C,0.3000*%
%ADD32C,0.2000*%
%ADD33R,1.5000X1.5000*%
%ADD34C,1.5000*%
%ADD35R,1.5000X1.5000*%
%ADD36R,1.5240X1.5240*%
%ADD37C,1.5240*%
%ADD38C,4.7600*%
%ADD39R,1.6900X1.6900*%
%ADD40C,1.6900*%
%ADD41O,2.5000X1.5000*%
%ADD42C,0.7000*%
%ADD43C,1.2700*%
%ADD44R,5.3000X2.8000*%
%ADD45R,6.0000X2.1000*%
%ADD46R,3.9500X2.0500*%
%ADD47R,9.4000X6.8000*%
%ADD48R,2.4500X2.5500*%
%ADD49R,8.0000X10.0000*%
%ADD50C,0.5000*%
%ADD51C,0.2500*%
%ADD52C,0.2540*%
%ADD53C,0.0254*%
%ADD54C,0.1000*%
%ADD55C,0.1540*%
%ADD56C,0.1500*%
%ADD57O,2.1500X0.8000*%
%ADD58R,1.7000X1.2000*%
%ADD59R,1.2000X1.7000*%
%ADD60R,1.0000X1.4000*%
%ADD61R,1.4000X0.8000*%
%ADD62R,2.4000X1.4000*%
%ADD63R,3.2500X1.3000*%
%ADD64R,6.7000X5.7500*%
%ADD65R,1.3000X3.2500*%
%ADD66R,5.7500X6.7000*%
%ADD67R,1.3000X1.5500*%
%ADD68R,1.5500X1.3000*%
%ADD69R,1.4500X1.6500*%
%ADD70R,1.6500X1.4500*%
%ADD71R,1.7000X1.4000*%
%ADD72R,1.7000X1.2000*%
%ADD73R,1.7000X1.7000*%
%ADD74C,1.7000*%
%ADD75R,1.7000X1.7000*%
%ADD76R,1.6256X1.6256*%
%ADD77C,1.6256*%
%ADD78C,4.9600*%
%ADD79R,1.8900X1.8900*%
%ADD80C,1.8900*%
%ADD81O,2.7000X1.7000*%
%ADD82C,0.9000*%
%ADD83C,1.4700*%
%ADD84R,5.5000X3.0000*%
%ADD85R,6.2000X2.3000*%
%ADD86R,4.1500X2.2500*%
%ADD87R,9.6000X7.0000*%
%ADD88R,2.6500X2.7500*%
%ADD89R,8.2000X10.2000*%
%ADD90R,1.3080X1.0160*%
%ADD91R,1.3330X1.0160*%
%ADD92R,4.6000X1.0222*%
%ADD93C,0.1270*%
%ADD94C,0.1693*%
D93*
X687920Y958420D02*
Y968580D01*
X698080D01*
Y958420D01*
X687920D01*
X713320D02*
Y968580D01*
X723480D01*
Y958420D01*
X713320D01*
X612670Y959170D02*
Y969330D01*
X622830D01*
Y959170D01*
X612670D01*
X638070D02*
Y969330D01*
X648230D01*
Y959170D01*
X638070D01*
X660920Y339420D02*
Y349580D01*
X671080D01*
Y339420D01*
X660920D01*
Y314020D02*
Y324180D01*
X671080D01*
Y314020D01*
X660920D01*
X1316920Y830170D02*
Y840330D01*
X1327080D01*
Y830170D01*
X1316920D01*
Y855570D02*
Y865730D01*
X1327080D01*
Y855570D01*
X1316920D01*
X28420Y838420D02*
Y848580D01*
X38580D01*
Y838420D01*
X28420D01*
Y863820D02*
Y873980D01*
X38580D01*
Y863820D01*
X28420D01*
X999920Y235170D02*
Y245330D01*
X1010080D01*
Y235170D01*
X999920D01*
X1025320D02*
Y245330D01*
X1035480D01*
Y235170D01*
X1025320D01*
X310420Y276670D02*
Y286830D01*
X320580D01*
Y276670D01*
X310420D01*
Y302070D02*
Y312230D01*
X320580D01*
Y302070D01*
X310420D01*
X327800Y160170D02*
X322720Y170330D01*
X332880D01*
X327800Y160170D01*
X577700D02*
X572620Y170330D01*
X582780D01*
X577700Y160170D01*
X508150Y174370D02*
X510690Y176910D01*
X513230D01*
X510690Y179450D01*
X513230Y181990D01*
X510690D01*
X508150Y184530D01*
X505610Y181990D01*
X503070D01*
X505610Y179450D01*
X503070Y176910D01*
X505610D01*
X508150Y174370D01*
X494300Y145970D02*
X496840Y148510D01*
X499380D01*
X496840Y151050D01*
X499380Y153590D01*
X496840D01*
X494300Y156130D01*
X491760Y153590D01*
X489220D01*
X491760Y151050D01*
X489220Y148510D01*
X491760D01*
X494300Y145970D01*
X480450Y174370D02*
X482990Y176910D01*
X485530D01*
X482990Y179450D01*
X485530Y181990D01*
X482990D01*
X480450Y184530D01*
X477910Y181990D01*
X475370D01*
X477910Y179450D01*
X475370Y176910D01*
X477910D01*
X480450Y174370D01*
X466600Y145970D02*
X469140Y148510D01*
X471680D01*
X469140Y151050D01*
X471680Y153590D01*
X469140D01*
X466600Y156130D01*
X464060Y153590D01*
X461520D01*
X464060Y151050D01*
X461520Y148510D01*
X464060D01*
X466600Y145970D01*
X452750Y174370D02*
X455290Y176910D01*
X457830D01*
X455290Y179450D01*
X457830Y181990D01*
X455290D01*
X452750Y184530D01*
X450210Y181990D01*
X447670D01*
X450210Y179450D01*
X447670Y176910D01*
X450210D01*
X452750Y174370D01*
X438900Y145970D02*
X441440Y148510D01*
X443980D01*
X441440Y151050D01*
X443980Y153590D01*
X441440D01*
X438900Y156130D01*
X436360Y153590D01*
X433820D01*
X436360Y151050D01*
X433820Y148510D01*
X436360D01*
X438900Y145970D01*
X425050Y174370D02*
X427590Y176910D01*
X430130D01*
X427590Y179450D01*
X430130Y181990D01*
X427590D01*
X425050Y184530D01*
X422510Y181990D01*
X419970D01*
X422510Y179450D01*
X419970Y176910D01*
X422510D01*
X425050Y174370D01*
X411200Y145970D02*
X413740Y148510D01*
X416280D01*
X413740Y151050D01*
X416280Y153590D01*
X413740D01*
X411200Y156130D01*
X408660Y153590D01*
X406120D01*
X408660Y151050D01*
X406120Y148510D01*
X408660D01*
X411200Y145970D01*
X397350Y174370D02*
X399890Y176910D01*
X402430D01*
X399890Y179450D01*
X402430Y181990D01*
X399890D01*
X397350Y184530D01*
X394810Y181990D01*
X392270D01*
X394810Y179450D01*
X392270Y176910D01*
X394810D01*
X397350Y174370D01*
X780420Y336920D02*
Y347080D01*
X790580D01*
Y336920D01*
X780420D01*
Y311520D02*
Y321680D01*
X790580D01*
Y311520D01*
X780420D01*
X694550Y159420D02*
X689470Y169580D01*
X699630D01*
X694550Y159420D01*
X944450D02*
X939370Y169580D01*
X949530D01*
X944450Y159420D01*
X874900Y173620D02*
X877440Y176160D01*
X879980D01*
X877440Y178700D01*
X879980Y181240D01*
X877440D01*
X874900Y183780D01*
X872360Y181240D01*
X869820D01*
X872360Y178700D01*
X869820Y176160D01*
X872360D01*
X874900Y173620D01*
X861050Y145220D02*
X863590Y147760D01*
X866130D01*
X863590Y150300D01*
X866130Y152840D01*
X863590D01*
X861050Y155380D01*
X858510Y152840D01*
X855970D01*
X858510Y150300D01*
X855970Y147760D01*
X858510D01*
X861050Y145220D01*
X847200Y173620D02*
X849740Y176160D01*
X852280D01*
X849740Y178700D01*
X852280Y181240D01*
X849740D01*
X847200Y183780D01*
X844660Y181240D01*
X842120D01*
X844660Y178700D01*
X842120Y176160D01*
X844660D01*
X847200Y173620D01*
X833350Y145220D02*
X835890Y147760D01*
X838430D01*
X835890Y150300D01*
X838430Y152840D01*
X835890D01*
X833350Y155380D01*
X830810Y152840D01*
X828270D01*
X830810Y150300D01*
X828270Y147760D01*
X830810D01*
X833350Y145220D01*
X819500Y173620D02*
X822040Y176160D01*
X824580D01*
X822040Y178700D01*
X824580Y181240D01*
X822040D01*
X819500Y183780D01*
X816960Y181240D01*
X814420D01*
X816960Y178700D01*
X814420Y176160D01*
X816960D01*
X819500Y173620D01*
X805650Y145220D02*
X808190Y147760D01*
X810730D01*
X808190Y150300D01*
X810730Y152840D01*
X808190D01*
X805650Y155380D01*
X803110Y152840D01*
X800570D01*
X803110Y150300D01*
X800570Y147760D01*
X803110D01*
X805650Y145220D01*
X791800Y173620D02*
X794340Y176160D01*
X796880D01*
X794340Y178700D01*
X796880Y181240D01*
X794340D01*
X791800Y183780D01*
X789260Y181240D01*
X786720D01*
X789260Y178700D01*
X786720Y176160D01*
X789260D01*
X791800Y173620D01*
X777950Y145220D02*
X780490Y147760D01*
X783030D01*
X780490Y150300D01*
X783030Y152840D01*
X780490D01*
X777950Y155380D01*
X775410Y152840D01*
X772870D01*
X775410Y150300D01*
X772870Y147760D01*
X775410D01*
X777950Y145220D01*
X764100Y173620D02*
X766640Y176160D01*
X769180D01*
X766640Y178700D01*
X769180Y181240D01*
X766640D01*
X764100Y183780D01*
X761560Y181240D01*
X759020D01*
X761560Y178700D01*
X759020Y176160D01*
X761560D01*
X764100Y173620D01*
X1144920Y107420D02*
Y117580D01*
X1155080D01*
Y107420D01*
X1144920D01*
X1119520D02*
Y117580D01*
X1129680D01*
Y107420D01*
X1119520D01*
X79420Y722420D02*
X81960Y727500D01*
X79420Y732580D01*
X84500Y730040D01*
X89580Y732580D01*
X87040Y727500D01*
X89580Y722420D01*
X84500Y724960D01*
X79420Y722420D01*
X102670Y723170D02*
X105210Y728250D01*
X102670Y733330D01*
X107750Y730790D01*
X112830Y733330D01*
X110290Y728250D01*
X112830Y723170D01*
X107750Y725710D01*
X102670Y723170D01*
X126420D02*
X128960Y728250D01*
X126420Y733330D01*
X131500Y730790D01*
X136580Y733330D01*
X134040Y728250D01*
X136580Y723170D01*
X131500Y725710D01*
X126420Y723170D01*
X79670Y692170D02*
X82210Y697250D01*
X79670Y702330D01*
X84750Y699790D01*
X89830Y702330D01*
X87290Y697250D01*
X89830Y692170D01*
X84750Y694710D01*
X79670Y692170D01*
X102920D02*
X105460Y697250D01*
X102920Y702330D01*
X108000Y699790D01*
X113080Y702330D01*
X110540Y697250D01*
X113080Y692170D01*
X108000Y694710D01*
X102920Y692170D01*
X126170D02*
X128710Y697250D01*
X126170Y702330D01*
X131250Y699790D01*
X136330Y702330D01*
X133790Y697250D01*
X136330Y692170D01*
X131250Y694710D01*
X126170Y692170D01*
X80420Y662670D02*
X82960Y667750D01*
X80420Y672830D01*
X85500Y670290D01*
X90580Y672830D01*
X88040Y667750D01*
X90580Y662670D01*
X85500Y665210D01*
X80420Y662670D01*
X103920Y661920D02*
X106460Y667000D01*
X103920Y672080D01*
X109000Y669540D01*
X114080Y672080D01*
X111540Y667000D01*
X114080Y661920D01*
X109000Y664460D01*
X103920Y661920D01*
X126170Y661670D02*
X128710Y666750D01*
X126170Y671830D01*
X131250Y669290D01*
X136330Y671830D01*
X133790Y666750D01*
X136330Y661670D01*
X131250Y664210D01*
X126170Y661670D01*
X1225170Y695670D02*
X1227710Y700750D01*
X1225170Y705830D01*
X1230250Y703290D01*
X1235330Y705830D01*
X1232790Y700750D01*
X1235330Y695670D01*
X1230250Y698210D01*
X1225170Y695670D01*
X1249670D02*
X1252210Y700750D01*
X1249670Y705830D01*
X1254750Y703290D01*
X1259830Y705830D01*
X1257290Y700750D01*
X1259830Y695670D01*
X1254750Y698210D01*
X1249670Y695670D01*
X1201170D02*
X1203710Y700750D01*
X1201170Y705830D01*
X1206250Y703290D01*
X1211330Y705830D01*
X1208790Y700750D01*
X1211330Y695670D01*
X1206250Y698210D01*
X1201170Y695670D01*
X1201920Y666420D02*
X1204460Y671500D01*
X1201920Y676580D01*
X1207000Y674040D01*
X1212080Y676580D01*
X1209540Y671500D01*
X1212080Y666420D01*
X1207000Y668960D01*
X1201920Y666420D01*
X1225420Y665670D02*
X1227960Y670750D01*
X1225420Y675830D01*
X1230500Y673290D01*
X1235580Y675830D01*
X1233040Y670750D01*
X1235580Y665670D01*
X1230500Y668210D01*
X1225420Y665670D01*
X1250170Y664920D02*
X1252710Y670000D01*
X1250170Y675080D01*
X1255250Y672540D01*
X1260330Y675080D01*
X1257790Y670000D01*
X1260330Y664920D01*
X1255250Y667460D01*
X1250170Y664920D01*
X1226170Y726920D02*
X1228710Y732000D01*
X1226170Y737080D01*
X1231250Y734540D01*
X1236330Y737080D01*
X1233790Y732000D01*
X1236330Y726920D01*
X1231250Y729460D01*
X1226170Y726920D01*
X1249420Y726670D02*
X1251960Y731750D01*
X1249420Y736830D01*
X1254500Y734290D01*
X1259580Y736830D01*
X1257040Y731750D01*
X1259580Y726670D01*
X1254500Y729210D01*
X1249420Y726670D01*
X1201920Y726920D02*
X1204460Y732000D01*
X1201920Y737080D01*
X1207000Y734540D01*
X1212080Y737080D01*
X1209540Y732000D01*
X1212080Y726920D01*
X1207000Y729460D01*
X1201920Y726920D01*
X193070Y114920D02*
Y125080D01*
X203230D01*
Y114920D01*
X193070D01*
X167670D02*
Y125080D01*
X177830D01*
Y114920D01*
X167670D01*
X760710Y488960D02*
Y486420D01*
X765790D01*
Y488960D01*
X768330D01*
Y494040D01*
X765790D01*
Y496580D01*
X760710D01*
Y494040D01*
X758170D01*
Y488960D01*
X760710D01*
X760960Y454710D02*
Y452170D01*
X766040D01*
Y454710D01*
X768580D01*
Y459790D01*
X766040D01*
Y462330D01*
X760960D01*
Y459790D01*
X758420D01*
Y454710D01*
X760960D01*
X172710Y346210D02*
Y343670D01*
X177790D01*
Y346210D01*
X180330D01*
Y351290D01*
X177790D01*
Y353830D01*
X172710D01*
Y351290D01*
X170170D01*
Y346210D01*
X172710D01*
X760960Y554960D02*
Y552420D01*
X766040D01*
Y554960D01*
X768580D01*
Y560040D01*
X766040D01*
Y562580D01*
X760960D01*
Y560040D01*
X758420D01*
Y554960D01*
X760960D01*
X1301460Y503460D02*
Y500920D01*
X1306540D01*
Y503460D01*
X1309080D01*
Y508540D01*
X1306540D01*
Y511080D01*
X1301460D01*
Y508540D01*
X1298920D01*
Y503460D01*
X1301460D01*
X1204460Y237460D02*
Y234920D01*
X1209540D01*
Y237460D01*
X1212080D01*
Y242540D01*
X1209540D01*
Y245080D01*
X1204460D01*
Y242540D01*
X1201920D01*
Y237460D01*
X1204460D01*
X975460Y645210D02*
Y642670D01*
X980540D01*
Y645210D01*
X983080D01*
Y650290D01*
X980540D01*
Y652830D01*
X975460D01*
Y650290D01*
X972920D01*
Y645210D01*
X975460D01*
X1123210Y169710D02*
Y167170D01*
X1128290D01*
Y169710D01*
X1130830D01*
Y174790D01*
X1128290D01*
Y177330D01*
X1123210D01*
Y174790D01*
X1120670D01*
Y169710D01*
X1123210D01*
X1145210Y234960D02*
Y232420D01*
X1150290D01*
Y234960D01*
X1152830D01*
Y240040D01*
X1150290D01*
Y242580D01*
X1145210D01*
Y240040D01*
X1142670D01*
Y234960D01*
X1145210D01*
X477710Y271960D02*
Y269420D01*
X482790D01*
Y271960D01*
X485330D01*
Y277040D01*
X482790D01*
Y279580D01*
X477710D01*
Y277040D01*
X475170D01*
Y271960D01*
X477710D01*
X474710Y580710D02*
Y578170D01*
X479790D01*
Y580710D01*
X482330D01*
Y585790D01*
X479790D01*
Y588330D01*
X474710D01*
Y585790D01*
X472170D01*
Y580710D01*
X474710D01*
X711960Y883710D02*
Y881170D01*
X717040D01*
Y883710D01*
X719580D01*
Y888790D01*
X717040D01*
Y891330D01*
X711960D01*
Y888790D01*
X709420D01*
Y883710D01*
X711960D01*
X100710Y492460D02*
Y489920D01*
X105790D01*
Y492460D01*
X108330D01*
Y497540D01*
X105790D01*
Y500080D01*
X100710D01*
Y497540D01*
X98170D01*
Y492460D01*
X100710D01*
X201710Y398210D02*
Y395670D01*
X206790D01*
Y398210D01*
X209330D01*
Y403290D01*
X206790D01*
Y405830D01*
X201710D01*
Y403290D01*
X199170D01*
Y398210D01*
X201710D01*
X487960Y451210D02*
Y448670D01*
X493040D01*
Y451210D01*
X495580D01*
Y456290D01*
X493040D01*
Y458830D01*
X487960D01*
Y456290D01*
X485420D01*
Y451210D01*
X487960D01*
X124210Y459460D02*
Y456920D01*
X129290D01*
Y459460D01*
X131830D01*
Y464540D01*
X129290D01*
Y467080D01*
X124210D01*
Y464540D01*
X121670D01*
Y459460D01*
X124210D01*
X584710Y528960D02*
Y526420D01*
X589790D01*
Y528960D01*
X592330D01*
Y534040D01*
X589790D01*
Y536580D01*
X584710D01*
Y534040D01*
X582170D01*
Y528960D01*
X584710D01*
X473710Y492210D02*
Y489670D01*
X478790D01*
Y492210D01*
X481330D01*
Y497290D01*
X478790D01*
Y499830D01*
X473710D01*
Y497290D01*
X471170D01*
Y492210D01*
X473710D01*
X672710Y409460D02*
Y406920D01*
X677790D01*
Y409460D01*
X680330D01*
Y414540D01*
X677790D01*
Y417080D01*
X672710D01*
Y414540D01*
X670170D01*
Y409460D01*
X672710D01*
Y453460D02*
Y450920D01*
X677790D01*
Y453460D01*
X680330D01*
Y458540D01*
X677790D01*
Y461080D01*
X672710D01*
Y458540D01*
X670170D01*
Y453460D01*
X672710D01*
X787210Y504460D02*
Y501920D01*
X792290D01*
Y504460D01*
X794830D01*
Y509540D01*
X792290D01*
Y512080D01*
X787210D01*
Y509540D01*
X784670D01*
Y504460D01*
X787210D01*
X831960Y569960D02*
Y567420D01*
X837040D01*
Y569960D01*
X839580D01*
Y575040D01*
X837040D01*
Y577580D01*
X831960D01*
Y575040D01*
X829420D01*
Y569960D01*
X831960D01*
X1171710Y170210D02*
Y167670D01*
X1176790D01*
Y170210D01*
X1179330D01*
Y175290D01*
X1176790D01*
Y177830D01*
X1171710D01*
Y175290D01*
X1169170D01*
Y170210D01*
X1171710D01*
X1274210Y336210D02*
Y333670D01*
X1279290D01*
Y336210D01*
X1281830D01*
Y341290D01*
X1279290D01*
Y343830D01*
X1274210D01*
Y341290D01*
X1271670D01*
Y336210D01*
X1274210D01*
X390710Y348460D02*
Y345920D01*
X395790D01*
Y348460D01*
X398330D01*
Y353540D01*
X395790D01*
Y356080D01*
X390710D01*
Y353540D01*
X388170D01*
Y348460D01*
X390710D01*
Y598710D02*
Y596170D01*
X395790D01*
Y598710D01*
X398330D01*
Y603790D01*
X395790D01*
Y606330D01*
X390710D01*
Y603790D01*
X388170D01*
Y598710D01*
X390710D01*
X985710Y449460D02*
Y446920D01*
X990790D01*
Y449460D01*
X993330D01*
Y454540D01*
X990790D01*
Y457080D01*
X985710D01*
Y454540D01*
X983170D01*
Y449460D01*
X985710D01*
X961385Y535824D02*
Y533284D01*
X966465D01*
Y535824D01*
X969005D01*
Y540904D01*
X966465D01*
Y543444D01*
X961385D01*
Y540904D01*
X958845D01*
Y535824D01*
X961385D01*
X580210Y397960D02*
Y395420D01*
X585290D01*
Y397960D01*
X587830D01*
Y403040D01*
X585290D01*
Y405580D01*
X580210D01*
Y403040D01*
X577670D01*
Y397960D01*
X580210D01*
X542460Y338460D02*
Y335920D01*
X547540D01*
Y338460D01*
X550080D01*
Y343540D01*
X547540D01*
Y346080D01*
X542460D01*
Y343540D01*
X539920D01*
Y338460D01*
X542460D01*
X1102710Y431960D02*
Y429420D01*
X1107790D01*
Y431960D01*
X1110330D01*
Y437040D01*
X1107790D01*
Y439580D01*
X1102710D01*
Y437040D01*
X1100170D01*
Y431960D01*
X1102710D01*
X173710Y459460D02*
Y456920D01*
X178790D01*
Y459460D01*
X181330D01*
Y464540D01*
X178790D01*
Y467080D01*
X173710D01*
Y464540D01*
X171170D01*
Y459460D01*
X173710D01*
X390210Y503460D02*
Y500920D01*
X395290D01*
Y503460D01*
X397830D01*
Y508540D01*
X395290D01*
Y511080D01*
X390210D01*
Y508540D01*
X387670D01*
Y503460D01*
X390210D01*
D94*
X452874Y290753D02*
G03*
X452874Y290753I-5080J0D01*
G01*
X427474D02*
G03*
X427474Y290753I-5080J0D01*
G01*
X452874Y493953D02*
G03*
X452874Y493953I-5080J0D01*
G01*
X427474Y468553D02*
G03*
X427474Y468553I-5080J0D01*
G01*
X452874D02*
G03*
X452874Y468553I-5080J0D01*
G01*
Y417753D02*
G03*
X452874Y417753I-5080J0D01*
G01*
X427474Y443153D02*
G03*
X427474Y443153I-5080J0D01*
G01*
Y417753D02*
G03*
X427474Y417753I-5080J0D01*
G01*
X452874Y519353D02*
G03*
X452874Y519353I-5080J0D01*
G01*
Y443153D02*
G03*
X452874Y443153I-5080J0D01*
G01*
X427474Y493953D02*
G03*
X427474Y493953I-5080J0D01*
G01*
Y595553D02*
G03*
X427474Y595553I-5080J0D01*
G01*
X452874Y392353D02*
G03*
X452874Y392353I-5080J0D01*
G01*
Y366953D02*
G03*
X452874Y366953I-5080J0D01*
G01*
X427474D02*
G03*
X427474Y366953I-5080J0D01*
G01*
Y392353D02*
G03*
X427474Y392353I-5080J0D01*
G01*
Y620953D02*
G03*
X427474Y620953I-5080J0D01*
G01*
X452874D02*
G03*
X452874Y620953I-5080J0D01*
G01*
Y646353D02*
G03*
X452874Y646353I-5080J0D01*
G01*
X427474D02*
G03*
X427474Y646353I-5080J0D01*
G01*
X452874Y849553D02*
G03*
X452874Y849553I-5080J0D01*
G01*
X427474Y824153D02*
G03*
X427474Y824153I-5080J0D01*
G01*
X452874Y798753D02*
G03*
X452874Y798753I-5080J0D01*
G01*
X427474D02*
G03*
X427474Y798753I-5080J0D01*
G01*
X452874Y773353D02*
G03*
X452874Y773353I-5080J0D01*
G01*
X427474D02*
G03*
X427474Y773353I-5080J0D01*
G01*
Y747953D02*
G03*
X427474Y747953I-5080J0D01*
G01*
Y722553D02*
G03*
X427474Y722553I-5080J0D01*
G01*
Y697153D02*
G03*
X427474Y697153I-5080J0D01*
G01*
X452874Y722553D02*
G03*
X452874Y722553I-5080J0D01*
G01*
Y697153D02*
G03*
X452874Y697153I-5080J0D01*
G01*
Y671753D02*
G03*
X452874Y671753I-5080J0D01*
G01*
X427474D02*
G03*
X427474Y671753I-5080J0D01*
G01*
X452874Y341553D02*
G03*
X452874Y341553I-5080J0D01*
G01*
X427474D02*
G03*
X427474Y341553I-5080J0D01*
G01*
Y519353D02*
G03*
X427474Y519353I-5080J0D01*
G01*
X452874Y595553D02*
G03*
X452874Y595553I-5080J0D01*
G01*
X427474Y570153D02*
G03*
X427474Y570153I-5080J0D01*
G01*
X452874Y747953D02*
G03*
X452874Y747953I-5080J0D01*
G01*
X427474Y849553D02*
G03*
X427474Y849553I-5080J0D01*
G01*
X452874Y824153D02*
G03*
X452874Y824153I-5080J0D01*
G01*
Y544753D02*
G03*
X452874Y544753I-5080J0D01*
G01*
Y570153D02*
G03*
X452874Y570153I-5080J0D01*
G01*
X427474Y544753D02*
G03*
X427474Y544753I-5080J0D01*
G01*
X452874Y316153D02*
G03*
X452874Y316153I-5080J0D01*
G01*
X427474D02*
G03*
X427474Y316153I-5080J0D01*
G01*
X935700Y290780D02*
G03*
X935700Y290780I-5080J0D01*
G01*
X910300D02*
G03*
X910300Y290780I-5080J0D01*
G01*
X935700Y493980D02*
G03*
X935700Y493980I-5080J0D01*
G01*
X910300Y468580D02*
G03*
X910300Y468580I-5080J0D01*
G01*
X935700D02*
G03*
X935700Y468580I-5080J0D01*
G01*
Y417780D02*
G03*
X935700Y417780I-5080J0D01*
G01*
X910300Y443180D02*
G03*
X910300Y443180I-5080J0D01*
G01*
Y417780D02*
G03*
X910300Y417780I-5080J0D01*
G01*
X935700Y519380D02*
G03*
X935700Y519380I-5080J0D01*
G01*
Y443180D02*
G03*
X935700Y443180I-5080J0D01*
G01*
X910300Y493980D02*
G03*
X910300Y493980I-5080J0D01*
G01*
Y595580D02*
G03*
X910300Y595580I-5080J0D01*
G01*
X935700Y392380D02*
G03*
X935700Y392380I-5080J0D01*
G01*
Y366980D02*
G03*
X935700Y366980I-5080J0D01*
G01*
X910300D02*
G03*
X910300Y366980I-5080J0D01*
G01*
Y392380D02*
G03*
X910300Y392380I-5080J0D01*
G01*
Y620980D02*
G03*
X910300Y620980I-5080J0D01*
G01*
X935700D02*
G03*
X935700Y620980I-5080J0D01*
G01*
Y646380D02*
G03*
X935700Y646380I-5080J0D01*
G01*
X910300D02*
G03*
X910300Y646380I-5080J0D01*
G01*
X935700Y849580D02*
G03*
X935700Y849580I-5080J0D01*
G01*
X910300Y824180D02*
G03*
X910300Y824180I-5080J0D01*
G01*
X935700Y798780D02*
G03*
X935700Y798780I-5080J0D01*
G01*
X910300D02*
G03*
X910300Y798780I-5080J0D01*
G01*
X935700Y773380D02*
G03*
X935700Y773380I-5080J0D01*
G01*
X910300D02*
G03*
X910300Y773380I-5080J0D01*
G01*
Y747980D02*
G03*
X910300Y747980I-5080J0D01*
G01*
Y722580D02*
G03*
X910300Y722580I-5080J0D01*
G01*
Y697180D02*
G03*
X910300Y697180I-5080J0D01*
G01*
X935700Y722580D02*
G03*
X935700Y722580I-5080J0D01*
G01*
Y697180D02*
G03*
X935700Y697180I-5080J0D01*
G01*
Y671780D02*
G03*
X935700Y671780I-5080J0D01*
G01*
X910300D02*
G03*
X910300Y671780I-5080J0D01*
G01*
X935700Y341580D02*
G03*
X935700Y341580I-5080J0D01*
G01*
X910300D02*
G03*
X910300Y341580I-5080J0D01*
G01*
Y519380D02*
G03*
X910300Y519380I-5080J0D01*
G01*
X935700Y595580D02*
G03*
X935700Y595580I-5080J0D01*
G01*
X910300Y570180D02*
G03*
X910300Y570180I-5080J0D01*
G01*
X935700Y747980D02*
G03*
X935700Y747980I-5080J0D01*
G01*
X910300Y849580D02*
G03*
X910300Y849580I-5080J0D01*
G01*
X935700Y824180D02*
G03*
X935700Y824180I-5080J0D01*
G01*
Y544780D02*
G03*
X935700Y544780I-5080J0D01*
G01*
Y570180D02*
G03*
X935700Y570180I-5080J0D01*
G01*
X910300Y544780D02*
G03*
X910300Y544780I-5080J0D01*
G01*
X935700Y316180D02*
G03*
X935700Y316180I-5080J0D01*
G01*
X910300D02*
G03*
X910300Y316180I-5080J0D01*
G01*
X308660Y659150D02*
G03*
X308660Y659150I-5080J0D01*
G01*
Y684550D02*
G03*
X308660Y684550I-5080J0D01*
G01*
Y709950D02*
G03*
X308660Y709950I-5080J0D01*
G01*
Y735350D02*
G03*
X308660Y735350I-5080J0D01*
G01*
X265480Y722650D02*
G03*
X265480Y722650I-5080J0D01*
G01*
Y671850D02*
G03*
X265480Y671850I-5080J0D01*
G01*
Y697250D02*
G03*
X265480Y697250I-5080J0D01*
G01*
X1082930Y700750D02*
G03*
X1082930Y700750I-5080J0D01*
G01*
Y726150D02*
G03*
X1082930Y726150I-5080J0D01*
G01*
Y675350D02*
G03*
X1082930Y675350I-5080J0D01*
G01*
X1039750Y662650D02*
G03*
X1039750Y662650I-5080J0D01*
G01*
Y688050D02*
G03*
X1039750Y688050I-5080J0D01*
G01*
Y713450D02*
G03*
X1039750Y713450I-5080J0D01*
G01*
Y738850D02*
G03*
X1039750Y738850I-5080J0D01*
G01*
M02*
