%FSAX44Y44*%
%MOMM*%
G71*
G01*
G75*
G04 Layer_Color=16711935*
%ADD10O,1.9500X0.6000*%
%ADD11R,1.5000X1.0000*%
%ADD12R,1.0000X1.5000*%
%ADD13R,0.8000X1.2000*%
%ADD14R,1.2000X0.6000*%
%ADD15R,2.2000X1.2000*%
%ADD16R,3.0500X1.1000*%
%ADD17R,6.5000X5.5500*%
%ADD18R,1.1000X3.0500*%
%ADD19R,5.5500X6.5000*%
%ADD20R,1.1000X1.3500*%
%ADD21R,1.3500X1.1000*%
%ADD22R,1.2500X1.4500*%
%ADD23R,1.4500X1.2500*%
%ADD24R,1.5000X1.2000*%
%ADD25R,1.5000X1.0000*%
%ADD26C,1.0000*%
%ADD27C,0.6000*%
%ADD28C,1.5000*%
%ADD29C,0.8000*%
%ADD30C,0.4000*%
%ADD31C,0.3000*%
%ADD32C,0.2000*%
%ADD33R,1.5000X1.5000*%
%ADD34C,1.5000*%
%ADD35R,1.5000X1.5000*%
%ADD36R,1.5240X1.5240*%
%ADD37C,1.5240*%
%ADD38C,4.7600*%
%ADD39R,1.6900X1.6900*%
%ADD40C,1.6900*%
%ADD41O,2.5000X1.5000*%
%ADD42C,0.7000*%
%ADD43C,1.2700*%
%ADD44R,5.3000X2.8000*%
%ADD45R,6.0000X2.1000*%
%ADD46R,3.9500X2.0500*%
%ADD47R,9.4000X6.8000*%
%ADD48R,2.4500X2.5500*%
%ADD49R,8.0000X10.0000*%
%ADD50C,0.5000*%
%ADD51C,0.2500*%
%ADD52C,0.2540*%
%ADD53C,0.0254*%
%ADD54C,0.1000*%
%ADD55C,0.1540*%
%ADD56C,0.1500*%
%ADD57O,2.1500X0.8000*%
%ADD58R,1.7000X1.2000*%
%ADD59R,1.2000X1.7000*%
%ADD60R,1.0000X1.4000*%
%ADD61R,1.4000X0.8000*%
%ADD62R,2.4000X1.4000*%
%ADD63R,3.2500X1.3000*%
%ADD64R,6.7000X5.7500*%
%ADD65R,1.3000X3.2500*%
%ADD66R,5.7500X6.7000*%
%ADD67R,1.3000X1.5500*%
%ADD68R,1.5500X1.3000*%
%ADD69R,1.4500X1.6500*%
%ADD70R,1.6500X1.4500*%
%ADD71R,1.7000X1.4000*%
%ADD72R,1.7000X1.2000*%
%ADD73R,1.7000X1.7000*%
%ADD74C,1.7000*%
%ADD75R,1.7000X1.7000*%
%ADD76R,1.6256X1.6256*%
%ADD77C,1.6256*%
%ADD78C,4.9600*%
%ADD79R,1.8900X1.8900*%
%ADD80C,1.8900*%
%ADD81O,2.7000X1.7000*%
%ADD82C,0.9000*%
%ADD83C,1.4700*%
%ADD84R,5.5000X3.0000*%
%ADD85R,6.2000X2.3000*%
%ADD86R,4.1500X2.2500*%
%ADD87R,9.6000X7.0000*%
%ADD88R,2.6500X2.7500*%
%ADD89R,8.2000X10.2000*%
D58*
X00139000Y00967500D02*
D03*
Y00950500D02*
D03*
X01197000Y00951000D02*
D03*
Y00968000D02*
D03*
X00276250Y00228250D02*
D03*
Y00211250D02*
D03*
X01221250Y00382500D02*
D03*
Y00399500D02*
D03*
X00193000Y00967500D02*
D03*
Y00950500D02*
D03*
X01151000Y00951000D02*
D03*
Y00968000D02*
D03*
X00094000Y00216000D02*
D03*
Y00233000D02*
D03*
X00243000Y00950500D02*
D03*
Y00967500D02*
D03*
X01099000Y00968000D02*
D03*
Y00951000D02*
D03*
X00293250Y00967500D02*
D03*
Y00950500D02*
D03*
X01049000Y00951000D02*
D03*
Y00968000D02*
D03*
X01021000Y00827750D02*
D03*
Y00844750D02*
D03*
X00354250Y00769250D02*
D03*
Y00752250D02*
D03*
D59*
X01095500Y00259000D02*
D03*
X01078500D02*
D03*
D63*
X00058250Y00313960D02*
D03*
Y00364540D02*
D03*
X01136000Y00341710D02*
D03*
Y00392290D02*
D03*
D64*
X00122750Y00339250D02*
D03*
X01071500Y00367000D02*
D03*
D73*
X00693000Y00963500D02*
D03*
X00617750Y00964250D02*
D03*
X01005000Y00240250D02*
D03*
X01150000Y00112500D02*
D03*
X00172750Y00120000D02*
D03*
D74*
X00718400Y00963500D02*
D03*
X00643150Y00964250D02*
D03*
X00666000Y00319100D02*
D03*
X01322000Y00860650D02*
D03*
X00033500Y00868900D02*
D03*
X01030400Y00240250D02*
D03*
X00315500Y00307150D02*
D03*
X00785500Y00316600D02*
D03*
X01124600Y00112500D02*
D03*
X00198150Y00120000D02*
D03*
D75*
X00666000Y00344500D02*
D03*
X01322000Y00835250D02*
D03*
X00033500Y00843500D02*
D03*
X00315500Y00281750D02*
D03*
X00785500Y00342000D02*
D03*
D76*
X00447794Y00290753D02*
D03*
X00930620Y00290780D02*
D03*
D77*
X00422394Y00290753D02*
D03*
X00447794Y00493953D02*
D03*
X00422394Y00468553D02*
D03*
X00447794D02*
D03*
Y00417753D02*
D03*
X00422394Y00443153D02*
D03*
Y00417753D02*
D03*
X00447794Y00519353D02*
D03*
Y00443153D02*
D03*
X00422394Y00493953D02*
D03*
Y00595553D02*
D03*
X00447794Y00392353D02*
D03*
Y00366953D02*
D03*
X00422394D02*
D03*
Y00392353D02*
D03*
Y00620953D02*
D03*
X00447794D02*
D03*
Y00646353D02*
D03*
X00422394D02*
D03*
X00447794Y00849553D02*
D03*
X00422394Y00824153D02*
D03*
X00447794Y00798753D02*
D03*
X00422394D02*
D03*
X00447794Y00773353D02*
D03*
X00422394D02*
D03*
Y00747953D02*
D03*
Y00722553D02*
D03*
Y00697153D02*
D03*
X00447794Y00722553D02*
D03*
Y00697153D02*
D03*
Y00671753D02*
D03*
X00422394D02*
D03*
X00447794Y00341553D02*
D03*
X00422394D02*
D03*
Y00519353D02*
D03*
X00447794Y00595553D02*
D03*
X00422394Y00570153D02*
D03*
X00447794Y00747953D02*
D03*
X00422394Y00849553D02*
D03*
X00447794Y00824153D02*
D03*
Y00544753D02*
D03*
Y00570153D02*
D03*
X00422394Y00544753D02*
D03*
X00447794Y00316153D02*
D03*
X00422394D02*
D03*
X00905220Y00290780D02*
D03*
X00930620Y00493980D02*
D03*
X00905220Y00468580D02*
D03*
X00930620D02*
D03*
Y00417780D02*
D03*
X00905220Y00443180D02*
D03*
Y00417780D02*
D03*
X00930620Y00519380D02*
D03*
Y00443180D02*
D03*
X00905220Y00493980D02*
D03*
Y00595580D02*
D03*
X00930620Y00392380D02*
D03*
Y00366980D02*
D03*
X00905220D02*
D03*
Y00392380D02*
D03*
Y00620980D02*
D03*
X00930620D02*
D03*
Y00646380D02*
D03*
X00905220D02*
D03*
X00930620Y00849580D02*
D03*
X00905220Y00824180D02*
D03*
X00930620Y00798780D02*
D03*
X00905220D02*
D03*
X00930620Y00773380D02*
D03*
X00905220D02*
D03*
Y00747980D02*
D03*
Y00722580D02*
D03*
Y00697180D02*
D03*
X00930620Y00722580D02*
D03*
Y00697180D02*
D03*
Y00671780D02*
D03*
X00905220D02*
D03*
X00930620Y00341580D02*
D03*
X00905220D02*
D03*
Y00519380D02*
D03*
X00930620Y00595580D02*
D03*
X00905220Y00570180D02*
D03*
X00930620Y00747980D02*
D03*
X00905220Y00849580D02*
D03*
X00930620Y00824180D02*
D03*
Y00544780D02*
D03*
Y00570180D02*
D03*
X00905220Y00544780D02*
D03*
X00930620Y00316180D02*
D03*
X00905220D02*
D03*
D78*
X00327800Y00165250D02*
D03*
X00577700D02*
D03*
X00694550Y00164500D02*
D03*
X00944450D02*
D03*
D79*
X00508150Y00179450D02*
D03*
X00874900Y00178700D02*
D03*
D80*
X00494300Y00151050D02*
D03*
X00480450Y00179450D02*
D03*
X00466600Y00151050D02*
D03*
X00452750Y00179450D02*
D03*
X00438900Y00151050D02*
D03*
X00425050Y00179450D02*
D03*
X00411200Y00151050D02*
D03*
X00397350Y00179450D02*
D03*
X00861050Y00150300D02*
D03*
X00847200Y00178700D02*
D03*
X00833350Y00150300D02*
D03*
X00819500Y00178700D02*
D03*
X00805650Y00150300D02*
D03*
X00791800Y00178700D02*
D03*
X00777950Y00150300D02*
D03*
X00764100Y00178700D02*
D03*
D81*
X00303580Y00659150D02*
D03*
Y00684550D02*
D03*
Y00709950D02*
D03*
Y00735350D02*
D03*
X00260400Y00722650D02*
D03*
Y00671850D02*
D03*
Y00697250D02*
D03*
X01077850Y00700750D02*
D03*
Y00726150D02*
D03*
Y00675350D02*
D03*
X01034670Y00662650D02*
D03*
Y00688050D02*
D03*
Y00713450D02*
D03*
Y00738850D02*
D03*
D82*
X00084500Y00727500D02*
D03*
X00107750Y00728250D02*
D03*
X00131500D02*
D03*
X00084750Y00697250D02*
D03*
X00108000D02*
D03*
X00131250D02*
D03*
X00085500Y00667750D02*
D03*
X00109000Y00667000D02*
D03*
X00131250Y00666750D02*
D03*
X01230250Y00700750D02*
D03*
X01254750D02*
D03*
X01206250D02*
D03*
X01207000Y00671500D02*
D03*
X01230500Y00670750D02*
D03*
X01255250Y00670000D02*
D03*
X01231250Y00732000D02*
D03*
X01254500Y00731750D02*
D03*
X01207000Y00732000D02*
D03*
D83*
X00763250Y00491500D02*
D03*
X00763500Y00457250D02*
D03*
X00175250Y00348750D02*
D03*
X00763500Y00557500D02*
D03*
X01304000Y00506000D02*
D03*
X01207000Y00240000D02*
D03*
X00978000Y00647750D02*
D03*
X01125750Y00172250D02*
D03*
X01147750Y00237500D02*
D03*
X00480250Y00274500D02*
D03*
X00477250Y00583250D02*
D03*
X00714500Y00886250D02*
D03*
X00103250Y00495000D02*
D03*
X00204250Y00400750D02*
D03*
X00490500Y00453750D02*
D03*
X00126750Y00462000D02*
D03*
X00587250Y00531500D02*
D03*
X00476250Y00494750D02*
D03*
X00675250Y00412000D02*
D03*
Y00456000D02*
D03*
X00789750Y00507000D02*
D03*
X00834500Y00572500D02*
D03*
X01174250Y00172750D02*
D03*
X01276750Y00338750D02*
D03*
X00393250Y00351000D02*
D03*
Y00601250D02*
D03*
X00988250Y00452000D02*
D03*
X00963925Y00538364D02*
D03*
X00582750Y00400500D02*
D03*
X00545000Y00341000D02*
D03*
X01105250Y00434500D02*
D03*
X00176250Y00462000D02*
D03*
X00392750Y00506000D02*
D03*
D84*
X00267500Y00787750D02*
D03*
Y00888750D02*
D03*
X01116750Y00888750D02*
D03*
Y00787750D02*
D03*
D85*
X00184500Y00246500D02*
D03*
Y00193500D02*
D03*
X01231250Y00208500D02*
D03*
Y00261500D02*
D03*
D86*
X00155750Y00523000D02*
D03*
Y00574000D02*
D03*
X01200000Y00549750D02*
D03*
Y00498750D02*
D03*
D87*
X00256250Y00548500D02*
D03*
X01099500Y00524250D02*
D03*
D88*
X00550500Y00964750D02*
D03*
Y00904250D02*
D03*
X00467250Y00964000D02*
D03*
Y00903500D02*
D03*
X00384500Y00901750D02*
D03*
Y00962250D02*
D03*
X00981000Y00907500D02*
D03*
Y00968000D02*
D03*
X00890000Y00907500D02*
D03*
Y00968000D02*
D03*
X00803500Y00968250D02*
D03*
Y00907750D02*
D03*
D89*
X00108000Y00697250D02*
D03*
X01230250Y00700750D02*
D03*
M02*
