M48
;Layer_Color=9474304
;FILE_FORMAT=4:4
METRIC
;TYPE=PLATED
T1F00S00C0.5000
T2F00S00C0.7112
T3F00S00C0.7620
T4F00S00C0.9000
T5F00S00C1.0900
T6F00S00C3.2600
%
T01
X01207000Y00671500
X01230500Y00670750
X01255250Y00670000
X01254750Y00700750
X01230250
X01206250
X01207000Y00732000
X01231250
X01254500Y00731750
X00131500Y00728250
X00107750
X00084500Y00727500
X00084750Y00697250
X00108000
X00131250
Y00666750
X00109000Y00667000
X00085500Y00667750
T02
X00175250Y00348750
X00393250Y00351000
X00545000Y00341000
X00480250Y00274500
X01147750Y00237500
X01125750Y00172250
X01174250Y00172750
X01207000Y00240000
X01276750Y00338750
X01304000Y00506000
X01105250Y00434500
X00988250Y00452000
X00963925Y00538364
X00978000Y00647750
X00834500Y00572500
X00763500Y00557500
X00763250Y00491500
X00763500Y00457250
X00789750Y00507000
X00675250Y00456000
Y00412000
X00582750Y00400500
X00587250Y00531500
X00476250Y00494750
X00490500Y00453750
X00477250Y00583250
X00393250Y00601250
X00392750Y00506000
X00176250Y00462000
X00126750
X00103250Y00495000
X00204250Y00400750
X00714500Y00886250
T03
X00422394Y00290753
X00447794
Y00316153
Y00341553
Y00366953
Y00392353
X00422394
Y00366953
Y00341553
Y00316153
X00905220Y00316180
Y00290780
X00930620
Y00316180
Y00341580
Y00366980
Y00392380
X00905220
Y00366980
Y00341580
Y00417780
X00930620
Y00443180
Y00468580
Y00493980
Y00519380
X00905220
Y00493980
Y00468580
Y00443180
Y00544780
Y00570180
Y00595580
Y00620980
X00930620
Y00646380
X00905220
Y00671780
Y00697180
Y00722580
Y00747980
Y00773380
X00930620
Y00747980
Y00722580
Y00697180
Y00671780
Y00595580
Y00570180
Y00544780
X01034670Y00662650
Y00688050
Y00713450
Y00738850
X01077850Y00726150
Y00700750
Y00675350
X00447794Y00671753
Y00646353
Y00620953
X00422394
Y00595553
X00447794
Y00570153
X00422394
Y00544753
Y00519353
X00447794
Y00493953
Y00468553
X00422394
Y00443153
Y00417753
X00447794
Y00443153
X00422394Y00493953
X00447794Y00544753
X00422394Y00646353
Y00671753
Y00697153
Y00722553
Y00747953
Y00773353
X00447794
Y00747953
Y00722553
Y00697153
X00303580Y00684550
Y00659150
Y00709950
Y00735350
X00260400Y00722650
Y00697250
Y00671850
X00422394Y00798753
Y00824153
Y00849553
X00447794
Y00824153
Y00798753
X00905220Y00798780
Y00824180
Y00849580
X00930620
Y00824180
Y00798780
T04
X00172750Y00120000
X00198150
X00315500Y00281750
Y00307150
X00666000Y00319100
Y00344500
X00785500Y00342000
Y00316600
X01005000Y00240250
X01030400
X01124600Y00112500
X01150000
X00033500Y00843500
Y00868900
X00617750Y00964250
X00643150
X00693000Y00963500
X00718400
X01322000Y00860650
Y00835250
T05
X00411200Y00151050
X00438900
X00466600
X00494300
X00508150Y00179450
X00480450
X00452750
X00425050
X00397350
X00764100Y00178700
X00791800
X00777950Y00150300
X00805650
X00833350
X00861050
X00874900Y00178700
X00847200
X00819500
T06
X00327800Y00165250
X00577700
X00694550Y00164500
X00944450
M30
