%FSLAX44Y44*%
%MOMM*%
G71*
G01*
G75*
G04 Layer_Color=16711935*
%ADD10O,1.9500X0.6000*%
%ADD11R,1.5000X1.0000*%
%ADD12R,1.0000X1.5000*%
%ADD13R,0.8000X1.2000*%
%ADD14R,1.2000X0.6000*%
%ADD15R,2.2000X1.2000*%
%ADD16R,3.0500X1.1000*%
%ADD17R,6.5000X5.5500*%
%ADD18R,1.1000X3.0500*%
%ADD19R,5.5500X6.5000*%
%ADD20R,1.1000X1.3500*%
%ADD21R,1.3500X1.1000*%
%ADD22R,1.2500X1.4500*%
%ADD23R,1.4500X1.2500*%
%ADD24R,1.5000X1.2000*%
%ADD25R,1.5000X1.0000*%
%ADD26C,1.0000*%
%ADD27C,0.6000*%
%ADD28C,1.5000*%
%ADD29C,0.8000*%
%ADD30C,0.4000*%
%ADD31C,0.3000*%
%ADD32C,0.2000*%
%ADD33R,1.5000X1.5000*%
%ADD34C,1.5000*%
%ADD35R,1.5000X1.5000*%
%ADD36R,1.5240X1.5240*%
%ADD37C,1.5240*%
%ADD38C,4.7600*%
%ADD39R,1.6900X1.6900*%
%ADD40C,1.6900*%
%ADD41O,2.5000X1.5000*%
%ADD42C,0.7000*%
%ADD43C,1.2700*%
%ADD44R,5.3000X2.8000*%
%ADD45R,6.0000X2.1000*%
%ADD46R,3.9500X2.0500*%
%ADD47R,9.4000X6.8000*%
%ADD48R,2.4500X2.5500*%
%ADD49R,8.0000X10.0000*%
%ADD50C,0.5000*%
%ADD51C,0.2500*%
%ADD52C,0.2540*%
%ADD53C,0.0254*%
%ADD54C,0.1000*%
%ADD55C,0.1540*%
%ADD56C,0.1500*%
%ADD57O,2.1500X0.8000*%
%ADD58R,1.7000X1.2000*%
%ADD59R,1.2000X1.7000*%
%ADD60R,1.0000X1.4000*%
%ADD61R,1.4000X0.8000*%
%ADD62R,2.4000X1.4000*%
%ADD63R,3.2500X1.3000*%
%ADD64R,6.7000X5.7500*%
%ADD65R,1.3000X3.2500*%
%ADD66R,5.7500X6.7000*%
%ADD67R,1.3000X1.5500*%
%ADD68R,1.5500X1.3000*%
%ADD69R,1.4500X1.6500*%
%ADD70R,1.6500X1.4500*%
%ADD71R,1.7000X1.4000*%
%ADD72R,1.7000X1.2000*%
%ADD73R,1.7000X1.7000*%
%ADD74C,1.7000*%
%ADD75R,1.7000X1.7000*%
%ADD76R,1.6256X1.6256*%
%ADD77C,1.6256*%
%ADD78C,4.9600*%
%ADD79R,1.8900X1.8900*%
%ADD80C,1.8900*%
%ADD81O,2.7000X1.7000*%
%ADD82C,0.9000*%
%ADD83C,1.4700*%
%ADD84R,5.5000X3.0000*%
%ADD85R,6.2000X2.3000*%
%ADD86R,4.1500X2.2500*%
%ADD87R,9.6000X7.0000*%
%ADD88R,2.6500X2.7500*%
%ADD89R,8.2000X10.2000*%
D58*
X139000Y967500D02*
D03*
Y950500D02*
D03*
X1197000Y951000D02*
D03*
Y968000D02*
D03*
X276250Y228250D02*
D03*
Y211250D02*
D03*
X1221250Y382500D02*
D03*
Y399500D02*
D03*
X193000Y967500D02*
D03*
Y950500D02*
D03*
X1151000Y951000D02*
D03*
Y968000D02*
D03*
X94000Y216000D02*
D03*
Y233000D02*
D03*
X243000Y950500D02*
D03*
Y967500D02*
D03*
X1099000Y968000D02*
D03*
Y951000D02*
D03*
X293250Y967500D02*
D03*
Y950500D02*
D03*
X1049000Y951000D02*
D03*
Y968000D02*
D03*
X1021000Y827750D02*
D03*
Y844750D02*
D03*
X354250Y769250D02*
D03*
Y752250D02*
D03*
D59*
X1095500Y259000D02*
D03*
X1078500D02*
D03*
D63*
X58250Y313960D02*
D03*
Y364540D02*
D03*
X1136000Y341710D02*
D03*
Y392290D02*
D03*
D64*
X122750Y339250D02*
D03*
X1071500Y367000D02*
D03*
D73*
X693000Y963500D02*
D03*
X617750Y964250D02*
D03*
X1005000Y240250D02*
D03*
X1150000Y112500D02*
D03*
X172750Y120000D02*
D03*
D74*
X718400Y963500D02*
D03*
X643150Y964250D02*
D03*
X666000Y319100D02*
D03*
X1322000Y860650D02*
D03*
X33500Y868900D02*
D03*
X1030400Y240250D02*
D03*
X315500Y307150D02*
D03*
X785500Y316600D02*
D03*
X1124600Y112500D02*
D03*
X198150Y120000D02*
D03*
D75*
X666000Y344500D02*
D03*
X1322000Y835250D02*
D03*
X33500Y843500D02*
D03*
X315500Y281750D02*
D03*
X785500Y342000D02*
D03*
D76*
X447794Y290753D02*
D03*
X930620Y290780D02*
D03*
D77*
X422394Y290753D02*
D03*
X447794Y493953D02*
D03*
X422394Y468553D02*
D03*
X447794D02*
D03*
Y417753D02*
D03*
X422394Y443153D02*
D03*
Y417753D02*
D03*
X447794Y519353D02*
D03*
Y443153D02*
D03*
X422394Y493953D02*
D03*
Y595553D02*
D03*
X447794Y392353D02*
D03*
Y366953D02*
D03*
X422394D02*
D03*
Y392353D02*
D03*
Y620953D02*
D03*
X447794D02*
D03*
Y646353D02*
D03*
X422394D02*
D03*
X447794Y849553D02*
D03*
X422394Y824153D02*
D03*
X447794Y798753D02*
D03*
X422394D02*
D03*
X447794Y773353D02*
D03*
X422394D02*
D03*
Y747953D02*
D03*
Y722553D02*
D03*
Y697153D02*
D03*
X447794Y722553D02*
D03*
Y697153D02*
D03*
Y671753D02*
D03*
X422394D02*
D03*
X447794Y341553D02*
D03*
X422394D02*
D03*
Y519353D02*
D03*
X447794Y595553D02*
D03*
X422394Y570153D02*
D03*
X447794Y747953D02*
D03*
X422394Y849553D02*
D03*
X447794Y824153D02*
D03*
Y544753D02*
D03*
Y570153D02*
D03*
X422394Y544753D02*
D03*
X447794Y316153D02*
D03*
X422394D02*
D03*
X905220Y290780D02*
D03*
X930620Y493980D02*
D03*
X905220Y468580D02*
D03*
X930620D02*
D03*
Y417780D02*
D03*
X905220Y443180D02*
D03*
Y417780D02*
D03*
X930620Y519380D02*
D03*
Y443180D02*
D03*
X905220Y493980D02*
D03*
Y595580D02*
D03*
X930620Y392380D02*
D03*
Y366980D02*
D03*
X905220D02*
D03*
Y392380D02*
D03*
Y620980D02*
D03*
X930620D02*
D03*
Y646380D02*
D03*
X905220D02*
D03*
X930620Y849580D02*
D03*
X905220Y824180D02*
D03*
X930620Y798780D02*
D03*
X905220D02*
D03*
X930620Y773380D02*
D03*
X905220D02*
D03*
Y747980D02*
D03*
Y722580D02*
D03*
Y697180D02*
D03*
X930620Y722580D02*
D03*
Y697180D02*
D03*
Y671780D02*
D03*
X905220D02*
D03*
X930620Y341580D02*
D03*
X905220D02*
D03*
Y519380D02*
D03*
X930620Y595580D02*
D03*
X905220Y570180D02*
D03*
X930620Y747980D02*
D03*
X905220Y849580D02*
D03*
X930620Y824180D02*
D03*
Y544780D02*
D03*
Y570180D02*
D03*
X905220Y544780D02*
D03*
X930620Y316180D02*
D03*
X905220D02*
D03*
D78*
X327800Y165250D02*
D03*
X577700D02*
D03*
X694550Y164500D02*
D03*
X944450D02*
D03*
D79*
X508150Y179450D02*
D03*
X874900Y178700D02*
D03*
D80*
X494300Y151050D02*
D03*
X480450Y179450D02*
D03*
X466600Y151050D02*
D03*
X452750Y179450D02*
D03*
X438900Y151050D02*
D03*
X425050Y179450D02*
D03*
X411200Y151050D02*
D03*
X397350Y179450D02*
D03*
X861050Y150300D02*
D03*
X847200Y178700D02*
D03*
X833350Y150300D02*
D03*
X819500Y178700D02*
D03*
X805650Y150300D02*
D03*
X791800Y178700D02*
D03*
X777950Y150300D02*
D03*
X764100Y178700D02*
D03*
D81*
X303580Y659150D02*
D03*
Y684550D02*
D03*
Y709950D02*
D03*
Y735350D02*
D03*
X260400Y722650D02*
D03*
Y671850D02*
D03*
Y697250D02*
D03*
X1077850Y700750D02*
D03*
Y726150D02*
D03*
Y675350D02*
D03*
X1034670Y662650D02*
D03*
Y688050D02*
D03*
Y713450D02*
D03*
Y738850D02*
D03*
D82*
X84500Y727500D02*
D03*
X107750Y728250D02*
D03*
X131500D02*
D03*
X84750Y697250D02*
D03*
X108000D02*
D03*
X131250D02*
D03*
X85500Y667750D02*
D03*
X109000Y667000D02*
D03*
X131250Y666750D02*
D03*
X1230250Y700750D02*
D03*
X1254750D02*
D03*
X1206250D02*
D03*
X1207000Y671500D02*
D03*
X1230500Y670750D02*
D03*
X1255250Y670000D02*
D03*
X1231250Y732000D02*
D03*
X1254500Y731750D02*
D03*
X1207000Y732000D02*
D03*
D83*
X763250Y491500D02*
D03*
X763500Y457250D02*
D03*
X175250Y348750D02*
D03*
X763500Y557500D02*
D03*
X1304000Y506000D02*
D03*
X1207000Y240000D02*
D03*
X978000Y647750D02*
D03*
X1125750Y172250D02*
D03*
X1147750Y237500D02*
D03*
X480250Y274500D02*
D03*
X477250Y583250D02*
D03*
X714500Y886250D02*
D03*
X103250Y495000D02*
D03*
X204250Y400750D02*
D03*
X490500Y453750D02*
D03*
X126750Y462000D02*
D03*
X587250Y531500D02*
D03*
X476250Y494750D02*
D03*
X675250Y412000D02*
D03*
Y456000D02*
D03*
X789750Y507000D02*
D03*
X834500Y572500D02*
D03*
X1174250Y172750D02*
D03*
X1276750Y338750D02*
D03*
X393250Y351000D02*
D03*
Y601250D02*
D03*
X988250Y452000D02*
D03*
X963925Y538364D02*
D03*
X582750Y400500D02*
D03*
X545000Y341000D02*
D03*
X1105250Y434500D02*
D03*
X176250Y462000D02*
D03*
X392750Y506000D02*
D03*
D84*
X267500Y787750D02*
D03*
Y888750D02*
D03*
X1116750Y888750D02*
D03*
Y787750D02*
D03*
D85*
X184500Y246500D02*
D03*
Y193500D02*
D03*
X1231250Y208500D02*
D03*
Y261500D02*
D03*
D86*
X155750Y523000D02*
D03*
Y574000D02*
D03*
X1200000Y549750D02*
D03*
Y498750D02*
D03*
D87*
X256250Y548500D02*
D03*
X1099500Y524250D02*
D03*
D88*
X550500Y964750D02*
D03*
Y904250D02*
D03*
X467250Y964000D02*
D03*
Y903500D02*
D03*
X384500Y901750D02*
D03*
Y962250D02*
D03*
X981000Y907500D02*
D03*
Y968000D02*
D03*
X890000Y907500D02*
D03*
Y968000D02*
D03*
X803500Y968250D02*
D03*
Y907750D02*
D03*
D89*
X108000Y697250D02*
D03*
X1230250Y700750D02*
D03*
M02*
