%FSLAX44Y44*%
%MOMM*%
G71*
G01*
G75*
G04 Layer_Physical_Order=1*
G04 Layer_Color=255*
%ADD10O,1.9500X0.6000*%
%ADD11R,1.5000X1.0000*%
%ADD12R,1.0000X1.5000*%
%ADD13R,0.8000X1.2000*%
%ADD14R,1.2000X0.6000*%
%ADD15R,2.2000X1.2000*%
%ADD16R,3.0500X1.1000*%
%ADD17R,6.5000X5.5500*%
%ADD18R,1.1000X3.0500*%
%ADD19R,5.5500X6.5000*%
%ADD20R,1.1000X1.3500*%
%ADD21R,1.3500X1.1000*%
%ADD22R,1.2500X1.4500*%
%ADD23R,1.4500X1.2500*%
%ADD24R,1.5000X1.2000*%
%ADD25R,1.5000X1.0000*%
%ADD26C,1.0000*%
%ADD27C,0.6000*%
%ADD28C,1.5000*%
%ADD29C,0.8000*%
%ADD30C,0.4000*%
%ADD31C,0.3000*%
%ADD32C,0.2000*%
%ADD33R,1.5000X1.5000*%
%ADD34C,1.5000*%
%ADD35R,1.5000X1.5000*%
%ADD36R,1.5240X1.5240*%
%ADD37C,1.5240*%
%ADD38C,4.7600*%
%ADD39R,1.6900X1.6900*%
%ADD40C,1.6900*%
%ADD41O,2.5000X1.5000*%
%ADD42C,0.7000*%
%ADD43C,1.2700*%
G36*
X1162500Y416478D02*
Y278250D01*
Y274750D01*
X1135216Y246339D01*
X1133946Y246326D01*
X1133374Y246898D01*
Y247250D01*
X1132898Y248398D01*
X1131750Y248874D01*
X1125374D01*
Y263626D01*
X1126681D01*
X1127830Y264102D01*
X1128305Y265250D01*
Y321750D01*
X1127830Y322898D01*
X1126681Y323374D01*
X1098374D01*
Y378626D01*
X1131750D01*
X1132898Y379102D01*
X1133374Y380250D01*
Y405250D01*
X1134250D01*
Y422750D01*
X1133056D01*
Y425250D01*
X1153728D01*
X1162500Y416478D01*
D02*
G37*
G36*
X1232431Y399272D02*
Y379000D01*
X1228500D01*
Y370000D01*
X1243500D01*
Y379000D01*
X1239569D01*
Y390735D01*
X1240689Y391334D01*
X1240884Y391203D01*
X1242250Y390932D01*
X1268250D01*
X1269616Y391203D01*
X1270773Y391977D01*
X1285258Y406461D01*
X1286431Y405975D01*
Y337478D01*
X1276022Y327069D01*
X1216000D01*
X1214634Y326797D01*
X1213477Y326023D01*
X1212742Y325289D01*
X1211569Y325775D01*
Y350222D01*
X1219028Y357681D01*
X1228500D01*
Y356750D01*
X1243500D01*
Y365750D01*
X1228500D01*
Y364819D01*
X1219028D01*
X1209819Y374028D01*
Y398750D01*
X1212750D01*
Y412181D01*
X1219522D01*
X1232431Y399272D01*
D02*
G37*
G36*
X475681Y872522D02*
Y602000D01*
X475953Y600634D01*
X476727Y599477D01*
X483250Y592953D01*
Y589977D01*
X482111Y589415D01*
X481209Y590107D01*
X479299Y590898D01*
X477250Y591168D01*
X475201Y590898D01*
X473291Y590107D01*
X471651Y588849D01*
X470393Y587209D01*
X470231Y586819D01*
X453368D01*
X452960Y588021D01*
X454299Y589049D01*
X455760Y590954D01*
X456679Y593172D01*
X456993Y595553D01*
X456679Y597934D01*
X455760Y600153D01*
X454299Y602058D01*
X452393Y603520D01*
X450175Y604438D01*
X447794Y604752D01*
X445413Y604438D01*
X443195Y603520D01*
X441290Y602058D01*
X439828Y600153D01*
X438909Y597934D01*
X438596Y595553D01*
X438909Y593172D01*
X439828Y590954D01*
X441290Y589049D01*
X442629Y588021D01*
X442221Y586819D01*
X427968D01*
X427560Y588021D01*
X428899Y589049D01*
X430360Y590954D01*
X431279Y593172D01*
X431593Y595553D01*
X431279Y597934D01*
X430360Y600153D01*
X428899Y602058D01*
X426993Y603520D01*
X424775Y604438D01*
X422394Y604752D01*
X420013Y604438D01*
X417795Y603520D01*
X415890Y602058D01*
X414428Y600153D01*
X413509Y597934D01*
X413195Y595553D01*
X413509Y593172D01*
X414428Y590954D01*
X415890Y589049D01*
X417229Y588021D01*
X416821Y586819D01*
X175250D01*
X173884Y586547D01*
X172727Y585773D01*
X150727Y563773D01*
X149953Y562616D01*
X149681Y561250D01*
Y529188D01*
X146500D01*
X144744Y528839D01*
X143256Y527844D01*
X142261Y526356D01*
X141912Y524600D01*
X142261Y522844D01*
X143256Y521356D01*
X144744Y520361D01*
X146500Y520012D01*
X160000D01*
X161756Y520361D01*
X163244Y521356D01*
X164239Y522844D01*
X164588Y524600D01*
X164239Y526356D01*
X163244Y527844D01*
X161756Y528839D01*
X160000Y529188D01*
X156819D01*
Y559772D01*
X176728Y579681D01*
X418311D01*
X418559Y578436D01*
X417795Y578120D01*
X415890Y576658D01*
X414428Y574753D01*
X413509Y572534D01*
X413195Y570153D01*
X413509Y567772D01*
X414428Y565554D01*
X415890Y563649D01*
X417795Y562187D01*
X420013Y561268D01*
X422394Y560955D01*
X424775Y561268D01*
X426993Y562187D01*
X428899Y563649D01*
X430360Y565554D01*
X431279Y567772D01*
X431593Y570153D01*
X431279Y572534D01*
X430360Y574753D01*
X428899Y576658D01*
X426993Y578120D01*
X426230Y578436D01*
X426478Y579681D01*
X443711D01*
X443959Y578436D01*
X443195Y578120D01*
X441290Y576658D01*
X439828Y574753D01*
X438909Y572534D01*
X438596Y570153D01*
X438909Y567772D01*
X439828Y565554D01*
X441290Y563649D01*
X443195Y562187D01*
X445413Y561268D01*
X447794Y560955D01*
X450175Y561268D01*
X451206Y561695D01*
X481500Y531401D01*
Y502052D01*
X480361Y501490D01*
X480209Y501607D01*
X478299Y502398D01*
X476250Y502668D01*
X474201Y502398D01*
X473811Y502236D01*
X468450Y507597D01*
X467293Y508370D01*
X465927Y508642D01*
X443188D01*
X441823Y508370D01*
X441745Y508319D01*
X433191D01*
X431825Y508047D01*
X430668Y507273D01*
X425806Y502411D01*
X424775Y502838D01*
X422394Y503152D01*
X420013Y502838D01*
X417795Y501920D01*
X415890Y500458D01*
X414428Y498553D01*
X413509Y496334D01*
X413195Y493953D01*
X413509Y491572D01*
X414428Y489354D01*
X415890Y487449D01*
X417795Y485987D01*
X420013Y485068D01*
X422394Y484754D01*
X424775Y485068D01*
X426993Y485987D01*
X428899Y487449D01*
X430360Y489354D01*
X431279Y491572D01*
X431593Y493953D01*
X431279Y496334D01*
X430853Y497365D01*
X434669Y501181D01*
X440409D01*
X440971Y500042D01*
X439828Y498553D01*
X438909Y496334D01*
X438596Y493953D01*
X438909Y491572D01*
X439828Y489354D01*
X441290Y487449D01*
X443195Y485987D01*
X445413Y485068D01*
X447794Y484754D01*
X450175Y485068D01*
X452393Y485987D01*
X454299Y487449D01*
X455760Y489354D01*
X456679Y491572D01*
X456993Y493953D01*
X456679Y496334D01*
X455760Y498553D01*
X454369Y500366D01*
X454931Y501505D01*
X464449D01*
X468764Y497190D01*
X468602Y496799D01*
X468332Y494750D01*
X468602Y492701D01*
X469393Y490791D01*
X470651Y489151D01*
X472291Y487893D01*
X474201Y487102D01*
X476250Y486832D01*
X478299Y487102D01*
X480209Y487893D01*
X480361Y488010D01*
X481500Y487448D01*
Y394456D01*
X480327Y393970D01*
X468126Y406171D01*
X466968Y406944D01*
X465603Y407216D01*
X437978D01*
X430853Y414342D01*
X431279Y415372D01*
X431593Y417753D01*
X431279Y420134D01*
X430360Y422352D01*
X428899Y424258D01*
X426993Y425719D01*
X424775Y426638D01*
X422394Y426952D01*
X420013Y426638D01*
X417795Y425719D01*
X415890Y424258D01*
X414428Y422352D01*
X413509Y420134D01*
X413195Y417753D01*
X413509Y415372D01*
X414428Y413154D01*
X415890Y411249D01*
X417795Y409787D01*
X420013Y408868D01*
X422394Y408554D01*
X424775Y408868D01*
X425806Y409295D01*
X433977Y401124D01*
X433977D01*
X433977Y401124D01*
X433977D01*
X433977Y401124D01*
Y401124D01*
X433977Y401124D01*
Y401124D01*
X435134Y400350D01*
X436500Y400079D01*
X440906D01*
X441314Y398876D01*
X441290Y398858D01*
X439828Y396953D01*
X438909Y394734D01*
X438596Y392353D01*
X438909Y389972D01*
X439828Y387754D01*
X441290Y385849D01*
X443195Y384387D01*
X445413Y383468D01*
X447794Y383154D01*
X450175Y383468D01*
X452393Y384387D01*
X454299Y385849D01*
X455760Y387754D01*
X456679Y389972D01*
X456993Y392353D01*
X456679Y394734D01*
X455760Y396953D01*
X454299Y398858D01*
X454274Y398876D01*
X454683Y400079D01*
X464124D01*
X476727Y387477D01*
X477884Y386703D01*
X479250Y386431D01*
X481500D01*
Y331297D01*
X456022Y305819D01*
X448875D01*
X448792Y307086D01*
X450175Y307268D01*
X452393Y308187D01*
X454299Y309649D01*
X455760Y311554D01*
X456679Y313772D01*
X456993Y316153D01*
X456679Y318534D01*
X455760Y320752D01*
X454299Y322658D01*
X452393Y324119D01*
X450175Y325038D01*
X447794Y325352D01*
X445413Y325038D01*
X443195Y324119D01*
X441290Y322658D01*
X439828Y320752D01*
X438909Y318534D01*
X438596Y316153D01*
X438909Y313772D01*
X439828Y311554D01*
X441290Y309649D01*
X443195Y308187D01*
X445413Y307268D01*
X446796Y307086D01*
X446713Y305819D01*
X430728D01*
X428448Y308099D01*
X428531Y309366D01*
X428899Y309649D01*
X430360Y311554D01*
X431279Y313772D01*
X431593Y316153D01*
X431279Y318534D01*
X430360Y320752D01*
X428899Y322658D01*
X426993Y324119D01*
X424775Y325038D01*
X422394Y325352D01*
X420013Y325038D01*
X417795Y324119D01*
X415890Y322658D01*
X414428Y320752D01*
X413509Y318534D01*
X413195Y316153D01*
X413509Y313772D01*
X414428Y311554D01*
X415890Y309649D01*
X417795Y308187D01*
X419183Y307612D01*
X419871Y306583D01*
X425956Y300498D01*
X425250Y299442D01*
X424775Y299638D01*
X422394Y299952D01*
X420013Y299638D01*
X417795Y298720D01*
X415890Y297258D01*
X414428Y295352D01*
X413509Y293134D01*
X413195Y290753D01*
X413509Y288372D01*
X414428Y286154D01*
X415890Y284249D01*
X417795Y282787D01*
X420013Y281868D01*
X422394Y281555D01*
X424775Y281868D01*
X426993Y282787D01*
X428899Y284249D01*
X430360Y286154D01*
X431279Y288372D01*
X431593Y290753D01*
X431279Y293134D01*
X430360Y295352D01*
X428899Y297258D01*
X428489Y297572D01*
X429013Y298729D01*
X429250Y298681D01*
X438674D01*
Y281633D01*
X456914D01*
Y298681D01*
X457500D01*
X458866Y298953D01*
X460023Y299727D01*
X480327Y320030D01*
X481500Y319544D01*
Y283216D01*
X480545Y282379D01*
X480250Y282418D01*
X478201Y282148D01*
X476291Y281357D01*
X474651Y280099D01*
X473393Y278459D01*
X472602Y276549D01*
X472332Y274500D01*
X472602Y272451D01*
X473393Y270541D01*
X474651Y268901D01*
X476291Y267643D01*
X478201Y266852D01*
X480250Y266582D01*
X480545Y266621D01*
X481500Y265784D01*
Y205456D01*
X480327Y204970D01*
X382819Y302478D01*
Y419943D01*
X383069Y421200D01*
X382819Y422456D01*
Y482500D01*
Y487750D01*
X382547Y489116D01*
X381773Y490273D01*
X363273Y508773D01*
X362116Y509547D01*
X360750Y509819D01*
X356000D01*
Y514750D01*
X331000D01*
Y509819D01*
X327000D01*
X325634Y509547D01*
X324477Y508773D01*
X304477Y488773D01*
X303703Y487616D01*
X303431Y486250D01*
Y482500D01*
Y455250D01*
X298000D01*
Y452318D01*
X273500D01*
Y455750D01*
X257000D01*
Y441750D01*
X273500D01*
Y445181D01*
X298000D01*
Y442250D01*
X316000D01*
Y455250D01*
X310569D01*
Y484772D01*
X328478Y502681D01*
X331000D01*
Y499750D01*
X356000D01*
Y502681D01*
X359272D01*
X375681Y486272D01*
Y431647D01*
X374561Y431048D01*
X373815Y431547D01*
X372450Y431819D01*
X354000D01*
Y432750D01*
X339000D01*
Y423750D01*
X354000D01*
Y424681D01*
X370971D01*
X375681Y419972D01*
Y301000D01*
X375681Y301000D01*
X375681D01*
X375953Y299634D01*
X376727Y298477D01*
X481500Y193703D01*
Y190311D01*
X480545Y189473D01*
X480450Y189486D01*
X477853Y189144D01*
X475432Y188141D01*
X473861Y186936D01*
X453523Y207273D01*
X452366Y208047D01*
X451000Y208319D01*
X407478D01*
X350069Y265728D01*
Y343750D01*
X353000D01*
Y361750D01*
X350069D01*
Y410500D01*
X354000D01*
Y419500D01*
X339000D01*
Y419500D01*
X337797Y419500D01*
X331069Y426228D01*
Y464772D01*
X341047Y474750D01*
X356000D01*
Y489750D01*
X331000D01*
Y474797D01*
X324977Y468773D01*
X324203Y467616D01*
X323931Y466250D01*
Y424750D01*
X324203Y423384D01*
X324977Y422227D01*
X334727Y412477D01*
X335884Y411703D01*
X337250Y411431D01*
X339000D01*
Y410500D01*
X342931D01*
Y361750D01*
X340000D01*
Y357319D01*
X310228D01*
X288773Y378773D01*
X287616Y379547D01*
X286250Y379818D01*
X273500D01*
Y383250D01*
X257000D01*
Y369250D01*
X273500D01*
Y372681D01*
X284772D01*
X306227Y351227D01*
X307384Y350453D01*
X308750Y350181D01*
X340000D01*
Y343750D01*
X342931D01*
Y264250D01*
X343203Y262884D01*
X343977Y261727D01*
X403477Y202227D01*
X404634Y201453D01*
X406000Y201181D01*
X449522D01*
X470512Y180191D01*
X470414Y179450D01*
X470756Y176853D01*
X471759Y174432D01*
X473028Y172778D01*
X449974Y149724D01*
X448835Y150286D01*
X448936Y151050D01*
X448594Y153647D01*
X447591Y156068D01*
X445996Y158146D01*
X443918Y159741D01*
X441497Y160744D01*
X438900Y161086D01*
X436302Y160744D01*
X433882Y159741D01*
X431804Y158146D01*
X430209Y156068D01*
X429206Y153647D01*
X428864Y151050D01*
X429206Y148453D01*
X430209Y146032D01*
X431804Y143954D01*
X433882Y142359D01*
X436302Y141356D01*
X438900Y141014D01*
X439664Y141115D01*
X440226Y139976D01*
X370500Y70250D01*
X89000D01*
X71250Y88000D01*
X41319Y117931D01*
Y183475D01*
X42492Y183961D01*
X108477Y117977D01*
X109634Y117203D01*
X111000Y116931D01*
X163750D01*
Y111000D01*
X181750D01*
Y129000D01*
X163750D01*
Y124069D01*
X112478D01*
X63279Y173268D01*
X63765Y174441D01*
X194250D01*
X194250Y174441D01*
X195420Y174674D01*
X196413Y175337D01*
X275413Y254337D01*
X276076Y255329D01*
X276309Y256500D01*
X276309Y256500D01*
Y284483D01*
X292667Y300841D01*
X308997D01*
X309081Y300731D01*
X310961Y299289D01*
X313151Y298382D01*
X315500Y298072D01*
X317850Y298382D01*
X320039Y299289D01*
X321919Y300731D01*
X323362Y302611D01*
X324268Y304801D01*
X324578Y307150D01*
X324268Y309499D01*
X323362Y311689D01*
X321919Y313569D01*
X320039Y315012D01*
X317850Y315918D01*
X315500Y316228D01*
X313151Y315918D01*
X310961Y315012D01*
X309081Y313569D01*
X307639Y311689D01*
X306732Y309499D01*
X306422Y307150D01*
X306255Y306959D01*
X291400D01*
X290229Y306726D01*
X289832Y306460D01*
X289237Y306063D01*
X289237Y306063D01*
X271087Y287913D01*
X270424Y286921D01*
X270191Y285750D01*
X270191Y285750D01*
Y257767D01*
X192983Y180559D01*
X64017D01*
X41319Y203257D01*
Y351493D01*
X135167Y445341D01*
X143132D01*
X143256Y445156D01*
X144744Y444161D01*
X146500Y443812D01*
X160000D01*
X161756Y444161D01*
X163244Y445156D01*
X164239Y446644D01*
X164588Y448400D01*
X164239Y450156D01*
X163244Y451644D01*
X161756Y452639D01*
X160000Y452988D01*
X146500D01*
X144744Y452639D01*
X143256Y451644D01*
X143132Y451459D01*
X133900D01*
X133900Y451459D01*
X132730Y451226D01*
X131737Y450563D01*
X131737Y450563D01*
X42492Y361318D01*
X41319Y361804D01*
Y450225D01*
X42492Y450711D01*
X50727Y442477D01*
X51884Y441703D01*
X53250Y441431D01*
X64000D01*
Y439500D01*
X82000D01*
Y442431D01*
X88250D01*
X89616Y442703D01*
X90773Y443477D01*
X117528Y470231D01*
X122854D01*
X123102Y468986D01*
X122791Y468857D01*
X121151Y467599D01*
X119893Y465959D01*
X119102Y464049D01*
X118832Y462000D01*
X119102Y459951D01*
X119893Y458041D01*
X121151Y456401D01*
X122791Y455143D01*
X124701Y454352D01*
X126750Y454082D01*
X128799Y454352D01*
X130709Y455143D01*
X132349Y456401D01*
X133607Y458041D01*
X133769Y458431D01*
X142871D01*
X143256Y457856D01*
X144744Y456861D01*
X146500Y456512D01*
X160000D01*
X161756Y456861D01*
X163244Y457856D01*
X164239Y459344D01*
X164588Y461100D01*
X164239Y462856D01*
X163244Y464344D01*
X161756Y465339D01*
X160000Y465688D01*
X146500D01*
X145899Y465569D01*
X133769D01*
X133607Y465959D01*
X132349Y467599D01*
X130709Y468857D01*
X130398Y468986D01*
X130646Y470231D01*
X143741D01*
X144744Y469561D01*
X146500Y469212D01*
X160000D01*
X161756Y469561D01*
X163244Y470556D01*
X164239Y472044D01*
X164588Y473800D01*
X164239Y475556D01*
X163244Y477044D01*
X161756Y478039D01*
X160000Y478388D01*
X146500D01*
X144744Y478039D01*
X143741Y477369D01*
X116050D01*
X114684Y477097D01*
X113527Y476323D01*
X86772Y449569D01*
X82000D01*
Y452500D01*
X64000D01*
Y448568D01*
X54728D01*
X41319Y461978D01*
Y562616D01*
Y569686D01*
Y580569D01*
D01*
Y796522D01*
X160478Y915682D01*
X432522D01*
X475681Y872522D01*
D02*
G37*
G36*
X1344194Y941784D02*
Y604500D01*
Y128194D01*
X1284106Y68106D01*
X1283894D01*
X1282500Y69500D01*
X1121402D01*
X1120507Y70402D01*
X1120671Y91988D01*
D01*
X1120708Y96872D01*
X1120754Y102987D01*
X1120777Y103022D01*
X1120810Y103181D01*
X1120926Y103296D01*
X1120926Y103296D01*
D01*
X1121628Y103789D01*
X1121628Y103789D01*
X1121670D01*
X1121820Y103851D01*
X1121980Y103819D01*
X1122021Y103827D01*
X1122251Y103732D01*
X1122929Y103642D01*
X1123583Y103556D01*
X1123583D01*
X1124388Y103450D01*
X1124388D01*
X1124600Y103422D01*
X1124812Y103450D01*
X1124812D01*
X1126012Y103608D01*
X1126949Y103732D01*
X1129139Y104639D01*
X1129308Y104769D01*
X1129308Y104769D01*
X1130849Y105951D01*
Y105951D01*
X1131019Y106081D01*
X1131432Y106619D01*
X1132331Y107792D01*
X1132331Y107792D01*
X1132461Y107961D01*
X1132543Y108159D01*
X1132543Y108159D01*
X1132915Y109056D01*
X1133368Y110151D01*
X1133505Y111190D01*
X1133650Y112288D01*
Y112288D01*
X1133678Y112500D01*
X1133650Y112712D01*
Y112712D01*
X1133492Y113912D01*
X1133368Y114850D01*
X1132461Y117039D01*
X1132331Y117208D01*
X1132331Y117208D01*
X1131353Y118484D01*
X1131301Y118677D01*
X1131233Y118766D01*
Y118878D01*
X1131156Y119063D01*
Y141561D01*
X1131384Y142113D01*
X1165418Y176147D01*
X1166674Y175960D01*
X1166905Y175530D01*
X1166602Y174799D01*
X1166332Y172750D01*
X1166602Y170701D01*
X1167393Y168791D01*
X1168651Y167151D01*
X1170291Y165893D01*
X1172201Y165102D01*
X1174250Y164832D01*
X1176299Y165102D01*
X1178209Y165893D01*
X1179849Y167151D01*
X1181107Y168791D01*
X1181269Y169181D01*
X1185500D01*
X1186866Y169453D01*
X1188023Y170227D01*
X1196773Y178977D01*
X1197547Y180134D01*
X1197819Y181500D01*
X1197819Y181500D01*
X1197819Y181500D01*
Y181500D01*
Y239890D01*
X1199086Y239973D01*
X1199352Y237951D01*
X1200143Y236041D01*
X1201401Y234401D01*
X1203041Y233143D01*
X1204951Y232352D01*
X1207000Y232082D01*
X1209049Y232352D01*
X1210959Y233143D01*
X1212599Y234401D01*
X1213857Y236041D01*
X1214648Y237951D01*
X1214918Y240000D01*
X1214648Y242049D01*
X1213857Y243959D01*
X1212599Y245599D01*
X1210959Y246857D01*
X1210069Y247226D01*
Y299250D01*
X1214500D01*
Y316953D01*
X1217478Y319931D01*
X1277500D01*
X1278866Y320203D01*
X1280023Y320977D01*
X1280023Y320977D01*
X1280023Y320977D01*
X1292523Y333477D01*
X1293297Y334634D01*
X1293569Y336000D01*
Y493500D01*
Y520250D01*
X1293297Y521616D01*
X1292523Y522773D01*
X1272500Y542797D01*
Y557750D01*
X1247500D01*
Y542750D01*
X1262453D01*
X1286431Y518772D01*
Y493500D01*
Y479797D01*
X1285358Y479080D01*
X1285258Y479039D01*
X1282773Y481523D01*
X1281616Y482297D01*
X1280250Y482569D01*
X1271750D01*
Y485500D01*
X1253750D01*
Y480569D01*
X1212250D01*
Y484000D01*
X1207569D01*
Y493500D01*
Y532522D01*
X1246327Y571280D01*
X1247500Y570794D01*
Y567750D01*
X1272500D01*
Y582750D01*
X1247500D01*
Y578819D01*
X1245250D01*
X1243884Y578547D01*
X1242727Y577773D01*
X1201477Y536523D01*
X1200703Y535366D01*
X1200431Y534000D01*
Y493500D01*
Y484000D01*
X1195750D01*
Y470000D01*
X1212250D01*
Y473431D01*
X1253750D01*
Y472500D01*
X1271750D01*
Y475431D01*
X1278772D01*
X1279181Y475022D01*
Y410478D01*
X1266772Y398069D01*
X1243728D01*
X1238523Y403273D01*
X1223523Y418273D01*
X1222366Y419047D01*
X1221000Y419319D01*
X1212750D01*
Y421682D01*
X1252500D01*
Y418000D01*
X1270500D01*
Y431000D01*
X1252500D01*
Y428819D01*
X1212750D01*
Y431750D01*
X1207569D01*
Y451000D01*
X1212250D01*
Y465000D01*
X1195750D01*
Y461569D01*
X1192728D01*
X1160797Y493500D01*
X1140773Y513523D01*
X1139616Y514297D01*
X1138250Y514569D01*
X1116009D01*
X1115006Y515239D01*
X1113250Y515588D01*
X1099750D01*
X1097994Y515239D01*
X1096506Y514244D01*
X1095511Y512756D01*
X1095162Y511000D01*
X1095511Y509244D01*
X1096506Y507756D01*
X1097994Y506761D01*
X1099750Y506412D01*
X1113250D01*
X1115006Y506761D01*
X1116009Y507431D01*
X1136772D01*
X1188727Y455477D01*
X1188727D01*
X1188727Y455477D01*
X1188727Y455477D01*
Y455477D01*
X1189884Y454703D01*
X1191250Y454431D01*
X1195750D01*
Y451000D01*
X1200431D01*
Y431750D01*
X1196250D01*
Y419110D01*
X1195935Y419047D01*
X1194777Y418273D01*
X1191727Y415223D01*
X1190953Y414065D01*
X1190681Y412700D01*
Y182978D01*
X1184022Y176319D01*
X1181269D01*
X1181107Y176709D01*
X1179849Y178349D01*
X1178209Y179607D01*
X1176299Y180398D01*
X1174250Y180668D01*
X1172201Y180398D01*
X1171470Y180096D01*
X1171040Y180326D01*
X1170854Y181582D01*
X1178795Y189523D01*
X1178811Y189539D01*
D01*
X1178886Y189614D01*
X1179610Y190558D01*
X1179798Y190802D01*
D01*
X1179928Y190972D01*
X1180170Y191556D01*
X1180583Y192553D01*
X1180611Y192765D01*
Y192765D01*
X1180778Y194038D01*
X1180778Y194038D01*
X1180792Y194145D01*
Y194145D01*
X1180806Y194250D01*
Y414000D01*
X1180792Y414105D01*
D01*
X1180783Y414178D01*
X1180583Y415697D01*
X1180501Y415894D01*
X1180501Y415894D01*
X1180255Y416487D01*
X1180255Y416487D01*
D01*
X1180075Y416922D01*
X1180010Y417080D01*
D01*
X1179928Y417278D01*
X1179798Y417448D01*
Y417448D01*
X1179177Y418256D01*
X1178886Y418636D01*
X1159886Y437636D01*
X1159801Y437701D01*
X1159801Y437701D01*
X1158698Y438548D01*
X1158698D01*
X1158528Y438678D01*
X1157602Y439061D01*
X1156947Y439333D01*
X1156735Y439361D01*
X1156735D01*
X1155356Y439542D01*
D01*
X1155250Y439556D01*
X1130500D01*
X1130394Y439542D01*
X1128803Y439333D01*
X1127222Y438678D01*
X1125990Y437733D01*
X1125864Y437636D01*
X1125789Y437561D01*
D01*
X1121864Y433636D01*
X1120822Y432278D01*
X1120495Y431488D01*
X1120167Y430697D01*
X1119944Y429000D01*
Y422750D01*
X1118750D01*
Y420556D01*
X1097250D01*
Y424500D01*
X1084250D01*
Y415926D01*
X1084194Y415500D01*
X1084250Y415074D01*
Y406500D01*
X1097250D01*
Y407444D01*
X1118750D01*
Y405250D01*
X1131750D01*
Y380250D01*
X1096750D01*
Y321750D01*
X1126681D01*
Y265250D01*
X1123750D01*
Y247250D01*
X1131750D01*
Y236452D01*
X1128000Y229412D01*
X1125250Y224250D01*
X947500D01*
Y270201D01*
X971444D01*
X996000Y245645D01*
Y231250D01*
X1014000D01*
Y249250D01*
X999605D01*
X974302Y274552D01*
X973475Y275105D01*
X972500Y275299D01*
X947500D01*
Y380453D01*
X1048173Y481127D01*
X1048750Y481012D01*
X1062250D01*
X1064006Y481361D01*
X1065494Y482356D01*
X1066489Y483844D01*
X1066838Y485600D01*
X1066489Y487356D01*
X1065494Y488844D01*
X1064006Y489839D01*
X1062250Y490188D01*
X1048750D01*
X1046994Y489839D01*
X1045506Y488844D01*
X1044918Y487965D01*
X948673Y391720D01*
X947500Y392206D01*
Y425500D01*
X948016Y425603D01*
X949173Y426377D01*
X971228Y448431D01*
X981231D01*
X981393Y448041D01*
X982651Y446401D01*
X984291Y445143D01*
X986201Y444352D01*
X988250Y444082D01*
X990299Y444352D01*
X992209Y445143D01*
X993849Y446401D01*
X995107Y448041D01*
X995898Y449951D01*
X996168Y452000D01*
X995898Y454049D01*
X995107Y455959D01*
X993849Y457599D01*
X992209Y458857D01*
X990299Y459648D01*
X988250Y459918D01*
X986201Y459648D01*
X984291Y458857D01*
X982651Y457599D01*
X981393Y455959D01*
X981231Y455569D01*
X969750D01*
X968384Y455297D01*
X967227Y454523D01*
X948673Y435970D01*
X947500Y436456D01*
Y474044D01*
X948673Y474530D01*
X950227Y472977D01*
X951384Y472203D01*
X952750Y471931D01*
X988293D01*
X988634Y471703D01*
X990000Y471431D01*
X991500D01*
Y469000D01*
X1009500D01*
Y471431D01*
X1009500D01*
X1010866Y471703D01*
X1011207Y471931D01*
X1012500D01*
X1013866Y472203D01*
X1015023Y472977D01*
X1036778Y494731D01*
X1045991D01*
X1046994Y494061D01*
X1048750Y493712D01*
X1062250D01*
X1064006Y494061D01*
X1065494Y495056D01*
X1066489Y496544D01*
X1066838Y498300D01*
X1066489Y500056D01*
X1065494Y501544D01*
X1064006Y502539D01*
X1062250Y502888D01*
X1048750D01*
X1046994Y502539D01*
X1045991Y501869D01*
X1035300D01*
X1033934Y501597D01*
X1032777Y500823D01*
X1011022Y479069D01*
X1009500D01*
Y482000D01*
X991500D01*
Y479069D01*
X954228D01*
X950023Y483273D01*
X948866Y484047D01*
X947500Y484319D01*
Y515811D01*
X953392D01*
X960727Y508477D01*
X961884Y507703D01*
X963250Y507431D01*
X1045991D01*
X1046994Y506761D01*
X1048750Y506412D01*
X1062250D01*
X1064006Y506761D01*
X1065494Y507756D01*
X1066489Y509244D01*
X1066838Y511000D01*
X1066489Y512756D01*
X1065494Y514244D01*
X1064006Y515239D01*
X1062250Y515588D01*
X1048750D01*
X1046994Y515239D01*
X1045991Y514569D01*
X1013659D01*
X1013172Y515742D01*
X1015523Y518092D01*
X1055500D01*
X1057646Y518519D01*
X1058533Y519112D01*
X1062250D01*
X1064006Y519461D01*
X1065494Y520456D01*
X1066489Y521944D01*
X1066838Y523700D01*
X1066489Y525456D01*
X1065494Y526944D01*
X1064006Y527939D01*
X1062250Y528288D01*
X1058533D01*
X1057646Y528881D01*
X1055500Y529308D01*
X1037623D01*
X1015715Y551215D01*
X1013896Y552431D01*
X1011750Y552858D01*
X1008250D01*
Y553750D01*
X990250D01*
Y540750D01*
X1008250D01*
Y541642D01*
X1009427D01*
X1020588Y530481D01*
X1020102Y529308D01*
X1013200D01*
X1011054Y528881D01*
X1009235Y527665D01*
X1005677Y524108D01*
X984573D01*
X971666Y537015D01*
X971843Y538364D01*
X971573Y540413D01*
X970782Y542323D01*
X969524Y543963D01*
X967884Y545221D01*
X965975Y546012D01*
X963925Y546282D01*
X961876Y546012D01*
X959967Y545221D01*
X958327Y543963D01*
X957068Y542323D01*
X956277Y540413D01*
X956008Y538364D01*
X956277Y536315D01*
X957068Y534405D01*
X958327Y532765D01*
X959967Y531507D01*
X961876Y530716D01*
X962138Y530682D01*
X977078Y515742D01*
X976592Y514569D01*
X964728D01*
X957393Y521903D01*
X956236Y522677D01*
X954870Y522949D01*
X947500D01*
Y539203D01*
X972478Y564181D01*
X1035372D01*
X1045819Y553734D01*
X1045694Y552471D01*
X1045506Y552344D01*
X1044511Y550856D01*
X1044162Y549100D01*
X1044511Y547344D01*
X1045506Y545856D01*
X1046994Y544861D01*
X1048750Y544512D01*
X1062250D01*
X1064006Y544861D01*
X1065494Y545856D01*
X1066489Y547344D01*
X1066838Y549100D01*
X1066489Y550856D01*
X1065494Y552344D01*
X1064006Y553339D01*
X1062250Y553688D01*
X1055958D01*
X1039373Y570273D01*
X1038216Y571047D01*
X1036850Y571319D01*
X971000D01*
X969634Y571047D01*
X968477Y570273D01*
X948673Y550470D01*
X947500Y550956D01*
Y861544D01*
X948673Y862030D01*
X1074302Y736401D01*
X1073816Y735228D01*
X1072850D01*
X1070500Y734918D01*
X1068311Y734012D01*
X1066431Y732569D01*
X1064988Y730689D01*
X1064082Y728500D01*
X1063772Y726150D01*
X1064082Y723801D01*
X1064988Y721611D01*
X1066431Y719731D01*
X1068311Y718289D01*
X1070500Y717382D01*
X1072850Y717072D01*
X1082850D01*
X1085200Y717382D01*
X1087389Y718289D01*
X1089269Y719731D01*
X1089578Y720135D01*
X1090848Y720093D01*
X1091327Y719377D01*
X1102931Y707772D01*
Y553688D01*
X1099750D01*
X1097994Y553339D01*
X1096506Y552344D01*
X1095511Y550856D01*
X1095162Y549100D01*
X1095511Y547344D01*
X1096506Y545856D01*
X1097994Y544861D01*
X1099750Y544512D01*
X1113250D01*
X1115006Y544861D01*
X1116494Y545856D01*
X1117489Y547344D01*
X1117838Y549100D01*
X1117489Y550856D01*
X1116494Y552344D01*
X1115006Y553339D01*
X1113250Y553688D01*
X1110069D01*
Y709250D01*
X1109797Y710616D01*
X1109023Y711773D01*
X1097419Y723378D01*
Y724316D01*
Y730706D01*
X1097147Y732072D01*
X1096373Y733230D01*
X1089930Y739673D01*
X1088772Y740447D01*
X1087406Y740719D01*
X1080078D01*
X972448Y848348D01*
X947006Y873790D01*
X932023Y888773D01*
X930866Y889547D01*
X929500Y889819D01*
X744098D01*
X739332Y894981D01*
Y898822D01*
Y981664D01*
X769130Y1013944D01*
X1272034D01*
X1344194Y941784D01*
D02*
G37*
G36*
X1156523Y437751D02*
X1156980Y437561D01*
X1156981D01*
X1156981Y437561D01*
X1157709Y437259D01*
X1158813Y436413D01*
X1177663Y417563D01*
X1178510Y416459D01*
X1178755Y415866D01*
X1178755Y415866D01*
X1179001Y415273D01*
X1179183Y413894D01*
Y194356D01*
X1179001Y192977D01*
X1178670Y192177D01*
Y192177D01*
X1178670Y192177D01*
X1178510Y191791D01*
X1177663Y190687D01*
X1169033Y182058D01*
X1168852Y181620D01*
X1168589Y181227D01*
X1168622Y181063D01*
X1168558Y180910D01*
X1168739Y180472D01*
X1168831Y180008D01*
X1169503Y179002D01*
X1168651Y178349D01*
X1167998Y177497D01*
X1166992Y178169D01*
X1166528Y178261D01*
X1166090Y178442D01*
X1165937Y178379D01*
X1165773Y178411D01*
X1165380Y178148D01*
X1164942Y177967D01*
X1130008Y143033D01*
X1129532Y141884D01*
Y118740D01*
X1129733Y118257D01*
X1129868Y117752D01*
X1131043Y116220D01*
X1131786Y114426D01*
X1132040Y112500D01*
X1131786Y110574D01*
X1131043Y108780D01*
X1129861Y107239D01*
X1128320Y106057D01*
X1126526Y105314D01*
X1124600Y105060D01*
X1123795Y105166D01*
X1122674Y105314D01*
X1122436Y105412D01*
X1122273D01*
X1122137Y105504D01*
X1121670Y105412D01*
X1121193D01*
X1121078Y105297D01*
X1120918Y105266D01*
X1119859Y104564D01*
X1119768Y104429D01*
X1119616Y104368D01*
X1119431Y103929D01*
X1119431Y103929D01*
X1119165Y103533D01*
X1119196Y103373D01*
X1119132Y103223D01*
X1119047Y92000D01*
X1108250D01*
X1107750Y92500D01*
X1103000Y97250D01*
Y102250D01*
Y125500D01*
Y131000D01*
Y144453D01*
X1123310Y164764D01*
X1123701Y164602D01*
X1125750Y164332D01*
X1127799Y164602D01*
X1129709Y165393D01*
X1131349Y166651D01*
X1132607Y168291D01*
X1133398Y170201D01*
X1133668Y172250D01*
X1133398Y174299D01*
X1132607Y176209D01*
X1132000Y177000D01*
X1160500Y205500D01*
X1162500Y207500D01*
Y272406D01*
X1163671Y273625D01*
X1163892Y274190D01*
X1164124Y274750D01*
Y278250D01*
Y321750D01*
X1164750D01*
Y380250D01*
X1164124D01*
Y416478D01*
X1163648Y417626D01*
X1162500Y418774D01*
Y425750D01*
X1160750Y427500D01*
X1136500D01*
X1136250Y427750D01*
X1135374Y426874D01*
X1133056D01*
X1131908Y426398D01*
X1131432Y425250D01*
Y422750D01*
X1131908Y421602D01*
X1132626Y421304D01*
Y408990D01*
X1131750Y406874D01*
X1120374D01*
Y407444D01*
X1119898Y408592D01*
X1118750Y409067D01*
X1097250D01*
X1096102Y408592D01*
X1095908Y408124D01*
X1085874D01*
Y415074D01*
X1085831Y415178D01*
X1085860Y415286D01*
X1085832Y415500D01*
X1085860Y415714D01*
X1085831Y415822D01*
X1085874Y415926D01*
Y422876D01*
X1095626D01*
Y420556D01*
X1096102Y419408D01*
X1097250Y418932D01*
X1118750D01*
X1119898Y419408D01*
X1120374Y420556D01*
Y421304D01*
X1121092Y421602D01*
X1121568Y422750D01*
Y428894D01*
X1121749Y430273D01*
X1121995Y430866D01*
X1121995Y430866D01*
X1122241Y431459D01*
X1123087Y432563D01*
X1126937Y436413D01*
X1127354Y436733D01*
X1128041Y437259D01*
X1129227Y437751D01*
X1130606Y437933D01*
X1155144D01*
X1156523Y437751D01*
D02*
G37*
%LPC*%
G36*
X447794Y477752D02*
X445413Y477438D01*
X443195Y476520D01*
X441290Y475058D01*
X439828Y473153D01*
X438909Y470934D01*
X438596Y468553D01*
X438909Y466172D01*
X439828Y463954D01*
X441290Y462049D01*
X443195Y460587D01*
X445413Y459668D01*
X447794Y459355D01*
X450175Y459668D01*
X452393Y460587D01*
X454299Y462049D01*
X455760Y463954D01*
X456679Y466172D01*
X456993Y468553D01*
X456679Y470934D01*
X455760Y473153D01*
X454299Y475058D01*
X452393Y476520D01*
X450175Y477438D01*
X447794Y477752D01*
D02*
G37*
G36*
X422394D02*
X420013Y477438D01*
X417795Y476520D01*
X415890Y475058D01*
X414428Y473153D01*
X413509Y470934D01*
X413195Y468553D01*
X413509Y466172D01*
X414428Y463954D01*
X415890Y462049D01*
X417795Y460587D01*
X420013Y459668D01*
X422394Y459355D01*
X424775Y459668D01*
X426993Y460587D01*
X428899Y462049D01*
X430360Y463954D01*
X431279Y466172D01*
X431593Y468553D01*
X431279Y470934D01*
X430360Y473153D01*
X428899Y475058D01*
X426993Y476520D01*
X424775Y477438D01*
X422394Y477752D01*
D02*
G37*
G36*
X160000Y491088D02*
X146500D01*
X144744Y490739D01*
X143256Y489744D01*
X142261Y488256D01*
X141912Y486500D01*
X142261Y484744D01*
X142862Y483844D01*
X143256Y483256D01*
X144744Y482261D01*
X146500Y481912D01*
X160000D01*
X161756Y482261D01*
X162759Y482931D01*
X168022D01*
X172681Y478272D01*
Y469019D01*
X172291Y468857D01*
X170651Y467599D01*
X169393Y465959D01*
X168602Y464049D01*
X168332Y462000D01*
X168602Y459951D01*
X169393Y458041D01*
X170651Y456401D01*
X172291Y455143D01*
X174201Y454352D01*
X176250Y454082D01*
X177566Y454256D01*
X178128Y453116D01*
X148099Y423088D01*
X124250D01*
X122494Y422739D01*
X121006Y421744D01*
X67756Y368494D01*
X66761Y367006D01*
X66412Y365250D01*
Y310500D01*
X64500D01*
Y292500D01*
X66412D01*
Y275750D01*
X63500D01*
Y259250D01*
X77500D01*
Y275750D01*
X75588D01*
Y292500D01*
X77500D01*
Y310500D01*
X75588D01*
Y363349D01*
X126151Y413912D01*
X150000D01*
X151756Y414261D01*
X153244Y415256D01*
X193244Y455256D01*
X193244Y455256D01*
X193244Y455256D01*
X194239Y456744D01*
X194588Y458500D01*
Y463100D01*
X200700Y469212D01*
X211000D01*
X212756Y469561D01*
X214244Y470556D01*
X215239Y472044D01*
X215588Y473800D01*
X215239Y475556D01*
X214244Y477044D01*
X212756Y478039D01*
X211000Y478388D01*
X197500D01*
X195744Y478039D01*
X194256Y477044D01*
X193261Y475556D01*
X193061Y474550D01*
X186756Y468244D01*
X185761Y466756D01*
X185412Y465000D01*
Y462669D01*
X184941Y462229D01*
X184695Y462212D01*
X184144Y462176D01*
X183898Y464049D01*
X183107Y465959D01*
X181849Y467599D01*
X180209Y468857D01*
X179819Y469019D01*
Y479750D01*
X179547Y481116D01*
X178773Y482273D01*
X178547Y482500D01*
X172023Y489023D01*
X170866Y489797D01*
X169500Y490069D01*
X162759D01*
X161756Y490739D01*
X160000Y491088D01*
D02*
G37*
G36*
X1113250Y477488D02*
X1099750D01*
X1097994Y477139D01*
X1096506Y476144D01*
X1095511Y474656D01*
X1095162Y472900D01*
X1095511Y471144D01*
X1096506Y469656D01*
X1097994Y468661D01*
X1099750Y468312D01*
X1101931D01*
Y441622D01*
X1101291Y441357D01*
X1099651Y440099D01*
X1098393Y438459D01*
X1097602Y436549D01*
X1097332Y434500D01*
X1097602Y432451D01*
X1098393Y430541D01*
X1099651Y428901D01*
X1101291Y427643D01*
X1103201Y426852D01*
X1105250Y426582D01*
X1107299Y426852D01*
X1109209Y427643D01*
X1110849Y428901D01*
X1112107Y430541D01*
X1112898Y432451D01*
X1113168Y434500D01*
X1112898Y436549D01*
X1112107Y438459D01*
X1110849Y440099D01*
X1109209Y441357D01*
X1109069Y441415D01*
Y468312D01*
X1113250D01*
X1115006Y468661D01*
X1116494Y469656D01*
X1117489Y471144D01*
X1117838Y472900D01*
X1117489Y474656D01*
X1116494Y476144D01*
X1115006Y477139D01*
X1113250Y477488D01*
D02*
G37*
G36*
X447794Y426952D02*
X445413Y426638D01*
X443195Y425719D01*
X441290Y424258D01*
X439828Y422352D01*
X438909Y420134D01*
X438596Y417753D01*
X438909Y415372D01*
X439828Y413154D01*
X441290Y411249D01*
X443195Y409787D01*
X445413Y408868D01*
X447794Y408554D01*
X450175Y408868D01*
X452393Y409787D01*
X454299Y411249D01*
X455760Y413154D01*
X456679Y415372D01*
X456993Y417753D01*
X456679Y420134D01*
X455760Y422352D01*
X454299Y424258D01*
X452393Y425719D01*
X450175Y426638D01*
X447794Y426952D01*
D02*
G37*
G36*
Y452352D02*
X445413Y452038D01*
X443195Y451119D01*
X441290Y449658D01*
X439828Y447752D01*
X438909Y445534D01*
X438596Y443153D01*
X438909Y440772D01*
X439828Y438554D01*
X441290Y436649D01*
X443195Y435187D01*
X445413Y434268D01*
X447794Y433955D01*
X450175Y434268D01*
X452393Y435187D01*
X454299Y436649D01*
X455760Y438554D01*
X456679Y440772D01*
X456993Y443153D01*
X456679Y445534D01*
X455760Y447752D01*
X454299Y449658D01*
X452393Y451119D01*
X450175Y452038D01*
X447794Y452352D01*
D02*
G37*
G36*
X422394D02*
X420013Y452038D01*
X417795Y451119D01*
X415890Y449658D01*
X414428Y447752D01*
X413509Y445534D01*
X413195Y443153D01*
X413509Y440772D01*
X414428Y438554D01*
X415890Y436649D01*
X417795Y435187D01*
X420013Y434268D01*
X422394Y433955D01*
X424775Y434268D01*
X426993Y435187D01*
X428899Y436649D01*
X430360Y438554D01*
X431279Y440772D01*
X431593Y443153D01*
X431279Y445534D01*
X430360Y447752D01*
X428899Y449658D01*
X426993Y451119D01*
X424775Y452038D01*
X422394Y452352D01*
D02*
G37*
G36*
X377500Y548819D02*
X245000D01*
X243634Y548547D01*
X242477Y547773D01*
X222872Y528169D01*
X213759D01*
X212756Y528839D01*
X211000Y529188D01*
X197500D01*
X195744Y528839D01*
X194256Y527844D01*
X193261Y526356D01*
X192912Y524600D01*
X193261Y522844D01*
X194256Y521356D01*
X195744Y520361D01*
X197500Y520012D01*
X211000D01*
X212756Y520361D01*
X213759Y521031D01*
X224350D01*
X225716Y521303D01*
X226873Y522077D01*
X246478Y541681D01*
X376022D01*
X400431Y517272D01*
Y510860D01*
X399229Y510452D01*
X398349Y511599D01*
X396709Y512857D01*
X394799Y513648D01*
X392750Y513918D01*
X390701Y513648D01*
X388791Y512857D01*
X387151Y511599D01*
X385893Y509959D01*
X385102Y508049D01*
X384832Y506000D01*
X385102Y503951D01*
X385893Y502041D01*
X387151Y500401D01*
X388791Y499143D01*
X389681Y498774D01*
Y482500D01*
Y358019D01*
X389291Y357857D01*
X387651Y356599D01*
X386393Y354959D01*
X385602Y353049D01*
X385332Y351000D01*
X385602Y348951D01*
X386393Y347041D01*
X387651Y345401D01*
X389291Y344143D01*
X391201Y343352D01*
X393250Y343082D01*
X395299Y343352D01*
X397209Y344143D01*
X398849Y345401D01*
X400107Y347041D01*
X400898Y348951D01*
X401168Y351000D01*
X400898Y353049D01*
X400107Y354959D01*
X398849Y356599D01*
X397209Y357857D01*
X396819Y358019D01*
Y499227D01*
X398349Y500401D01*
X399229Y501548D01*
X400431Y501140D01*
Y362750D01*
X400703Y361384D01*
X401477Y360227D01*
X408394Y353310D01*
X409551Y352536D01*
X410917Y352265D01*
X432036D01*
X439336Y344965D01*
X438909Y343934D01*
X438596Y341553D01*
X438909Y339172D01*
X439828Y336954D01*
X441290Y335049D01*
X443195Y333587D01*
X445413Y332668D01*
X447794Y332355D01*
X450175Y332668D01*
X452393Y333587D01*
X454299Y335049D01*
X455760Y336954D01*
X456679Y339172D01*
X456993Y341553D01*
X456679Y343934D01*
X455760Y346152D01*
X454299Y348058D01*
X452393Y349520D01*
X450175Y350438D01*
X447794Y350752D01*
X445413Y350438D01*
X444383Y350011D01*
X436037Y358357D01*
X434880Y359130D01*
X433514Y359402D01*
X429531D01*
X428969Y360541D01*
X430360Y362354D01*
X431279Y364572D01*
X431593Y366953D01*
X431279Y369334D01*
X430360Y371553D01*
X428899Y373458D01*
X426993Y374920D01*
X424775Y375838D01*
X422394Y376152D01*
X420013Y375838D01*
X417795Y374920D01*
X415890Y373458D01*
X414428Y371553D01*
X413509Y369334D01*
X413195Y366953D01*
X413509Y364572D01*
X414428Y362354D01*
X415819Y360541D01*
X415257Y359402D01*
X412395D01*
X407569Y364228D01*
Y489917D01*
Y518750D01*
X407297Y520116D01*
X406523Y521273D01*
X380023Y547773D01*
X378866Y548547D01*
X377500Y548819D01*
D02*
G37*
G36*
X447794Y528552D02*
X445413Y528238D01*
X443195Y527319D01*
X441290Y525858D01*
X439828Y523952D01*
X438909Y521734D01*
X438596Y519353D01*
X438909Y516972D01*
X439828Y514754D01*
X441290Y512849D01*
X443195Y511387D01*
X445413Y510468D01*
X447794Y510154D01*
X450175Y510468D01*
X452393Y511387D01*
X454299Y512849D01*
X455760Y514754D01*
X456679Y516972D01*
X456993Y519353D01*
X456679Y521734D01*
X455760Y523952D01*
X454299Y525858D01*
X452393Y527319D01*
X450175Y528238D01*
X447794Y528552D01*
D02*
G37*
G36*
X422394Y553952D02*
X420013Y553638D01*
X417795Y552719D01*
X415890Y551258D01*
X414428Y549352D01*
X413509Y547134D01*
X413195Y544753D01*
X413509Y542372D01*
X414428Y540154D01*
X415890Y538249D01*
X417795Y536787D01*
X420013Y535868D01*
X422394Y535555D01*
X424775Y535868D01*
X426993Y536787D01*
X428899Y538249D01*
X430360Y540154D01*
X431279Y542372D01*
X431593Y544753D01*
X431279Y547134D01*
X430360Y549352D01*
X428899Y551258D01*
X426993Y552719D01*
X424775Y553638D01*
X422394Y553952D01*
D02*
G37*
G36*
X1198500Y557750D02*
X1173500D01*
Y542797D01*
X1157972Y527269D01*
X1116009D01*
X1115006Y527939D01*
X1113250Y528288D01*
X1099750D01*
X1097994Y527939D01*
X1096506Y526944D01*
X1095511Y525456D01*
X1095162Y523700D01*
X1095511Y521944D01*
X1096506Y520456D01*
X1097994Y519461D01*
X1099750Y519112D01*
X1113250D01*
X1115006Y519461D01*
X1116009Y520131D01*
X1159450D01*
X1160816Y520403D01*
X1161973Y521177D01*
D01*
X1183547Y542750D01*
X1198500D01*
Y557750D01*
D02*
G37*
G36*
X211000Y516488D02*
X197500D01*
X195744Y516139D01*
X194256Y515144D01*
X193261Y513656D01*
X192912Y511900D01*
X193261Y510144D01*
X194256Y508656D01*
X195744Y507661D01*
X197500Y507312D01*
X211000D01*
X212756Y507661D01*
X213759Y508331D01*
X252872D01*
X257000Y504203D01*
Y499750D01*
X282000D01*
Y514750D01*
X257000D01*
Y514750D01*
X256385Y514750D01*
X255716Y515197D01*
X254350Y515469D01*
X213759D01*
X212756Y516139D01*
X211000Y516488D01*
D02*
G37*
G36*
Y503788D02*
X197500D01*
X195744Y503439D01*
X194256Y502444D01*
X193261Y500956D01*
X192912Y499200D01*
X193261Y497444D01*
X194256Y495956D01*
X195744Y494961D01*
X197500Y494612D01*
X211000D01*
X212756Y494961D01*
X213759Y495631D01*
X240072D01*
X255977Y479727D01*
X255977D01*
X255977Y479727D01*
X255977Y479727D01*
Y479727D01*
X257000Y479043D01*
Y474750D01*
X282000D01*
Y482500D01*
Y489750D01*
X257000D01*
X257000Y489750D01*
Y489750D01*
X256326Y489471D01*
X244073Y501723D01*
X242916Y502497D01*
X241550Y502769D01*
X213759D01*
X212756Y503439D01*
X211000Y503788D01*
D02*
G37*
G36*
X422394Y528552D02*
X420013Y528238D01*
X417795Y527319D01*
X415890Y525858D01*
X414428Y523952D01*
X413509Y521734D01*
X413195Y519353D01*
X413509Y516972D01*
X414428Y514754D01*
X415890Y512849D01*
X417795Y511387D01*
X420013Y510468D01*
X422394Y510154D01*
X424775Y510468D01*
X426993Y511387D01*
X428899Y512849D01*
X430360Y514754D01*
X431279Y516972D01*
X431593Y519353D01*
X431313Y521478D01*
D01*
X431279Y521734D01*
X430360Y523952D01*
X428899Y525858D01*
X426993Y527319D01*
X424775Y528238D01*
X422394Y528552D01*
D02*
G37*
G36*
X82750Y519250D02*
X64750D01*
Y506250D01*
X82750D01*
Y507142D01*
X105677D01*
X111038Y501781D01*
X110552Y500608D01*
X108837D01*
X107209Y501857D01*
X105299Y502648D01*
X103250Y502918D01*
X101201Y502648D01*
X99291Y501857D01*
X97651Y500599D01*
X96393Y498959D01*
X95602Y497049D01*
X95332Y495000D01*
X95602Y492951D01*
X96393Y491041D01*
X97651Y489401D01*
X99291Y488143D01*
X101201Y487352D01*
X103250Y487082D01*
X105299Y487352D01*
X107209Y488143D01*
X108837Y489392D01*
X117350D01*
X119496Y489819D01*
X119642Y489917D01*
X121315Y491035D01*
D01*
D01*
D01*
D01*
X123873Y493592D01*
X153250D01*
X155396Y494019D01*
X156283Y494612D01*
X160000D01*
X161756Y494961D01*
X163244Y495956D01*
X164239Y497444D01*
X164588Y499200D01*
X164239Y500956D01*
X164042Y501250D01*
D01*
X163244Y502444D01*
X161756Y503439D01*
X160000Y503788D01*
X156283D01*
X155396Y504381D01*
X153250Y504808D01*
X123873D01*
X111965Y516715D01*
X110146Y517931D01*
X108000Y518358D01*
X82750D01*
Y519250D01*
D02*
G37*
G36*
X452750Y189486D02*
X450153Y189144D01*
X447732Y188141D01*
X445654Y186546D01*
X444059Y184468D01*
X443056Y182048D01*
X442714Y179450D01*
X443056Y176853D01*
X444059Y174432D01*
X445654Y172354D01*
X447732Y170759D01*
X450153Y169756D01*
X452750Y169414D01*
X455348Y169756D01*
X457768Y170759D01*
X459846Y172354D01*
X461441Y174432D01*
X462444Y176853D01*
X462786Y179450D01*
X462444Y182048D01*
X461441Y184468D01*
X459846Y186546D01*
X457768Y188141D01*
X455348Y189144D01*
X452750Y189486D01*
D02*
G37*
G36*
X425050D02*
X422453Y189144D01*
X420032Y188141D01*
X417954Y186546D01*
X416359Y184468D01*
X415356Y182048D01*
X415014Y179450D01*
X415356Y176853D01*
X416359Y174432D01*
X417954Y172354D01*
X420032Y170759D01*
X422453Y169756D01*
X425050Y169414D01*
X427648Y169756D01*
X430068Y170759D01*
X432146Y172354D01*
X433741Y174432D01*
X434744Y176853D01*
X435086Y179450D01*
X434744Y182048D01*
X433741Y184468D01*
X432146Y186546D01*
X430068Y188141D01*
X427648Y189144D01*
X425050Y189486D01*
D02*
G37*
G36*
X101250Y277624D02*
X83750D01*
X82602Y277148D01*
X80352Y274898D01*
X80102Y274648D01*
X79626Y273500D01*
Y260750D01*
Y259750D01*
X80102Y258602D01*
X82602Y256102D01*
X82852Y255852D01*
X84000Y255376D01*
X98250D01*
X99398Y255852D01*
X100898Y257352D01*
X100922Y257376D01*
X102078D01*
X106102Y253352D01*
X108352Y251102D01*
X109500Y250626D01*
X145750D01*
X146898Y251102D01*
X149398Y253602D01*
X149898Y254102D01*
X150374Y255250D01*
Y259750D01*
Y260000D01*
X150124Y260604D01*
Y265750D01*
X149648Y266898D01*
X146898Y269648D01*
X146648Y269898D01*
X145500Y270374D01*
X109172D01*
X105648Y273898D01*
X102398Y277148D01*
X101250Y277624D01*
D02*
G37*
G36*
X1062250Y477488D02*
X1048750D01*
X1046994Y477139D01*
X1045506Y476144D01*
X1044511Y474656D01*
X1044162Y472900D01*
X1044511Y471144D01*
X1045506Y469656D01*
X1045694Y469530D01*
X1045819Y468266D01*
X977477Y399923D01*
X976703Y398766D01*
X976431Y397400D01*
Y305750D01*
X976703Y304384D01*
X977477Y303227D01*
X1026831Y253872D01*
Y248513D01*
X1025861Y248111D01*
X1023981Y246669D01*
X1022539Y244789D01*
X1021632Y242600D01*
X1021322Y240250D01*
X1021632Y237901D01*
X1022539Y235711D01*
X1023981Y233831D01*
X1025861Y232389D01*
X1028051Y231482D01*
X1030400Y231172D01*
X1032749Y231482D01*
X1034939Y232389D01*
X1036819Y233831D01*
X1038261Y235711D01*
X1039168Y237901D01*
X1039478Y240250D01*
X1039168Y242600D01*
X1038261Y244789D01*
X1036819Y246669D01*
X1034939Y248111D01*
X1033969Y248513D01*
Y255350D01*
X1033697Y256716D01*
X1032923Y257873D01*
X983569Y307228D01*
Y395922D01*
X1055958Y468312D01*
X1062250D01*
X1064006Y468661D01*
X1065494Y469656D01*
X1066489Y471144D01*
X1066838Y472900D01*
X1066489Y474656D01*
X1065494Y476144D01*
X1064006Y477139D01*
X1062250Y477488D01*
D02*
G37*
G36*
X1296500Y133573D02*
X1293560Y133283D01*
X1290732Y132425D01*
X1288126Y131032D01*
X1285842Y129158D01*
X1283968Y126874D01*
X1282575Y124268D01*
X1281717Y121440D01*
X1281427Y118500D01*
X1281717Y115560D01*
X1282575Y112732D01*
X1283968Y110126D01*
X1285842Y107842D01*
X1288126Y105968D01*
X1290732Y104575D01*
X1293560Y103717D01*
X1296500Y103427D01*
X1299440Y103717D01*
X1302268Y104575D01*
X1304874Y105968D01*
X1307158Y107842D01*
X1309032Y110126D01*
X1310425Y112732D01*
X1311283Y115560D01*
X1311573Y118500D01*
X1311283Y121440D01*
X1310425Y124268D01*
X1309032Y126874D01*
X1307158Y129158D01*
X1304874Y131032D01*
X1302268Y132425D01*
X1299440Y133283D01*
X1296500Y133573D01*
D02*
G37*
G36*
X67750Y132573D02*
X64809Y132283D01*
X61982Y131425D01*
X59376Y130032D01*
X57092Y128158D01*
X55218Y125874D01*
X53825Y123268D01*
X52967Y120441D01*
X52677Y117500D01*
X52967Y114559D01*
X53825Y111732D01*
X55218Y109126D01*
X57092Y106842D01*
X59376Y104968D01*
X61982Y103575D01*
X64809Y102717D01*
X67750Y102428D01*
X70690Y102717D01*
X73518Y103575D01*
X76124Y104968D01*
X78408Y106842D01*
X80282Y109126D01*
X81675Y111732D01*
X82533Y114559D01*
X82823Y117500D01*
X82533Y120441D01*
X81675Y123268D01*
X80282Y125874D01*
X78408Y128158D01*
X76124Y130032D01*
X73518Y131425D01*
X70690Y132283D01*
X67750Y132573D01*
D02*
G37*
G36*
X411200Y161086D02*
X408602Y160744D01*
X406182Y159741D01*
X404104Y158146D01*
X402509Y156068D01*
X401506Y153647D01*
X401164Y151050D01*
X401506Y148453D01*
X402509Y146032D01*
X404104Y143954D01*
X406182Y142359D01*
X408602Y141356D01*
X411200Y141014D01*
X413797Y141356D01*
X416218Y142359D01*
X418296Y143954D01*
X419891Y146032D01*
X420894Y148453D01*
X421236Y151050D01*
X420894Y153647D01*
X419891Y156068D01*
X418296Y158146D01*
X416218Y159741D01*
X413797Y160744D01*
X411200Y161086D01*
D02*
G37*
G36*
X327800Y190672D02*
X322840Y190184D01*
X318071Y188737D01*
X313676Y186388D01*
X309824Y183226D01*
X306662Y179374D01*
X304313Y174979D01*
X302866Y170210D01*
X302378Y165250D01*
X302866Y160290D01*
X304313Y155521D01*
X306662Y151126D01*
X309824Y147274D01*
X313676Y144112D01*
X318071Y141763D01*
X322840Y140316D01*
X327800Y139828D01*
X332760Y140316D01*
X337529Y141763D01*
X341924Y144112D01*
X345776Y147274D01*
X348938Y151126D01*
X351287Y155521D01*
X352734Y160290D01*
X353222Y165250D01*
X352734Y170210D01*
X351287Y174979D01*
X348938Y179374D01*
X345776Y183226D01*
X341924Y186388D01*
X337529Y188737D01*
X332760Y190184D01*
X327800Y190672D01*
D02*
G37*
G36*
X324500Y290750D02*
X306500D01*
Y272750D01*
X324500D01*
Y290750D01*
D02*
G37*
G36*
X422394Y401552D02*
X420013Y401238D01*
X417795Y400320D01*
X415890Y398858D01*
X414428Y396953D01*
X413509Y394734D01*
X413195Y392353D01*
X413509Y389972D01*
X414428Y387754D01*
X415890Y385849D01*
X417795Y384387D01*
X420013Y383468D01*
X422394Y383154D01*
X424775Y383468D01*
X426993Y384387D01*
X428899Y385849D01*
X430360Y387754D01*
X431279Y389972D01*
X431593Y392353D01*
X431279Y394734D01*
X430360Y396953D01*
X428899Y398858D01*
X426993Y400320D01*
X424775Y401238D01*
X422394Y401552D01*
D02*
G37*
G36*
X215750Y366374D02*
X203500D01*
X202352Y365898D01*
X201602Y365148D01*
X198375Y361921D01*
X194648Y365648D01*
X193500Y366124D01*
X147250D01*
X146102Y365648D01*
X143602Y363148D01*
X140102Y359648D01*
X139626Y358500D01*
Y358500D01*
X139626Y358500D01*
X139626Y350750D01*
X139626Y350750D01*
Y341000D01*
X140102Y339852D01*
X144102Y335852D01*
X145250Y335376D01*
X195750D01*
X196898Y335852D01*
X199953Y338907D01*
X201126Y338421D01*
Y332500D01*
Y323923D01*
X199077Y321874D01*
X166000D01*
X164852Y321398D01*
X161852Y318398D01*
X158602Y315148D01*
X158126Y314000D01*
Y313000D01*
Y259750D01*
X158602Y258602D01*
X158922Y258282D01*
X158923Y258278D01*
Y257955D01*
X159152Y257727D01*
X159275Y257429D01*
X168102Y248602D01*
X169126Y247577D01*
Y242500D01*
Y236423D01*
X149352Y216648D01*
X148852Y216148D01*
X148376Y215000D01*
Y211500D01*
Y210500D01*
Y203250D01*
Y193250D01*
X148500Y192952D01*
Y192000D01*
X149098D01*
X150000Y191626D01*
X168000D01*
X169148Y192102D01*
X221648Y244602D01*
X221648Y244602D01*
X221648Y244602D01*
X224398Y247352D01*
X232648Y255602D01*
X233124Y256750D01*
Y258500D01*
Y311500D01*
X232648Y312648D01*
X230148Y315148D01*
X223374Y321922D01*
Y358750D01*
X222898Y359898D01*
X219648Y363148D01*
X216898Y365898D01*
X215750Y366374D01*
D02*
G37*
G36*
X211000Y452988D02*
X197500D01*
X195744Y452639D01*
X194256Y451644D01*
X193261Y450156D01*
X192912Y448400D01*
X193261Y446644D01*
X194256Y445156D01*
X195744Y444161D01*
X197500Y443812D01*
X200681D01*
Y407769D01*
X200291Y407607D01*
X198651Y406349D01*
X197393Y404709D01*
X196602Y402799D01*
X196332Y400750D01*
X196602Y398701D01*
X197393Y396791D01*
X198651Y395151D01*
X200291Y393893D01*
X202201Y393102D01*
X204250Y392832D01*
X206299Y393102D01*
X208209Y393893D01*
X209849Y395151D01*
X211107Y396791D01*
X211898Y398701D01*
X212168Y400750D01*
X211898Y402799D01*
X211107Y404709D01*
X209849Y406349D01*
X208209Y407607D01*
X207819Y407769D01*
Y443812D01*
X211000D01*
X212756Y444161D01*
X214244Y445156D01*
X215239Y446644D01*
X215588Y448400D01*
X215239Y450156D01*
X214244Y451644D01*
X212756Y452639D01*
X211000Y452988D01*
D02*
G37*
G36*
Y491088D02*
X197500D01*
X195744Y490739D01*
X194256Y489744D01*
X193261Y488256D01*
X192912Y486500D01*
X193261Y484744D01*
X193862Y483844D01*
X194256Y483256D01*
X195744Y482261D01*
X197500Y481912D01*
X211000D01*
X212756Y482261D01*
X213759Y482931D01*
X239022D01*
X247681Y474272D01*
Y432750D01*
X247953Y431384D01*
X248727Y430227D01*
X251727Y427227D01*
X252885Y426453D01*
X254250Y426181D01*
X257000D01*
Y422750D01*
X261681D01*
Y402250D01*
X257000D01*
Y388250D01*
X273500D01*
Y391681D01*
X298250D01*
Y389000D01*
X316250D01*
Y402000D01*
X298250D01*
Y398819D01*
X273500D01*
Y402250D01*
X268818D01*
Y422750D01*
X273500D01*
Y436750D01*
X257000D01*
Y433318D01*
X255728D01*
X254819Y434228D01*
Y475750D01*
X254547Y477116D01*
X253773Y478273D01*
X249547Y482500D01*
X243023Y489023D01*
X241866Y489797D01*
X240500Y490069D01*
X213759D01*
X212756Y490739D01*
X211000Y491088D01*
D02*
G37*
G36*
X1113250Y502888D02*
X1085700D01*
X1083944Y502539D01*
X1082456Y501544D01*
X1074506Y493594D01*
X1073511Y492106D01*
X1073162Y490350D01*
Y466651D01*
X993506Y386994D01*
X992511Y385506D01*
X992162Y383750D01*
Y374750D01*
X991000D01*
Y356750D01*
X992162D01*
Y337750D01*
X989750D01*
Y321250D01*
X1003750D01*
Y337750D01*
X1001338D01*
Y356750D01*
X1004000D01*
Y374750D01*
X1001338D01*
Y381850D01*
X1080994Y461506D01*
X1081989Y462994D01*
X1082338Y464750D01*
Y488450D01*
X1087600Y493712D01*
X1113250D01*
X1115006Y494061D01*
X1116494Y495056D01*
X1117489Y496544D01*
X1117838Y498300D01*
X1117489Y500056D01*
X1116494Y501544D01*
X1115006Y502539D01*
X1113250Y502888D01*
D02*
G37*
G36*
X1022750Y337750D02*
X1008750D01*
Y321250D01*
X1022750D01*
Y325931D01*
X1041022D01*
X1043767Y323187D01*
X1044924Y322413D01*
X1046290Y322141D01*
X1049500D01*
Y318710D01*
X1083000D01*
Y332710D01*
X1049500D01*
Y329279D01*
X1047768D01*
X1045023Y332023D01*
X1043866Y332797D01*
X1042500Y333069D01*
X1022750D01*
Y337750D01*
D02*
G37*
G36*
X447794Y376152D02*
X445413Y375838D01*
X443195Y374920D01*
X441290Y373458D01*
X439828Y371553D01*
X438909Y369334D01*
X438596Y366953D01*
X438909Y364572D01*
X439828Y362354D01*
X441290Y360449D01*
X443195Y358987D01*
X445413Y358068D01*
X447794Y357755D01*
X450175Y358068D01*
X452393Y358987D01*
X454299Y360449D01*
X455760Y362354D01*
X456679Y364572D01*
X456993Y366953D01*
X456679Y369334D01*
X455760Y371553D01*
X454299Y373458D01*
X452393Y374920D01*
X450175Y375838D01*
X447794Y376152D01*
D02*
G37*
G36*
X422394Y350752D02*
X420013Y350438D01*
X417795Y349520D01*
X415890Y348058D01*
X414428Y346152D01*
X413509Y343934D01*
X413195Y341553D01*
X413509Y339172D01*
X414428Y336954D01*
X415890Y335049D01*
X417795Y333587D01*
X420013Y332668D01*
X422394Y332355D01*
X424775Y332668D01*
X426993Y333587D01*
X428899Y335049D01*
X430360Y336954D01*
X431279Y339172D01*
X431593Y341553D01*
X431279Y343934D01*
X430360Y346152D01*
X428899Y348058D01*
X426993Y349520D01*
X424775Y350438D01*
X422394Y350752D01*
D02*
G37*
G36*
X447794Y553952D02*
X445413Y553638D01*
X443195Y552719D01*
X441290Y551258D01*
X439828Y549352D01*
X438909Y547134D01*
X438596Y544753D01*
X438909Y542372D01*
X439828Y540154D01*
X441290Y538249D01*
X443195Y536787D01*
X445413Y535868D01*
X447794Y535555D01*
X450175Y535868D01*
X452393Y536787D01*
X454299Y538249D01*
X455760Y540154D01*
X456679Y542372D01*
X456993Y544753D01*
X456679Y547134D01*
X455760Y549352D01*
X454299Y551258D01*
X454125Y551391D01*
D01*
X452393Y552719D01*
X450175Y553638D01*
X447794Y553952D01*
D02*
G37*
G36*
Y757152D02*
X445413Y756838D01*
X443195Y755919D01*
X441290Y754458D01*
X439828Y752552D01*
X438909Y750334D01*
X438596Y747953D01*
X438909Y745572D01*
X439828Y743354D01*
X441290Y741449D01*
X443195Y739987D01*
X445413Y739068D01*
X447794Y738755D01*
X450175Y739068D01*
X452393Y739987D01*
X454299Y741449D01*
X455760Y743354D01*
X456679Y745572D01*
X456993Y747953D01*
X456679Y750334D01*
X455760Y752552D01*
X454299Y754458D01*
X452393Y755919D01*
X450175Y756838D01*
X447794Y757152D01*
D02*
G37*
G36*
X422394D02*
X420013Y756838D01*
X417795Y755919D01*
X415890Y754458D01*
X414428Y752552D01*
X413509Y750334D01*
X413195Y747953D01*
X413509Y745572D01*
X414428Y743354D01*
X415890Y741449D01*
X417795Y739987D01*
X420013Y739068D01*
X422394Y738755D01*
X424775Y739068D01*
X426993Y739987D01*
X428899Y741449D01*
X430360Y743354D01*
X431279Y745572D01*
X431593Y747953D01*
X431279Y750334D01*
X430360Y752552D01*
X428899Y754458D01*
X426993Y755919D01*
X424775Y756838D01*
X422394Y757152D01*
D02*
G37*
G36*
X447794Y782552D02*
X445413Y782238D01*
X443195Y781320D01*
X441290Y779858D01*
X439828Y777952D01*
X438909Y775734D01*
X438596Y773353D01*
X438909Y770972D01*
X439828Y768754D01*
X441290Y766849D01*
X443195Y765387D01*
X445413Y764468D01*
X447794Y764155D01*
X450175Y764468D01*
X452393Y765387D01*
X454299Y766849D01*
X455760Y768754D01*
X456679Y770972D01*
X456993Y773353D01*
X456679Y775734D01*
X455760Y777952D01*
X454299Y779858D01*
X452393Y781320D01*
X450175Y782238D01*
X447794Y782552D01*
D02*
G37*
G36*
X422394D02*
X420013Y782238D01*
X417795Y781320D01*
X415890Y779858D01*
X414428Y777952D01*
X413509Y775734D01*
X413195Y773353D01*
X413509Y770972D01*
X414428Y768754D01*
X415890Y766849D01*
X417795Y765387D01*
X420013Y764468D01*
X422394Y764155D01*
X424775Y764468D01*
X426993Y765387D01*
X428899Y766849D01*
X430360Y768754D01*
X431279Y770972D01*
X431593Y773353D01*
X431279Y775734D01*
X430360Y777952D01*
X428899Y779858D01*
X426993Y781320D01*
X424775Y782238D01*
X422394Y782552D01*
D02*
G37*
G36*
X265400Y731728D02*
X255400D01*
X253050Y731418D01*
X250861Y730511D01*
X248981Y729069D01*
X247539Y727189D01*
X246632Y724999D01*
X246322Y722650D01*
X246632Y720301D01*
X247539Y718111D01*
X248981Y716231D01*
X250861Y714789D01*
X253050Y713882D01*
X255400Y713572D01*
X265400D01*
X267750Y713882D01*
X269939Y714789D01*
X271819Y716231D01*
X273262Y718111D01*
X274168Y720301D01*
X274478Y722650D01*
X274168Y724999D01*
X273262Y727189D01*
X271819Y729069D01*
X269939Y730511D01*
X267750Y731418D01*
X265400Y731728D01*
D02*
G37*
G36*
X447794Y731752D02*
X445413Y731438D01*
X443195Y730519D01*
X441290Y729058D01*
X439828Y727152D01*
X438909Y724934D01*
X438596Y722553D01*
X438909Y720172D01*
X439828Y717954D01*
X441290Y716049D01*
X443195Y714587D01*
X445413Y713668D01*
X447794Y713354D01*
X450175Y713668D01*
X452393Y714587D01*
X454299Y716049D01*
X455760Y717954D01*
X456679Y720172D01*
X456993Y722553D01*
X456679Y724934D01*
X455760Y727152D01*
X454299Y729058D01*
X452393Y730519D01*
X450175Y731438D01*
X447794Y731752D01*
D02*
G37*
G36*
X1039670Y747928D02*
X1029670D01*
X1027320Y747618D01*
X1025131Y746712D01*
X1023251Y745269D01*
X1021808Y743389D01*
X1021407Y742419D01*
X1015350D01*
X1013984Y742147D01*
X1012827Y741373D01*
X975727Y704273D01*
X974953Y703116D01*
X974681Y701750D01*
Y684757D01*
X974431Y683500D01*
Y654769D01*
X974041Y654607D01*
X972401Y653349D01*
X971143Y651709D01*
X970352Y649799D01*
X970082Y647750D01*
X970352Y645701D01*
X971143Y643791D01*
X972401Y642151D01*
X974041Y640893D01*
X975951Y640102D01*
X978000Y639832D01*
X980049Y640102D01*
X981959Y640893D01*
X983599Y642151D01*
X984857Y643791D01*
X985648Y645701D01*
X985918Y647750D01*
X985648Y649799D01*
X984857Y651709D01*
X983599Y653349D01*
X981959Y654607D01*
X981569Y654769D01*
Y679743D01*
X981819Y681000D01*
Y682743D01*
X982069Y684000D01*
X981819Y685257D01*
Y700272D01*
X1016828Y735281D01*
X1021407D01*
X1021808Y734311D01*
X1023251Y732431D01*
X1025131Y730989D01*
X1027320Y730082D01*
X1029670Y729772D01*
X1039670D01*
X1042020Y730082D01*
X1044209Y730989D01*
X1046089Y732431D01*
X1047532Y734311D01*
X1048438Y736500D01*
X1048748Y738850D01*
X1048438Y741199D01*
X1047532Y743389D01*
X1046089Y745269D01*
X1044209Y746712D01*
X1042020Y747618D01*
X1039670Y747928D01*
D02*
G37*
G36*
X308580Y744428D02*
X298580D01*
X296231Y744118D01*
X294041Y743212D01*
X292161Y741769D01*
X290718Y739889D01*
X289812Y737700D01*
X289502Y735350D01*
X289812Y733000D01*
X290718Y730811D01*
X292161Y728931D01*
X294041Y727489D01*
X296231Y726582D01*
X298580Y726272D01*
X308580D01*
X310930Y726582D01*
X313119Y727489D01*
X314999Y728931D01*
X316441Y730811D01*
X317348Y733000D01*
X317658Y735350D01*
X317348Y737700D01*
X316441Y739889D01*
X314999Y741769D01*
X313119Y743212D01*
X310930Y744118D01*
X308580Y744428D01*
D02*
G37*
G36*
X422394Y807952D02*
X420013Y807638D01*
X417795Y806720D01*
X415890Y805258D01*
X414428Y803353D01*
X413509Y801134D01*
X413195Y798753D01*
X413509Y796372D01*
X414428Y794154D01*
X415890Y792249D01*
X417795Y790787D01*
X420013Y789868D01*
X422394Y789555D01*
X424775Y789868D01*
X426993Y790787D01*
X428899Y792249D01*
X430360Y794154D01*
X431279Y796372D01*
X431593Y798753D01*
X431279Y801134D01*
X430360Y803353D01*
X428899Y805258D01*
X426993Y806720D01*
X424775Y807638D01*
X422394Y807952D01*
D02*
G37*
G36*
X447794Y858752D02*
X445413Y858438D01*
X443195Y857520D01*
X441290Y856058D01*
X439828Y854153D01*
X438909Y851934D01*
X438596Y849553D01*
X438909Y847172D01*
X439828Y844954D01*
X441290Y843049D01*
X443195Y841587D01*
X445413Y840668D01*
X447794Y840355D01*
X450175Y840668D01*
X452393Y841587D01*
X454299Y843049D01*
X455760Y844954D01*
X456679Y847172D01*
X456993Y849553D01*
X456679Y851934D01*
X455760Y854153D01*
X454299Y856058D01*
X452393Y857520D01*
X450175Y858438D01*
X447794Y858752D01*
D02*
G37*
G36*
X422394D02*
X420013Y858438D01*
X417795Y857520D01*
X415890Y856058D01*
X414428Y854153D01*
X413509Y851934D01*
X413195Y849553D01*
X413509Y847172D01*
X414428Y844954D01*
X415890Y843049D01*
X417795Y841587D01*
X420013Y840668D01*
X422394Y840355D01*
X424775Y840668D01*
X426993Y841587D01*
X428899Y843049D01*
X430360Y844954D01*
X431279Y847172D01*
X431593Y849553D01*
X431279Y851934D01*
X430360Y854153D01*
X428899Y856058D01*
X426993Y857520D01*
X424775Y858438D01*
X422394Y858752D01*
D02*
G37*
G36*
X1291500Y969823D02*
X1288560Y969533D01*
X1285732Y968675D01*
X1283126Y967282D01*
X1280842Y965408D01*
X1278968Y963124D01*
X1277575Y960518D01*
X1276717Y957691D01*
X1276427Y954750D01*
X1276717Y951809D01*
X1277575Y948982D01*
X1278968Y946376D01*
X1280842Y944092D01*
X1283126Y942218D01*
X1285732Y940825D01*
X1288560Y939967D01*
X1291500Y939677D01*
X1294440Y939967D01*
X1297268Y940825D01*
X1299874Y942218D01*
X1302158Y944092D01*
X1304032Y946376D01*
X1305425Y948982D01*
X1306283Y951809D01*
X1306573Y954750D01*
X1306283Y957691D01*
X1305425Y960518D01*
X1304032Y963124D01*
X1302158Y965408D01*
X1299874Y967282D01*
X1297268Y968675D01*
X1294440Y969533D01*
X1291500Y969823D01*
D02*
G37*
G36*
X1322000Y869728D02*
X1319651Y869418D01*
X1317461Y868512D01*
X1315581Y867069D01*
X1314138Y865189D01*
X1313232Y862999D01*
X1312922Y860650D01*
X1313232Y858300D01*
X1314138Y856111D01*
X1315581Y854231D01*
X1317461Y852789D01*
X1319651Y851882D01*
X1322000Y851572D01*
X1324350Y851882D01*
X1326539Y852789D01*
X1328419Y854231D01*
X1329861Y856111D01*
X1330768Y858300D01*
X1331078Y860650D01*
X1330768Y862999D01*
X1329861Y865189D01*
X1328419Y867069D01*
X1326539Y868512D01*
X1324350Y869418D01*
X1322000Y869728D01*
D02*
G37*
G36*
X422394Y833352D02*
X420013Y833038D01*
X417795Y832120D01*
X415890Y830658D01*
X414428Y828753D01*
X413509Y826534D01*
X413195Y824153D01*
X413509Y821772D01*
X414428Y819554D01*
X415890Y817649D01*
X417795Y816187D01*
X420013Y815268D01*
X422394Y814955D01*
X424775Y815268D01*
X426993Y816187D01*
X428899Y817649D01*
X430360Y819554D01*
X431279Y821772D01*
X431593Y824153D01*
X431279Y826534D01*
X430360Y828753D01*
X428899Y830658D01*
X426993Y832120D01*
X424775Y833038D01*
X422394Y833352D01*
D02*
G37*
G36*
X447794Y807952D02*
X445413Y807638D01*
X443195Y806720D01*
X441290Y805258D01*
X439828Y803353D01*
X438909Y801134D01*
X438596Y798753D01*
X438909Y796372D01*
X439828Y794154D01*
X441290Y792249D01*
X443195Y790787D01*
X445413Y789868D01*
X447794Y789555D01*
X450175Y789868D01*
X452393Y790787D01*
X454299Y792249D01*
X455760Y794154D01*
X456679Y796372D01*
X456993Y798753D01*
X456679Y801134D01*
X455760Y803353D01*
X454299Y805258D01*
X452393Y806720D01*
X450175Y807638D01*
X447794Y807952D01*
D02*
G37*
G36*
X1331000Y844250D02*
X1313000D01*
Y826250D01*
X1331000D01*
Y844250D01*
D02*
G37*
G36*
X447794Y833352D02*
X445413Y833038D01*
X443195Y832120D01*
X441290Y830658D01*
X439828Y828753D01*
X438909Y826534D01*
X438596Y824153D01*
X438909Y821772D01*
X439828Y819554D01*
X441290Y817649D01*
X443195Y816187D01*
X445413Y815268D01*
X447794Y814955D01*
X450175Y815268D01*
X452393Y816187D01*
X454299Y817649D01*
X455760Y819554D01*
X456679Y821772D01*
X456993Y824153D01*
X456679Y826534D01*
X455760Y828753D01*
X454299Y830658D01*
X452393Y832120D01*
X450175Y833038D01*
X447794Y833352D01*
D02*
G37*
G36*
X422394Y731752D02*
X420013Y731438D01*
X417795Y730519D01*
X415890Y729058D01*
X414428Y727152D01*
X413509Y724934D01*
X413195Y722553D01*
X413509Y720172D01*
X414428Y717954D01*
X415890Y716049D01*
X417795Y714587D01*
X420013Y713668D01*
X422394Y713354D01*
X424775Y713668D01*
X426993Y714587D01*
X428899Y716049D01*
X430360Y717954D01*
X431279Y720172D01*
X431593Y722553D01*
X431279Y724934D01*
X430360Y727152D01*
X428899Y729058D01*
X426993Y730519D01*
X424775Y731438D01*
X422394Y731752D01*
D02*
G37*
G36*
X1039670Y671728D02*
X1029670D01*
X1027320Y671418D01*
X1025131Y670511D01*
X1023251Y669069D01*
X1021808Y667189D01*
X1020902Y664999D01*
X1020592Y662650D01*
X1020902Y660301D01*
X1021808Y658111D01*
X1023251Y656231D01*
X1025131Y654789D01*
X1027320Y653882D01*
X1029670Y653572D01*
X1039670D01*
X1042020Y653882D01*
X1044209Y654789D01*
X1046089Y656231D01*
X1047532Y658111D01*
X1048438Y660301D01*
X1048748Y662650D01*
X1048438Y664999D01*
X1047532Y667189D01*
X1046089Y669069D01*
X1044209Y670511D01*
X1042020Y671418D01*
X1039670Y671728D01*
D02*
G37*
G36*
X447794Y655552D02*
X445413Y655238D01*
X443195Y654320D01*
X441290Y652858D01*
X439828Y650953D01*
X438909Y648734D01*
X438596Y646353D01*
X438909Y643972D01*
X439828Y641754D01*
X441290Y639849D01*
X443195Y638387D01*
X445413Y637468D01*
X447794Y637155D01*
X450175Y637468D01*
X452393Y638387D01*
X454299Y639849D01*
X455760Y641754D01*
X456679Y643972D01*
X456993Y646353D01*
X456679Y648734D01*
X455760Y650953D01*
X454299Y652858D01*
X452393Y654320D01*
X450175Y655238D01*
X447794Y655552D01*
D02*
G37*
G36*
X422394Y680952D02*
X420013Y680638D01*
X417795Y679719D01*
X415890Y678258D01*
X414428Y676352D01*
X413509Y674134D01*
X413195Y671753D01*
X413509Y669372D01*
X414428Y667154D01*
X415890Y665249D01*
X417795Y663787D01*
X420013Y662868D01*
X422394Y662554D01*
X424775Y662868D01*
X426993Y663787D01*
X428899Y665249D01*
X430360Y667154D01*
X431279Y669372D01*
X431593Y671753D01*
X431279Y674134D01*
X430360Y676352D01*
X428899Y678258D01*
X426993Y679719D01*
X424775Y680638D01*
X422394Y680952D01*
D02*
G37*
G36*
X265400Y680928D02*
X255400D01*
X253050Y680618D01*
X250861Y679712D01*
X248981Y678269D01*
X247539Y676389D01*
X246632Y674200D01*
X246322Y671850D01*
X246632Y669501D01*
X247539Y667311D01*
X248981Y665431D01*
X250861Y663989D01*
X253050Y663082D01*
X255400Y662772D01*
X265400D01*
X267750Y663082D01*
X269939Y663989D01*
X271819Y665431D01*
X273262Y667311D01*
X274168Y669501D01*
X274478Y671850D01*
X274168Y674200D01*
X273262Y676389D01*
X271819Y678269D01*
X269939Y679712D01*
X267750Y680618D01*
X265400Y680928D01*
D02*
G37*
G36*
X447794Y680952D02*
X445413Y680638D01*
X443195Y679719D01*
X441290Y678258D01*
X439828Y676352D01*
X438909Y674134D01*
X438596Y671753D01*
X438909Y669372D01*
X439828Y667154D01*
X441290Y665249D01*
X443195Y663787D01*
X445413Y662868D01*
X447794Y662554D01*
X450175Y662868D01*
X452393Y663787D01*
X454299Y665249D01*
X455760Y667154D01*
X456679Y669372D01*
X456993Y671753D01*
X456679Y674134D01*
X455760Y676352D01*
X454299Y678258D01*
X452393Y679719D01*
X450175Y680638D01*
X447794Y680952D01*
D02*
G37*
G36*
X308580Y668228D02*
X298580D01*
X296231Y667918D01*
X294041Y667011D01*
X292161Y665569D01*
X290718Y663689D01*
X289812Y661499D01*
X289502Y659150D01*
X289812Y656801D01*
X290718Y654611D01*
X292161Y652731D01*
X294041Y651289D01*
X296231Y650382D01*
X298580Y650072D01*
X308580D01*
X310930Y650382D01*
X313119Y651289D01*
X314999Y652731D01*
X316441Y654611D01*
X316843Y655581D01*
X333872D01*
X385764Y603689D01*
X385602Y603299D01*
X385332Y601250D01*
X385602Y599201D01*
X386393Y597291D01*
X387651Y595651D01*
X389291Y594393D01*
X391201Y593602D01*
X393250Y593332D01*
X395299Y593602D01*
X397209Y594393D01*
X398849Y595651D01*
X400107Y597291D01*
X400898Y599201D01*
X401168Y601250D01*
X400898Y603299D01*
X400107Y605209D01*
X398849Y606849D01*
X397209Y608107D01*
X395299Y608898D01*
X393250Y609168D01*
X391201Y608898D01*
X390811Y608736D01*
X337873Y661673D01*
X336716Y662447D01*
X335350Y662719D01*
X316843D01*
X316441Y663689D01*
X314999Y665569D01*
X313119Y667011D01*
X310930Y667918D01*
X308580Y668228D01*
D02*
G37*
G36*
X1198500Y582750D02*
X1173500D01*
Y578819D01*
X1173500D01*
X1172134Y578547D01*
X1170977Y577773D01*
X1133172Y539969D01*
X1116009D01*
X1115006Y540639D01*
X1113250Y540988D01*
X1099750D01*
X1097994Y540639D01*
X1096506Y539644D01*
X1095511Y538156D01*
X1095162Y536400D01*
X1095511Y534644D01*
X1096506Y533156D01*
X1097994Y532161D01*
X1099750Y531812D01*
X1113250D01*
X1115006Y532161D01*
X1116009Y532831D01*
X1134650D01*
X1136016Y533103D01*
X1137173Y533877D01*
X1172327Y569030D01*
X1173500Y568544D01*
Y567750D01*
X1198500D01*
Y582750D01*
D02*
G37*
G36*
X422394Y630152D02*
X420013Y629838D01*
X417795Y628919D01*
X415890Y627458D01*
X414428Y625552D01*
X413509Y623334D01*
X413195Y620953D01*
X413509Y618572D01*
X414428Y616354D01*
X415890Y614449D01*
X417795Y612987D01*
X420013Y612068D01*
X422394Y611754D01*
X424775Y612068D01*
X426993Y612987D01*
X428899Y614449D01*
X430360Y616354D01*
X431279Y618572D01*
X431593Y620953D01*
X431279Y623334D01*
X430360Y625552D01*
X428899Y627458D01*
X426993Y628919D01*
X424775Y629838D01*
X422394Y630152D01*
D02*
G37*
G36*
Y655552D02*
X420013Y655238D01*
X417795Y654320D01*
X415890Y652858D01*
X414428Y650953D01*
X413509Y648734D01*
X413195Y646353D01*
X413509Y643972D01*
X414428Y641754D01*
X415890Y639849D01*
X417795Y638387D01*
X420013Y637468D01*
X422394Y637155D01*
X424775Y637468D01*
X426993Y638387D01*
X428899Y639849D01*
X430360Y641754D01*
X431279Y643972D01*
X431593Y646353D01*
X431279Y648734D01*
X430360Y650953D01*
X428899Y652858D01*
X426993Y654320D01*
X424775Y655238D01*
X422394Y655552D01*
D02*
G37*
G36*
X447794Y630152D02*
X445413Y629838D01*
X443195Y628919D01*
X441290Y627458D01*
X439828Y625552D01*
X438909Y623334D01*
X438596Y620953D01*
X438909Y618572D01*
X439828Y616354D01*
X441290Y614449D01*
X443195Y612987D01*
X445413Y612068D01*
X447794Y611754D01*
X450175Y612068D01*
X452393Y612987D01*
X454299Y614449D01*
X455760Y616354D01*
X456679Y618572D01*
X456993Y620953D01*
X456679Y623334D01*
X455760Y625552D01*
X454299Y627458D01*
X452393Y628919D01*
X450175Y629838D01*
X447794Y630152D01*
D02*
G37*
G36*
X422394Y706352D02*
X420013Y706038D01*
X417795Y705119D01*
X415890Y703658D01*
X414428Y701752D01*
X413509Y699534D01*
X413195Y697153D01*
X413509Y694772D01*
X414428Y692554D01*
X415890Y690649D01*
X417795Y689187D01*
X420013Y688268D01*
X422394Y687954D01*
X424775Y688268D01*
X426993Y689187D01*
X428899Y690649D01*
X430360Y692554D01*
X431279Y694772D01*
X431593Y697153D01*
X431279Y699534D01*
X430360Y701752D01*
X428899Y703658D01*
X426993Y705119D01*
X424775Y706038D01*
X422394Y706352D01*
D02*
G37*
G36*
X1039670Y697128D02*
X1029670D01*
X1027320Y696818D01*
X1025131Y695911D01*
X1023251Y694469D01*
X1021808Y692589D01*
X1020902Y690399D01*
X1020592Y688050D01*
X1020902Y685701D01*
X1021808Y683511D01*
X1023251Y681631D01*
X1025131Y680189D01*
X1027320Y679282D01*
X1029670Y678972D01*
X1039670D01*
X1042020Y679282D01*
X1044209Y680189D01*
X1046089Y681631D01*
X1047532Y683511D01*
X1048438Y685701D01*
X1048748Y688050D01*
X1048438Y690399D01*
X1047532Y692589D01*
X1046089Y694469D01*
X1044209Y695911D01*
X1042020Y696818D01*
X1039670Y697128D01*
D02*
G37*
G36*
X447794Y706352D02*
X445413Y706038D01*
X443195Y705119D01*
X441290Y703658D01*
X439828Y701752D01*
X438909Y699534D01*
X438596Y697153D01*
X438909Y694772D01*
X439828Y692554D01*
X441290Y690649D01*
X443195Y689187D01*
X445413Y688268D01*
X447794Y687954D01*
X450175Y688268D01*
X452393Y689187D01*
X454299Y690649D01*
X455760Y692554D01*
X456679Y694772D01*
X456993Y697153D01*
X456679Y699534D01*
X455760Y701752D01*
X454299Y703658D01*
X452393Y705119D01*
X450175Y706038D01*
X447794Y706352D01*
D02*
G37*
G36*
X1039670Y722528D02*
X1029670D01*
X1027320Y722218D01*
X1025131Y721311D01*
X1023251Y719869D01*
X1021808Y717989D01*
X1020902Y715799D01*
X1020592Y713450D01*
X1020902Y711100D01*
X1021808Y708911D01*
X1023251Y707031D01*
X1025131Y705589D01*
X1027320Y704682D01*
X1029670Y704372D01*
X1039670D01*
X1042020Y704682D01*
X1044209Y705589D01*
X1046089Y707031D01*
X1047532Y708911D01*
X1048438Y711100D01*
X1048748Y713450D01*
X1048438Y715799D01*
X1047532Y717989D01*
X1046089Y719869D01*
X1044209Y721311D01*
X1042020Y722218D01*
X1039670Y722528D01*
D02*
G37*
G36*
X308580Y719028D02*
X298580D01*
X296231Y718718D01*
X294041Y717812D01*
X292161Y716369D01*
X290718Y714489D01*
X289812Y712299D01*
X289502Y709950D01*
X289812Y707600D01*
X290718Y705411D01*
X292161Y703531D01*
X294041Y702089D01*
X296231Y701182D01*
X298580Y700872D01*
X308580D01*
X310930Y701182D01*
X313119Y702089D01*
X314999Y703531D01*
X316441Y705411D01*
X317348Y707600D01*
X317658Y709950D01*
X317348Y712299D01*
X316441Y714489D01*
X314999Y716369D01*
X313119Y717812D01*
X310930Y718718D01*
X308580Y719028D01*
D02*
G37*
G36*
Y693628D02*
X298580D01*
X296231Y693318D01*
X294041Y692411D01*
X292161Y690969D01*
X290718Y689089D01*
X289812Y686899D01*
X289502Y684550D01*
X289812Y682200D01*
X290718Y680011D01*
X292161Y678131D01*
X294041Y676689D01*
X296231Y675782D01*
X298580Y675472D01*
X308580D01*
X310930Y675782D01*
X313119Y676689D01*
X314999Y678131D01*
X316441Y680011D01*
X317348Y682200D01*
X317658Y684550D01*
X317348Y686899D01*
X316441Y689089D01*
X314999Y690969D01*
X313119Y692411D01*
X310930Y693318D01*
X308580Y693628D01*
D02*
G37*
G36*
X1082850Y684428D02*
X1072850D01*
X1070500Y684118D01*
X1068311Y683212D01*
X1066431Y681769D01*
X1064988Y679889D01*
X1064082Y677700D01*
X1063772Y675350D01*
X1064082Y673000D01*
X1064988Y670811D01*
X1066431Y668931D01*
X1068311Y667489D01*
X1070500Y666582D01*
X1072850Y666272D01*
X1082850D01*
X1085200Y666582D01*
X1087389Y667489D01*
X1089269Y668931D01*
X1090712Y670811D01*
X1091618Y673000D01*
X1091928Y675350D01*
X1091618Y677700D01*
X1090712Y679889D01*
X1089269Y681769D01*
X1087389Y683212D01*
X1085200Y684118D01*
X1082850Y684428D01*
D02*
G37*
%LPD*%
G36*
X104500Y272750D02*
X108500Y268750D01*
X145500D01*
X145750Y268500D01*
X148500Y265750D01*
Y260250D01*
X148750Y260000D01*
Y259750D01*
Y255250D01*
X148250Y254750D01*
X145750Y252250D01*
X109500D01*
X107250Y254500D01*
X102750Y259000D01*
X100250D01*
X99750Y258500D01*
X98250Y257000D01*
X84000D01*
X83750Y257250D01*
X81250Y259750D01*
Y260750D01*
Y273500D01*
X81500Y273750D01*
X83750Y276000D01*
X101250D01*
X104500Y272750D01*
D02*
G37*
G36*
X1021126Y333069D02*
X1021602Y331921D01*
X1022750Y331445D01*
X1042340D01*
X1043232Y331268D01*
X1043988Y330762D01*
X1046620Y328130D01*
X1047768Y327655D01*
X1049500D01*
X1050648Y328130D01*
X1051124Y329279D01*
Y331086D01*
X1081376D01*
Y320750D01*
Y320334D01*
X1051124D01*
Y320750D01*
Y322141D01*
X1050648Y323289D01*
X1049500Y323765D01*
X1046450D01*
X1045558Y323942D01*
X1044802Y324448D01*
X1042170Y327080D01*
X1041022Y327555D01*
X1022750D01*
X1021602Y327080D01*
X1021126Y325931D01*
Y322874D01*
X1010374D01*
Y332376D01*
Y336126D01*
X1021126D01*
Y333069D01*
D02*
G37*
G36*
X218500Y362000D02*
X221750Y358750D01*
Y321750D01*
Y321250D01*
X229000Y314000D01*
X231500Y311500D01*
Y258500D01*
Y256750D01*
X223250Y248500D01*
X220500Y245750D01*
X168000Y193250D01*
X150000D01*
Y203250D01*
Y210500D01*
Y211500D01*
Y215000D01*
X150500Y215500D01*
X170750Y235750D01*
Y242500D01*
Y248250D01*
X169250Y249750D01*
X160423Y258577D01*
X160570Y258930D01*
X159750Y259750D01*
Y313000D01*
Y314000D01*
X163000Y317250D01*
X166000Y320250D01*
X199750D01*
X202500Y323000D01*
X202750Y323250D01*
Y332500D01*
Y340500D01*
X201124Y342126D01*
Y343750D01*
Y358500D01*
X200648Y359648D01*
X199523Y360773D01*
X202750Y364000D01*
X203500Y364750D01*
X215750D01*
X218500Y362000D01*
D02*
G37*
G36*
X198000Y360000D02*
X199500Y358500D01*
Y343750D01*
Y340750D01*
X195750Y337000D01*
X145250D01*
X141250Y341000D01*
Y350750D01*
X141250Y350750D01*
X141250Y358500D01*
X141250Y358500D01*
X141250D01*
Y358500D01*
X144750Y362000D01*
X147250Y364500D01*
X193500D01*
X198000Y360000D01*
D02*
G37*
D10*
X666000Y676450D02*
D03*
Y689150D02*
D03*
Y701850D02*
D03*
Y714550D02*
D03*
X615000Y676450D02*
D03*
Y689150D02*
D03*
Y701850D02*
D03*
Y714550D02*
D03*
X153250Y524600D02*
D03*
Y511900D02*
D03*
Y499200D02*
D03*
Y486500D02*
D03*
Y473800D02*
D03*
Y461100D02*
D03*
Y448400D02*
D03*
X204250Y524600D02*
D03*
Y511900D02*
D03*
Y499200D02*
D03*
Y486500D02*
D03*
Y473800D02*
D03*
Y461100D02*
D03*
Y448400D02*
D03*
X1106500Y472900D02*
D03*
Y485600D02*
D03*
Y498300D02*
D03*
Y511000D02*
D03*
Y523700D02*
D03*
Y536400D02*
D03*
Y549100D02*
D03*
X1055500Y472900D02*
D03*
Y485600D02*
D03*
Y498300D02*
D03*
Y511000D02*
D03*
Y523700D02*
D03*
Y536400D02*
D03*
Y549100D02*
D03*
D11*
X753750Y415500D02*
D03*
Y432500D02*
D03*
X73750Y512750D02*
D03*
Y495750D02*
D03*
X705750Y585250D02*
D03*
Y602250D02*
D03*
X73000Y446000D02*
D03*
Y463000D02*
D03*
X307250Y378500D02*
D03*
Y395500D02*
D03*
X307000Y448750D02*
D03*
Y431750D02*
D03*
X1000500Y475500D02*
D03*
Y492500D02*
D03*
X999250Y547250D02*
D03*
Y530250D02*
D03*
X1262750Y462000D02*
D03*
Y479000D02*
D03*
X1261500Y407500D02*
D03*
Y424500D02*
D03*
D12*
X149000Y348500D02*
D03*
X132000D02*
D03*
X1073750Y415500D02*
D03*
X1090750D02*
D03*
X71000Y301500D02*
D03*
X88000D02*
D03*
X155000Y201000D02*
D03*
X138000D02*
D03*
X1113250Y256250D02*
D03*
X1130250D02*
D03*
X363500Y352750D02*
D03*
X346500D02*
D03*
X1014500Y365750D02*
D03*
X997500D02*
D03*
X1208000Y308250D02*
D03*
X1225000D02*
D03*
X504000Y717750D02*
D03*
X521000D02*
D03*
X522000Y685500D02*
D03*
X505000D02*
D03*
X764500Y800250D02*
D03*
X747500D02*
D03*
D13*
X625250Y793000D02*
D03*
X607250D02*
D03*
D14*
X1254500Y368000D02*
D03*
X1236000Y361250D02*
D03*
Y374500D02*
D03*
X346500Y428250D02*
D03*
Y415000D02*
D03*
X365000Y421750D02*
D03*
D15*
X1260000Y550250D02*
D03*
Y575250D02*
D03*
X1186000Y550250D02*
D03*
Y575250D02*
D03*
X269500Y507250D02*
D03*
Y482250D02*
D03*
X343500Y507250D02*
D03*
Y482250D02*
D03*
D16*
X130000Y310790D02*
D03*
Y260210D02*
D03*
X1066250Y325710D02*
D03*
Y376290D02*
D03*
D17*
X194500Y285500D02*
D03*
X1130750Y351000D02*
D03*
D18*
X734960Y669750D02*
D03*
X785540D02*
D03*
D19*
X760250Y734250D02*
D03*
D20*
X89500Y267500D02*
D03*
X70500D02*
D03*
X996750Y329500D02*
D03*
X1015750D02*
D03*
D21*
X265250Y448750D02*
D03*
Y429750D02*
D03*
Y376250D02*
D03*
Y395250D02*
D03*
X644500Y558750D02*
D03*
Y577750D02*
D03*
X629250Y322250D02*
D03*
Y341250D02*
D03*
X1204000Y458000D02*
D03*
Y477000D02*
D03*
X1204500Y424750D02*
D03*
Y405750D02*
D03*
X648500Y412750D02*
D03*
Y431750D02*
D03*
X574000Y340500D02*
D03*
Y321500D02*
D03*
D22*
X191500Y347750D02*
D03*
X209000D02*
D03*
X1144000Y414000D02*
D03*
X1126500D02*
D03*
D23*
X745000Y585500D02*
D03*
Y603000D02*
D03*
D24*
X624000Y844500D02*
D03*
X595000D02*
D03*
D25*
X705000Y403250D02*
D03*
Y432250D02*
D03*
D26*
X1090750Y415500D02*
X1092250Y414000D01*
X1126500D01*
Y429000D01*
X1130500Y433000D01*
X191500Y347750D02*
Y352942D01*
X210750Y312250D02*
Y349500D01*
X1124600Y112500D02*
Y144600D01*
X1174250Y194250D01*
X1130500Y433000D02*
X1155250D01*
X1174250Y414000D01*
Y194250D02*
Y414000D01*
D27*
X996750Y329500D02*
Y383750D01*
X1077750Y464750D01*
Y490350D01*
X108040Y260210D02*
X130000D01*
X100750Y267500D02*
X108040Y260210D01*
X89500Y267500D02*
X100750D01*
X71000Y365250D02*
X124250Y418500D01*
X71000Y268000D02*
Y301500D01*
Y365250D01*
X124250Y418500D02*
X150000D01*
X190000Y458500D01*
Y465000D01*
X1085700Y498300D02*
X1106500D01*
X1077750Y490350D02*
X1085700Y498300D01*
X190000Y465000D02*
X198800Y473800D01*
D28*
X763500Y457250D02*
Y491750D01*
X763250Y491500D02*
X763500Y491750D01*
X149000Y348500D02*
X190750D01*
X745000Y585500D02*
X763500Y567000D01*
X705750Y585250D02*
X706000Y585500D01*
X745000D01*
X763500Y557500D02*
Y567000D01*
D29*
X1011750Y547250D02*
X1035300Y523700D01*
X1013200D02*
X1035300D01*
X963925Y536825D02*
Y538364D01*
Y536825D02*
X982250Y518500D01*
X1008000D01*
X1013200Y523700D01*
X194500Y240500D02*
Y285500D01*
Y296000D01*
X210750Y312250D01*
X155000Y201000D02*
X194500Y240500D01*
X108000Y512750D02*
X121550Y499200D01*
X153250D01*
X73750Y512750D02*
X108000D01*
X999250Y547250D02*
X1011750D01*
X1035300Y523700D02*
X1055500D01*
X103250Y495000D02*
X117350D01*
X121550Y499200D01*
D30*
X70500Y271500D02*
Y301500D01*
X1174250Y172750D02*
X1185500D01*
X1194250Y181500D01*
X1206500Y306750D02*
X1208000Y308250D01*
X1206500Y243250D02*
Y306750D01*
Y243250D02*
X1209750Y240000D01*
X1207000Y236250D02*
Y240000D01*
X978250Y701750D02*
X1015350Y738850D01*
X978250Y681000D02*
Y701750D01*
X978000Y647750D02*
Y683500D01*
X1254500Y361000D02*
X1276750Y338750D01*
X1254500Y361000D02*
Y368000D01*
X1204500Y405750D02*
X1206250Y404000D01*
Y372550D02*
Y404000D01*
X1290000Y336000D02*
Y520250D01*
X1277500Y323500D02*
X1290000Y336000D01*
X1216000Y323500D02*
X1277500D01*
X1208000Y315500D02*
X1216000Y323500D01*
X1225000Y308250D02*
X1288000D01*
X1260000Y550250D02*
X1290000Y520250D01*
X1268250Y394500D02*
X1283000Y409250D01*
X1282750D02*
X1283000D01*
X1282750D02*
Y476500D01*
X1242250Y394500D02*
X1268250D01*
X1129500Y219250D02*
X1147750Y237500D01*
X1272250Y462000D02*
X1277250Y457000D01*
Y412000D02*
Y457000D01*
X1273250Y408000D02*
X1277250Y412000D01*
X1280250Y479000D02*
X1282750Y476500D01*
X265250Y448750D02*
X307000D01*
X265250Y395250D02*
Y429750D01*
X190750Y348500D02*
X191500Y347750D01*
X346500Y415000D02*
X346500Y415000D01*
X574750Y341250D02*
X629250D01*
X557000Y793000D02*
X607250D01*
X521000Y757000D02*
X557000Y793000D01*
X521000Y717750D02*
Y757000D01*
Y717750D02*
X575500D01*
X591400Y701850D01*
X615000D01*
X810750Y650750D02*
Y727250D01*
X803750Y734250D02*
X810750Y727250D01*
X760250Y734250D02*
X803750D01*
X764000Y604000D02*
X810750Y650750D01*
X346500Y428250D02*
X372450D01*
X346500Y428250D02*
X346500Y428250D01*
X1173500Y575250D02*
X1186000D01*
X1134650Y536400D02*
X1173500Y575250D01*
X1106500Y536400D02*
X1134650D01*
X1159450Y523700D02*
X1186000Y550250D01*
X1106500Y523700D02*
X1159450D01*
X1106500Y511000D02*
X1138250D01*
X203000Y486500D02*
X240500D01*
X254250Y429750D02*
X265250D01*
X240500Y486500D02*
X251250Y475750D01*
Y432750D02*
X254250Y429750D01*
X251250Y432750D02*
Y475750D01*
X88000Y301500D02*
X103500D01*
X112790Y310790D01*
X131500D02*
X133750Y313040D01*
X112790Y310790D02*
X130000D01*
X131500D01*
X346500Y352750D02*
Y415000D01*
Y264250D02*
Y352750D01*
X649000Y432250D02*
X705000D01*
X479250Y602000D02*
Y874000D01*
X37750Y460500D02*
Y798000D01*
Y460500D02*
X53250Y445000D01*
X73750Y463750D02*
Y495750D01*
X73000Y463000D02*
X73750Y463750D01*
X64000Y495750D02*
X73750D01*
X56250Y503500D02*
X64000Y495750D01*
X56250Y503500D02*
Y523750D01*
X60250Y527750D01*
X110500D01*
X126350Y511900D01*
X153250D01*
X1000500Y475500D02*
X1012500D01*
X1035300Y498300D01*
X1055500D01*
X744000Y604000D02*
X764000D01*
X523000Y685500D02*
X571250D01*
X574900Y689150D01*
X615000D01*
X723000Y634250D02*
X750040D01*
X779395Y663605D01*
X648750Y741750D02*
X695000D01*
X636000Y729000D02*
X648750Y741750D01*
X636000Y694500D02*
Y729000D01*
X630650Y689150D02*
X636000Y694500D01*
X615000Y689150D02*
X630650D01*
X709000Y648250D02*
X723000Y634250D01*
X709000Y648250D02*
Y727750D01*
X695000Y741750D02*
X709000Y727750D01*
X644500Y435750D02*
X648500Y431750D01*
X644500Y435750D02*
Y436750D01*
Y558750D01*
X479250Y602000D02*
X644500Y436750D01*
Y577750D02*
X664250D01*
X644500D02*
Y623500D01*
X666000Y645000D01*
Y676450D01*
X111000Y120500D02*
X172750D01*
X1138250Y511000D02*
X1191250Y458000D01*
X1204000D01*
Y425250D02*
Y458000D01*
Y425250D02*
X1261500D01*
X1204000Y477000D02*
X1260750D01*
X1262750Y479000D01*
X1206250Y372550D02*
X1217550Y361250D01*
X1208000Y351700D02*
X1217550Y361250D01*
X1236000D01*
X1262750Y479000D02*
X1280250D01*
X1208000Y315500D02*
Y351700D01*
X1144000Y364250D02*
Y414000D01*
X1130750Y351000D02*
X1144000Y364250D01*
X1073750Y383790D02*
Y415500D01*
X1066250Y376290D02*
X1073750Y383790D01*
X1015750Y329500D02*
X1042500D01*
X1046290Y325710D01*
X1066250D01*
X1014500Y365750D02*
X1038500D01*
X1049040Y376290D01*
X1066250D01*
X980000Y397400D02*
X1055500Y472900D01*
X980000Y305750D02*
Y397400D01*
Y305750D02*
X1030400Y255350D01*
Y240250D02*
Y255350D01*
X1090100Y485600D02*
X1106500D01*
X1085500Y481000D02*
X1090100Y485600D01*
X1085500Y446000D02*
Y481000D01*
X1073750Y434250D02*
X1085500Y446000D01*
X1073750Y415500D02*
Y434250D01*
X930620Y519380D02*
X954870D01*
X963250Y511000D01*
X1055500D01*
X1036850Y567750D02*
X1055500Y549100D01*
X971000Y567750D02*
X1036850D01*
X952750Y475500D02*
X1000500D01*
X947500Y480750D02*
X952750Y475500D01*
X890250Y480750D02*
X947500D01*
X841750Y432250D02*
X890250Y480750D01*
X705000Y432250D02*
X841750D01*
X990000Y475000D02*
X1009500D01*
X535000Y379750D02*
X941750D01*
X457500Y302250D02*
X535000Y379750D01*
X429250Y302250D02*
X457500D01*
X422394Y309106D02*
X429250Y302250D01*
X422394Y309106D02*
Y316153D01*
X153250Y524600D02*
Y561250D01*
X175250Y583250D01*
X477250D01*
X404000Y362750D02*
X410917Y355833D01*
X433514D01*
X447794Y341553D01*
X714500Y886250D02*
X714750Y886500D01*
X29250Y202250D02*
X111000Y120500D01*
X29250Y202250D02*
Y799000D01*
X693250Y341250D02*
X785500D01*
X629250Y341250D02*
X694000D01*
X204250Y400750D02*
Y448400D01*
X490500Y453750D02*
Y527447D01*
X447794Y570153D02*
X490500Y527447D01*
X73000Y446000D02*
X73000Y446000D01*
X88250D01*
X53250Y445000D02*
X78250D01*
X116050Y473800D02*
X153250D01*
X88250Y446000D02*
X116050Y473800D01*
X126750Y462000D02*
X152350D01*
X153250Y461100D01*
X204250D02*
X218250D01*
X56250Y523750D02*
Y645500D01*
X108000Y697250D01*
X132000Y348500D02*
Y371500D01*
X146750Y386250D01*
X209250D01*
X365000Y354250D02*
Y421750D01*
X363500Y352750D02*
X365000Y354250D01*
X307000Y448750D02*
Y486250D01*
X218250Y461100D02*
X231750Y447600D01*
X365000Y421750D02*
X365000Y421750D01*
X209250Y386250D02*
X209750Y385750D01*
X231750D01*
X209750D02*
X253500Y342000D01*
X231750Y385750D02*
Y447600D01*
X595000Y829750D02*
Y844500D01*
Y829750D02*
X614750Y810000D01*
X644000Y783250D02*
Y924000D01*
X617750Y950250D02*
X644000Y924000D01*
X617750Y950250D02*
Y964250D01*
X614750Y714800D02*
X615000Y714550D01*
X614750Y714800D02*
Y810000D01*
Y777250D02*
X615500Y776500D01*
X637250D01*
X504000Y687500D02*
Y717750D01*
Y687500D02*
X506000Y685500D01*
X442865Y504750D02*
X443188Y505073D01*
X465927D02*
X476250Y494750D01*
X443188Y505073D02*
X465927D01*
X433191Y504750D02*
X442865D01*
X422394Y493953D02*
X433191Y504750D01*
X662758Y689150D02*
X666000D01*
X587250Y531500D02*
X620250Y564500D01*
Y646643D01*
X662758Y689150D01*
X574750Y844500D02*
X595000D01*
X504000Y773750D02*
X574750Y844500D01*
X504000Y717750D02*
Y773750D01*
X661000Y800250D02*
X747500D01*
X637250Y776500D02*
X644000Y783250D01*
X661000Y800250D01*
X760250Y734250D02*
X764500Y738500D01*
Y800250D01*
X666000Y714550D02*
X676950D01*
X684750Y706750D01*
Y573750D02*
Y706750D01*
X705750Y602250D02*
X727250Y623750D01*
X772750D01*
X803750Y654750D01*
Y693250D01*
X735750D02*
X803750D01*
X734960Y692460D02*
X735750Y693250D01*
X734960Y669750D02*
Y692460D01*
X721250Y774000D02*
X747500Y800250D01*
X721250Y683460D02*
Y774000D01*
Y683460D02*
X734960Y669750D01*
X705000Y403250D02*
X741500D01*
X753750Y415500D01*
X648500Y412750D02*
X674500D01*
X675250Y412000D01*
X834500Y572500D02*
Y819750D01*
X808500Y845750D02*
X834500Y819750D01*
X695250Y876000D02*
X725500Y845750D01*
X808500D01*
X695250Y876000D02*
Y906500D01*
X718400Y929650D01*
Y963500D01*
X664250Y577750D02*
X715750Y526250D01*
X886690D01*
X905220Y519380D02*
X916840Y531000D01*
X886690Y526250D02*
X905220Y544780D01*
X684750Y573750D02*
X722250Y536250D01*
X874500D01*
X895500Y557250D01*
X918150D01*
X930620Y544780D01*
X675250Y469000D02*
X712750Y506500D01*
X790250D01*
X1194250Y181500D02*
Y412700D01*
X1197300Y415750D01*
X1221000D01*
X1225000Y308250D02*
X1227000Y306250D01*
X1130250Y256250D02*
Y350500D01*
X1130750Y351000D01*
X1088750Y280750D02*
X1113250Y256250D01*
X1088750Y280750D02*
Y372000D01*
X1084460Y376290D02*
X1088750Y372000D01*
X1066250Y376290D02*
X1084460D01*
X1015350Y738850D02*
X1034670D01*
X335350Y659150D02*
X393250Y601250D01*
X303580Y659150D02*
X335350D01*
X422394Y417753D02*
X436500Y403647D01*
X850500Y390000D02*
X889400Y428900D01*
X946650D02*
X969750Y452000D01*
X889400Y428900D02*
X946650D01*
X1105500Y471900D02*
X1106500Y472900D01*
X916840Y531000D02*
X934250D01*
X971000Y567750D01*
X978250Y684000D02*
X978500D01*
X969750Y452000D02*
X988250D01*
X436500Y403647D02*
X465603D01*
X479250Y390000D01*
X850500D01*
X702250Y400500D02*
X705000Y403250D01*
X582750Y400500D02*
X702250D01*
X545000Y341000D02*
X564500Y321500D01*
X574000D01*
X1262750Y462000D02*
X1272250D01*
X1058000Y680900D02*
X1077850Y700750D01*
X1058000Y592250D02*
Y680900D01*
Y592250D02*
X1087500Y562750D01*
X138000Y201000D02*
Y225250D01*
X154250Y241500D01*
Y286540D01*
X130000Y310790D02*
X154250Y286540D01*
X133750Y313040D02*
Y350250D01*
X336000Y246750D02*
X397350Y185400D01*
X336000Y246750D02*
Y321000D01*
X1105250Y434500D02*
X1105500Y434750D01*
Y471900D01*
X198800Y473800D02*
X204250D01*
X176250Y462000D02*
Y479750D01*
X169500Y486500D02*
X176250Y479750D01*
X153250Y486500D02*
X169500D01*
X265250Y376250D02*
X286250D01*
X253500Y342000D02*
X315000D01*
X336000Y321000D01*
X307250Y378500D02*
X317500D01*
X322750Y383750D01*
Y416000D01*
X307000Y431750D02*
X322750Y416000D01*
X1262750Y405000D02*
X1265750Y408000D01*
X1273250D01*
X675250Y456000D02*
Y469000D01*
X265250Y395250D02*
X302000D01*
X231750Y385750D02*
X291750D01*
X299000Y378500D01*
X307250D01*
X286250Y376250D02*
X308750Y353750D01*
X346500D01*
X1288000Y308250D02*
X1304000Y324250D01*
Y506000D01*
X1221000Y415750D02*
X1236000Y400750D01*
Y374500D02*
Y400750D01*
X1242250Y394500D01*
X1087500Y517000D02*
Y520750D01*
Y523500D01*
Y562750D01*
X941750Y379750D02*
X1047600Y485600D01*
X1055500D01*
X337250Y415000D02*
X346500D01*
X327500Y424750D02*
X337250Y415000D01*
X466600Y151050D02*
X468950D01*
X494750Y176850D01*
X379250Y301000D02*
X494750Y185500D01*
X476300Y179450D02*
X480450D01*
X451000Y204750D02*
X476300Y179450D01*
X406000Y204750D02*
X451000D01*
X346500Y264250D02*
X406000Y204750D01*
X327500Y424750D02*
Y466250D01*
X343500Y482250D01*
X203000Y499200D02*
X204250D01*
Y511900D02*
X254350D01*
X262250Y504000D01*
X266250D01*
X269500Y507250D01*
X204250Y499200D02*
X241550D01*
X258500Y482250D01*
X269500D01*
X307000Y486250D02*
X327000Y506250D01*
X360750D02*
X379250Y487750D01*
Y421450D02*
Y487750D01*
X327000Y506250D02*
X360750D01*
X379250Y301000D02*
Y421450D01*
X372450Y428250D02*
X379250Y421450D01*
X379500Y421200D01*
X494750Y176850D02*
Y185500D01*
X393250Y351000D02*
Y505500D01*
X404000Y362750D02*
Y518750D01*
X377500Y545250D02*
X404000Y518750D01*
X245000Y545250D02*
X377500D01*
X204250Y524600D02*
X224350D01*
X245000Y545250D01*
X1204000Y477000D02*
Y534000D01*
X1245250Y575250D01*
X1260000D01*
X847200Y178700D02*
X887750Y219250D01*
X1129500D01*
X833350Y150300D02*
X854400Y129250D01*
X1082750D01*
X1125750Y172250D01*
X29250Y799000D02*
X158000Y927750D01*
X625250Y791000D02*
Y887250D01*
X584750Y927750D02*
X625250Y887250D01*
X158000Y927750D02*
X584750D01*
X37750Y798000D02*
X159000Y919250D01*
X434000D01*
X479250Y874000D01*
X714500Y886250D02*
X929500D01*
X1106500Y549100D02*
Y709250D01*
X929500Y886250D02*
X1078600Y737150D01*
X1087406D01*
X1093850Y730706D01*
Y721900D02*
Y730706D01*
Y721900D02*
X1106500Y709250D01*
D31*
X194250Y480000D02*
X215250D01*
X188750Y485500D02*
X194250Y480000D01*
X215250D02*
X218250Y477000D01*
X273250Y285750D02*
X291400Y303900D01*
X273250Y256500D02*
Y285750D01*
X62750Y177500D02*
X194250D01*
X273250Y256500D01*
X291400Y303900D02*
X312750D01*
X133900Y448400D02*
X153250D01*
X218250Y461100D02*
Y477000D01*
X1220750Y462000D02*
X1262750D01*
X1214750Y468000D02*
X1220750Y462000D01*
X1195800Y468000D02*
X1214750D01*
X1193750Y470050D02*
X1195800Y468000D01*
X1021000Y504500D02*
X1075000D01*
X1009000Y492500D02*
X1021000Y504500D01*
X1000500Y492500D02*
X1009000D01*
X990250Y530250D02*
X999250D01*
X982750Y537750D02*
X990250Y530250D01*
X982750Y537750D02*
Y553250D01*
X987250Y557750D01*
X1019000D01*
X1040350Y536400D01*
X1055500D01*
X1096750Y504750D02*
X1119250D01*
X1125750Y498250D01*
Y489750D02*
Y498250D01*
X1121600Y485600D02*
X1125750Y489750D01*
X1106500Y485600D02*
X1121600D01*
X153250Y511900D02*
X176100D01*
X188750Y499250D01*
Y485500D02*
Y499250D01*
X1055500Y536400D02*
X1071850D01*
X1075000Y504500D02*
X1087500Y517000D01*
X1147000D02*
X1193750Y470250D01*
X1094000Y517000D02*
X1147000D01*
X1087500Y523500D02*
X1094000Y517000D01*
X1071850Y536400D02*
X1087500Y520750D01*
Y514000D02*
X1096750Y504750D01*
X1087500Y514000D02*
Y517000D01*
X35250Y205000D02*
X62750Y177500D01*
X35250Y205000D02*
Y349750D01*
X133900Y448400D01*
D32*
X559000Y274500D02*
X606750Y322250D01*
X480250Y274500D02*
X559000D01*
X878250Y272750D02*
X972500D01*
X1005000Y240250D01*
X606750Y322250D02*
X629250D01*
X640500D01*
X647350Y329100D02*
X821900D01*
X878250Y272750D01*
X640500Y322250D02*
X647350Y329100D01*
X397350Y179450D02*
Y185400D01*
D33*
X693000Y963500D02*
D03*
X617750Y964250D02*
D03*
X1005000Y240250D02*
D03*
X1150000Y112500D02*
D03*
X172750Y120000D02*
D03*
D34*
X718400Y963500D02*
D03*
X643150Y964250D02*
D03*
X666000Y319100D02*
D03*
X1322000Y860650D02*
D03*
X33500Y868900D02*
D03*
X1030400Y240250D02*
D03*
X315500Y307150D02*
D03*
X785500Y316600D02*
D03*
X1124600Y112500D02*
D03*
X198150Y120000D02*
D03*
D35*
X666000Y344500D02*
D03*
X1322000Y835250D02*
D03*
X33500Y843500D02*
D03*
X315500Y281750D02*
D03*
X785500Y342000D02*
D03*
D36*
X447794Y290753D02*
D03*
X930620Y290780D02*
D03*
D37*
X422394Y290753D02*
D03*
X447794Y493953D02*
D03*
X422394Y468553D02*
D03*
X447794D02*
D03*
Y417753D02*
D03*
X422394Y443153D02*
D03*
Y417753D02*
D03*
X447794Y519353D02*
D03*
Y443153D02*
D03*
X422394Y493953D02*
D03*
Y595553D02*
D03*
X447794Y392353D02*
D03*
Y366953D02*
D03*
X422394D02*
D03*
Y392353D02*
D03*
Y620953D02*
D03*
X447794D02*
D03*
Y646353D02*
D03*
X422394D02*
D03*
X447794Y849553D02*
D03*
X422394Y824153D02*
D03*
X447794Y798753D02*
D03*
X422394D02*
D03*
X447794Y773353D02*
D03*
X422394D02*
D03*
Y747953D02*
D03*
Y722553D02*
D03*
Y697153D02*
D03*
X447794Y722553D02*
D03*
Y697153D02*
D03*
Y671753D02*
D03*
X422394D02*
D03*
X447794Y341553D02*
D03*
X422394D02*
D03*
Y519353D02*
D03*
X447794Y595553D02*
D03*
X422394Y570153D02*
D03*
X447794Y747953D02*
D03*
X422394Y849553D02*
D03*
X447794Y824153D02*
D03*
Y544753D02*
D03*
Y570153D02*
D03*
X422394Y544753D02*
D03*
X447794Y316153D02*
D03*
X422394D02*
D03*
X905220Y290780D02*
D03*
X930620Y493980D02*
D03*
X905220Y468580D02*
D03*
X930620D02*
D03*
Y417780D02*
D03*
X905220Y443180D02*
D03*
Y417780D02*
D03*
X930620Y519380D02*
D03*
Y443180D02*
D03*
X905220Y493980D02*
D03*
Y595580D02*
D03*
X930620Y392380D02*
D03*
Y366980D02*
D03*
X905220D02*
D03*
Y392380D02*
D03*
Y620980D02*
D03*
X930620D02*
D03*
Y646380D02*
D03*
X905220D02*
D03*
X930620Y849580D02*
D03*
X905220Y824180D02*
D03*
X930620Y798780D02*
D03*
X905220D02*
D03*
X930620Y773380D02*
D03*
X905220D02*
D03*
Y747980D02*
D03*
Y722580D02*
D03*
Y697180D02*
D03*
X930620Y722580D02*
D03*
Y697180D02*
D03*
Y671780D02*
D03*
X905220D02*
D03*
X930620Y341580D02*
D03*
X905220D02*
D03*
Y519380D02*
D03*
X930620Y595580D02*
D03*
X905220Y570180D02*
D03*
X930620Y747980D02*
D03*
X905220Y849580D02*
D03*
X930620Y824180D02*
D03*
Y544780D02*
D03*
Y570180D02*
D03*
X905220Y544780D02*
D03*
X930620Y316180D02*
D03*
X905220D02*
D03*
D38*
X327800Y165250D02*
D03*
X577700D02*
D03*
X694550Y164500D02*
D03*
X944450D02*
D03*
D39*
X508150Y179450D02*
D03*
X874900Y178700D02*
D03*
D40*
X494300Y151050D02*
D03*
X480450Y179450D02*
D03*
X466600Y151050D02*
D03*
X452750Y179450D02*
D03*
X438900Y151050D02*
D03*
X425050Y179450D02*
D03*
X411200Y151050D02*
D03*
X397350Y179450D02*
D03*
X861050Y150300D02*
D03*
X847200Y178700D02*
D03*
X833350Y150300D02*
D03*
X819500Y178700D02*
D03*
X805650Y150300D02*
D03*
X791800Y178700D02*
D03*
X777950Y150300D02*
D03*
X764100Y178700D02*
D03*
D41*
X303580Y659150D02*
D03*
Y684550D02*
D03*
Y709950D02*
D03*
Y735350D02*
D03*
X260400Y722650D02*
D03*
Y671850D02*
D03*
Y697250D02*
D03*
X1077850Y700750D02*
D03*
Y726150D02*
D03*
Y675350D02*
D03*
X1034670Y662650D02*
D03*
Y688050D02*
D03*
Y713450D02*
D03*
Y738850D02*
D03*
D42*
X84500Y727500D02*
D03*
X107750Y728250D02*
D03*
X131500D02*
D03*
X84750Y697250D02*
D03*
X108000D02*
D03*
X131250D02*
D03*
X85500Y667750D02*
D03*
X109000Y667000D02*
D03*
X131250Y666750D02*
D03*
X1230250Y700750D02*
D03*
X1254750D02*
D03*
X1206250D02*
D03*
X1207000Y671500D02*
D03*
X1230500Y670750D02*
D03*
X1255250Y670000D02*
D03*
X1231250Y732000D02*
D03*
X1254500Y731750D02*
D03*
X1207000Y732000D02*
D03*
D43*
X763250Y491500D02*
D03*
X763500Y457250D02*
D03*
X175250Y348750D02*
D03*
X763500Y557500D02*
D03*
X1304000Y506000D02*
D03*
X1207000Y240000D02*
D03*
X978000Y647750D02*
D03*
X1125750Y172250D02*
D03*
X1147750Y237500D02*
D03*
X480250Y274500D02*
D03*
X477250Y583250D02*
D03*
X714500Y886250D02*
D03*
X103250Y495000D02*
D03*
X204250Y400750D02*
D03*
X490500Y453750D02*
D03*
X126750Y462000D02*
D03*
X587250Y531500D02*
D03*
X476250Y494750D02*
D03*
X675250Y412000D02*
D03*
Y456000D02*
D03*
X789750Y507000D02*
D03*
X834500Y572500D02*
D03*
X1174250Y172750D02*
D03*
X1276750Y338750D02*
D03*
X393250Y351000D02*
D03*
Y601250D02*
D03*
X988250Y452000D02*
D03*
X963925Y538364D02*
D03*
X582750Y400500D02*
D03*
X545000Y341000D02*
D03*
X1105250Y434500D02*
D03*
X176250Y462000D02*
D03*
X392750Y506000D02*
D03*
M02*
