%FSAX44Y44*%
%MOMM*%
G71*
G01*
G75*
G04 Layer_Color=32896*
%ADD10O,1.9500X0.6000*%
%ADD11R,1.5000X1.0000*%
%ADD12R,1.0000X1.5000*%
%ADD13R,0.8000X1.2000*%
%ADD14R,1.2000X0.6000*%
%ADD15R,2.2000X1.2000*%
%ADD16R,3.0500X1.1000*%
%ADD17R,6.5000X5.5500*%
%ADD18R,1.1000X3.0500*%
%ADD19R,5.5500X6.5000*%
%ADD20R,1.1000X1.3500*%
%ADD21R,1.3500X1.1000*%
%ADD22R,1.2500X1.4500*%
%ADD23R,1.4500X1.2500*%
%ADD24R,1.5000X1.2000*%
%ADD25R,1.5000X1.0000*%
%ADD26C,1.0000*%
%ADD27C,0.6000*%
%ADD28C,1.5000*%
%ADD29C,0.8000*%
%ADD30C,0.4000*%
%ADD31C,0.3000*%
%ADD32C,0.2000*%
%ADD33R,1.5000X1.5000*%
%ADD34C,1.5000*%
%ADD35R,1.5000X1.5000*%
%ADD36R,1.5240X1.5240*%
%ADD37C,1.5240*%
%ADD38C,4.7600*%
%ADD39R,1.6900X1.6900*%
%ADD40C,1.6900*%
%ADD41O,2.5000X1.5000*%
%ADD42C,0.7000*%
%ADD43C,1.2700*%
%ADD44R,5.3000X2.8000*%
%ADD45R,6.0000X2.1000*%
%ADD46R,3.9500X2.0500*%
%ADD47R,9.4000X6.8000*%
%ADD48R,2.4500X2.5500*%
%ADD49R,8.0000X10.0000*%
%ADD50C,0.5000*%
%ADD51C,0.2500*%
%ADD52C,0.2540*%
%ADD53C,0.0254*%
%ADD54C,0.1000*%
%ADD55C,0.1540*%
%ADD56C,0.1500*%
%ADD57O,2.1500X0.8000*%
%ADD58R,1.7000X1.2000*%
%ADD59R,1.2000X1.7000*%
%ADD60R,1.0000X1.4000*%
%ADD61R,1.4000X0.8000*%
%ADD62R,2.4000X1.4000*%
%ADD63R,3.2500X1.3000*%
%ADD64R,6.7000X5.7500*%
%ADD65R,1.3000X3.2500*%
%ADD66R,5.7500X6.7000*%
%ADD67R,1.3000X1.5500*%
%ADD68R,1.5500X1.3000*%
%ADD69R,1.4500X1.6500*%
%ADD70R,1.6500X1.4500*%
%ADD71R,1.7000X1.4000*%
%ADD72R,1.7000X1.2000*%
%ADD73R,1.7000X1.7000*%
%ADD74C,1.7000*%
%ADD75R,1.7000X1.7000*%
%ADD76R,1.6256X1.6256*%
%ADD77C,1.6256*%
%ADD78C,4.9600*%
%ADD79R,1.8900X1.8900*%
%ADD80C,1.8900*%
%ADD81O,2.7000X1.7000*%
%ADD82C,0.9000*%
%ADD83C,1.4700*%
%ADD84R,5.5000X3.0000*%
%ADD85R,6.2000X2.3000*%
%ADD86R,4.1500X2.2500*%
%ADD87R,9.6000X7.0000*%
%ADD88R,2.6500X2.7500*%
%ADD89R,8.2000X10.2000*%
%ADD90R,1.3080X1.0160*%
%ADD91R,1.3330X1.0160*%
D32*
X00410756Y00276125D02*
X00426472D01*
X00893582Y00276152D02*
X00909298D01*
X00205500Y00768250D02*
X00255500D01*
X00205500D02*
Y00908250D01*
X00329500D01*
Y00768250D02*
Y00908250D01*
X00255500Y00768250D02*
X00329500D01*
X01104750Y00768250D02*
X01178750D01*
Y00908250D01*
X01054750D02*
X01178750D01*
X01054750Y00768250D02*
Y00908250D01*
Y00768250D02*
X01104750D01*
X00078250Y00305750D02*
X00086250D01*
X00078250D02*
Y00372750D01*
X00086250D01*
X01108000Y00333500D02*
X01116000D01*
Y00400500D01*
X01108000D02*
X01116000D01*
X00193750Y00496500D02*
X00205250D01*
X00193750D02*
Y00600500D01*
X00205250D01*
X01150500Y00576250D02*
X01162000D01*
Y00472250D02*
Y00576250D01*
X01150500Y00472250D02*
X01162000D01*
X00527500Y00972500D02*
X00531750D01*
X00527500Y00896500D02*
X00532000D01*
X00568500Y00972500D02*
X00573500D01*
X00568750Y00896500D02*
X00573500D01*
X00527500D02*
Y00972500D01*
X00573500Y00896500D02*
Y00972500D01*
X00444250Y00971750D02*
X00448500D01*
X00444250Y00895750D02*
X00448750D01*
X00485250Y00971750D02*
X00490250D01*
X00485500Y00895750D02*
X00490250D01*
X00444250D02*
Y00971750D01*
X00490250Y00895750D02*
Y00971750D01*
X00407500Y00894000D02*
Y00970000D01*
X00361500Y00894000D02*
Y00970000D01*
X00402750Y00894000D02*
X00407500D01*
X00402500Y00970000D02*
X00407500D01*
X00361500Y00894000D02*
X00366000D01*
X00361500Y00970000D02*
X00365750D01*
X01004000Y00899750D02*
Y00975750D01*
X00958000Y00899750D02*
Y00975750D01*
X00999250Y00899750D02*
X01004000D01*
X00999000Y00975750D02*
X01004000D01*
X00958000Y00899750D02*
X00962500D01*
X00958000Y00975750D02*
X00962250D01*
X00913000Y00899750D02*
Y00975750D01*
X00867000Y00899750D02*
Y00975750D01*
X00908250Y00899750D02*
X00913000D01*
X00908000Y00975750D02*
X00913000D01*
X00867000Y00899750D02*
X00871500D01*
X00867000Y00975750D02*
X00871250D01*
X00780500Y00976000D02*
X00784750D01*
X00780500Y00900000D02*
X00785000D01*
X00821500Y00976000D02*
X00826500D01*
X00821750Y00900000D02*
X00826500D01*
X00780500D02*
Y00976000D01*
X00826500Y00900000D02*
Y00976000D01*
D51*
X00040250Y00303750D02*
G03*
X00040250Y00303750I-00001250J00000000D01*
G01*
X01156500Y00402500D02*
G03*
X01156500Y00402500I-00001250J00000000D01*
G01*
X00136750Y00496750D02*
G03*
X00136750Y00496750I-00001250J00000000D01*
G01*
X01221500Y00472500D02*
G03*
X01221500Y00472500I-00001250J00000000D01*
G01*
X00572250Y00890750D02*
G03*
X00572250Y00890750I-00001250J00000000D01*
G01*
X00489000Y00890000D02*
G03*
X00489000Y00890000I-00001250J00000000D01*
G01*
X00406250Y00888250D02*
G03*
X00406250Y00888250I-00001250J00000000D01*
G01*
X01002750Y00894000D02*
G03*
X01002750Y00894000I-00001250J00000000D01*
G01*
X00911750D02*
G03*
X00911750Y00894000I-00001250J00000000D01*
G01*
X00825250Y00894250D02*
G03*
X00825250Y00894250I-00001250J00000000D01*
G01*
D52*
X00153212Y00751352D02*
X00228650D01*
X00117314Y00755500D02*
X00149250D01*
X00202551Y00751352D02*
X00229920D01*
X00061250Y00640000D02*
X00094438D01*
X00087850Y00755500D02*
X00098645D01*
X00117314D01*
X00061250D02*
X00087850D01*
X00094438Y00640000D02*
X00150250D01*
X00153398Y00751352D02*
X00202551D01*
X00061250Y00640000D02*
Y00755500D01*
X00153906Y00643656D02*
X00229920D01*
Y00751352D01*
X00149250Y00755500D02*
X00153398Y00751352D01*
X00150250Y00640000D02*
X00153906Y00643656D01*
X01184344Y00754344D02*
X01188000Y00758000D01*
X01184852Y00646648D02*
X01189000Y00642500D01*
X01108330Y00646648D02*
Y00754344D01*
X01184344D01*
X01277000Y00642500D02*
Y00758000D01*
X01135698Y00646648D02*
X01184852D01*
X01188000Y00758000D02*
X01243812D01*
X01250400Y00642500D02*
X01277000D01*
X01220936D02*
X01239605D01*
X01250400D01*
X01243812Y00758000D02*
X01277000D01*
X01108330Y00646648D02*
X01135698D01*
X01189000Y00642500D02*
X01220936D01*
X01109600Y00646648D02*
X01185038D01*
X01011250Y01006485D02*
X01001093D01*
X01006172D01*
Y00991250D01*
X00993476Y01001407D02*
X00988397D01*
X00985858Y00998867D01*
Y00991250D01*
X00993476D01*
X00996015Y00993789D01*
X00993476Y00996328D01*
X00985858D01*
X00980780Y00991250D02*
Y01001407D01*
X00973162D01*
X00970623Y00998867D01*
Y00991250D01*
X00955388Y01003946D02*
X00957927Y01006485D01*
X00963006D01*
X00965545Y01003946D01*
Y00993789D01*
X00963006Y00991250D01*
X00957927D01*
X00955388Y00993789D01*
X00950310Y01003946D02*
X00947770Y01006485D01*
X00942692D01*
X00940153Y01003946D01*
Y01001407D01*
X00942692Y00998867D01*
X00945231D01*
X00942692D01*
X00940153Y00996328D01*
Y00993789D01*
X00942692Y00991250D01*
X00947770D01*
X00950310Y00993789D01*
X00585750Y01002985D02*
X00575593D01*
X00580672D01*
Y00987750D01*
X00567976Y00997907D02*
X00562897D01*
X00560358Y00995368D01*
Y00987750D01*
X00567976D01*
X00570515Y00990289D01*
X00567976Y00992828D01*
X00560358D01*
X00555280Y00987750D02*
Y00997907D01*
X00547662D01*
X00545123Y00995368D01*
Y00987750D01*
X00529888Y01000446D02*
X00532427Y01002985D01*
X00537506D01*
X00540045Y01000446D01*
Y00990289D01*
X00537506Y00987750D01*
X00532427D01*
X00529888Y00990289D01*
X00524810Y01000446D02*
X00522271Y01002985D01*
X00517192D01*
X00514653Y01000446D01*
Y00997907D01*
X00517192Y00995368D01*
X00519731D01*
X00517192D01*
X00514653Y00992828D01*
Y00990289D01*
X00517192Y00987750D01*
X00522271D01*
X00524810Y00990289D01*
X00923250Y01006485D02*
X00913093D01*
X00918172D01*
Y00991250D01*
X00905476Y01001407D02*
X00900397D01*
X00897858Y00998867D01*
Y00991250D01*
X00905476D01*
X00908015Y00993789D01*
X00905476Y00996328D01*
X00897858D01*
X00892780Y00991250D02*
Y01001407D01*
X00885162D01*
X00882623Y00998867D01*
Y00991250D01*
X00867388Y01003946D02*
X00869927Y01006485D01*
X00875006D01*
X00877545Y01003946D01*
Y00993789D01*
X00875006Y00991250D01*
X00869927D01*
X00867388Y00993789D01*
X00852153Y00991250D02*
X00862310D01*
X00852153Y01001407D01*
Y01003946D01*
X00854692Y01006485D01*
X00859771D01*
X00862310Y01003946D01*
X00835500Y01006485D02*
X00825343D01*
X00830422D01*
Y00991250D01*
X00817726Y01001407D02*
X00812647D01*
X00810108Y00998867D01*
Y00991250D01*
X00817726D01*
X00820265Y00993789D01*
X00817726Y00996328D01*
X00810108D01*
X00805030Y00991250D02*
Y01001407D01*
X00797412D01*
X00794873Y00998867D01*
Y00991250D01*
X00779638Y01003946D02*
X00782177Y01006485D01*
X00787256D01*
X00789795Y01003946D01*
Y00993789D01*
X00787256Y00991250D01*
X00782177D01*
X00779638Y00993789D01*
X00774560Y00991250D02*
X00769481D01*
X00772020D01*
Y01006485D01*
X00774560Y01003946D01*
X00416750Y01001985D02*
X00406593D01*
X00411672D01*
Y00986750D01*
X00398976Y00996907D02*
X00393897D01*
X00391358Y00994368D01*
Y00986750D01*
X00398976D01*
X00401515Y00989289D01*
X00398976Y00991828D01*
X00391358D01*
X00386280Y00986750D02*
Y00996907D01*
X00378662D01*
X00376123Y00994368D01*
Y00986750D01*
X00360888Y00999446D02*
X00363427Y01001985D01*
X00368506D01*
X00371045Y00999446D01*
Y00989289D01*
X00368506Y00986750D01*
X00363427D01*
X00360888Y00989289D01*
X00355810Y00986750D02*
X00350731D01*
X00353270D01*
Y01001985D01*
X00355810Y00999446D01*
X01186593Y00454946D02*
X01189133Y00457485D01*
X01194211D01*
X01196750Y00454946D01*
Y00452407D01*
X01194211Y00449868D01*
X01189133D01*
X01186593Y00447328D01*
Y00444789D01*
X01189133Y00442250D01*
X01194211D01*
X01196750Y00444789D01*
X01171358Y00452407D02*
X01178976D01*
X01181515Y00449868D01*
Y00444789D01*
X01178976Y00442250D01*
X01171358D01*
X01166280Y00457485D02*
Y00442250D01*
Y00449868D01*
X01163741Y00452407D01*
X01158662D01*
X01156123Y00449868D01*
Y00442250D01*
X01148506D02*
X01143427D01*
X01140888Y00444789D01*
Y00449868D01*
X01143427Y00452407D01*
X01148506D01*
X01151045Y00449868D01*
Y00444789D01*
X01148506Y00442250D01*
X01133270Y00454946D02*
Y00452407D01*
X01135810D01*
X01130731D01*
X01133270D01*
Y00444789D01*
X01130731Y00442250D01*
X01120575Y00454946D02*
Y00452407D01*
X01123114D01*
X01118036D01*
X01120575D01*
Y00444789D01*
X01118036Y00442250D01*
X01110418Y00439711D02*
X01100261D01*
X01095183Y00457485D02*
Y00442250D01*
X01087565D01*
X01085026Y00444789D01*
Y00454946D01*
X01087565Y00457485D01*
X01095183D01*
X01079948Y00442250D02*
X01074870D01*
X01077409D01*
Y00457485D01*
X01079948Y00454946D01*
X00307343Y00479196D02*
X00309883Y00481735D01*
X00314961D01*
X00317500Y00479196D01*
Y00476657D01*
X00314961Y00474118D01*
X00309883D01*
X00307343Y00471578D01*
Y00469039D01*
X00309883Y00466500D01*
X00314961D01*
X00317500Y00469039D01*
X00292108Y00476657D02*
X00299726D01*
X00302265Y00474118D01*
Y00469039D01*
X00299726Y00466500D01*
X00292108D01*
X00287030Y00481735D02*
Y00466500D01*
Y00474118D01*
X00284491Y00476657D01*
X00279412D01*
X00276873Y00474118D01*
Y00466500D01*
X00269256D02*
X00264177D01*
X00261638Y00469039D01*
Y00474118D01*
X00264177Y00476657D01*
X00269256D01*
X00271795Y00474118D01*
Y00469039D01*
X00269256Y00466500D01*
X00254021Y00479196D02*
Y00476657D01*
X00256560D01*
X00251481D01*
X00254021D01*
Y00469039D01*
X00251481Y00466500D01*
X00241325Y00479196D02*
Y00476657D01*
X00243864D01*
X00238785D01*
X00241325D01*
Y00469039D01*
X00238785Y00466500D01*
X00231168Y00463961D02*
X00221011D01*
X00215933Y00481735D02*
Y00466500D01*
X00208315D01*
X00205776Y00469039D01*
Y00479196D01*
X00208315Y00481735D01*
X00215933D01*
X00200698Y00466500D02*
X00195619D01*
X00198159D01*
Y00481735D01*
X00200698Y00479196D01*
X01115500Y00409000D02*
Y00424235D01*
X01107883D01*
X01105343Y00421696D01*
Y00416618D01*
X01107883Y00414078D01*
X01115500D01*
X01100265Y00409000D02*
Y00424235D01*
X01095187Y00419157D01*
X01090108Y00424235D01*
Y00409000D01*
X01077412Y00424235D02*
X01082491D01*
X01085030Y00421696D01*
Y00411539D01*
X01082491Y00409000D01*
X01077412D01*
X01074873Y00411539D01*
Y00421696D01*
X01077412Y00424235D01*
X01059638Y00421696D02*
X01062177Y00424235D01*
X01067256D01*
X01069795Y00421696D01*
Y00419157D01*
X01067256Y00416618D01*
X01062177D01*
X01059638Y00414078D01*
Y00411539D01*
X01062177Y00409000D01*
X01067256D01*
X01069795Y00411539D01*
X00122250Y00387000D02*
Y00402235D01*
X00114633D01*
X00112093Y00399696D01*
Y00394618D01*
X00114633Y00392078D01*
X00122250D01*
X00107015Y00387000D02*
Y00402235D01*
X00101937Y00397157D01*
X00096858Y00402235D01*
Y00387000D01*
X00084162Y00402235D02*
X00089241D01*
X00091780Y00399696D01*
Y00389539D01*
X00089241Y00387000D01*
X00084162D01*
X00081623Y00389539D01*
Y00399696D01*
X00084162Y00402235D01*
X00066388Y00399696D02*
X00068927Y00402235D01*
X00074006D01*
X00076545Y00399696D01*
Y00397157D01*
X00074006Y00394618D01*
X00068927D01*
X00066388Y00392078D01*
Y00389539D01*
X00068927Y00387000D01*
X00074006D01*
X00076545Y00389539D01*
X01240750Y00627985D02*
Y00612750D01*
X01230593D01*
X01225515D02*
Y00627985D01*
X01220437Y00622907D01*
X01215358Y00627985D01*
Y00612750D01*
X01200123D02*
X01210280D01*
X01200123Y00622907D01*
Y00625446D01*
X01202662Y00627985D01*
X01207741D01*
X01210280Y00625446D01*
X01184888Y00627985D02*
X01189967Y00625446D01*
X01195045Y00620368D01*
Y00615289D01*
X01192506Y00612750D01*
X01187427D01*
X01184888Y00615289D01*
Y00617828D01*
X01187427Y00620368D01*
X01195045D01*
X01179810Y00627985D02*
X01169653D01*
Y00625446D01*
X01179810Y00615289D01*
Y00612750D01*
X01164575Y00625446D02*
X01162036Y00627985D01*
X01156957D01*
X01154418Y00625446D01*
Y00622907D01*
X01156957Y00620368D01*
X01154418Y00617828D01*
Y00615289D01*
X01156957Y00612750D01*
X01162036D01*
X01164575Y00615289D01*
Y00617828D01*
X01162036Y00620368D01*
X01164575Y00622907D01*
Y00625446D01*
X01162036Y00620368D02*
X01156957D01*
X01149340D02*
X01139183D01*
X01123948Y00627985D02*
X01134105D01*
Y00620368D01*
X01129026Y00622907D01*
X01126487D01*
X01123948Y00620368D01*
Y00615289D01*
X01126487Y00612750D01*
X01131565D01*
X01134105Y00615289D01*
X00182500Y00778485D02*
Y00763250D01*
X00172343D01*
X00167265D02*
Y00778485D01*
X00162187Y00773407D01*
X00157108Y00778485D01*
Y00763250D01*
X00141873D02*
X00152030D01*
X00141873Y00773407D01*
Y00775946D01*
X00144412Y00778485D01*
X00149491D01*
X00152030Y00775946D01*
X00126638Y00778485D02*
X00131716Y00775946D01*
X00136795Y00770867D01*
Y00765789D01*
X00134256Y00763250D01*
X00129177D01*
X00126638Y00765789D01*
Y00768328D01*
X00129177Y00770867D01*
X00136795D01*
X00121560Y00778485D02*
X00111403D01*
Y00775946D01*
X00121560Y00765789D01*
Y00763250D01*
X00106325Y00775946D02*
X00103785Y00778485D01*
X00098707D01*
X00096168Y00775946D01*
Y00773407D01*
X00098707Y00770867D01*
X00096168Y00768328D01*
Y00765789D01*
X00098707Y00763250D01*
X00103785D01*
X00106325Y00765789D01*
Y00768328D01*
X00103785Y00770867D01*
X00106325Y00773407D01*
Y00775946D01*
X00103785Y00770867D02*
X00098707D01*
X00091090D02*
X00080933D01*
X00065698Y00778485D02*
X00075855D01*
Y00770867D01*
X00070776Y00773407D01*
X00068237D01*
X00065698Y00770867D01*
Y00765789D01*
X00068237Y00763250D01*
X00073315D01*
X00075855Y00765789D01*
X01270500Y00302735D02*
Y00287500D01*
X01260343D01*
X01245108Y00302735D02*
X01255265D01*
Y00295117D01*
X01250187D01*
X01255265D01*
Y00287500D01*
X01232412D02*
X01237491D01*
X01240030Y00290039D01*
Y00295117D01*
X01237491Y00297657D01*
X01232412D01*
X01229873Y00295117D01*
Y00292578D01*
X01240030D01*
X01224795Y00297657D02*
Y00287500D01*
Y00292578D01*
X01222256Y00295117D01*
X01219716Y00297657D01*
X01217177D01*
X01209560Y00284961D02*
X01199403D01*
X01194325Y00302735D02*
Y00287500D01*
X01184168D01*
X00215394Y00285901D02*
Y00270666D01*
X00205237D01*
X00190002Y00285901D02*
X00200159D01*
Y00278284D01*
X00195081D01*
X00200159D01*
Y00270666D01*
X00177306D02*
X00182385D01*
X00184924Y00273205D01*
Y00278284D01*
X00182385Y00280823D01*
X00177306D01*
X00174767Y00278284D01*
Y00275744D01*
X00184924D01*
X00169689Y00280823D02*
Y00270666D01*
Y00275744D01*
X00167150Y00278284D01*
X00164610Y00280823D01*
X00162071D01*
X00154454Y00268127D02*
X00144297D01*
X00139219Y00285901D02*
Y00270666D01*
X00129062D01*
X01120000Y00930235D02*
Y00915000D01*
X01109843D01*
X01104765D02*
X01099687D01*
X01102226D01*
Y00930235D01*
X01104765Y00927696D01*
X00275000Y00930235D02*
Y00915000D01*
X00264843D01*
X00259765D02*
X00254687D01*
X00257226D01*
Y00930235D01*
X00259765Y00927696D01*
X01028843Y00878446D02*
X01031383Y00880985D01*
X01036461D01*
X01039000Y00878446D01*
Y00868289D01*
X01036461Y00865750D01*
X01031383D01*
X01028843Y00868289D01*
X01013608Y00875907D02*
X01021226D01*
X01023765Y00873367D01*
Y00868289D01*
X01021226Y00865750D01*
X01013608D01*
X01008530D02*
X01003452D01*
X01005991D01*
Y00880985D01*
X01008530Y00878446D01*
X00360593Y00799446D02*
X00363133Y00801985D01*
X00368211D01*
X00370750Y00799446D01*
Y00789289D01*
X00368211Y00786750D01*
X00363133D01*
X00360593Y00789289D01*
X00345358Y00796907D02*
X00352976D01*
X00355515Y00794368D01*
Y00789289D01*
X00352976Y00786750D01*
X00345358D01*
X00340280D02*
X00335201D01*
X00337741D01*
Y00801985D01*
X00340280Y00799446D01*
X01046835Y00998134D02*
X01049374Y01000673D01*
X01054453D01*
X01056992Y00998134D01*
Y00987977D01*
X01054453Y00985438D01*
X01049374D01*
X01046835Y00987977D01*
X01034139Y00985438D02*
Y01000673D01*
X01041757Y00993055D01*
X01031600D01*
X00291005Y00997594D02*
X00293545Y01000133D01*
X00298623D01*
X00301162Y00997594D01*
Y00987437D01*
X00298623Y00984898D01*
X00293545D01*
X00291005Y00987437D01*
X00278309Y00984898D02*
Y01000133D01*
X00285927Y00992515D01*
X00275770D01*
X01096873Y00998134D02*
X01099413Y01000673D01*
X01104491D01*
X01107030Y00998134D01*
Y00987977D01*
X01104491Y00985438D01*
X01099413D01*
X01096873Y00987977D01*
X01091795Y00998134D02*
X01089256Y01000673D01*
X01084177D01*
X01081638Y00998134D01*
Y00995595D01*
X01084177Y00993055D01*
X01086717D01*
X01084177D01*
X01081638Y00990516D01*
Y00987977D01*
X01084177Y00985438D01*
X01089256D01*
X01091795Y00987977D01*
X00240717Y00997610D02*
X00243256Y01000149D01*
X00248335D01*
X00250874Y00997610D01*
Y00987453D01*
X00248335Y00984914D01*
X00243256D01*
X00240717Y00987453D01*
X00235639Y00997610D02*
X00233100Y01000149D01*
X00228021D01*
X00225482Y00997610D01*
Y00995071D01*
X00228021Y00992532D01*
X00230561D01*
X00228021D01*
X00225482Y00989992D01*
Y00987453D01*
X00228021Y00984914D01*
X00233100D01*
X00235639Y00987453D01*
X01092587Y00289920D02*
X01095126Y00292459D01*
X01100205D01*
X01102744Y00289920D01*
Y00279763D01*
X01100205Y00277224D01*
X01095126D01*
X01092587Y00279763D01*
X01077352Y00277224D02*
X01087509D01*
X01077352Y00287381D01*
Y00289920D01*
X01079892Y00292459D01*
X01084970D01*
X01087509Y00289920D01*
X00091887Y00263138D02*
X00094426Y00265677D01*
X00099505D01*
X00102044Y00263138D01*
Y00252981D01*
X00099505Y00250442D01*
X00094426D01*
X00091887Y00252981D01*
X00076652Y00250442D02*
X00086809D01*
X00076652Y00260599D01*
Y00263138D01*
X00079191Y00265677D01*
X00084270D01*
X00086809Y00263138D01*
X01148689Y00998134D02*
X01151228Y01000673D01*
X01156307D01*
X01158846Y00998134D01*
Y00987977D01*
X01156307Y00985438D01*
X01151228D01*
X01148689Y00987977D01*
X01133454Y00985438D02*
X01143611D01*
X01133454Y00995595D01*
Y00998134D01*
X01135993Y01000673D01*
X01141072D01*
X01143611Y00998134D01*
X00190679Y00997610D02*
X00193218Y01000149D01*
X00198297D01*
X00200836Y00997610D01*
Y00987453D01*
X00198297Y00984914D01*
X00193218D01*
X00190679Y00987453D01*
X00175444Y00984914D02*
X00185601D01*
X00175444Y00995071D01*
Y00997610D01*
X00177983Y01000149D01*
X00183062D01*
X00185601Y00997610D01*
X01219085Y00429492D02*
X01221625Y00432031D01*
X01226703D01*
X01229242Y00429492D01*
Y00419335D01*
X01226703Y00416796D01*
X01221625D01*
X01219085Y00419335D01*
X01214007Y00416796D02*
X01208929D01*
X01211468D01*
Y00432031D01*
X01214007Y00429492D01*
X00274123Y00258334D02*
X00276663Y00260873D01*
X00281741D01*
X00284280Y00258334D01*
Y00248177D01*
X00281741Y00245638D01*
X00276663D01*
X00274123Y00248177D01*
X00269045Y00245638D02*
X00263967D01*
X00266506D01*
Y00260873D01*
X00269045Y00258334D01*
X01194917Y00998134D02*
X01197457Y01000673D01*
X01202535D01*
X01205074Y00998134D01*
Y00987977D01*
X01202535Y00985438D01*
X01197457D01*
X01194917Y00987977D01*
X01189839Y00985438D02*
X01184761D01*
X01187300D01*
Y01000673D01*
X01189839Y00998134D01*
X00136847Y00997578D02*
X00139387Y01000117D01*
X00144465D01*
X00147004Y00997578D01*
Y00987421D01*
X00144465Y00984882D01*
X00139387D01*
X00136847Y00987421D01*
X00131769Y00984882D02*
X00126691D01*
X00129230D01*
Y01000117D01*
X00131769Y00997578D01*
X00498500Y01002985D02*
X00488343D01*
X00493422D01*
Y00987750D01*
X00480726Y00997907D02*
X00475647D01*
X00473108Y00995368D01*
Y00987750D01*
X00480726D01*
X00483265Y00990289D01*
X00480726Y00992828D01*
X00473108D01*
X00468030Y00987750D02*
Y00997907D01*
X00460412D01*
X00457873Y00995368D01*
Y00987750D01*
X00442638Y01000446D02*
X00445177Y01002985D01*
X00450256D01*
X00452795Y01000446D01*
Y00990289D01*
X00450256Y00987750D01*
X00445177D01*
X00442638Y00990289D01*
X00427403Y00987750D02*
X00437560D01*
X00427403Y00997907D01*
Y01000446D01*
X00429942Y01002985D01*
X00435020D01*
X00437560Y01000446D01*
D54*
X00151000Y00939500D02*
Y00977500D01*
X00126750D02*
X00151000D01*
X00126750Y00939500D02*
Y00977500D01*
Y00939500D02*
X00151000D01*
X01184750Y00940000D02*
X01209000D01*
X01184750D02*
Y00978000D01*
X01209000D01*
Y00940000D02*
Y00978000D01*
X00288250Y00200250D02*
Y00238250D01*
X00264000D02*
X00288250D01*
X00264000Y00200250D02*
Y00238250D01*
Y00200250D02*
X00288250D01*
X01209000Y00371500D02*
X01233250D01*
X01209000D02*
Y00409500D01*
X01233250D01*
Y00371500D02*
Y00409500D01*
X00205000Y00939500D02*
Y00977500D01*
X00180750D02*
X00205000D01*
X00180750Y00939500D02*
Y00977500D01*
Y00939500D02*
X00205000D01*
X01138750Y00940000D02*
X01163000D01*
X01138750D02*
Y00978000D01*
X01163000D01*
Y00940000D02*
Y00978000D01*
X00082000Y00206000D02*
Y00244000D01*
Y00206000D02*
X00106250D01*
Y00244000D01*
X00082000D02*
X00106250D01*
X01106500Y00246750D02*
Y00271000D01*
X01068500Y00246750D02*
X01106500D01*
X01068500D02*
Y00271000D01*
X01106500D01*
X00230750Y00939500D02*
X00255000D01*
X00230750D02*
Y00977500D01*
X00255000D01*
Y00939500D02*
Y00977500D01*
X01111000Y00940000D02*
Y00978000D01*
X01086750D02*
X01111000D01*
X01086750Y00940000D02*
Y00978000D01*
Y00940000D02*
X01111000D01*
X00305250Y00939500D02*
Y00977500D01*
X00281000D02*
X00305250D01*
X00281000Y00939500D02*
Y00977500D01*
Y00939500D02*
X00305250D01*
X01036750Y00940000D02*
X01061000D01*
X01036750D02*
Y00978000D01*
X01061000D01*
Y00940000D02*
Y00978000D01*
X00149750Y00178750D02*
X00219000D01*
Y00261750D01*
X00149750D02*
X00219000D01*
X00149750Y00178750D02*
Y00261750D01*
X01196500Y00193750D02*
Y00276750D01*
X01265750D01*
Y00193750D02*
Y00276750D01*
X01196500Y00193750D02*
X01265750D01*
X01009000Y00817750D02*
Y00855750D01*
Y00817750D02*
X01033250D01*
Y00855750D01*
X01009000D02*
X01033250D01*
X00160000Y00303250D02*
Y00375250D01*
X00038250Y00303250D02*
Y00375250D01*
X00160000D01*
X00038250Y00303250D02*
X00160000D01*
X01034250Y00403000D02*
X01156000D01*
X01034250Y00331000D02*
X01156000D01*
Y00403000D01*
X01034250Y00331000D02*
Y00403000D01*
X00309000Y00492000D02*
Y00605750D01*
X00131500Y00492000D02*
Y00605750D01*
X00309000D01*
X00131500Y00492000D02*
X00309000D01*
X01046750Y00467750D02*
X01224250D01*
X01046750Y00581500D02*
X01224250D01*
Y00467750D02*
Y00581500D01*
X01046750Y00467750D02*
Y00581500D01*
X00342250Y00780250D02*
X00366500D01*
Y00742250D02*
Y00780250D01*
X00342250Y00742250D02*
X00366500D01*
X00342250D02*
Y00780250D01*
D90*
X00236459Y00659150D02*
D03*
Y00735350D02*
D03*
X01101791Y00662650D02*
D03*
Y00738850D02*
D03*
D91*
X00236584Y00684550D02*
D03*
Y00709950D02*
D03*
Y00722650D02*
D03*
X00236584Y00697250D02*
D03*
X00236584Y00671850D02*
D03*
X01101665Y00726150D02*
D03*
X01101665Y00700750D02*
D03*
X01101665Y00675350D02*
D03*
Y00688050D02*
D03*
Y00713450D02*
D03*
M02*
