%FSLAX44Y44*%
%MOMM*%
G71*
G01*
G75*
G04 Layer_Color=32896*
%ADD10O,1.9500X0.6000*%
%ADD11R,1.5000X1.0000*%
%ADD12R,1.0000X1.5000*%
%ADD13R,0.8000X1.2000*%
%ADD14R,1.2000X0.6000*%
%ADD15R,2.2000X1.2000*%
%ADD16R,3.0500X1.1000*%
%ADD17R,6.5000X5.5500*%
%ADD18R,1.1000X3.0500*%
%ADD19R,5.5500X6.5000*%
%ADD20R,1.1000X1.3500*%
%ADD21R,1.3500X1.1000*%
%ADD22R,1.2500X1.4500*%
%ADD23R,1.4500X1.2500*%
%ADD24R,1.5000X1.2000*%
%ADD25R,1.5000X1.0000*%
%ADD26C,1.0000*%
%ADD27C,0.6000*%
%ADD28C,1.5000*%
%ADD29C,0.8000*%
%ADD30C,0.4000*%
%ADD31C,0.3000*%
%ADD32C,0.2000*%
%ADD33R,1.5000X1.5000*%
%ADD34C,1.5000*%
%ADD35R,1.5000X1.5000*%
%ADD36R,1.5240X1.5240*%
%ADD37C,1.5240*%
%ADD38C,4.7600*%
%ADD39R,1.6900X1.6900*%
%ADD40C,1.6900*%
%ADD41O,2.5000X1.5000*%
%ADD42C,0.7000*%
%ADD43C,1.2700*%
%ADD44R,5.3000X2.8000*%
%ADD45R,6.0000X2.1000*%
%ADD46R,3.9500X2.0500*%
%ADD47R,9.4000X6.8000*%
%ADD48R,2.4500X2.5500*%
%ADD49R,8.0000X10.0000*%
%ADD50C,0.5000*%
%ADD51C,0.2500*%
%ADD52C,0.2540*%
%ADD53C,0.0254*%
%ADD54C,0.1000*%
%ADD55C,0.1540*%
%ADD56C,0.1500*%
%ADD57O,2.1500X0.8000*%
%ADD58R,1.7000X1.2000*%
%ADD59R,1.2000X1.7000*%
%ADD60R,1.0000X1.4000*%
%ADD61R,1.4000X0.8000*%
%ADD62R,2.4000X1.4000*%
%ADD63R,3.2500X1.3000*%
%ADD64R,6.7000X5.7500*%
%ADD65R,1.3000X3.2500*%
%ADD66R,5.7500X6.7000*%
%ADD67R,1.3000X1.5500*%
%ADD68R,1.5500X1.3000*%
%ADD69R,1.4500X1.6500*%
%ADD70R,1.6500X1.4500*%
%ADD71R,1.7000X1.4000*%
%ADD72R,1.7000X1.2000*%
%ADD73R,1.7000X1.7000*%
%ADD74C,1.7000*%
%ADD75R,1.7000X1.7000*%
%ADD76R,1.6256X1.6256*%
%ADD77C,1.6256*%
%ADD78C,4.9600*%
%ADD79R,1.8900X1.8900*%
%ADD80C,1.8900*%
%ADD81O,2.7000X1.7000*%
%ADD82C,0.9000*%
%ADD83C,1.4700*%
%ADD84R,5.5000X3.0000*%
%ADD85R,6.2000X2.3000*%
%ADD86R,4.1500X2.2500*%
%ADD87R,9.6000X7.0000*%
%ADD88R,2.6500X2.7500*%
%ADD89R,8.2000X10.2000*%
%ADD90R,1.3080X1.0160*%
%ADD91R,1.3330X1.0160*%
D32*
X410756Y276125D02*
X426472D01*
X893582Y276152D02*
X909298D01*
X205500Y768250D02*
X255500D01*
X205500D02*
Y908250D01*
X329500D01*
Y768250D02*
Y908250D01*
X255500Y768250D02*
X329500D01*
X1104750Y768250D02*
X1178750D01*
Y908250D01*
X1054750D02*
X1178750D01*
X1054750Y768250D02*
Y908250D01*
Y768250D02*
X1104750D01*
X78250Y305750D02*
X86250D01*
X78250D02*
Y372750D01*
X86250D01*
X1108000Y333500D02*
X1116000D01*
Y400500D01*
X1108000D02*
X1116000D01*
X193750Y496500D02*
X205250D01*
X193750D02*
Y600500D01*
X205250D01*
X1150500Y576250D02*
X1162000D01*
Y472250D02*
Y576250D01*
X1150500Y472250D02*
X1162000D01*
X527500Y972500D02*
X531750D01*
X527500Y896500D02*
X532000D01*
X568500Y972500D02*
X573500D01*
X568750Y896500D02*
X573500D01*
X527500D02*
Y972500D01*
X573500Y896500D02*
Y972500D01*
X444250Y971750D02*
X448500D01*
X444250Y895750D02*
X448750D01*
X485250Y971750D02*
X490250D01*
X485500Y895750D02*
X490250D01*
X444250D02*
Y971750D01*
X490250Y895750D02*
Y971750D01*
X407500Y894000D02*
Y970000D01*
X361500Y894000D02*
Y970000D01*
X402750Y894000D02*
X407500D01*
X402500Y970000D02*
X407500D01*
X361500Y894000D02*
X366000D01*
X361500Y970000D02*
X365750D01*
X1004000Y899750D02*
Y975750D01*
X958000Y899750D02*
Y975750D01*
X999250Y899750D02*
X1004000D01*
X999000Y975750D02*
X1004000D01*
X958000Y899750D02*
X962500D01*
X958000Y975750D02*
X962250D01*
X913000Y899750D02*
Y975750D01*
X867000Y899750D02*
Y975750D01*
X908250Y899750D02*
X913000D01*
X908000Y975750D02*
X913000D01*
X867000Y899750D02*
X871500D01*
X867000Y975750D02*
X871250D01*
X780500Y976000D02*
X784750D01*
X780500Y900000D02*
X785000D01*
X821500Y976000D02*
X826500D01*
X821750Y900000D02*
X826500D01*
X780500D02*
Y976000D01*
X826500Y900000D02*
Y976000D01*
D51*
X40250Y303750D02*
G03*
X40250Y303750I-1250J0D01*
G01*
X1156500Y402500D02*
G03*
X1156500Y402500I-1250J0D01*
G01*
X136750Y496750D02*
G03*
X136750Y496750I-1250J0D01*
G01*
X1221500Y472500D02*
G03*
X1221500Y472500I-1250J0D01*
G01*
X572250Y890750D02*
G03*
X572250Y890750I-1250J0D01*
G01*
X489000Y890000D02*
G03*
X489000Y890000I-1250J0D01*
G01*
X406250Y888250D02*
G03*
X406250Y888250I-1250J0D01*
G01*
X1002750Y894000D02*
G03*
X1002750Y894000I-1250J0D01*
G01*
X911750D02*
G03*
X911750Y894000I-1250J0D01*
G01*
X825250Y894250D02*
G03*
X825250Y894250I-1250J0D01*
G01*
D52*
X153212Y751352D02*
X228650D01*
X117314Y755500D02*
X149250D01*
X202551Y751352D02*
X229920D01*
X61250Y640000D02*
X94438D01*
X87850Y755500D02*
X98645D01*
X117314D01*
X61250D02*
X87850D01*
X94438Y640000D02*
X150250D01*
X153398Y751352D02*
X202551D01*
X61250Y640000D02*
Y755500D01*
X153906Y643656D02*
X229920D01*
Y751352D01*
X149250Y755500D02*
X153398Y751352D01*
X150250Y640000D02*
X153906Y643656D01*
X1184344Y754344D02*
X1188000Y758000D01*
X1184852Y646648D02*
X1189000Y642500D01*
X1108330Y646648D02*
Y754344D01*
X1184344D01*
X1277000Y642500D02*
Y758000D01*
X1135698Y646648D02*
X1184852D01*
X1188000Y758000D02*
X1243812D01*
X1250400Y642500D02*
X1277000D01*
X1220936D02*
X1239605D01*
X1250400D01*
X1243812Y758000D02*
X1277000D01*
X1108330Y646648D02*
X1135698D01*
X1189000Y642500D02*
X1220936D01*
X1109600Y646648D02*
X1185038D01*
X1011250Y1006485D02*
X1001093D01*
X1006172D01*
Y991250D01*
X993476Y1001407D02*
X988397D01*
X985858Y998867D01*
Y991250D01*
X993476D01*
X996015Y993789D01*
X993476Y996328D01*
X985858D01*
X980780Y991250D02*
Y1001407D01*
X973162D01*
X970623Y998867D01*
Y991250D01*
X955388Y1003946D02*
X957927Y1006485D01*
X963006D01*
X965545Y1003946D01*
Y993789D01*
X963006Y991250D01*
X957927D01*
X955388Y993789D01*
X950310Y1003946D02*
X947770Y1006485D01*
X942692D01*
X940153Y1003946D01*
Y1001407D01*
X942692Y998867D01*
X945231D01*
X942692D01*
X940153Y996328D01*
Y993789D01*
X942692Y991250D01*
X947770D01*
X950310Y993789D01*
X585750Y1002985D02*
X575593D01*
X580672D01*
Y987750D01*
X567976Y997907D02*
X562897D01*
X560358Y995368D01*
Y987750D01*
X567976D01*
X570515Y990289D01*
X567976Y992828D01*
X560358D01*
X555280Y987750D02*
Y997907D01*
X547662D01*
X545123Y995368D01*
Y987750D01*
X529888Y1000446D02*
X532427Y1002985D01*
X537506D01*
X540045Y1000446D01*
Y990289D01*
X537506Y987750D01*
X532427D01*
X529888Y990289D01*
X524810Y1000446D02*
X522271Y1002985D01*
X517192D01*
X514653Y1000446D01*
Y997907D01*
X517192Y995368D01*
X519731D01*
X517192D01*
X514653Y992828D01*
Y990289D01*
X517192Y987750D01*
X522271D01*
X524810Y990289D01*
X923250Y1006485D02*
X913093D01*
X918172D01*
Y991250D01*
X905476Y1001407D02*
X900397D01*
X897858Y998867D01*
Y991250D01*
X905476D01*
X908015Y993789D01*
X905476Y996328D01*
X897858D01*
X892780Y991250D02*
Y1001407D01*
X885162D01*
X882623Y998867D01*
Y991250D01*
X867388Y1003946D02*
X869927Y1006485D01*
X875006D01*
X877545Y1003946D01*
Y993789D01*
X875006Y991250D01*
X869927D01*
X867388Y993789D01*
X852153Y991250D02*
X862310D01*
X852153Y1001407D01*
Y1003946D01*
X854692Y1006485D01*
X859771D01*
X862310Y1003946D01*
X835500Y1006485D02*
X825343D01*
X830422D01*
Y991250D01*
X817726Y1001407D02*
X812647D01*
X810108Y998867D01*
Y991250D01*
X817726D01*
X820265Y993789D01*
X817726Y996328D01*
X810108D01*
X805030Y991250D02*
Y1001407D01*
X797412D01*
X794873Y998867D01*
Y991250D01*
X779638Y1003946D02*
X782177Y1006485D01*
X787256D01*
X789795Y1003946D01*
Y993789D01*
X787256Y991250D01*
X782177D01*
X779638Y993789D01*
X774560Y991250D02*
X769481D01*
X772020D01*
Y1006485D01*
X774560Y1003946D01*
X416750Y1001985D02*
X406593D01*
X411672D01*
Y986750D01*
X398976Y996907D02*
X393897D01*
X391358Y994368D01*
Y986750D01*
X398976D01*
X401515Y989289D01*
X398976Y991828D01*
X391358D01*
X386280Y986750D02*
Y996907D01*
X378662D01*
X376123Y994368D01*
Y986750D01*
X360888Y999446D02*
X363427Y1001985D01*
X368506D01*
X371045Y999446D01*
Y989289D01*
X368506Y986750D01*
X363427D01*
X360888Y989289D01*
X355810Y986750D02*
X350731D01*
X353270D01*
Y1001985D01*
X355810Y999446D01*
X1186593Y454946D02*
X1189133Y457485D01*
X1194211D01*
X1196750Y454946D01*
Y452407D01*
X1194211Y449868D01*
X1189133D01*
X1186593Y447328D01*
Y444789D01*
X1189133Y442250D01*
X1194211D01*
X1196750Y444789D01*
X1171358Y452407D02*
X1178976D01*
X1181515Y449868D01*
Y444789D01*
X1178976Y442250D01*
X1171358D01*
X1166280Y457485D02*
Y442250D01*
Y449868D01*
X1163741Y452407D01*
X1158662D01*
X1156123Y449868D01*
Y442250D01*
X1148506D02*
X1143427D01*
X1140888Y444789D01*
Y449868D01*
X1143427Y452407D01*
X1148506D01*
X1151045Y449868D01*
Y444789D01*
X1148506Y442250D01*
X1133270Y454946D02*
Y452407D01*
X1135810D01*
X1130731D01*
X1133270D01*
Y444789D01*
X1130731Y442250D01*
X1120575Y454946D02*
Y452407D01*
X1123114D01*
X1118036D01*
X1120575D01*
Y444789D01*
X1118036Y442250D01*
X1110418Y439711D02*
X1100261D01*
X1095183Y457485D02*
Y442250D01*
X1087565D01*
X1085026Y444789D01*
Y454946D01*
X1087565Y457485D01*
X1095183D01*
X1079948Y442250D02*
X1074870D01*
X1077409D01*
Y457485D01*
X1079948Y454946D01*
X307343Y479196D02*
X309883Y481735D01*
X314961D01*
X317500Y479196D01*
Y476657D01*
X314961Y474118D01*
X309883D01*
X307343Y471578D01*
Y469039D01*
X309883Y466500D01*
X314961D01*
X317500Y469039D01*
X292108Y476657D02*
X299726D01*
X302265Y474118D01*
Y469039D01*
X299726Y466500D01*
X292108D01*
X287030Y481735D02*
Y466500D01*
Y474118D01*
X284491Y476657D01*
X279412D01*
X276873Y474118D01*
Y466500D01*
X269256D02*
X264177D01*
X261638Y469039D01*
Y474118D01*
X264177Y476657D01*
X269256D01*
X271795Y474118D01*
Y469039D01*
X269256Y466500D01*
X254021Y479196D02*
Y476657D01*
X256560D01*
X251481D01*
X254021D01*
Y469039D01*
X251481Y466500D01*
X241325Y479196D02*
Y476657D01*
X243864D01*
X238785D01*
X241325D01*
Y469039D01*
X238785Y466500D01*
X231168Y463961D02*
X221011D01*
X215933Y481735D02*
Y466500D01*
X208315D01*
X205776Y469039D01*
Y479196D01*
X208315Y481735D01*
X215933D01*
X200698Y466500D02*
X195619D01*
X198159D01*
Y481735D01*
X200698Y479196D01*
X1115500Y409000D02*
Y424235D01*
X1107883D01*
X1105343Y421696D01*
Y416618D01*
X1107883Y414078D01*
X1115500D01*
X1100265Y409000D02*
Y424235D01*
X1095187Y419157D01*
X1090108Y424235D01*
Y409000D01*
X1077412Y424235D02*
X1082491D01*
X1085030Y421696D01*
Y411539D01*
X1082491Y409000D01*
X1077412D01*
X1074873Y411539D01*
Y421696D01*
X1077412Y424235D01*
X1059638Y421696D02*
X1062177Y424235D01*
X1067256D01*
X1069795Y421696D01*
Y419157D01*
X1067256Y416618D01*
X1062177D01*
X1059638Y414078D01*
Y411539D01*
X1062177Y409000D01*
X1067256D01*
X1069795Y411539D01*
X122250Y387000D02*
Y402235D01*
X114633D01*
X112093Y399696D01*
Y394618D01*
X114633Y392078D01*
X122250D01*
X107015Y387000D02*
Y402235D01*
X101937Y397157D01*
X96858Y402235D01*
Y387000D01*
X84162Y402235D02*
X89241D01*
X91780Y399696D01*
Y389539D01*
X89241Y387000D01*
X84162D01*
X81623Y389539D01*
Y399696D01*
X84162Y402235D01*
X66388Y399696D02*
X68927Y402235D01*
X74006D01*
X76545Y399696D01*
Y397157D01*
X74006Y394618D01*
X68927D01*
X66388Y392078D01*
Y389539D01*
X68927Y387000D01*
X74006D01*
X76545Y389539D01*
X1240750Y627985D02*
Y612750D01*
X1230593D01*
X1225515D02*
Y627985D01*
X1220437Y622907D01*
X1215358Y627985D01*
Y612750D01*
X1200123D02*
X1210280D01*
X1200123Y622907D01*
Y625446D01*
X1202662Y627985D01*
X1207741D01*
X1210280Y625446D01*
X1184888Y627985D02*
X1189967Y625446D01*
X1195045Y620368D01*
Y615289D01*
X1192506Y612750D01*
X1187427D01*
X1184888Y615289D01*
Y617828D01*
X1187427Y620368D01*
X1195045D01*
X1179810Y627985D02*
X1169653D01*
Y625446D01*
X1179810Y615289D01*
Y612750D01*
X1164575Y625446D02*
X1162036Y627985D01*
X1156957D01*
X1154418Y625446D01*
Y622907D01*
X1156957Y620368D01*
X1154418Y617828D01*
Y615289D01*
X1156957Y612750D01*
X1162036D01*
X1164575Y615289D01*
Y617828D01*
X1162036Y620368D01*
X1164575Y622907D01*
Y625446D01*
X1162036Y620368D02*
X1156957D01*
X1149340D02*
X1139183D01*
X1123948Y627985D02*
X1134105D01*
Y620368D01*
X1129026Y622907D01*
X1126487D01*
X1123948Y620368D01*
Y615289D01*
X1126487Y612750D01*
X1131565D01*
X1134105Y615289D01*
X182500Y778485D02*
Y763250D01*
X172343D01*
X167265D02*
Y778485D01*
X162187Y773407D01*
X157108Y778485D01*
Y763250D01*
X141873D02*
X152030D01*
X141873Y773407D01*
Y775946D01*
X144412Y778485D01*
X149491D01*
X152030Y775946D01*
X126638Y778485D02*
X131716Y775946D01*
X136795Y770867D01*
Y765789D01*
X134256Y763250D01*
X129177D01*
X126638Y765789D01*
Y768328D01*
X129177Y770867D01*
X136795D01*
X121560Y778485D02*
X111403D01*
Y775946D01*
X121560Y765789D01*
Y763250D01*
X106325Y775946D02*
X103785Y778485D01*
X98707D01*
X96168Y775946D01*
Y773407D01*
X98707Y770867D01*
X96168Y768328D01*
Y765789D01*
X98707Y763250D01*
X103785D01*
X106325Y765789D01*
Y768328D01*
X103785Y770867D01*
X106325Y773407D01*
Y775946D01*
X103785Y770867D02*
X98707D01*
X91090D02*
X80933D01*
X65698Y778485D02*
X75855D01*
Y770867D01*
X70776Y773407D01*
X68237D01*
X65698Y770867D01*
Y765789D01*
X68237Y763250D01*
X73315D01*
X75855Y765789D01*
X1270500Y302735D02*
Y287500D01*
X1260343D01*
X1245108Y302735D02*
X1255265D01*
Y295117D01*
X1250187D01*
X1255265D01*
Y287500D01*
X1232412D02*
X1237491D01*
X1240030Y290039D01*
Y295117D01*
X1237491Y297657D01*
X1232412D01*
X1229873Y295117D01*
Y292578D01*
X1240030D01*
X1224795Y297657D02*
Y287500D01*
Y292578D01*
X1222256Y295117D01*
X1219716Y297657D01*
X1217177D01*
X1209560Y284961D02*
X1199403D01*
X1194325Y302735D02*
Y287500D01*
X1184168D01*
X215394Y285901D02*
Y270666D01*
X205237D01*
X190002Y285901D02*
X200159D01*
Y278284D01*
X195081D01*
X200159D01*
Y270666D01*
X177306D02*
X182385D01*
X184924Y273205D01*
Y278284D01*
X182385Y280823D01*
X177306D01*
X174767Y278284D01*
Y275744D01*
X184924D01*
X169689Y280823D02*
Y270666D01*
Y275744D01*
X167150Y278284D01*
X164610Y280823D01*
X162071D01*
X154454Y268127D02*
X144297D01*
X139219Y285901D02*
Y270666D01*
X129062D01*
X1120000Y930235D02*
Y915000D01*
X1109843D01*
X1104765D02*
X1099687D01*
X1102226D01*
Y930235D01*
X1104765Y927696D01*
X275000Y930235D02*
Y915000D01*
X264843D01*
X259765D02*
X254687D01*
X257226D01*
Y930235D01*
X259765Y927696D01*
X1028843Y878446D02*
X1031383Y880985D01*
X1036461D01*
X1039000Y878446D01*
Y868289D01*
X1036461Y865750D01*
X1031383D01*
X1028843Y868289D01*
X1013608Y875907D02*
X1021226D01*
X1023765Y873367D01*
Y868289D01*
X1021226Y865750D01*
X1013608D01*
X1008530D02*
X1003452D01*
X1005991D01*
Y880985D01*
X1008530Y878446D01*
X360593Y799446D02*
X363133Y801985D01*
X368211D01*
X370750Y799446D01*
Y789289D01*
X368211Y786750D01*
X363133D01*
X360593Y789289D01*
X345358Y796907D02*
X352976D01*
X355515Y794368D01*
Y789289D01*
X352976Y786750D01*
X345358D01*
X340280D02*
X335201D01*
X337741D01*
Y801985D01*
X340280Y799446D01*
X1046835Y998134D02*
X1049374Y1000673D01*
X1054453D01*
X1056992Y998134D01*
Y987977D01*
X1054453Y985438D01*
X1049374D01*
X1046835Y987977D01*
X1034139Y985438D02*
Y1000673D01*
X1041757Y993055D01*
X1031600D01*
X291005Y997594D02*
X293545Y1000133D01*
X298623D01*
X301162Y997594D01*
Y987437D01*
X298623Y984898D01*
X293545D01*
X291005Y987437D01*
X278309Y984898D02*
Y1000133D01*
X285927Y992515D01*
X275770D01*
X1096873Y998134D02*
X1099413Y1000673D01*
X1104491D01*
X1107030Y998134D01*
Y987977D01*
X1104491Y985438D01*
X1099413D01*
X1096873Y987977D01*
X1091795Y998134D02*
X1089256Y1000673D01*
X1084177D01*
X1081638Y998134D01*
Y995595D01*
X1084177Y993055D01*
X1086717D01*
X1084177D01*
X1081638Y990516D01*
Y987977D01*
X1084177Y985438D01*
X1089256D01*
X1091795Y987977D01*
X240717Y997610D02*
X243256Y1000149D01*
X248335D01*
X250874Y997610D01*
Y987453D01*
X248335Y984914D01*
X243256D01*
X240717Y987453D01*
X235639Y997610D02*
X233100Y1000149D01*
X228021D01*
X225482Y997610D01*
Y995071D01*
X228021Y992532D01*
X230561D01*
X228021D01*
X225482Y989992D01*
Y987453D01*
X228021Y984914D01*
X233100D01*
X235639Y987453D01*
X1092587Y289920D02*
X1095126Y292459D01*
X1100205D01*
X1102744Y289920D01*
Y279763D01*
X1100205Y277224D01*
X1095126D01*
X1092587Y279763D01*
X1077352Y277224D02*
X1087509D01*
X1077352Y287381D01*
Y289920D01*
X1079892Y292459D01*
X1084970D01*
X1087509Y289920D01*
X91887Y263138D02*
X94426Y265677D01*
X99505D01*
X102044Y263138D01*
Y252981D01*
X99505Y250442D01*
X94426D01*
X91887Y252981D01*
X76652Y250442D02*
X86809D01*
X76652Y260599D01*
Y263138D01*
X79191Y265677D01*
X84270D01*
X86809Y263138D01*
X1148689Y998134D02*
X1151228Y1000673D01*
X1156307D01*
X1158846Y998134D01*
Y987977D01*
X1156307Y985438D01*
X1151228D01*
X1148689Y987977D01*
X1133454Y985438D02*
X1143611D01*
X1133454Y995595D01*
Y998134D01*
X1135993Y1000673D01*
X1141072D01*
X1143611Y998134D01*
X190679Y997610D02*
X193218Y1000149D01*
X198297D01*
X200836Y997610D01*
Y987453D01*
X198297Y984914D01*
X193218D01*
X190679Y987453D01*
X175444Y984914D02*
X185601D01*
X175444Y995071D01*
Y997610D01*
X177983Y1000149D01*
X183062D01*
X185601Y997610D01*
X1219085Y429492D02*
X1221625Y432031D01*
X1226703D01*
X1229242Y429492D01*
Y419335D01*
X1226703Y416796D01*
X1221625D01*
X1219085Y419335D01*
X1214007Y416796D02*
X1208929D01*
X1211468D01*
Y432031D01*
X1214007Y429492D01*
X274123Y258334D02*
X276663Y260873D01*
X281741D01*
X284280Y258334D01*
Y248177D01*
X281741Y245638D01*
X276663D01*
X274123Y248177D01*
X269045Y245638D02*
X263967D01*
X266506D01*
Y260873D01*
X269045Y258334D01*
X1194917Y998134D02*
X1197457Y1000673D01*
X1202535D01*
X1205074Y998134D01*
Y987977D01*
X1202535Y985438D01*
X1197457D01*
X1194917Y987977D01*
X1189839Y985438D02*
X1184761D01*
X1187300D01*
Y1000673D01*
X1189839Y998134D01*
X136847Y997578D02*
X139387Y1000117D01*
X144465D01*
X147004Y997578D01*
Y987421D01*
X144465Y984882D01*
X139387D01*
X136847Y987421D01*
X131769Y984882D02*
X126691D01*
X129230D01*
Y1000117D01*
X131769Y997578D01*
X498500Y1002985D02*
X488343D01*
X493422D01*
Y987750D01*
X480726Y997907D02*
X475647D01*
X473108Y995368D01*
Y987750D01*
X480726D01*
X483265Y990289D01*
X480726Y992828D01*
X473108D01*
X468030Y987750D02*
Y997907D01*
X460412D01*
X457873Y995368D01*
Y987750D01*
X442638Y1000446D02*
X445177Y1002985D01*
X450256D01*
X452795Y1000446D01*
Y990289D01*
X450256Y987750D01*
X445177D01*
X442638Y990289D01*
X427403Y987750D02*
X437560D01*
X427403Y997907D01*
Y1000446D01*
X429942Y1002985D01*
X435020D01*
X437560Y1000446D01*
D54*
X151000Y939500D02*
Y977500D01*
X126750D02*
X151000D01*
X126750Y939500D02*
Y977500D01*
Y939500D02*
X151000D01*
X1184750Y940000D02*
X1209000D01*
X1184750D02*
Y978000D01*
X1209000D01*
Y940000D02*
Y978000D01*
X288250Y200250D02*
Y238250D01*
X264000D02*
X288250D01*
X264000Y200250D02*
Y238250D01*
Y200250D02*
X288250D01*
X1209000Y371500D02*
X1233250D01*
X1209000D02*
Y409500D01*
X1233250D01*
Y371500D02*
Y409500D01*
X205000Y939500D02*
Y977500D01*
X180750D02*
X205000D01*
X180750Y939500D02*
Y977500D01*
Y939500D02*
X205000D01*
X1138750Y940000D02*
X1163000D01*
X1138750D02*
Y978000D01*
X1163000D01*
Y940000D02*
Y978000D01*
X82000Y206000D02*
Y244000D01*
Y206000D02*
X106250D01*
Y244000D01*
X82000D02*
X106250D01*
X1106500Y246750D02*
Y271000D01*
X1068500Y246750D02*
X1106500D01*
X1068500D02*
Y271000D01*
X1106500D01*
X230750Y939500D02*
X255000D01*
X230750D02*
Y977500D01*
X255000D01*
Y939500D02*
Y977500D01*
X1111000Y940000D02*
Y978000D01*
X1086750D02*
X1111000D01*
X1086750Y940000D02*
Y978000D01*
Y940000D02*
X1111000D01*
X305250Y939500D02*
Y977500D01*
X281000D02*
X305250D01*
X281000Y939500D02*
Y977500D01*
Y939500D02*
X305250D01*
X1036750Y940000D02*
X1061000D01*
X1036750D02*
Y978000D01*
X1061000D01*
Y940000D02*
Y978000D01*
X149750Y178750D02*
X219000D01*
Y261750D01*
X149750D02*
X219000D01*
X149750Y178750D02*
Y261750D01*
X1196500Y193750D02*
Y276750D01*
X1265750D01*
Y193750D02*
Y276750D01*
X1196500Y193750D02*
X1265750D01*
X1009000Y817750D02*
Y855750D01*
Y817750D02*
X1033250D01*
Y855750D01*
X1009000D02*
X1033250D01*
X160000Y303250D02*
Y375250D01*
X38250Y303250D02*
Y375250D01*
X160000D01*
X38250Y303250D02*
X160000D01*
X1034250Y403000D02*
X1156000D01*
X1034250Y331000D02*
X1156000D01*
Y403000D01*
X1034250Y331000D02*
Y403000D01*
X309000Y492000D02*
Y605750D01*
X131500Y492000D02*
Y605750D01*
X309000D01*
X131500Y492000D02*
X309000D01*
X1046750Y467750D02*
X1224250D01*
X1046750Y581500D02*
X1224250D01*
Y467750D02*
Y581500D01*
X1046750Y467750D02*
Y581500D01*
X342250Y780250D02*
X366500D01*
Y742250D02*
Y780250D01*
X342250Y742250D02*
X366500D01*
X342250D02*
Y780250D01*
D90*
X236459Y659150D02*
D03*
Y735350D02*
D03*
X1101791Y662650D02*
D03*
Y738850D02*
D03*
D91*
X236584Y684550D02*
D03*
Y709950D02*
D03*
Y722650D02*
D03*
X236584Y697250D02*
D03*
X236584Y671850D02*
D03*
X1101665Y726150D02*
D03*
X1101665Y700750D02*
D03*
X1101665Y675350D02*
D03*
Y688050D02*
D03*
Y713450D02*
D03*
M02*
