%FSAX44Y44*%
%MOMM*%
G71*
G01*
G75*
G04 Layer_Physical_Order=1*
G04 Layer_Color=255*
%ADD10O,1.9500X0.6000*%
%ADD11R,1.5000X1.0000*%
%ADD12R,1.0000X1.5000*%
%ADD13R,0.8000X1.2000*%
%ADD14R,1.2000X0.6000*%
%ADD15R,2.2000X1.2000*%
%ADD16R,3.0500X1.1000*%
%ADD17R,6.5000X5.5500*%
%ADD18R,1.1000X3.0500*%
%ADD19R,5.5500X6.5000*%
%ADD20R,1.1000X1.3500*%
%ADD21R,1.3500X1.1000*%
%ADD22R,1.2500X1.4500*%
%ADD23R,1.4500X1.2500*%
%ADD24R,1.5000X1.2000*%
%ADD25R,1.5000X1.0000*%
%ADD26C,1.0000*%
%ADD27C,0.6000*%
%ADD28C,1.5000*%
%ADD29C,0.8000*%
%ADD30C,0.4000*%
%ADD31C,0.3000*%
%ADD32C,0.2000*%
%ADD33R,1.5000X1.5000*%
%ADD34C,1.5000*%
%ADD35R,1.5000X1.5000*%
%ADD36R,1.5240X1.5240*%
%ADD37C,1.5240*%
%ADD38C,4.7600*%
%ADD39R,1.6900X1.6900*%
%ADD40C,1.6900*%
%ADD41O,2.5000X1.5000*%
%ADD42C,0.7000*%
%ADD43C,1.2700*%
G36*
X01162500Y00416478D02*
Y00278250D01*
Y00274750D01*
X01135216Y00246339D01*
X01133946Y00246326D01*
X01133374Y00246898D01*
Y00247250D01*
X01132898Y00248398D01*
X01131750Y00248874D01*
X01125374D01*
Y00263626D01*
X01126681D01*
X01127830Y00264102D01*
X01128305Y00265250D01*
Y00321750D01*
X01127830Y00322898D01*
X01126681Y00323374D01*
X01098374D01*
Y00378626D01*
X01131750D01*
X01132898Y00379102D01*
X01133374Y00380250D01*
Y00405250D01*
X01134250D01*
Y00422750D01*
X01133056D01*
Y00425250D01*
X01153728D01*
X01162500Y00416478D01*
D02*
G37*
G36*
X01232431Y00399272D02*
Y00379000D01*
X01228500D01*
Y00370000D01*
X01243500D01*
Y00379000D01*
X01239569D01*
Y00390735D01*
X01240689Y00391334D01*
X01240884Y00391203D01*
X01242250Y00390932D01*
X01268250D01*
X01269616Y00391203D01*
X01270773Y00391977D01*
X01285258Y00406461D01*
X01286431Y00405975D01*
Y00337478D01*
X01276022Y00327069D01*
X01216000D01*
X01214634Y00326797D01*
X01213477Y00326023D01*
X01212742Y00325289D01*
X01211569Y00325775D01*
Y00350222D01*
X01219028Y00357681D01*
X01228500D01*
Y00356750D01*
X01243500D01*
Y00365750D01*
X01228500D01*
Y00364819D01*
X01219028D01*
X01209819Y00374028D01*
Y00398750D01*
X01212750D01*
Y00412181D01*
X01219522D01*
X01232431Y00399272D01*
D02*
G37*
G36*
X00475681Y00872522D02*
Y00602000D01*
X00475953Y00600634D01*
X00476727Y00599477D01*
X00483250Y00592953D01*
Y00589977D01*
X00482111Y00589415D01*
X00481209Y00590107D01*
X00479299Y00590898D01*
X00477250Y00591168D01*
X00475201Y00590898D01*
X00473291Y00590107D01*
X00471651Y00588849D01*
X00470393Y00587209D01*
X00470231Y00586819D01*
X00453368D01*
X00452960Y00588021D01*
X00454299Y00589049D01*
X00455760Y00590954D01*
X00456679Y00593172D01*
X00456993Y00595553D01*
X00456679Y00597934D01*
X00455760Y00600153D01*
X00454299Y00602058D01*
X00452393Y00603520D01*
X00450175Y00604438D01*
X00447794Y00604752D01*
X00445413Y00604438D01*
X00443195Y00603520D01*
X00441290Y00602058D01*
X00439828Y00600153D01*
X00438909Y00597934D01*
X00438596Y00595553D01*
X00438909Y00593172D01*
X00439828Y00590954D01*
X00441290Y00589049D01*
X00442629Y00588021D01*
X00442221Y00586819D01*
X00427968D01*
X00427560Y00588021D01*
X00428899Y00589049D01*
X00430360Y00590954D01*
X00431279Y00593172D01*
X00431593Y00595553D01*
X00431279Y00597934D01*
X00430360Y00600153D01*
X00428899Y00602058D01*
X00426993Y00603520D01*
X00424775Y00604438D01*
X00422394Y00604752D01*
X00420013Y00604438D01*
X00417795Y00603520D01*
X00415890Y00602058D01*
X00414428Y00600153D01*
X00413509Y00597934D01*
X00413195Y00595553D01*
X00413509Y00593172D01*
X00414428Y00590954D01*
X00415890Y00589049D01*
X00417229Y00588021D01*
X00416821Y00586819D01*
X00175250D01*
X00173884Y00586547D01*
X00172727Y00585773D01*
X00150727Y00563773D01*
X00149953Y00562616D01*
X00149681Y00561250D01*
Y00529188D01*
X00146500D01*
X00144744Y00528839D01*
X00143256Y00527844D01*
X00142261Y00526356D01*
X00141912Y00524600D01*
X00142261Y00522844D01*
X00143256Y00521356D01*
X00144744Y00520361D01*
X00146500Y00520012D01*
X00160000D01*
X00161756Y00520361D01*
X00163244Y00521356D01*
X00164239Y00522844D01*
X00164588Y00524600D01*
X00164239Y00526356D01*
X00163244Y00527844D01*
X00161756Y00528839D01*
X00160000Y00529188D01*
X00156819D01*
Y00559772D01*
X00176728Y00579681D01*
X00418311D01*
X00418559Y00578436D01*
X00417795Y00578120D01*
X00415890Y00576658D01*
X00414428Y00574753D01*
X00413509Y00572534D01*
X00413195Y00570153D01*
X00413509Y00567772D01*
X00414428Y00565554D01*
X00415890Y00563649D01*
X00417795Y00562187D01*
X00420013Y00561268D01*
X00422394Y00560955D01*
X00424775Y00561268D01*
X00426993Y00562187D01*
X00428899Y00563649D01*
X00430360Y00565554D01*
X00431279Y00567772D01*
X00431593Y00570153D01*
X00431279Y00572534D01*
X00430360Y00574753D01*
X00428899Y00576658D01*
X00426993Y00578120D01*
X00426230Y00578436D01*
X00426478Y00579681D01*
X00443711D01*
X00443959Y00578436D01*
X00443195Y00578120D01*
X00441290Y00576658D01*
X00439828Y00574753D01*
X00438909Y00572534D01*
X00438596Y00570153D01*
X00438909Y00567772D01*
X00439828Y00565554D01*
X00441290Y00563649D01*
X00443195Y00562187D01*
X00445413Y00561268D01*
X00447794Y00560955D01*
X00450175Y00561268D01*
X00451206Y00561695D01*
X00481500Y00531401D01*
Y00502052D01*
X00480361Y00501490D01*
X00480209Y00501607D01*
X00478299Y00502398D01*
X00476250Y00502668D01*
X00474201Y00502398D01*
X00473811Y00502236D01*
X00468450Y00507597D01*
X00467293Y00508370D01*
X00465927Y00508642D01*
X00443188D01*
X00441823Y00508370D01*
X00441745Y00508319D01*
X00433191D01*
X00431825Y00508047D01*
X00430668Y00507273D01*
X00425806Y00502411D01*
X00424775Y00502838D01*
X00422394Y00503152D01*
X00420013Y00502838D01*
X00417795Y00501920D01*
X00415890Y00500458D01*
X00414428Y00498553D01*
X00413509Y00496334D01*
X00413195Y00493953D01*
X00413509Y00491572D01*
X00414428Y00489354D01*
X00415890Y00487449D01*
X00417795Y00485987D01*
X00420013Y00485068D01*
X00422394Y00484754D01*
X00424775Y00485068D01*
X00426993Y00485987D01*
X00428899Y00487449D01*
X00430360Y00489354D01*
X00431279Y00491572D01*
X00431593Y00493953D01*
X00431279Y00496334D01*
X00430853Y00497365D01*
X00434669Y00501181D01*
X00440409D01*
X00440971Y00500042D01*
X00439828Y00498553D01*
X00438909Y00496334D01*
X00438596Y00493953D01*
X00438909Y00491572D01*
X00439828Y00489354D01*
X00441290Y00487449D01*
X00443195Y00485987D01*
X00445413Y00485068D01*
X00447794Y00484754D01*
X00450175Y00485068D01*
X00452393Y00485987D01*
X00454299Y00487449D01*
X00455760Y00489354D01*
X00456679Y00491572D01*
X00456993Y00493953D01*
X00456679Y00496334D01*
X00455760Y00498553D01*
X00454369Y00500366D01*
X00454931Y00501505D01*
X00464449D01*
X00468764Y00497190D01*
X00468602Y00496799D01*
X00468332Y00494750D01*
X00468602Y00492701D01*
X00469393Y00490791D01*
X00470651Y00489151D01*
X00472291Y00487893D01*
X00474201Y00487102D01*
X00476250Y00486832D01*
X00478299Y00487102D01*
X00480209Y00487893D01*
X00480361Y00488010D01*
X00481500Y00487448D01*
Y00394456D01*
X00480327Y00393970D01*
X00468126Y00406171D01*
X00466968Y00406944D01*
X00465603Y00407216D01*
X00437978D01*
X00430853Y00414342D01*
X00431279Y00415372D01*
X00431593Y00417753D01*
X00431279Y00420134D01*
X00430360Y00422352D01*
X00428899Y00424258D01*
X00426993Y00425719D01*
X00424775Y00426638D01*
X00422394Y00426952D01*
X00420013Y00426638D01*
X00417795Y00425719D01*
X00415890Y00424258D01*
X00414428Y00422352D01*
X00413509Y00420134D01*
X00413195Y00417753D01*
X00413509Y00415372D01*
X00414428Y00413154D01*
X00415890Y00411249D01*
X00417795Y00409787D01*
X00420013Y00408868D01*
X00422394Y00408554D01*
X00424775Y00408868D01*
X00425806Y00409295D01*
X00433977Y00401124D01*
X00433977D01*
X00433977Y00401124D01*
X00433977D01*
X00433977Y00401124D01*
Y00401124D01*
X00433977Y00401124D01*
Y00401124D01*
X00435134Y00400350D01*
X00436500Y00400079D01*
X00440906D01*
X00441314Y00398876D01*
X00441290Y00398858D01*
X00439828Y00396953D01*
X00438909Y00394734D01*
X00438596Y00392353D01*
X00438909Y00389972D01*
X00439828Y00387754D01*
X00441290Y00385849D01*
X00443195Y00384387D01*
X00445413Y00383468D01*
X00447794Y00383154D01*
X00450175Y00383468D01*
X00452393Y00384387D01*
X00454299Y00385849D01*
X00455760Y00387754D01*
X00456679Y00389972D01*
X00456993Y00392353D01*
X00456679Y00394734D01*
X00455760Y00396953D01*
X00454299Y00398858D01*
X00454274Y00398876D01*
X00454683Y00400079D01*
X00464124D01*
X00476727Y00387477D01*
X00477884Y00386703D01*
X00479250Y00386431D01*
X00481500D01*
Y00331297D01*
X00456022Y00305819D01*
X00448875D01*
X00448792Y00307086D01*
X00450175Y00307268D01*
X00452393Y00308187D01*
X00454299Y00309649D01*
X00455760Y00311554D01*
X00456679Y00313772D01*
X00456993Y00316153D01*
X00456679Y00318534D01*
X00455760Y00320752D01*
X00454299Y00322658D01*
X00452393Y00324119D01*
X00450175Y00325038D01*
X00447794Y00325352D01*
X00445413Y00325038D01*
X00443195Y00324119D01*
X00441290Y00322658D01*
X00439828Y00320752D01*
X00438909Y00318534D01*
X00438596Y00316153D01*
X00438909Y00313772D01*
X00439828Y00311554D01*
X00441290Y00309649D01*
X00443195Y00308187D01*
X00445413Y00307268D01*
X00446796Y00307086D01*
X00446713Y00305819D01*
X00430728D01*
X00428448Y00308099D01*
X00428531Y00309366D01*
X00428899Y00309649D01*
X00430360Y00311554D01*
X00431279Y00313772D01*
X00431593Y00316153D01*
X00431279Y00318534D01*
X00430360Y00320752D01*
X00428899Y00322658D01*
X00426993Y00324119D01*
X00424775Y00325038D01*
X00422394Y00325352D01*
X00420013Y00325038D01*
X00417795Y00324119D01*
X00415890Y00322658D01*
X00414428Y00320752D01*
X00413509Y00318534D01*
X00413195Y00316153D01*
X00413509Y00313772D01*
X00414428Y00311554D01*
X00415890Y00309649D01*
X00417795Y00308187D01*
X00419183Y00307612D01*
X00419871Y00306583D01*
X00425956Y00300498D01*
X00425250Y00299442D01*
X00424775Y00299638D01*
X00422394Y00299952D01*
X00420013Y00299638D01*
X00417795Y00298720D01*
X00415890Y00297258D01*
X00414428Y00295352D01*
X00413509Y00293134D01*
X00413195Y00290753D01*
X00413509Y00288372D01*
X00414428Y00286154D01*
X00415890Y00284249D01*
X00417795Y00282787D01*
X00420013Y00281868D01*
X00422394Y00281555D01*
X00424775Y00281868D01*
X00426993Y00282787D01*
X00428899Y00284249D01*
X00430360Y00286154D01*
X00431279Y00288372D01*
X00431593Y00290753D01*
X00431279Y00293134D01*
X00430360Y00295352D01*
X00428899Y00297258D01*
X00428489Y00297572D01*
X00429013Y00298729D01*
X00429250Y00298681D01*
X00438674D01*
Y00281633D01*
X00456914D01*
Y00298681D01*
X00457500D01*
X00458866Y00298953D01*
X00460023Y00299727D01*
X00480327Y00320030D01*
X00481500Y00319544D01*
Y00283216D01*
X00480545Y00282379D01*
X00480250Y00282418D01*
X00478201Y00282148D01*
X00476291Y00281357D01*
X00474651Y00280099D01*
X00473393Y00278459D01*
X00472602Y00276549D01*
X00472332Y00274500D01*
X00472602Y00272451D01*
X00473393Y00270541D01*
X00474651Y00268901D01*
X00476291Y00267643D01*
X00478201Y00266852D01*
X00480250Y00266582D01*
X00480545Y00266621D01*
X00481500Y00265784D01*
Y00205456D01*
X00480327Y00204970D01*
X00382819Y00302478D01*
Y00419943D01*
X00383069Y00421200D01*
X00382819Y00422456D01*
Y00482500D01*
Y00487750D01*
X00382547Y00489116D01*
X00381773Y00490273D01*
X00363273Y00508773D01*
X00362116Y00509547D01*
X00360750Y00509819D01*
X00356000D01*
Y00514750D01*
X00331000D01*
Y00509819D01*
X00327000D01*
X00325634Y00509547D01*
X00324477Y00508773D01*
X00304477Y00488773D01*
X00303703Y00487616D01*
X00303431Y00486250D01*
Y00482500D01*
Y00455250D01*
X00298000D01*
Y00452318D01*
X00273500D01*
Y00455750D01*
X00257000D01*
Y00441750D01*
X00273500D01*
Y00445181D01*
X00298000D01*
Y00442250D01*
X00316000D01*
Y00455250D01*
X00310569D01*
Y00484772D01*
X00328478Y00502681D01*
X00331000D01*
Y00499750D01*
X00356000D01*
Y00502681D01*
X00359272D01*
X00375681Y00486272D01*
Y00431647D01*
X00374561Y00431048D01*
X00373815Y00431547D01*
X00372450Y00431819D01*
X00354000D01*
Y00432750D01*
X00339000D01*
Y00423750D01*
X00354000D01*
Y00424681D01*
X00370971D01*
X00375681Y00419972D01*
Y00301000D01*
X00375681Y00301000D01*
X00375681D01*
X00375953Y00299634D01*
X00376727Y00298477D01*
X00481500Y00193703D01*
Y00190311D01*
X00480545Y00189473D01*
X00480450Y00189486D01*
X00477853Y00189144D01*
X00475432Y00188141D01*
X00473861Y00186936D01*
X00453523Y00207273D01*
X00452366Y00208047D01*
X00451000Y00208319D01*
X00407478D01*
X00350069Y00265728D01*
Y00343750D01*
X00353000D01*
Y00361750D01*
X00350069D01*
Y00410500D01*
X00354000D01*
Y00419500D01*
X00339000D01*
Y00419500D01*
X00337797Y00419500D01*
X00331069Y00426228D01*
Y00464772D01*
X00341047Y00474750D01*
X00356000D01*
Y00489750D01*
X00331000D01*
Y00474797D01*
X00324977Y00468773D01*
X00324203Y00467616D01*
X00323931Y00466250D01*
Y00424750D01*
X00324203Y00423384D01*
X00324977Y00422227D01*
X00334727Y00412477D01*
X00335884Y00411703D01*
X00337250Y00411431D01*
X00339000D01*
Y00410500D01*
X00342931D01*
Y00361750D01*
X00340000D01*
Y00357319D01*
X00310228D01*
X00288773Y00378773D01*
X00287616Y00379547D01*
X00286250Y00379818D01*
X00273500D01*
Y00383250D01*
X00257000D01*
Y00369250D01*
X00273500D01*
Y00372681D01*
X00284772D01*
X00306227Y00351227D01*
X00307384Y00350453D01*
X00308750Y00350181D01*
X00340000D01*
Y00343750D01*
X00342931D01*
Y00264250D01*
X00343203Y00262884D01*
X00343977Y00261727D01*
X00403477Y00202227D01*
X00404634Y00201453D01*
X00406000Y00201181D01*
X00449522D01*
X00470512Y00180191D01*
X00470414Y00179450D01*
X00470756Y00176853D01*
X00471759Y00174432D01*
X00473028Y00172778D01*
X00449974Y00149724D01*
X00448835Y00150286D01*
X00448936Y00151050D01*
X00448594Y00153647D01*
X00447591Y00156068D01*
X00445996Y00158146D01*
X00443918Y00159741D01*
X00441497Y00160744D01*
X00438900Y00161086D01*
X00436302Y00160744D01*
X00433882Y00159741D01*
X00431804Y00158146D01*
X00430209Y00156068D01*
X00429206Y00153647D01*
X00428864Y00151050D01*
X00429206Y00148453D01*
X00430209Y00146032D01*
X00431804Y00143954D01*
X00433882Y00142359D01*
X00436302Y00141356D01*
X00438900Y00141014D01*
X00439664Y00141115D01*
X00440226Y00139976D01*
X00370500Y00070250D01*
X00089000D01*
X00071250Y00088000D01*
X00041319Y00117931D01*
Y00183475D01*
X00042492Y00183961D01*
X00108477Y00117977D01*
X00109634Y00117203D01*
X00111000Y00116931D01*
X00163750D01*
Y00111000D01*
X00181750D01*
Y00129000D01*
X00163750D01*
Y00124069D01*
X00112478D01*
X00063279Y00173268D01*
X00063765Y00174441D01*
X00194250D01*
X00194250Y00174441D01*
X00195420Y00174674D01*
X00196413Y00175337D01*
X00275413Y00254337D01*
X00276076Y00255329D01*
X00276309Y00256500D01*
X00276309Y00256500D01*
Y00284483D01*
X00292667Y00300841D01*
X00308997D01*
X00309081Y00300731D01*
X00310961Y00299289D01*
X00313151Y00298382D01*
X00315500Y00298072D01*
X00317850Y00298382D01*
X00320039Y00299289D01*
X00321919Y00300731D01*
X00323362Y00302611D01*
X00324268Y00304801D01*
X00324578Y00307150D01*
X00324268Y00309499D01*
X00323362Y00311689D01*
X00321919Y00313569D01*
X00320039Y00315012D01*
X00317850Y00315918D01*
X00315500Y00316228D01*
X00313151Y00315918D01*
X00310961Y00315012D01*
X00309081Y00313569D01*
X00307639Y00311689D01*
X00306732Y00309499D01*
X00306422Y00307150D01*
X00306255Y00306959D01*
X00291400D01*
X00290229Y00306726D01*
X00289832Y00306460D01*
X00289237Y00306063D01*
X00289237Y00306063D01*
X00271087Y00287913D01*
X00270424Y00286921D01*
X00270191Y00285750D01*
X00270191Y00285750D01*
Y00257767D01*
X00192983Y00180559D01*
X00064017D01*
X00041319Y00203257D01*
Y00351493D01*
X00135167Y00445341D01*
X00143132D01*
X00143256Y00445156D01*
X00144744Y00444161D01*
X00146500Y00443812D01*
X00160000D01*
X00161756Y00444161D01*
X00163244Y00445156D01*
X00164239Y00446644D01*
X00164588Y00448400D01*
X00164239Y00450156D01*
X00163244Y00451644D01*
X00161756Y00452639D01*
X00160000Y00452988D01*
X00146500D01*
X00144744Y00452639D01*
X00143256Y00451644D01*
X00143132Y00451459D01*
X00133900D01*
X00133900Y00451459D01*
X00132730Y00451226D01*
X00131737Y00450563D01*
X00131737Y00450563D01*
X00042492Y00361318D01*
X00041319Y00361804D01*
Y00450225D01*
X00042492Y00450711D01*
X00050727Y00442477D01*
X00051884Y00441703D01*
X00053250Y00441431D01*
X00064000D01*
Y00439500D01*
X00082000D01*
Y00442431D01*
X00088250D01*
X00089616Y00442703D01*
X00090773Y00443477D01*
X00117528Y00470231D01*
X00122854D01*
X00123102Y00468986D01*
X00122791Y00468857D01*
X00121151Y00467599D01*
X00119893Y00465959D01*
X00119102Y00464049D01*
X00118832Y00462000D01*
X00119102Y00459951D01*
X00119893Y00458041D01*
X00121151Y00456401D01*
X00122791Y00455143D01*
X00124701Y00454352D01*
X00126750Y00454082D01*
X00128799Y00454352D01*
X00130709Y00455143D01*
X00132349Y00456401D01*
X00133607Y00458041D01*
X00133769Y00458431D01*
X00142871D01*
X00143256Y00457856D01*
X00144744Y00456861D01*
X00146500Y00456512D01*
X00160000D01*
X00161756Y00456861D01*
X00163244Y00457856D01*
X00164239Y00459344D01*
X00164588Y00461100D01*
X00164239Y00462856D01*
X00163244Y00464344D01*
X00161756Y00465339D01*
X00160000Y00465688D01*
X00146500D01*
X00145899Y00465569D01*
X00133769D01*
X00133607Y00465959D01*
X00132349Y00467599D01*
X00130709Y00468857D01*
X00130398Y00468986D01*
X00130646Y00470231D01*
X00143741D01*
X00144744Y00469561D01*
X00146500Y00469212D01*
X00160000D01*
X00161756Y00469561D01*
X00163244Y00470556D01*
X00164239Y00472044D01*
X00164588Y00473800D01*
X00164239Y00475556D01*
X00163244Y00477044D01*
X00161756Y00478039D01*
X00160000Y00478388D01*
X00146500D01*
X00144744Y00478039D01*
X00143741Y00477369D01*
X00116050D01*
X00114684Y00477097D01*
X00113527Y00476323D01*
X00086772Y00449569D01*
X00082000D01*
Y00452500D01*
X00064000D01*
Y00448568D01*
X00054728D01*
X00041319Y00461978D01*
Y00562616D01*
Y00569686D01*
Y00580569D01*
D01*
Y00796522D01*
X00160478Y00915682D01*
X00432522D01*
X00475681Y00872522D01*
D02*
G37*
G36*
X01344194Y00941784D02*
Y00604500D01*
Y00128194D01*
X01284106Y00068106D01*
X01283894D01*
X01282500Y00069500D01*
X01121402D01*
X01120507Y00070402D01*
X01120671Y00091988D01*
D01*
X01120708Y00096872D01*
X01120754Y00102987D01*
X01120777Y00103022D01*
X01120810Y00103181D01*
X01120926Y00103296D01*
X01120926Y00103296D01*
D01*
X01121628Y00103789D01*
X01121628Y00103789D01*
X01121670D01*
X01121820Y00103851D01*
X01121980Y00103819D01*
X01122021Y00103827D01*
X01122251Y00103732D01*
X01122929Y00103642D01*
X01123583Y00103556D01*
X01123583D01*
X01124388Y00103450D01*
X01124388D01*
X01124600Y00103422D01*
X01124812Y00103450D01*
X01124812D01*
X01126012Y00103608D01*
X01126949Y00103732D01*
X01129139Y00104639D01*
X01129308Y00104769D01*
X01129308Y00104769D01*
X01130849Y00105951D01*
Y00105951D01*
X01131019Y00106081D01*
X01131432Y00106619D01*
X01132331Y00107792D01*
X01132331Y00107792D01*
X01132461Y00107961D01*
X01132543Y00108159D01*
X01132543Y00108159D01*
X01132915Y00109056D01*
X01133368Y00110151D01*
X01133505Y00111190D01*
X01133650Y00112288D01*
Y00112288D01*
X01133678Y00112500D01*
X01133650Y00112712D01*
Y00112712D01*
X01133492Y00113912D01*
X01133368Y00114850D01*
X01132461Y00117039D01*
X01132331Y00117208D01*
X01132331Y00117208D01*
X01131353Y00118484D01*
X01131301Y00118677D01*
X01131233Y00118766D01*
Y00118878D01*
X01131156Y00119063D01*
Y00141561D01*
X01131384Y00142113D01*
X01165418Y00176147D01*
X01166674Y00175960D01*
X01166905Y00175530D01*
X01166602Y00174799D01*
X01166332Y00172750D01*
X01166602Y00170701D01*
X01167393Y00168791D01*
X01168651Y00167151D01*
X01170291Y00165893D01*
X01172201Y00165102D01*
X01174250Y00164832D01*
X01176299Y00165102D01*
X01178209Y00165893D01*
X01179849Y00167151D01*
X01181107Y00168791D01*
X01181269Y00169181D01*
X01185500D01*
X01186866Y00169453D01*
X01188023Y00170227D01*
X01196773Y00178977D01*
X01197547Y00180134D01*
X01197819Y00181500D01*
X01197819Y00181500D01*
X01197819Y00181500D01*
Y00181500D01*
Y00239890D01*
X01199086Y00239973D01*
X01199352Y00237951D01*
X01200143Y00236041D01*
X01201401Y00234401D01*
X01203041Y00233143D01*
X01204951Y00232352D01*
X01207000Y00232082D01*
X01209049Y00232352D01*
X01210959Y00233143D01*
X01212599Y00234401D01*
X01213857Y00236041D01*
X01214648Y00237951D01*
X01214918Y00240000D01*
X01214648Y00242049D01*
X01213857Y00243959D01*
X01212599Y00245599D01*
X01210959Y00246857D01*
X01210069Y00247226D01*
Y00299250D01*
X01214500D01*
Y00316953D01*
X01217478Y00319931D01*
X01277500D01*
X01278866Y00320203D01*
X01280023Y00320977D01*
X01280023Y00320977D01*
X01280023Y00320977D01*
X01292523Y00333477D01*
X01293297Y00334634D01*
X01293569Y00336000D01*
Y00493500D01*
Y00520250D01*
X01293297Y00521616D01*
X01292523Y00522773D01*
X01272500Y00542797D01*
Y00557750D01*
X01247500D01*
Y00542750D01*
X01262453D01*
X01286431Y00518772D01*
Y00493500D01*
Y00479797D01*
X01285358Y00479080D01*
X01285258Y00479039D01*
X01282773Y00481523D01*
X01281616Y00482297D01*
X01280250Y00482569D01*
X01271750D01*
Y00485500D01*
X01253750D01*
Y00480569D01*
X01212250D01*
Y00484000D01*
X01207569D01*
Y00493500D01*
Y00532522D01*
X01246327Y00571280D01*
X01247500Y00570794D01*
Y00567750D01*
X01272500D01*
Y00582750D01*
X01247500D01*
Y00578819D01*
X01245250D01*
X01243884Y00578547D01*
X01242727Y00577773D01*
X01201477Y00536523D01*
X01200703Y00535366D01*
X01200431Y00534000D01*
Y00493500D01*
Y00484000D01*
X01195750D01*
Y00470000D01*
X01212250D01*
Y00473431D01*
X01253750D01*
Y00472500D01*
X01271750D01*
Y00475431D01*
X01278772D01*
X01279181Y00475022D01*
Y00410478D01*
X01266772Y00398069D01*
X01243728D01*
X01238523Y00403273D01*
X01223523Y00418273D01*
X01222366Y00419047D01*
X01221000Y00419319D01*
X01212750D01*
Y00421682D01*
X01252500D01*
Y00418000D01*
X01270500D01*
Y00431000D01*
X01252500D01*
Y00428819D01*
X01212750D01*
Y00431750D01*
X01207569D01*
Y00451000D01*
X01212250D01*
Y00465000D01*
X01195750D01*
Y00461569D01*
X01192728D01*
X01160797Y00493500D01*
X01140773Y00513523D01*
X01139616Y00514297D01*
X01138250Y00514569D01*
X01116009D01*
X01115006Y00515239D01*
X01113250Y00515588D01*
X01099750D01*
X01097994Y00515239D01*
X01096506Y00514244D01*
X01095511Y00512756D01*
X01095162Y00511000D01*
X01095511Y00509244D01*
X01096506Y00507756D01*
X01097994Y00506761D01*
X01099750Y00506412D01*
X01113250D01*
X01115006Y00506761D01*
X01116009Y00507431D01*
X01136772D01*
X01188727Y00455477D01*
X01188727D01*
X01188727Y00455477D01*
X01188727Y00455477D01*
Y00455477D01*
X01189884Y00454703D01*
X01191250Y00454431D01*
X01195750D01*
Y00451000D01*
X01200431D01*
Y00431750D01*
X01196250D01*
Y00419110D01*
X01195935Y00419047D01*
X01194777Y00418273D01*
X01191727Y00415223D01*
X01190953Y00414065D01*
X01190681Y00412700D01*
Y00182978D01*
X01184022Y00176319D01*
X01181269D01*
X01181107Y00176709D01*
X01179849Y00178349D01*
X01178209Y00179607D01*
X01176299Y00180398D01*
X01174250Y00180668D01*
X01172201Y00180398D01*
X01171470Y00180096D01*
X01171040Y00180326D01*
X01170854Y00181582D01*
X01178795Y00189523D01*
X01178811Y00189539D01*
D01*
X01178886Y00189614D01*
X01179610Y00190558D01*
X01179798Y00190802D01*
D01*
X01179928Y00190972D01*
X01180170Y00191556D01*
X01180583Y00192553D01*
X01180611Y00192765D01*
Y00192765D01*
X01180778Y00194038D01*
X01180778Y00194038D01*
X01180792Y00194145D01*
Y00194145D01*
X01180806Y00194250D01*
Y00414000D01*
X01180792Y00414105D01*
D01*
X01180783Y00414178D01*
X01180583Y00415697D01*
X01180501Y00415894D01*
X01180501Y00415894D01*
X01180255Y00416487D01*
X01180255Y00416487D01*
D01*
X01180075Y00416922D01*
X01180010Y00417080D01*
D01*
X01179928Y00417278D01*
X01179798Y00417448D01*
Y00417448D01*
X01179177Y00418256D01*
X01178886Y00418636D01*
X01159886Y00437636D01*
X01159801Y00437701D01*
X01159801Y00437701D01*
X01158698Y00438548D01*
X01158698D01*
X01158528Y00438678D01*
X01157602Y00439061D01*
X01156947Y00439333D01*
X01156735Y00439361D01*
X01156735D01*
X01155356Y00439542D01*
D01*
X01155250Y00439556D01*
X01130500D01*
X01130394Y00439542D01*
X01128803Y00439333D01*
X01127222Y00438678D01*
X01125990Y00437733D01*
X01125864Y00437636D01*
X01125789Y00437561D01*
D01*
X01121864Y00433636D01*
X01120822Y00432278D01*
X01120495Y00431488D01*
X01120167Y00430697D01*
X01119944Y00429000D01*
Y00422750D01*
X01118750D01*
Y00420556D01*
X01097250D01*
Y00424500D01*
X01084250D01*
Y00415926D01*
X01084194Y00415500D01*
X01084250Y00415074D01*
Y00406500D01*
X01097250D01*
Y00407444D01*
X01118750D01*
Y00405250D01*
X01131750D01*
Y00380250D01*
X01096750D01*
Y00321750D01*
X01126681D01*
Y00265250D01*
X01123750D01*
Y00247250D01*
X01131750D01*
Y00236452D01*
X01128000Y00229412D01*
X01125250Y00224250D01*
X00947500D01*
Y00270201D01*
X00971444D01*
X00996000Y00245645D01*
Y00231250D01*
X01014000D01*
Y00249250D01*
X00999605D01*
X00974302Y00274552D01*
X00973475Y00275105D01*
X00972500Y00275299D01*
X00947500D01*
Y00380453D01*
X01048173Y00481127D01*
X01048750Y00481012D01*
X01062250D01*
X01064006Y00481361D01*
X01065494Y00482356D01*
X01066489Y00483844D01*
X01066838Y00485600D01*
X01066489Y00487356D01*
X01065494Y00488844D01*
X01064006Y00489839D01*
X01062250Y00490188D01*
X01048750D01*
X01046994Y00489839D01*
X01045506Y00488844D01*
X01044918Y00487965D01*
X00948673Y00391720D01*
X00947500Y00392206D01*
Y00425500D01*
X00948016Y00425603D01*
X00949173Y00426377D01*
X00971228Y00448431D01*
X00981231D01*
X00981393Y00448041D01*
X00982651Y00446401D01*
X00984291Y00445143D01*
X00986201Y00444352D01*
X00988250Y00444082D01*
X00990299Y00444352D01*
X00992209Y00445143D01*
X00993849Y00446401D01*
X00995107Y00448041D01*
X00995898Y00449951D01*
X00996168Y00452000D01*
X00995898Y00454049D01*
X00995107Y00455959D01*
X00993849Y00457599D01*
X00992209Y00458857D01*
X00990299Y00459648D01*
X00988250Y00459918D01*
X00986201Y00459648D01*
X00984291Y00458857D01*
X00982651Y00457599D01*
X00981393Y00455959D01*
X00981231Y00455569D01*
X00969750D01*
X00968384Y00455297D01*
X00967227Y00454523D01*
X00948673Y00435970D01*
X00947500Y00436456D01*
Y00474044D01*
X00948673Y00474530D01*
X00950227Y00472977D01*
X00951384Y00472203D01*
X00952750Y00471931D01*
X00988293D01*
X00988634Y00471703D01*
X00990000Y00471431D01*
X00991500D01*
Y00469000D01*
X01009500D01*
Y00471431D01*
X01009500D01*
X01010866Y00471703D01*
X01011207Y00471931D01*
X01012500D01*
X01013866Y00472203D01*
X01015023Y00472977D01*
X01036778Y00494731D01*
X01045991D01*
X01046994Y00494061D01*
X01048750Y00493712D01*
X01062250D01*
X01064006Y00494061D01*
X01065494Y00495056D01*
X01066489Y00496544D01*
X01066838Y00498300D01*
X01066489Y00500056D01*
X01065494Y00501544D01*
X01064006Y00502539D01*
X01062250Y00502888D01*
X01048750D01*
X01046994Y00502539D01*
X01045991Y00501869D01*
X01035300D01*
X01033934Y00501597D01*
X01032777Y00500823D01*
X01011022Y00479069D01*
X01009500D01*
Y00482000D01*
X00991500D01*
Y00479069D01*
X00954228D01*
X00950023Y00483273D01*
X00948866Y00484047D01*
X00947500Y00484319D01*
Y00515811D01*
X00953392D01*
X00960727Y00508477D01*
X00961884Y00507703D01*
X00963250Y00507431D01*
X01045991D01*
X01046994Y00506761D01*
X01048750Y00506412D01*
X01062250D01*
X01064006Y00506761D01*
X01065494Y00507756D01*
X01066489Y00509244D01*
X01066838Y00511000D01*
X01066489Y00512756D01*
X01065494Y00514244D01*
X01064006Y00515239D01*
X01062250Y00515588D01*
X01048750D01*
X01046994Y00515239D01*
X01045991Y00514569D01*
X01013659D01*
X01013172Y00515742D01*
X01015523Y00518092D01*
X01055500D01*
X01057646Y00518519D01*
X01058533Y00519112D01*
X01062250D01*
X01064006Y00519461D01*
X01065494Y00520456D01*
X01066489Y00521944D01*
X01066838Y00523700D01*
X01066489Y00525456D01*
X01065494Y00526944D01*
X01064006Y00527939D01*
X01062250Y00528288D01*
X01058533D01*
X01057646Y00528881D01*
X01055500Y00529308D01*
X01037623D01*
X01015715Y00551215D01*
X01013896Y00552431D01*
X01011750Y00552858D01*
X01008250D01*
Y00553750D01*
X00990250D01*
Y00540750D01*
X01008250D01*
Y00541642D01*
X01009427D01*
X01020588Y00530481D01*
X01020102Y00529308D01*
X01013200D01*
X01011054Y00528881D01*
X01009235Y00527665D01*
X01005677Y00524108D01*
X00984573D01*
X00971666Y00537015D01*
X00971843Y00538364D01*
X00971573Y00540413D01*
X00970782Y00542323D01*
X00969524Y00543963D01*
X00967884Y00545221D01*
X00965975Y00546012D01*
X00963925Y00546282D01*
X00961876Y00546012D01*
X00959967Y00545221D01*
X00958327Y00543963D01*
X00957068Y00542323D01*
X00956277Y00540413D01*
X00956008Y00538364D01*
X00956277Y00536315D01*
X00957068Y00534405D01*
X00958327Y00532765D01*
X00959967Y00531507D01*
X00961876Y00530716D01*
X00962138Y00530682D01*
X00977078Y00515742D01*
X00976592Y00514569D01*
X00964728D01*
X00957393Y00521903D01*
X00956236Y00522677D01*
X00954870Y00522949D01*
X00947500D01*
Y00539203D01*
X00972478Y00564181D01*
X01035372D01*
X01045819Y00553734D01*
X01045694Y00552471D01*
X01045506Y00552344D01*
X01044511Y00550856D01*
X01044162Y00549100D01*
X01044511Y00547344D01*
X01045506Y00545856D01*
X01046994Y00544861D01*
X01048750Y00544512D01*
X01062250D01*
X01064006Y00544861D01*
X01065494Y00545856D01*
X01066489Y00547344D01*
X01066838Y00549100D01*
X01066489Y00550856D01*
X01065494Y00552344D01*
X01064006Y00553339D01*
X01062250Y00553688D01*
X01055958D01*
X01039373Y00570273D01*
X01038216Y00571047D01*
X01036850Y00571319D01*
X00971000D01*
X00969634Y00571047D01*
X00968477Y00570273D01*
X00948673Y00550470D01*
X00947500Y00550956D01*
Y00861544D01*
X00948673Y00862030D01*
X01074302Y00736401D01*
X01073816Y00735228D01*
X01072850D01*
X01070500Y00734918D01*
X01068311Y00734012D01*
X01066431Y00732569D01*
X01064988Y00730689D01*
X01064082Y00728500D01*
X01063772Y00726150D01*
X01064082Y00723801D01*
X01064988Y00721611D01*
X01066431Y00719731D01*
X01068311Y00718289D01*
X01070500Y00717382D01*
X01072850Y00717072D01*
X01082850D01*
X01085200Y00717382D01*
X01087389Y00718289D01*
X01089269Y00719731D01*
X01089578Y00720135D01*
X01090848Y00720093D01*
X01091327Y00719377D01*
X01102931Y00707772D01*
Y00553688D01*
X01099750D01*
X01097994Y00553339D01*
X01096506Y00552344D01*
X01095511Y00550856D01*
X01095162Y00549100D01*
X01095511Y00547344D01*
X01096506Y00545856D01*
X01097994Y00544861D01*
X01099750Y00544512D01*
X01113250D01*
X01115006Y00544861D01*
X01116494Y00545856D01*
X01117489Y00547344D01*
X01117838Y00549100D01*
X01117489Y00550856D01*
X01116494Y00552344D01*
X01115006Y00553339D01*
X01113250Y00553688D01*
X01110069D01*
Y00709250D01*
X01109797Y00710616D01*
X01109023Y00711773D01*
X01097419Y00723378D01*
Y00724316D01*
Y00730706D01*
X01097147Y00732072D01*
X01096373Y00733230D01*
X01089930Y00739673D01*
X01088772Y00740447D01*
X01087406Y00740719D01*
X01080078D01*
X00972448Y00848348D01*
X00947006Y00873790D01*
X00932023Y00888773D01*
X00930866Y00889547D01*
X00929500Y00889819D01*
X00744098D01*
X00739332Y00894981D01*
Y00898822D01*
Y00981664D01*
X00769130Y01013944D01*
X01272034D01*
X01344194Y00941784D01*
D02*
G37*
G36*
X01156523Y00437751D02*
X01156980Y00437561D01*
X01156981D01*
X01156981Y00437561D01*
X01157709Y00437259D01*
X01158813Y00436413D01*
X01177663Y00417563D01*
X01178510Y00416459D01*
X01178755Y00415866D01*
X01178755Y00415866D01*
X01179001Y00415273D01*
X01179183Y00413894D01*
Y00194356D01*
X01179001Y00192977D01*
X01178670Y00192177D01*
Y00192177D01*
X01178670Y00192177D01*
X01178510Y00191791D01*
X01177663Y00190687D01*
X01169033Y00182058D01*
X01168852Y00181620D01*
X01168589Y00181227D01*
X01168622Y00181063D01*
X01168558Y00180910D01*
X01168739Y00180472D01*
X01168831Y00180008D01*
X01169503Y00179002D01*
X01168651Y00178349D01*
X01167998Y00177497D01*
X01166992Y00178169D01*
X01166528Y00178261D01*
X01166090Y00178442D01*
X01165937Y00178379D01*
X01165773Y00178411D01*
X01165380Y00178148D01*
X01164942Y00177967D01*
X01130008Y00143033D01*
X01129532Y00141884D01*
Y00118740D01*
X01129733Y00118257D01*
X01129868Y00117752D01*
X01131043Y00116220D01*
X01131786Y00114426D01*
X01132040Y00112500D01*
X01131786Y00110574D01*
X01131043Y00108780D01*
X01129861Y00107239D01*
X01128320Y00106057D01*
X01126526Y00105314D01*
X01124600Y00105060D01*
X01123795Y00105166D01*
X01122674Y00105314D01*
X01122436Y00105412D01*
X01122273D01*
X01122137Y00105504D01*
X01121670Y00105412D01*
X01121193D01*
X01121078Y00105297D01*
X01120918Y00105266D01*
X01119859Y00104564D01*
X01119768Y00104429D01*
X01119616Y00104368D01*
X01119431Y00103929D01*
X01119431Y00103929D01*
X01119165Y00103533D01*
X01119196Y00103373D01*
X01119132Y00103223D01*
X01119047Y00092000D01*
X01108250D01*
X01107750Y00092500D01*
X01103000Y00097250D01*
Y00102250D01*
Y00125500D01*
Y00131000D01*
Y00144453D01*
X01123310Y00164764D01*
X01123701Y00164602D01*
X01125750Y00164332D01*
X01127799Y00164602D01*
X01129709Y00165393D01*
X01131349Y00166651D01*
X01132607Y00168291D01*
X01133398Y00170201D01*
X01133668Y00172250D01*
X01133398Y00174299D01*
X01132607Y00176209D01*
X01132000Y00177000D01*
X01160500Y00205500D01*
X01162500Y00207500D01*
Y00272406D01*
X01163671Y00273625D01*
X01163892Y00274190D01*
X01164124Y00274750D01*
Y00278250D01*
Y00321750D01*
X01164750D01*
Y00380250D01*
X01164124D01*
Y00416478D01*
X01163648Y00417626D01*
X01162500Y00418774D01*
Y00425750D01*
X01160750Y00427500D01*
X01136500D01*
X01136250Y00427750D01*
X01135374Y00426874D01*
X01133056D01*
X01131908Y00426398D01*
X01131432Y00425250D01*
Y00422750D01*
X01131908Y00421602D01*
X01132626Y00421304D01*
Y00408990D01*
X01131750Y00406874D01*
X01120374D01*
Y00407444D01*
X01119898Y00408592D01*
X01118750Y00409067D01*
X01097250D01*
X01096102Y00408592D01*
X01095908Y00408124D01*
X01085874D01*
Y00415074D01*
X01085831Y00415178D01*
X01085860Y00415286D01*
X01085832Y00415500D01*
X01085860Y00415714D01*
X01085831Y00415822D01*
X01085874Y00415926D01*
Y00422876D01*
X01095626D01*
Y00420556D01*
X01096102Y00419408D01*
X01097250Y00418932D01*
X01118750D01*
X01119898Y00419408D01*
X01120374Y00420556D01*
Y00421304D01*
X01121092Y00421602D01*
X01121568Y00422750D01*
Y00428894D01*
X01121749Y00430273D01*
X01121995Y00430866D01*
X01121995Y00430866D01*
X01122241Y00431459D01*
X01123087Y00432563D01*
X01126937Y00436413D01*
X01127354Y00436733D01*
X01128041Y00437259D01*
X01129227Y00437751D01*
X01130606Y00437933D01*
X01155144D01*
X01156523Y00437751D01*
D02*
G37*
%LPC*%
G36*
X00447794Y00477752D02*
X00445413Y00477438D01*
X00443195Y00476520D01*
X00441290Y00475058D01*
X00439828Y00473153D01*
X00438909Y00470934D01*
X00438596Y00468553D01*
X00438909Y00466172D01*
X00439828Y00463954D01*
X00441290Y00462049D01*
X00443195Y00460587D01*
X00445413Y00459668D01*
X00447794Y00459355D01*
X00450175Y00459668D01*
X00452393Y00460587D01*
X00454299Y00462049D01*
X00455760Y00463954D01*
X00456679Y00466172D01*
X00456993Y00468553D01*
X00456679Y00470934D01*
X00455760Y00473153D01*
X00454299Y00475058D01*
X00452393Y00476520D01*
X00450175Y00477438D01*
X00447794Y00477752D01*
D02*
G37*
G36*
X00422394D02*
X00420013Y00477438D01*
X00417795Y00476520D01*
X00415890Y00475058D01*
X00414428Y00473153D01*
X00413509Y00470934D01*
X00413195Y00468553D01*
X00413509Y00466172D01*
X00414428Y00463954D01*
X00415890Y00462049D01*
X00417795Y00460587D01*
X00420013Y00459668D01*
X00422394Y00459355D01*
X00424775Y00459668D01*
X00426993Y00460587D01*
X00428899Y00462049D01*
X00430360Y00463954D01*
X00431279Y00466172D01*
X00431593Y00468553D01*
X00431279Y00470934D01*
X00430360Y00473153D01*
X00428899Y00475058D01*
X00426993Y00476520D01*
X00424775Y00477438D01*
X00422394Y00477752D01*
D02*
G37*
G36*
X00160000Y00491088D02*
X00146500D01*
X00144744Y00490739D01*
X00143256Y00489744D01*
X00142261Y00488256D01*
X00141912Y00486500D01*
X00142261Y00484744D01*
X00142862Y00483844D01*
X00143256Y00483256D01*
X00144744Y00482261D01*
X00146500Y00481912D01*
X00160000D01*
X00161756Y00482261D01*
X00162759Y00482931D01*
X00168022D01*
X00172681Y00478272D01*
Y00469019D01*
X00172291Y00468857D01*
X00170651Y00467599D01*
X00169393Y00465959D01*
X00168602Y00464049D01*
X00168332Y00462000D01*
X00168602Y00459951D01*
X00169393Y00458041D01*
X00170651Y00456401D01*
X00172291Y00455143D01*
X00174201Y00454352D01*
X00176250Y00454082D01*
X00177566Y00454256D01*
X00178128Y00453116D01*
X00148099Y00423088D01*
X00124250D01*
X00122494Y00422739D01*
X00121006Y00421744D01*
X00067756Y00368494D01*
X00066761Y00367006D01*
X00066412Y00365250D01*
Y00310500D01*
X00064500D01*
Y00292500D01*
X00066412D01*
Y00275750D01*
X00063500D01*
Y00259250D01*
X00077500D01*
Y00275750D01*
X00075588D01*
Y00292500D01*
X00077500D01*
Y00310500D01*
X00075588D01*
Y00363349D01*
X00126151Y00413912D01*
X00150000D01*
X00151756Y00414261D01*
X00153244Y00415256D01*
X00193244Y00455256D01*
X00193244Y00455256D01*
X00193244Y00455256D01*
X00194239Y00456744D01*
X00194588Y00458500D01*
Y00463100D01*
X00200700Y00469212D01*
X00211000D01*
X00212756Y00469561D01*
X00214244Y00470556D01*
X00215239Y00472044D01*
X00215588Y00473800D01*
X00215239Y00475556D01*
X00214244Y00477044D01*
X00212756Y00478039D01*
X00211000Y00478388D01*
X00197500D01*
X00195744Y00478039D01*
X00194256Y00477044D01*
X00193261Y00475556D01*
X00193061Y00474550D01*
X00186756Y00468244D01*
X00185761Y00466756D01*
X00185412Y00465000D01*
Y00462669D01*
X00184941Y00462229D01*
X00184695Y00462212D01*
X00184144Y00462176D01*
X00183898Y00464049D01*
X00183107Y00465959D01*
X00181849Y00467599D01*
X00180209Y00468857D01*
X00179819Y00469019D01*
Y00479750D01*
X00179547Y00481116D01*
X00178773Y00482273D01*
X00178547Y00482500D01*
X00172023Y00489023D01*
X00170866Y00489797D01*
X00169500Y00490069D01*
X00162759D01*
X00161756Y00490739D01*
X00160000Y00491088D01*
D02*
G37*
G36*
X01113250Y00477488D02*
X01099750D01*
X01097994Y00477139D01*
X01096506Y00476144D01*
X01095511Y00474656D01*
X01095162Y00472900D01*
X01095511Y00471144D01*
X01096506Y00469656D01*
X01097994Y00468661D01*
X01099750Y00468312D01*
X01101931D01*
Y00441622D01*
X01101291Y00441357D01*
X01099651Y00440099D01*
X01098393Y00438459D01*
X01097602Y00436549D01*
X01097332Y00434500D01*
X01097602Y00432451D01*
X01098393Y00430541D01*
X01099651Y00428901D01*
X01101291Y00427643D01*
X01103201Y00426852D01*
X01105250Y00426582D01*
X01107299Y00426852D01*
X01109209Y00427643D01*
X01110849Y00428901D01*
X01112107Y00430541D01*
X01112898Y00432451D01*
X01113168Y00434500D01*
X01112898Y00436549D01*
X01112107Y00438459D01*
X01110849Y00440099D01*
X01109209Y00441357D01*
X01109069Y00441415D01*
Y00468312D01*
X01113250D01*
X01115006Y00468661D01*
X01116494Y00469656D01*
X01117489Y00471144D01*
X01117838Y00472900D01*
X01117489Y00474656D01*
X01116494Y00476144D01*
X01115006Y00477139D01*
X01113250Y00477488D01*
D02*
G37*
G36*
X00447794Y00426952D02*
X00445413Y00426638D01*
X00443195Y00425719D01*
X00441290Y00424258D01*
X00439828Y00422352D01*
X00438909Y00420134D01*
X00438596Y00417753D01*
X00438909Y00415372D01*
X00439828Y00413154D01*
X00441290Y00411249D01*
X00443195Y00409787D01*
X00445413Y00408868D01*
X00447794Y00408554D01*
X00450175Y00408868D01*
X00452393Y00409787D01*
X00454299Y00411249D01*
X00455760Y00413154D01*
X00456679Y00415372D01*
X00456993Y00417753D01*
X00456679Y00420134D01*
X00455760Y00422352D01*
X00454299Y00424258D01*
X00452393Y00425719D01*
X00450175Y00426638D01*
X00447794Y00426952D01*
D02*
G37*
G36*
Y00452352D02*
X00445413Y00452038D01*
X00443195Y00451119D01*
X00441290Y00449658D01*
X00439828Y00447752D01*
X00438909Y00445534D01*
X00438596Y00443153D01*
X00438909Y00440772D01*
X00439828Y00438554D01*
X00441290Y00436649D01*
X00443195Y00435187D01*
X00445413Y00434268D01*
X00447794Y00433955D01*
X00450175Y00434268D01*
X00452393Y00435187D01*
X00454299Y00436649D01*
X00455760Y00438554D01*
X00456679Y00440772D01*
X00456993Y00443153D01*
X00456679Y00445534D01*
X00455760Y00447752D01*
X00454299Y00449658D01*
X00452393Y00451119D01*
X00450175Y00452038D01*
X00447794Y00452352D01*
D02*
G37*
G36*
X00422394D02*
X00420013Y00452038D01*
X00417795Y00451119D01*
X00415890Y00449658D01*
X00414428Y00447752D01*
X00413509Y00445534D01*
X00413195Y00443153D01*
X00413509Y00440772D01*
X00414428Y00438554D01*
X00415890Y00436649D01*
X00417795Y00435187D01*
X00420013Y00434268D01*
X00422394Y00433955D01*
X00424775Y00434268D01*
X00426993Y00435187D01*
X00428899Y00436649D01*
X00430360Y00438554D01*
X00431279Y00440772D01*
X00431593Y00443153D01*
X00431279Y00445534D01*
X00430360Y00447752D01*
X00428899Y00449658D01*
X00426993Y00451119D01*
X00424775Y00452038D01*
X00422394Y00452352D01*
D02*
G37*
G36*
X00377500Y00548819D02*
X00245000D01*
X00243634Y00548547D01*
X00242477Y00547773D01*
X00222872Y00528169D01*
X00213759D01*
X00212756Y00528839D01*
X00211000Y00529188D01*
X00197500D01*
X00195744Y00528839D01*
X00194256Y00527844D01*
X00193261Y00526356D01*
X00192912Y00524600D01*
X00193261Y00522844D01*
X00194256Y00521356D01*
X00195744Y00520361D01*
X00197500Y00520012D01*
X00211000D01*
X00212756Y00520361D01*
X00213759Y00521031D01*
X00224350D01*
X00225716Y00521303D01*
X00226873Y00522077D01*
X00246478Y00541681D01*
X00376022D01*
X00400431Y00517272D01*
Y00510860D01*
X00399229Y00510452D01*
X00398349Y00511599D01*
X00396709Y00512857D01*
X00394799Y00513648D01*
X00392750Y00513918D01*
X00390701Y00513648D01*
X00388791Y00512857D01*
X00387151Y00511599D01*
X00385893Y00509959D01*
X00385102Y00508049D01*
X00384832Y00506000D01*
X00385102Y00503951D01*
X00385893Y00502041D01*
X00387151Y00500401D01*
X00388791Y00499143D01*
X00389681Y00498774D01*
Y00482500D01*
Y00358019D01*
X00389291Y00357857D01*
X00387651Y00356599D01*
X00386393Y00354959D01*
X00385602Y00353049D01*
X00385332Y00351000D01*
X00385602Y00348951D01*
X00386393Y00347041D01*
X00387651Y00345401D01*
X00389291Y00344143D01*
X00391201Y00343352D01*
X00393250Y00343082D01*
X00395299Y00343352D01*
X00397209Y00344143D01*
X00398849Y00345401D01*
X00400107Y00347041D01*
X00400898Y00348951D01*
X00401168Y00351000D01*
X00400898Y00353049D01*
X00400107Y00354959D01*
X00398849Y00356599D01*
X00397209Y00357857D01*
X00396819Y00358019D01*
Y00499227D01*
X00398349Y00500401D01*
X00399229Y00501548D01*
X00400431Y00501140D01*
Y00362750D01*
X00400703Y00361384D01*
X00401477Y00360227D01*
X00408394Y00353310D01*
X00409551Y00352536D01*
X00410917Y00352265D01*
X00432036D01*
X00439336Y00344965D01*
X00438909Y00343934D01*
X00438596Y00341553D01*
X00438909Y00339172D01*
X00439828Y00336954D01*
X00441290Y00335049D01*
X00443195Y00333587D01*
X00445413Y00332668D01*
X00447794Y00332355D01*
X00450175Y00332668D01*
X00452393Y00333587D01*
X00454299Y00335049D01*
X00455760Y00336954D01*
X00456679Y00339172D01*
X00456993Y00341553D01*
X00456679Y00343934D01*
X00455760Y00346152D01*
X00454299Y00348058D01*
X00452393Y00349520D01*
X00450175Y00350438D01*
X00447794Y00350752D01*
X00445413Y00350438D01*
X00444383Y00350011D01*
X00436037Y00358357D01*
X00434880Y00359130D01*
X00433514Y00359402D01*
X00429531D01*
X00428969Y00360541D01*
X00430360Y00362354D01*
X00431279Y00364572D01*
X00431593Y00366953D01*
X00431279Y00369334D01*
X00430360Y00371553D01*
X00428899Y00373458D01*
X00426993Y00374920D01*
X00424775Y00375838D01*
X00422394Y00376152D01*
X00420013Y00375838D01*
X00417795Y00374920D01*
X00415890Y00373458D01*
X00414428Y00371553D01*
X00413509Y00369334D01*
X00413195Y00366953D01*
X00413509Y00364572D01*
X00414428Y00362354D01*
X00415819Y00360541D01*
X00415257Y00359402D01*
X00412395D01*
X00407569Y00364228D01*
Y00489917D01*
Y00518750D01*
X00407297Y00520116D01*
X00406523Y00521273D01*
X00380023Y00547773D01*
X00378866Y00548547D01*
X00377500Y00548819D01*
D02*
G37*
G36*
X00447794Y00528552D02*
X00445413Y00528238D01*
X00443195Y00527319D01*
X00441290Y00525858D01*
X00439828Y00523952D01*
X00438909Y00521734D01*
X00438596Y00519353D01*
X00438909Y00516972D01*
X00439828Y00514754D01*
X00441290Y00512849D01*
X00443195Y00511387D01*
X00445413Y00510468D01*
X00447794Y00510154D01*
X00450175Y00510468D01*
X00452393Y00511387D01*
X00454299Y00512849D01*
X00455760Y00514754D01*
X00456679Y00516972D01*
X00456993Y00519353D01*
X00456679Y00521734D01*
X00455760Y00523952D01*
X00454299Y00525858D01*
X00452393Y00527319D01*
X00450175Y00528238D01*
X00447794Y00528552D01*
D02*
G37*
G36*
X00422394Y00553952D02*
X00420013Y00553638D01*
X00417795Y00552719D01*
X00415890Y00551258D01*
X00414428Y00549352D01*
X00413509Y00547134D01*
X00413195Y00544753D01*
X00413509Y00542372D01*
X00414428Y00540154D01*
X00415890Y00538249D01*
X00417795Y00536787D01*
X00420013Y00535868D01*
X00422394Y00535555D01*
X00424775Y00535868D01*
X00426993Y00536787D01*
X00428899Y00538249D01*
X00430360Y00540154D01*
X00431279Y00542372D01*
X00431593Y00544753D01*
X00431279Y00547134D01*
X00430360Y00549352D01*
X00428899Y00551258D01*
X00426993Y00552719D01*
X00424775Y00553638D01*
X00422394Y00553952D01*
D02*
G37*
G36*
X01198500Y00557750D02*
X01173500D01*
Y00542797D01*
X01157972Y00527269D01*
X01116009D01*
X01115006Y00527939D01*
X01113250Y00528288D01*
X01099750D01*
X01097994Y00527939D01*
X01096506Y00526944D01*
X01095511Y00525456D01*
X01095162Y00523700D01*
X01095511Y00521944D01*
X01096506Y00520456D01*
X01097994Y00519461D01*
X01099750Y00519112D01*
X01113250D01*
X01115006Y00519461D01*
X01116009Y00520131D01*
X01159450D01*
X01160816Y00520403D01*
X01161973Y00521177D01*
D01*
X01183547Y00542750D01*
X01198500D01*
Y00557750D01*
D02*
G37*
G36*
X00211000Y00516488D02*
X00197500D01*
X00195744Y00516139D01*
X00194256Y00515144D01*
X00193261Y00513656D01*
X00192912Y00511900D01*
X00193261Y00510144D01*
X00194256Y00508656D01*
X00195744Y00507661D01*
X00197500Y00507312D01*
X00211000D01*
X00212756Y00507661D01*
X00213759Y00508331D01*
X00252872D01*
X00257000Y00504203D01*
Y00499750D01*
X00282000D01*
Y00514750D01*
X00257000D01*
Y00514750D01*
X00256385Y00514750D01*
X00255716Y00515197D01*
X00254350Y00515469D01*
X00213759D01*
X00212756Y00516139D01*
X00211000Y00516488D01*
D02*
G37*
G36*
Y00503788D02*
X00197500D01*
X00195744Y00503439D01*
X00194256Y00502444D01*
X00193261Y00500956D01*
X00192912Y00499200D01*
X00193261Y00497444D01*
X00194256Y00495956D01*
X00195744Y00494961D01*
X00197500Y00494612D01*
X00211000D01*
X00212756Y00494961D01*
X00213759Y00495631D01*
X00240072D01*
X00255977Y00479727D01*
X00255977D01*
X00255977Y00479727D01*
X00255977Y00479727D01*
Y00479727D01*
X00257000Y00479043D01*
Y00474750D01*
X00282000D01*
Y00482500D01*
Y00489750D01*
X00257000D01*
X00257000Y00489750D01*
Y00489750D01*
X00256326Y00489471D01*
X00244073Y00501723D01*
X00242916Y00502497D01*
X00241550Y00502769D01*
X00213759D01*
X00212756Y00503439D01*
X00211000Y00503788D01*
D02*
G37*
G36*
X00422394Y00528552D02*
X00420013Y00528238D01*
X00417795Y00527319D01*
X00415890Y00525858D01*
X00414428Y00523952D01*
X00413509Y00521734D01*
X00413195Y00519353D01*
X00413509Y00516972D01*
X00414428Y00514754D01*
X00415890Y00512849D01*
X00417795Y00511387D01*
X00420013Y00510468D01*
X00422394Y00510154D01*
X00424775Y00510468D01*
X00426993Y00511387D01*
X00428899Y00512849D01*
X00430360Y00514754D01*
X00431279Y00516972D01*
X00431593Y00519353D01*
X00431313Y00521478D01*
D01*
X00431279Y00521734D01*
X00430360Y00523952D01*
X00428899Y00525858D01*
X00426993Y00527319D01*
X00424775Y00528238D01*
X00422394Y00528552D01*
D02*
G37*
G36*
X00082750Y00519250D02*
X00064750D01*
Y00506250D01*
X00082750D01*
Y00507142D01*
X00105677D01*
X00111038Y00501781D01*
X00110552Y00500608D01*
X00108837D01*
X00107209Y00501857D01*
X00105299Y00502648D01*
X00103250Y00502918D01*
X00101201Y00502648D01*
X00099291Y00501857D01*
X00097651Y00500599D01*
X00096393Y00498959D01*
X00095602Y00497049D01*
X00095332Y00495000D01*
X00095602Y00492951D01*
X00096393Y00491041D01*
X00097651Y00489401D01*
X00099291Y00488143D01*
X00101201Y00487352D01*
X00103250Y00487082D01*
X00105299Y00487352D01*
X00107209Y00488143D01*
X00108837Y00489392D01*
X00117350D01*
X00119496Y00489819D01*
X00119642Y00489917D01*
X00121315Y00491035D01*
D01*
D01*
D01*
D01*
X00123873Y00493592D01*
X00153250D01*
X00155396Y00494019D01*
X00156283Y00494612D01*
X00160000D01*
X00161756Y00494961D01*
X00163244Y00495956D01*
X00164239Y00497444D01*
X00164588Y00499200D01*
X00164239Y00500956D01*
X00164042Y00501250D01*
D01*
X00163244Y00502444D01*
X00161756Y00503439D01*
X00160000Y00503788D01*
X00156283D01*
X00155396Y00504381D01*
X00153250Y00504808D01*
X00123873D01*
X00111965Y00516715D01*
X00110146Y00517931D01*
X00108000Y00518358D01*
X00082750D01*
Y00519250D01*
D02*
G37*
G36*
X00452750Y00189486D02*
X00450153Y00189144D01*
X00447732Y00188141D01*
X00445654Y00186546D01*
X00444059Y00184468D01*
X00443056Y00182048D01*
X00442714Y00179450D01*
X00443056Y00176853D01*
X00444059Y00174432D01*
X00445654Y00172354D01*
X00447732Y00170759D01*
X00450153Y00169756D01*
X00452750Y00169414D01*
X00455348Y00169756D01*
X00457768Y00170759D01*
X00459846Y00172354D01*
X00461441Y00174432D01*
X00462444Y00176853D01*
X00462786Y00179450D01*
X00462444Y00182048D01*
X00461441Y00184468D01*
X00459846Y00186546D01*
X00457768Y00188141D01*
X00455348Y00189144D01*
X00452750Y00189486D01*
D02*
G37*
G36*
X00425050D02*
X00422453Y00189144D01*
X00420032Y00188141D01*
X00417954Y00186546D01*
X00416359Y00184468D01*
X00415356Y00182048D01*
X00415014Y00179450D01*
X00415356Y00176853D01*
X00416359Y00174432D01*
X00417954Y00172354D01*
X00420032Y00170759D01*
X00422453Y00169756D01*
X00425050Y00169414D01*
X00427648Y00169756D01*
X00430068Y00170759D01*
X00432146Y00172354D01*
X00433741Y00174432D01*
X00434744Y00176853D01*
X00435086Y00179450D01*
X00434744Y00182048D01*
X00433741Y00184468D01*
X00432146Y00186546D01*
X00430068Y00188141D01*
X00427648Y00189144D01*
X00425050Y00189486D01*
D02*
G37*
G36*
X00101250Y00277624D02*
X00083750D01*
X00082602Y00277148D01*
X00080352Y00274898D01*
X00080102Y00274648D01*
X00079626Y00273500D01*
Y00260750D01*
Y00259750D01*
X00080102Y00258602D01*
X00082602Y00256102D01*
X00082852Y00255852D01*
X00084000Y00255376D01*
X00098250D01*
X00099398Y00255852D01*
X00100898Y00257352D01*
X00100922Y00257376D01*
X00102078D01*
X00106102Y00253352D01*
X00108352Y00251102D01*
X00109500Y00250626D01*
X00145750D01*
X00146898Y00251102D01*
X00149398Y00253602D01*
X00149898Y00254102D01*
X00150374Y00255250D01*
Y00259750D01*
Y00260000D01*
X00150124Y00260604D01*
Y00265750D01*
X00149648Y00266898D01*
X00146898Y00269648D01*
X00146648Y00269898D01*
X00145500Y00270374D01*
X00109172D01*
X00105648Y00273898D01*
X00102398Y00277148D01*
X00101250Y00277624D01*
D02*
G37*
G36*
X01062250Y00477488D02*
X01048750D01*
X01046994Y00477139D01*
X01045506Y00476144D01*
X01044511Y00474656D01*
X01044162Y00472900D01*
X01044511Y00471144D01*
X01045506Y00469656D01*
X01045694Y00469530D01*
X01045819Y00468266D01*
X00977477Y00399923D01*
X00976703Y00398766D01*
X00976431Y00397400D01*
Y00305750D01*
X00976703Y00304384D01*
X00977477Y00303227D01*
X01026831Y00253872D01*
Y00248513D01*
X01025861Y00248111D01*
X01023981Y00246669D01*
X01022539Y00244789D01*
X01021632Y00242600D01*
X01021322Y00240250D01*
X01021632Y00237901D01*
X01022539Y00235711D01*
X01023981Y00233831D01*
X01025861Y00232389D01*
X01028051Y00231482D01*
X01030400Y00231172D01*
X01032749Y00231482D01*
X01034939Y00232389D01*
X01036819Y00233831D01*
X01038261Y00235711D01*
X01039168Y00237901D01*
X01039478Y00240250D01*
X01039168Y00242600D01*
X01038261Y00244789D01*
X01036819Y00246669D01*
X01034939Y00248111D01*
X01033969Y00248513D01*
Y00255350D01*
X01033697Y00256716D01*
X01032923Y00257873D01*
X00983569Y00307228D01*
Y00395922D01*
X01055958Y00468312D01*
X01062250D01*
X01064006Y00468661D01*
X01065494Y00469656D01*
X01066489Y00471144D01*
X01066838Y00472900D01*
X01066489Y00474656D01*
X01065494Y00476144D01*
X01064006Y00477139D01*
X01062250Y00477488D01*
D02*
G37*
G36*
X01296500Y00133573D02*
X01293560Y00133283D01*
X01290732Y00132425D01*
X01288126Y00131032D01*
X01285842Y00129158D01*
X01283968Y00126874D01*
X01282575Y00124268D01*
X01281717Y00121440D01*
X01281427Y00118500D01*
X01281717Y00115560D01*
X01282575Y00112732D01*
X01283968Y00110126D01*
X01285842Y00107842D01*
X01288126Y00105968D01*
X01290732Y00104575D01*
X01293560Y00103717D01*
X01296500Y00103427D01*
X01299440Y00103717D01*
X01302268Y00104575D01*
X01304874Y00105968D01*
X01307158Y00107842D01*
X01309032Y00110126D01*
X01310425Y00112732D01*
X01311283Y00115560D01*
X01311573Y00118500D01*
X01311283Y00121440D01*
X01310425Y00124268D01*
X01309032Y00126874D01*
X01307158Y00129158D01*
X01304874Y00131032D01*
X01302268Y00132425D01*
X01299440Y00133283D01*
X01296500Y00133573D01*
D02*
G37*
G36*
X00067750Y00132573D02*
X00064809Y00132283D01*
X00061982Y00131425D01*
X00059376Y00130032D01*
X00057092Y00128158D01*
X00055218Y00125874D01*
X00053825Y00123268D01*
X00052967Y00120441D01*
X00052677Y00117500D01*
X00052967Y00114559D01*
X00053825Y00111732D01*
X00055218Y00109126D01*
X00057092Y00106842D01*
X00059376Y00104968D01*
X00061982Y00103575D01*
X00064809Y00102717D01*
X00067750Y00102428D01*
X00070690Y00102717D01*
X00073518Y00103575D01*
X00076124Y00104968D01*
X00078408Y00106842D01*
X00080282Y00109126D01*
X00081675Y00111732D01*
X00082533Y00114559D01*
X00082823Y00117500D01*
X00082533Y00120441D01*
X00081675Y00123268D01*
X00080282Y00125874D01*
X00078408Y00128158D01*
X00076124Y00130032D01*
X00073518Y00131425D01*
X00070690Y00132283D01*
X00067750Y00132573D01*
D02*
G37*
G36*
X00411200Y00161086D02*
X00408602Y00160744D01*
X00406182Y00159741D01*
X00404104Y00158146D01*
X00402509Y00156068D01*
X00401506Y00153647D01*
X00401164Y00151050D01*
X00401506Y00148453D01*
X00402509Y00146032D01*
X00404104Y00143954D01*
X00406182Y00142359D01*
X00408602Y00141356D01*
X00411200Y00141014D01*
X00413797Y00141356D01*
X00416218Y00142359D01*
X00418296Y00143954D01*
X00419891Y00146032D01*
X00420894Y00148453D01*
X00421236Y00151050D01*
X00420894Y00153647D01*
X00419891Y00156068D01*
X00418296Y00158146D01*
X00416218Y00159741D01*
X00413797Y00160744D01*
X00411200Y00161086D01*
D02*
G37*
G36*
X00327800Y00190672D02*
X00322840Y00190184D01*
X00318071Y00188737D01*
X00313676Y00186388D01*
X00309824Y00183226D01*
X00306662Y00179374D01*
X00304313Y00174979D01*
X00302866Y00170210D01*
X00302378Y00165250D01*
X00302866Y00160290D01*
X00304313Y00155521D01*
X00306662Y00151126D01*
X00309824Y00147274D01*
X00313676Y00144112D01*
X00318071Y00141763D01*
X00322840Y00140316D01*
X00327800Y00139828D01*
X00332760Y00140316D01*
X00337529Y00141763D01*
X00341924Y00144112D01*
X00345776Y00147274D01*
X00348938Y00151126D01*
X00351287Y00155521D01*
X00352734Y00160290D01*
X00353222Y00165250D01*
X00352734Y00170210D01*
X00351287Y00174979D01*
X00348938Y00179374D01*
X00345776Y00183226D01*
X00341924Y00186388D01*
X00337529Y00188737D01*
X00332760Y00190184D01*
X00327800Y00190672D01*
D02*
G37*
G36*
X00324500Y00290750D02*
X00306500D01*
Y00272750D01*
X00324500D01*
Y00290750D01*
D02*
G37*
G36*
X00422394Y00401552D02*
X00420013Y00401238D01*
X00417795Y00400320D01*
X00415890Y00398858D01*
X00414428Y00396953D01*
X00413509Y00394734D01*
X00413195Y00392353D01*
X00413509Y00389972D01*
X00414428Y00387754D01*
X00415890Y00385849D01*
X00417795Y00384387D01*
X00420013Y00383468D01*
X00422394Y00383154D01*
X00424775Y00383468D01*
X00426993Y00384387D01*
X00428899Y00385849D01*
X00430360Y00387754D01*
X00431279Y00389972D01*
X00431593Y00392353D01*
X00431279Y00394734D01*
X00430360Y00396953D01*
X00428899Y00398858D01*
X00426993Y00400320D01*
X00424775Y00401238D01*
X00422394Y00401552D01*
D02*
G37*
G36*
X00215750Y00366374D02*
X00203500D01*
X00202352Y00365898D01*
X00201602Y00365148D01*
X00198375Y00361921D01*
X00194648Y00365648D01*
X00193500Y00366124D01*
X00147250D01*
X00146102Y00365648D01*
X00143602Y00363148D01*
X00140102Y00359648D01*
X00139626Y00358500D01*
Y00358500D01*
X00139626Y00358500D01*
X00139626Y00350750D01*
X00139626Y00350750D01*
Y00341000D01*
X00140102Y00339852D01*
X00144102Y00335852D01*
X00145250Y00335376D01*
X00195750D01*
X00196898Y00335852D01*
X00199953Y00338907D01*
X00201126Y00338421D01*
Y00332500D01*
Y00323923D01*
X00199077Y00321874D01*
X00166000D01*
X00164852Y00321398D01*
X00161852Y00318398D01*
X00158602Y00315148D01*
X00158126Y00314000D01*
Y00313000D01*
Y00259750D01*
X00158602Y00258602D01*
X00158922Y00258282D01*
X00158923Y00258278D01*
Y00257955D01*
X00159152Y00257727D01*
X00159275Y00257429D01*
X00168102Y00248602D01*
X00169126Y00247577D01*
Y00242500D01*
Y00236423D01*
X00149352Y00216648D01*
X00148852Y00216148D01*
X00148376Y00215000D01*
Y00211500D01*
Y00210500D01*
Y00203250D01*
Y00193250D01*
X00148500Y00192952D01*
Y00192000D01*
X00149098D01*
X00150000Y00191626D01*
X00168000D01*
X00169148Y00192102D01*
X00221648Y00244602D01*
X00221648Y00244602D01*
X00221648Y00244602D01*
X00224398Y00247352D01*
X00232648Y00255602D01*
X00233124Y00256750D01*
Y00258500D01*
Y00311500D01*
X00232648Y00312648D01*
X00230148Y00315148D01*
X00223374Y00321922D01*
Y00358750D01*
X00222898Y00359898D01*
X00219648Y00363148D01*
X00216898Y00365898D01*
X00215750Y00366374D01*
D02*
G37*
G36*
X00211000Y00452988D02*
X00197500D01*
X00195744Y00452639D01*
X00194256Y00451644D01*
X00193261Y00450156D01*
X00192912Y00448400D01*
X00193261Y00446644D01*
X00194256Y00445156D01*
X00195744Y00444161D01*
X00197500Y00443812D01*
X00200681D01*
Y00407769D01*
X00200291Y00407607D01*
X00198651Y00406349D01*
X00197393Y00404709D01*
X00196602Y00402799D01*
X00196332Y00400750D01*
X00196602Y00398701D01*
X00197393Y00396791D01*
X00198651Y00395151D01*
X00200291Y00393893D01*
X00202201Y00393102D01*
X00204250Y00392832D01*
X00206299Y00393102D01*
X00208209Y00393893D01*
X00209849Y00395151D01*
X00211107Y00396791D01*
X00211898Y00398701D01*
X00212168Y00400750D01*
X00211898Y00402799D01*
X00211107Y00404709D01*
X00209849Y00406349D01*
X00208209Y00407607D01*
X00207819Y00407769D01*
Y00443812D01*
X00211000D01*
X00212756Y00444161D01*
X00214244Y00445156D01*
X00215239Y00446644D01*
X00215588Y00448400D01*
X00215239Y00450156D01*
X00214244Y00451644D01*
X00212756Y00452639D01*
X00211000Y00452988D01*
D02*
G37*
G36*
Y00491088D02*
X00197500D01*
X00195744Y00490739D01*
X00194256Y00489744D01*
X00193261Y00488256D01*
X00192912Y00486500D01*
X00193261Y00484744D01*
X00193862Y00483844D01*
X00194256Y00483256D01*
X00195744Y00482261D01*
X00197500Y00481912D01*
X00211000D01*
X00212756Y00482261D01*
X00213759Y00482931D01*
X00239022D01*
X00247681Y00474272D01*
Y00432750D01*
X00247953Y00431384D01*
X00248727Y00430227D01*
X00251727Y00427227D01*
X00252885Y00426453D01*
X00254250Y00426181D01*
X00257000D01*
Y00422750D01*
X00261681D01*
Y00402250D01*
X00257000D01*
Y00388250D01*
X00273500D01*
Y00391681D01*
X00298250D01*
Y00389000D01*
X00316250D01*
Y00402000D01*
X00298250D01*
Y00398819D01*
X00273500D01*
Y00402250D01*
X00268818D01*
Y00422750D01*
X00273500D01*
Y00436750D01*
X00257000D01*
Y00433318D01*
X00255728D01*
X00254819Y00434228D01*
Y00475750D01*
X00254547Y00477116D01*
X00253773Y00478273D01*
X00249547Y00482500D01*
X00243023Y00489023D01*
X00241866Y00489797D01*
X00240500Y00490069D01*
X00213759D01*
X00212756Y00490739D01*
X00211000Y00491088D01*
D02*
G37*
G36*
X01113250Y00502888D02*
X01085700D01*
X01083944Y00502539D01*
X01082456Y00501544D01*
X01074506Y00493594D01*
X01073511Y00492106D01*
X01073162Y00490350D01*
Y00466651D01*
X00993506Y00386994D01*
X00992511Y00385506D01*
X00992162Y00383750D01*
Y00374750D01*
X00991000D01*
Y00356750D01*
X00992162D01*
Y00337750D01*
X00989750D01*
Y00321250D01*
X01003750D01*
Y00337750D01*
X01001338D01*
Y00356750D01*
X01004000D01*
Y00374750D01*
X01001338D01*
Y00381850D01*
X01080994Y00461506D01*
X01081989Y00462994D01*
X01082338Y00464750D01*
Y00488450D01*
X01087600Y00493712D01*
X01113250D01*
X01115006Y00494061D01*
X01116494Y00495056D01*
X01117489Y00496544D01*
X01117838Y00498300D01*
X01117489Y00500056D01*
X01116494Y00501544D01*
X01115006Y00502539D01*
X01113250Y00502888D01*
D02*
G37*
G36*
X01022750Y00337750D02*
X01008750D01*
Y00321250D01*
X01022750D01*
Y00325931D01*
X01041022D01*
X01043767Y00323187D01*
X01044924Y00322413D01*
X01046290Y00322141D01*
X01049500D01*
Y00318710D01*
X01083000D01*
Y00332710D01*
X01049500D01*
Y00329279D01*
X01047768D01*
X01045023Y00332023D01*
X01043866Y00332797D01*
X01042500Y00333069D01*
X01022750D01*
Y00337750D01*
D02*
G37*
G36*
X00447794Y00376152D02*
X00445413Y00375838D01*
X00443195Y00374920D01*
X00441290Y00373458D01*
X00439828Y00371553D01*
X00438909Y00369334D01*
X00438596Y00366953D01*
X00438909Y00364572D01*
X00439828Y00362354D01*
X00441290Y00360449D01*
X00443195Y00358987D01*
X00445413Y00358068D01*
X00447794Y00357755D01*
X00450175Y00358068D01*
X00452393Y00358987D01*
X00454299Y00360449D01*
X00455760Y00362354D01*
X00456679Y00364572D01*
X00456993Y00366953D01*
X00456679Y00369334D01*
X00455760Y00371553D01*
X00454299Y00373458D01*
X00452393Y00374920D01*
X00450175Y00375838D01*
X00447794Y00376152D01*
D02*
G37*
G36*
X00422394Y00350752D02*
X00420013Y00350438D01*
X00417795Y00349520D01*
X00415890Y00348058D01*
X00414428Y00346152D01*
X00413509Y00343934D01*
X00413195Y00341553D01*
X00413509Y00339172D01*
X00414428Y00336954D01*
X00415890Y00335049D01*
X00417795Y00333587D01*
X00420013Y00332668D01*
X00422394Y00332355D01*
X00424775Y00332668D01*
X00426993Y00333587D01*
X00428899Y00335049D01*
X00430360Y00336954D01*
X00431279Y00339172D01*
X00431593Y00341553D01*
X00431279Y00343934D01*
X00430360Y00346152D01*
X00428899Y00348058D01*
X00426993Y00349520D01*
X00424775Y00350438D01*
X00422394Y00350752D01*
D02*
G37*
G36*
X00447794Y00553952D02*
X00445413Y00553638D01*
X00443195Y00552719D01*
X00441290Y00551258D01*
X00439828Y00549352D01*
X00438909Y00547134D01*
X00438596Y00544753D01*
X00438909Y00542372D01*
X00439828Y00540154D01*
X00441290Y00538249D01*
X00443195Y00536787D01*
X00445413Y00535868D01*
X00447794Y00535555D01*
X00450175Y00535868D01*
X00452393Y00536787D01*
X00454299Y00538249D01*
X00455760Y00540154D01*
X00456679Y00542372D01*
X00456993Y00544753D01*
X00456679Y00547134D01*
X00455760Y00549352D01*
X00454299Y00551258D01*
X00454125Y00551391D01*
D01*
X00452393Y00552719D01*
X00450175Y00553638D01*
X00447794Y00553952D01*
D02*
G37*
G36*
Y00757152D02*
X00445413Y00756838D01*
X00443195Y00755919D01*
X00441290Y00754458D01*
X00439828Y00752552D01*
X00438909Y00750334D01*
X00438596Y00747953D01*
X00438909Y00745572D01*
X00439828Y00743354D01*
X00441290Y00741449D01*
X00443195Y00739987D01*
X00445413Y00739068D01*
X00447794Y00738755D01*
X00450175Y00739068D01*
X00452393Y00739987D01*
X00454299Y00741449D01*
X00455760Y00743354D01*
X00456679Y00745572D01*
X00456993Y00747953D01*
X00456679Y00750334D01*
X00455760Y00752552D01*
X00454299Y00754458D01*
X00452393Y00755919D01*
X00450175Y00756838D01*
X00447794Y00757152D01*
D02*
G37*
G36*
X00422394D02*
X00420013Y00756838D01*
X00417795Y00755919D01*
X00415890Y00754458D01*
X00414428Y00752552D01*
X00413509Y00750334D01*
X00413195Y00747953D01*
X00413509Y00745572D01*
X00414428Y00743354D01*
X00415890Y00741449D01*
X00417795Y00739987D01*
X00420013Y00739068D01*
X00422394Y00738755D01*
X00424775Y00739068D01*
X00426993Y00739987D01*
X00428899Y00741449D01*
X00430360Y00743354D01*
X00431279Y00745572D01*
X00431593Y00747953D01*
X00431279Y00750334D01*
X00430360Y00752552D01*
X00428899Y00754458D01*
X00426993Y00755919D01*
X00424775Y00756838D01*
X00422394Y00757152D01*
D02*
G37*
G36*
X00447794Y00782552D02*
X00445413Y00782238D01*
X00443195Y00781320D01*
X00441290Y00779858D01*
X00439828Y00777952D01*
X00438909Y00775734D01*
X00438596Y00773353D01*
X00438909Y00770972D01*
X00439828Y00768754D01*
X00441290Y00766849D01*
X00443195Y00765387D01*
X00445413Y00764468D01*
X00447794Y00764155D01*
X00450175Y00764468D01*
X00452393Y00765387D01*
X00454299Y00766849D01*
X00455760Y00768754D01*
X00456679Y00770972D01*
X00456993Y00773353D01*
X00456679Y00775734D01*
X00455760Y00777952D01*
X00454299Y00779858D01*
X00452393Y00781320D01*
X00450175Y00782238D01*
X00447794Y00782552D01*
D02*
G37*
G36*
X00422394D02*
X00420013Y00782238D01*
X00417795Y00781320D01*
X00415890Y00779858D01*
X00414428Y00777952D01*
X00413509Y00775734D01*
X00413195Y00773353D01*
X00413509Y00770972D01*
X00414428Y00768754D01*
X00415890Y00766849D01*
X00417795Y00765387D01*
X00420013Y00764468D01*
X00422394Y00764155D01*
X00424775Y00764468D01*
X00426993Y00765387D01*
X00428899Y00766849D01*
X00430360Y00768754D01*
X00431279Y00770972D01*
X00431593Y00773353D01*
X00431279Y00775734D01*
X00430360Y00777952D01*
X00428899Y00779858D01*
X00426993Y00781320D01*
X00424775Y00782238D01*
X00422394Y00782552D01*
D02*
G37*
G36*
X00265400Y00731728D02*
X00255400D01*
X00253050Y00731418D01*
X00250861Y00730511D01*
X00248981Y00729069D01*
X00247539Y00727189D01*
X00246632Y00724999D01*
X00246322Y00722650D01*
X00246632Y00720301D01*
X00247539Y00718111D01*
X00248981Y00716231D01*
X00250861Y00714789D01*
X00253050Y00713882D01*
X00255400Y00713572D01*
X00265400D01*
X00267750Y00713882D01*
X00269939Y00714789D01*
X00271819Y00716231D01*
X00273262Y00718111D01*
X00274168Y00720301D01*
X00274478Y00722650D01*
X00274168Y00724999D01*
X00273262Y00727189D01*
X00271819Y00729069D01*
X00269939Y00730511D01*
X00267750Y00731418D01*
X00265400Y00731728D01*
D02*
G37*
G36*
X00447794Y00731752D02*
X00445413Y00731438D01*
X00443195Y00730519D01*
X00441290Y00729058D01*
X00439828Y00727152D01*
X00438909Y00724934D01*
X00438596Y00722553D01*
X00438909Y00720172D01*
X00439828Y00717954D01*
X00441290Y00716049D01*
X00443195Y00714587D01*
X00445413Y00713668D01*
X00447794Y00713354D01*
X00450175Y00713668D01*
X00452393Y00714587D01*
X00454299Y00716049D01*
X00455760Y00717954D01*
X00456679Y00720172D01*
X00456993Y00722553D01*
X00456679Y00724934D01*
X00455760Y00727152D01*
X00454299Y00729058D01*
X00452393Y00730519D01*
X00450175Y00731438D01*
X00447794Y00731752D01*
D02*
G37*
G36*
X01039670Y00747928D02*
X01029670D01*
X01027320Y00747618D01*
X01025131Y00746712D01*
X01023251Y00745269D01*
X01021808Y00743389D01*
X01021407Y00742419D01*
X01015350D01*
X01013984Y00742147D01*
X01012827Y00741373D01*
X00975727Y00704273D01*
X00974953Y00703116D01*
X00974681Y00701750D01*
Y00684757D01*
X00974431Y00683500D01*
Y00654769D01*
X00974041Y00654607D01*
X00972401Y00653349D01*
X00971143Y00651709D01*
X00970352Y00649799D01*
X00970082Y00647750D01*
X00970352Y00645701D01*
X00971143Y00643791D01*
X00972401Y00642151D01*
X00974041Y00640893D01*
X00975951Y00640102D01*
X00978000Y00639832D01*
X00980049Y00640102D01*
X00981959Y00640893D01*
X00983599Y00642151D01*
X00984857Y00643791D01*
X00985648Y00645701D01*
X00985918Y00647750D01*
X00985648Y00649799D01*
X00984857Y00651709D01*
X00983599Y00653349D01*
X00981959Y00654607D01*
X00981569Y00654769D01*
Y00679743D01*
X00981819Y00681000D01*
Y00682743D01*
X00982069Y00684000D01*
X00981819Y00685257D01*
Y00700272D01*
X01016828Y00735281D01*
X01021407D01*
X01021808Y00734311D01*
X01023251Y00732431D01*
X01025131Y00730989D01*
X01027320Y00730082D01*
X01029670Y00729772D01*
X01039670D01*
X01042020Y00730082D01*
X01044209Y00730989D01*
X01046089Y00732431D01*
X01047532Y00734311D01*
X01048438Y00736500D01*
X01048748Y00738850D01*
X01048438Y00741199D01*
X01047532Y00743389D01*
X01046089Y00745269D01*
X01044209Y00746712D01*
X01042020Y00747618D01*
X01039670Y00747928D01*
D02*
G37*
G36*
X00308580Y00744428D02*
X00298580D01*
X00296231Y00744118D01*
X00294041Y00743212D01*
X00292161Y00741769D01*
X00290718Y00739889D01*
X00289812Y00737700D01*
X00289502Y00735350D01*
X00289812Y00733000D01*
X00290718Y00730811D01*
X00292161Y00728931D01*
X00294041Y00727489D01*
X00296231Y00726582D01*
X00298580Y00726272D01*
X00308580D01*
X00310930Y00726582D01*
X00313119Y00727489D01*
X00314999Y00728931D01*
X00316441Y00730811D01*
X00317348Y00733000D01*
X00317658Y00735350D01*
X00317348Y00737700D01*
X00316441Y00739889D01*
X00314999Y00741769D01*
X00313119Y00743212D01*
X00310930Y00744118D01*
X00308580Y00744428D01*
D02*
G37*
G36*
X00422394Y00807952D02*
X00420013Y00807638D01*
X00417795Y00806720D01*
X00415890Y00805258D01*
X00414428Y00803353D01*
X00413509Y00801134D01*
X00413195Y00798753D01*
X00413509Y00796372D01*
X00414428Y00794154D01*
X00415890Y00792249D01*
X00417795Y00790787D01*
X00420013Y00789868D01*
X00422394Y00789555D01*
X00424775Y00789868D01*
X00426993Y00790787D01*
X00428899Y00792249D01*
X00430360Y00794154D01*
X00431279Y00796372D01*
X00431593Y00798753D01*
X00431279Y00801134D01*
X00430360Y00803353D01*
X00428899Y00805258D01*
X00426993Y00806720D01*
X00424775Y00807638D01*
X00422394Y00807952D01*
D02*
G37*
G36*
X00447794Y00858752D02*
X00445413Y00858438D01*
X00443195Y00857520D01*
X00441290Y00856058D01*
X00439828Y00854153D01*
X00438909Y00851934D01*
X00438596Y00849553D01*
X00438909Y00847172D01*
X00439828Y00844954D01*
X00441290Y00843049D01*
X00443195Y00841587D01*
X00445413Y00840668D01*
X00447794Y00840355D01*
X00450175Y00840668D01*
X00452393Y00841587D01*
X00454299Y00843049D01*
X00455760Y00844954D01*
X00456679Y00847172D01*
X00456993Y00849553D01*
X00456679Y00851934D01*
X00455760Y00854153D01*
X00454299Y00856058D01*
X00452393Y00857520D01*
X00450175Y00858438D01*
X00447794Y00858752D01*
D02*
G37*
G36*
X00422394D02*
X00420013Y00858438D01*
X00417795Y00857520D01*
X00415890Y00856058D01*
X00414428Y00854153D01*
X00413509Y00851934D01*
X00413195Y00849553D01*
X00413509Y00847172D01*
X00414428Y00844954D01*
X00415890Y00843049D01*
X00417795Y00841587D01*
X00420013Y00840668D01*
X00422394Y00840355D01*
X00424775Y00840668D01*
X00426993Y00841587D01*
X00428899Y00843049D01*
X00430360Y00844954D01*
X00431279Y00847172D01*
X00431593Y00849553D01*
X00431279Y00851934D01*
X00430360Y00854153D01*
X00428899Y00856058D01*
X00426993Y00857520D01*
X00424775Y00858438D01*
X00422394Y00858752D01*
D02*
G37*
G36*
X01291500Y00969823D02*
X01288560Y00969533D01*
X01285732Y00968675D01*
X01283126Y00967282D01*
X01280842Y00965408D01*
X01278968Y00963124D01*
X01277575Y00960518D01*
X01276717Y00957691D01*
X01276427Y00954750D01*
X01276717Y00951809D01*
X01277575Y00948982D01*
X01278968Y00946376D01*
X01280842Y00944092D01*
X01283126Y00942218D01*
X01285732Y00940825D01*
X01288560Y00939967D01*
X01291500Y00939677D01*
X01294440Y00939967D01*
X01297268Y00940825D01*
X01299874Y00942218D01*
X01302158Y00944092D01*
X01304032Y00946376D01*
X01305425Y00948982D01*
X01306283Y00951809D01*
X01306573Y00954750D01*
X01306283Y00957691D01*
X01305425Y00960518D01*
X01304032Y00963124D01*
X01302158Y00965408D01*
X01299874Y00967282D01*
X01297268Y00968675D01*
X01294440Y00969533D01*
X01291500Y00969823D01*
D02*
G37*
G36*
X01322000Y00869728D02*
X01319651Y00869418D01*
X01317461Y00868512D01*
X01315581Y00867069D01*
X01314138Y00865189D01*
X01313232Y00862999D01*
X01312922Y00860650D01*
X01313232Y00858300D01*
X01314138Y00856111D01*
X01315581Y00854231D01*
X01317461Y00852789D01*
X01319651Y00851882D01*
X01322000Y00851572D01*
X01324350Y00851882D01*
X01326539Y00852789D01*
X01328419Y00854231D01*
X01329861Y00856111D01*
X01330768Y00858300D01*
X01331078Y00860650D01*
X01330768Y00862999D01*
X01329861Y00865189D01*
X01328419Y00867069D01*
X01326539Y00868512D01*
X01324350Y00869418D01*
X01322000Y00869728D01*
D02*
G37*
G36*
X00422394Y00833352D02*
X00420013Y00833038D01*
X00417795Y00832120D01*
X00415890Y00830658D01*
X00414428Y00828753D01*
X00413509Y00826534D01*
X00413195Y00824153D01*
X00413509Y00821772D01*
X00414428Y00819554D01*
X00415890Y00817649D01*
X00417795Y00816187D01*
X00420013Y00815268D01*
X00422394Y00814955D01*
X00424775Y00815268D01*
X00426993Y00816187D01*
X00428899Y00817649D01*
X00430360Y00819554D01*
X00431279Y00821772D01*
X00431593Y00824153D01*
X00431279Y00826534D01*
X00430360Y00828753D01*
X00428899Y00830658D01*
X00426993Y00832120D01*
X00424775Y00833038D01*
X00422394Y00833352D01*
D02*
G37*
G36*
X00447794Y00807952D02*
X00445413Y00807638D01*
X00443195Y00806720D01*
X00441290Y00805258D01*
X00439828Y00803353D01*
X00438909Y00801134D01*
X00438596Y00798753D01*
X00438909Y00796372D01*
X00439828Y00794154D01*
X00441290Y00792249D01*
X00443195Y00790787D01*
X00445413Y00789868D01*
X00447794Y00789555D01*
X00450175Y00789868D01*
X00452393Y00790787D01*
X00454299Y00792249D01*
X00455760Y00794154D01*
X00456679Y00796372D01*
X00456993Y00798753D01*
X00456679Y00801134D01*
X00455760Y00803353D01*
X00454299Y00805258D01*
X00452393Y00806720D01*
X00450175Y00807638D01*
X00447794Y00807952D01*
D02*
G37*
G36*
X01331000Y00844250D02*
X01313000D01*
Y00826250D01*
X01331000D01*
Y00844250D01*
D02*
G37*
G36*
X00447794Y00833352D02*
X00445413Y00833038D01*
X00443195Y00832120D01*
X00441290Y00830658D01*
X00439828Y00828753D01*
X00438909Y00826534D01*
X00438596Y00824153D01*
X00438909Y00821772D01*
X00439828Y00819554D01*
X00441290Y00817649D01*
X00443195Y00816187D01*
X00445413Y00815268D01*
X00447794Y00814955D01*
X00450175Y00815268D01*
X00452393Y00816187D01*
X00454299Y00817649D01*
X00455760Y00819554D01*
X00456679Y00821772D01*
X00456993Y00824153D01*
X00456679Y00826534D01*
X00455760Y00828753D01*
X00454299Y00830658D01*
X00452393Y00832120D01*
X00450175Y00833038D01*
X00447794Y00833352D01*
D02*
G37*
G36*
X00422394Y00731752D02*
X00420013Y00731438D01*
X00417795Y00730519D01*
X00415890Y00729058D01*
X00414428Y00727152D01*
X00413509Y00724934D01*
X00413195Y00722553D01*
X00413509Y00720172D01*
X00414428Y00717954D01*
X00415890Y00716049D01*
X00417795Y00714587D01*
X00420013Y00713668D01*
X00422394Y00713354D01*
X00424775Y00713668D01*
X00426993Y00714587D01*
X00428899Y00716049D01*
X00430360Y00717954D01*
X00431279Y00720172D01*
X00431593Y00722553D01*
X00431279Y00724934D01*
X00430360Y00727152D01*
X00428899Y00729058D01*
X00426993Y00730519D01*
X00424775Y00731438D01*
X00422394Y00731752D01*
D02*
G37*
G36*
X01039670Y00671728D02*
X01029670D01*
X01027320Y00671418D01*
X01025131Y00670511D01*
X01023251Y00669069D01*
X01021808Y00667189D01*
X01020902Y00664999D01*
X01020592Y00662650D01*
X01020902Y00660301D01*
X01021808Y00658111D01*
X01023251Y00656231D01*
X01025131Y00654789D01*
X01027320Y00653882D01*
X01029670Y00653572D01*
X01039670D01*
X01042020Y00653882D01*
X01044209Y00654789D01*
X01046089Y00656231D01*
X01047532Y00658111D01*
X01048438Y00660301D01*
X01048748Y00662650D01*
X01048438Y00664999D01*
X01047532Y00667189D01*
X01046089Y00669069D01*
X01044209Y00670511D01*
X01042020Y00671418D01*
X01039670Y00671728D01*
D02*
G37*
G36*
X00447794Y00655552D02*
X00445413Y00655238D01*
X00443195Y00654320D01*
X00441290Y00652858D01*
X00439828Y00650953D01*
X00438909Y00648734D01*
X00438596Y00646353D01*
X00438909Y00643972D01*
X00439828Y00641754D01*
X00441290Y00639849D01*
X00443195Y00638387D01*
X00445413Y00637468D01*
X00447794Y00637155D01*
X00450175Y00637468D01*
X00452393Y00638387D01*
X00454299Y00639849D01*
X00455760Y00641754D01*
X00456679Y00643972D01*
X00456993Y00646353D01*
X00456679Y00648734D01*
X00455760Y00650953D01*
X00454299Y00652858D01*
X00452393Y00654320D01*
X00450175Y00655238D01*
X00447794Y00655552D01*
D02*
G37*
G36*
X00422394Y00680952D02*
X00420013Y00680638D01*
X00417795Y00679719D01*
X00415890Y00678258D01*
X00414428Y00676352D01*
X00413509Y00674134D01*
X00413195Y00671753D01*
X00413509Y00669372D01*
X00414428Y00667154D01*
X00415890Y00665249D01*
X00417795Y00663787D01*
X00420013Y00662868D01*
X00422394Y00662554D01*
X00424775Y00662868D01*
X00426993Y00663787D01*
X00428899Y00665249D01*
X00430360Y00667154D01*
X00431279Y00669372D01*
X00431593Y00671753D01*
X00431279Y00674134D01*
X00430360Y00676352D01*
X00428899Y00678258D01*
X00426993Y00679719D01*
X00424775Y00680638D01*
X00422394Y00680952D01*
D02*
G37*
G36*
X00265400Y00680928D02*
X00255400D01*
X00253050Y00680618D01*
X00250861Y00679712D01*
X00248981Y00678269D01*
X00247539Y00676389D01*
X00246632Y00674200D01*
X00246322Y00671850D01*
X00246632Y00669501D01*
X00247539Y00667311D01*
X00248981Y00665431D01*
X00250861Y00663989D01*
X00253050Y00663082D01*
X00255400Y00662772D01*
X00265400D01*
X00267750Y00663082D01*
X00269939Y00663989D01*
X00271819Y00665431D01*
X00273262Y00667311D01*
X00274168Y00669501D01*
X00274478Y00671850D01*
X00274168Y00674200D01*
X00273262Y00676389D01*
X00271819Y00678269D01*
X00269939Y00679712D01*
X00267750Y00680618D01*
X00265400Y00680928D01*
D02*
G37*
G36*
X00447794Y00680952D02*
X00445413Y00680638D01*
X00443195Y00679719D01*
X00441290Y00678258D01*
X00439828Y00676352D01*
X00438909Y00674134D01*
X00438596Y00671753D01*
X00438909Y00669372D01*
X00439828Y00667154D01*
X00441290Y00665249D01*
X00443195Y00663787D01*
X00445413Y00662868D01*
X00447794Y00662554D01*
X00450175Y00662868D01*
X00452393Y00663787D01*
X00454299Y00665249D01*
X00455760Y00667154D01*
X00456679Y00669372D01*
X00456993Y00671753D01*
X00456679Y00674134D01*
X00455760Y00676352D01*
X00454299Y00678258D01*
X00452393Y00679719D01*
X00450175Y00680638D01*
X00447794Y00680952D01*
D02*
G37*
G36*
X00308580Y00668228D02*
X00298580D01*
X00296231Y00667918D01*
X00294041Y00667011D01*
X00292161Y00665569D01*
X00290718Y00663689D01*
X00289812Y00661499D01*
X00289502Y00659150D01*
X00289812Y00656801D01*
X00290718Y00654611D01*
X00292161Y00652731D01*
X00294041Y00651289D01*
X00296231Y00650382D01*
X00298580Y00650072D01*
X00308580D01*
X00310930Y00650382D01*
X00313119Y00651289D01*
X00314999Y00652731D01*
X00316441Y00654611D01*
X00316843Y00655581D01*
X00333872D01*
X00385764Y00603689D01*
X00385602Y00603299D01*
X00385332Y00601250D01*
X00385602Y00599201D01*
X00386393Y00597291D01*
X00387651Y00595651D01*
X00389291Y00594393D01*
X00391201Y00593602D01*
X00393250Y00593332D01*
X00395299Y00593602D01*
X00397209Y00594393D01*
X00398849Y00595651D01*
X00400107Y00597291D01*
X00400898Y00599201D01*
X00401168Y00601250D01*
X00400898Y00603299D01*
X00400107Y00605209D01*
X00398849Y00606849D01*
X00397209Y00608107D01*
X00395299Y00608898D01*
X00393250Y00609168D01*
X00391201Y00608898D01*
X00390811Y00608736D01*
X00337873Y00661673D01*
X00336716Y00662447D01*
X00335350Y00662719D01*
X00316843D01*
X00316441Y00663689D01*
X00314999Y00665569D01*
X00313119Y00667011D01*
X00310930Y00667918D01*
X00308580Y00668228D01*
D02*
G37*
G36*
X01198500Y00582750D02*
X01173500D01*
Y00578819D01*
X01173500D01*
X01172134Y00578547D01*
X01170977Y00577773D01*
X01133172Y00539969D01*
X01116009D01*
X01115006Y00540639D01*
X01113250Y00540988D01*
X01099750D01*
X01097994Y00540639D01*
X01096506Y00539644D01*
X01095511Y00538156D01*
X01095162Y00536400D01*
X01095511Y00534644D01*
X01096506Y00533156D01*
X01097994Y00532161D01*
X01099750Y00531812D01*
X01113250D01*
X01115006Y00532161D01*
X01116009Y00532831D01*
X01134650D01*
X01136016Y00533103D01*
X01137173Y00533877D01*
X01172327Y00569030D01*
X01173500Y00568544D01*
Y00567750D01*
X01198500D01*
Y00582750D01*
D02*
G37*
G36*
X00422394Y00630152D02*
X00420013Y00629838D01*
X00417795Y00628919D01*
X00415890Y00627458D01*
X00414428Y00625552D01*
X00413509Y00623334D01*
X00413195Y00620953D01*
X00413509Y00618572D01*
X00414428Y00616354D01*
X00415890Y00614449D01*
X00417795Y00612987D01*
X00420013Y00612068D01*
X00422394Y00611754D01*
X00424775Y00612068D01*
X00426993Y00612987D01*
X00428899Y00614449D01*
X00430360Y00616354D01*
X00431279Y00618572D01*
X00431593Y00620953D01*
X00431279Y00623334D01*
X00430360Y00625552D01*
X00428899Y00627458D01*
X00426993Y00628919D01*
X00424775Y00629838D01*
X00422394Y00630152D01*
D02*
G37*
G36*
Y00655552D02*
X00420013Y00655238D01*
X00417795Y00654320D01*
X00415890Y00652858D01*
X00414428Y00650953D01*
X00413509Y00648734D01*
X00413195Y00646353D01*
X00413509Y00643972D01*
X00414428Y00641754D01*
X00415890Y00639849D01*
X00417795Y00638387D01*
X00420013Y00637468D01*
X00422394Y00637155D01*
X00424775Y00637468D01*
X00426993Y00638387D01*
X00428899Y00639849D01*
X00430360Y00641754D01*
X00431279Y00643972D01*
X00431593Y00646353D01*
X00431279Y00648734D01*
X00430360Y00650953D01*
X00428899Y00652858D01*
X00426993Y00654320D01*
X00424775Y00655238D01*
X00422394Y00655552D01*
D02*
G37*
G36*
X00447794Y00630152D02*
X00445413Y00629838D01*
X00443195Y00628919D01*
X00441290Y00627458D01*
X00439828Y00625552D01*
X00438909Y00623334D01*
X00438596Y00620953D01*
X00438909Y00618572D01*
X00439828Y00616354D01*
X00441290Y00614449D01*
X00443195Y00612987D01*
X00445413Y00612068D01*
X00447794Y00611754D01*
X00450175Y00612068D01*
X00452393Y00612987D01*
X00454299Y00614449D01*
X00455760Y00616354D01*
X00456679Y00618572D01*
X00456993Y00620953D01*
X00456679Y00623334D01*
X00455760Y00625552D01*
X00454299Y00627458D01*
X00452393Y00628919D01*
X00450175Y00629838D01*
X00447794Y00630152D01*
D02*
G37*
G36*
X00422394Y00706352D02*
X00420013Y00706038D01*
X00417795Y00705119D01*
X00415890Y00703658D01*
X00414428Y00701752D01*
X00413509Y00699534D01*
X00413195Y00697153D01*
X00413509Y00694772D01*
X00414428Y00692554D01*
X00415890Y00690649D01*
X00417795Y00689187D01*
X00420013Y00688268D01*
X00422394Y00687954D01*
X00424775Y00688268D01*
X00426993Y00689187D01*
X00428899Y00690649D01*
X00430360Y00692554D01*
X00431279Y00694772D01*
X00431593Y00697153D01*
X00431279Y00699534D01*
X00430360Y00701752D01*
X00428899Y00703658D01*
X00426993Y00705119D01*
X00424775Y00706038D01*
X00422394Y00706352D01*
D02*
G37*
G36*
X01039670Y00697128D02*
X01029670D01*
X01027320Y00696818D01*
X01025131Y00695911D01*
X01023251Y00694469D01*
X01021808Y00692589D01*
X01020902Y00690399D01*
X01020592Y00688050D01*
X01020902Y00685701D01*
X01021808Y00683511D01*
X01023251Y00681631D01*
X01025131Y00680189D01*
X01027320Y00679282D01*
X01029670Y00678972D01*
X01039670D01*
X01042020Y00679282D01*
X01044209Y00680189D01*
X01046089Y00681631D01*
X01047532Y00683511D01*
X01048438Y00685701D01*
X01048748Y00688050D01*
X01048438Y00690399D01*
X01047532Y00692589D01*
X01046089Y00694469D01*
X01044209Y00695911D01*
X01042020Y00696818D01*
X01039670Y00697128D01*
D02*
G37*
G36*
X00447794Y00706352D02*
X00445413Y00706038D01*
X00443195Y00705119D01*
X00441290Y00703658D01*
X00439828Y00701752D01*
X00438909Y00699534D01*
X00438596Y00697153D01*
X00438909Y00694772D01*
X00439828Y00692554D01*
X00441290Y00690649D01*
X00443195Y00689187D01*
X00445413Y00688268D01*
X00447794Y00687954D01*
X00450175Y00688268D01*
X00452393Y00689187D01*
X00454299Y00690649D01*
X00455760Y00692554D01*
X00456679Y00694772D01*
X00456993Y00697153D01*
X00456679Y00699534D01*
X00455760Y00701752D01*
X00454299Y00703658D01*
X00452393Y00705119D01*
X00450175Y00706038D01*
X00447794Y00706352D01*
D02*
G37*
G36*
X01039670Y00722528D02*
X01029670D01*
X01027320Y00722218D01*
X01025131Y00721311D01*
X01023251Y00719869D01*
X01021808Y00717989D01*
X01020902Y00715799D01*
X01020592Y00713450D01*
X01020902Y00711100D01*
X01021808Y00708911D01*
X01023251Y00707031D01*
X01025131Y00705589D01*
X01027320Y00704682D01*
X01029670Y00704372D01*
X01039670D01*
X01042020Y00704682D01*
X01044209Y00705589D01*
X01046089Y00707031D01*
X01047532Y00708911D01*
X01048438Y00711100D01*
X01048748Y00713450D01*
X01048438Y00715799D01*
X01047532Y00717989D01*
X01046089Y00719869D01*
X01044209Y00721311D01*
X01042020Y00722218D01*
X01039670Y00722528D01*
D02*
G37*
G36*
X00308580Y00719028D02*
X00298580D01*
X00296231Y00718718D01*
X00294041Y00717812D01*
X00292161Y00716369D01*
X00290718Y00714489D01*
X00289812Y00712299D01*
X00289502Y00709950D01*
X00289812Y00707600D01*
X00290718Y00705411D01*
X00292161Y00703531D01*
X00294041Y00702089D01*
X00296231Y00701182D01*
X00298580Y00700872D01*
X00308580D01*
X00310930Y00701182D01*
X00313119Y00702089D01*
X00314999Y00703531D01*
X00316441Y00705411D01*
X00317348Y00707600D01*
X00317658Y00709950D01*
X00317348Y00712299D01*
X00316441Y00714489D01*
X00314999Y00716369D01*
X00313119Y00717812D01*
X00310930Y00718718D01*
X00308580Y00719028D01*
D02*
G37*
G36*
Y00693628D02*
X00298580D01*
X00296231Y00693318D01*
X00294041Y00692411D01*
X00292161Y00690969D01*
X00290718Y00689089D01*
X00289812Y00686899D01*
X00289502Y00684550D01*
X00289812Y00682200D01*
X00290718Y00680011D01*
X00292161Y00678131D01*
X00294041Y00676689D01*
X00296231Y00675782D01*
X00298580Y00675472D01*
X00308580D01*
X00310930Y00675782D01*
X00313119Y00676689D01*
X00314999Y00678131D01*
X00316441Y00680011D01*
X00317348Y00682200D01*
X00317658Y00684550D01*
X00317348Y00686899D01*
X00316441Y00689089D01*
X00314999Y00690969D01*
X00313119Y00692411D01*
X00310930Y00693318D01*
X00308580Y00693628D01*
D02*
G37*
G36*
X01082850Y00684428D02*
X01072850D01*
X01070500Y00684118D01*
X01068311Y00683212D01*
X01066431Y00681769D01*
X01064988Y00679889D01*
X01064082Y00677700D01*
X01063772Y00675350D01*
X01064082Y00673000D01*
X01064988Y00670811D01*
X01066431Y00668931D01*
X01068311Y00667489D01*
X01070500Y00666582D01*
X01072850Y00666272D01*
X01082850D01*
X01085200Y00666582D01*
X01087389Y00667489D01*
X01089269Y00668931D01*
X01090712Y00670811D01*
X01091618Y00673000D01*
X01091928Y00675350D01*
X01091618Y00677700D01*
X01090712Y00679889D01*
X01089269Y00681769D01*
X01087389Y00683212D01*
X01085200Y00684118D01*
X01082850Y00684428D01*
D02*
G37*
%LPD*%
G36*
X00104500Y00272750D02*
X00108500Y00268750D01*
X00145500D01*
X00145750Y00268500D01*
X00148500Y00265750D01*
Y00260250D01*
X00148750Y00260000D01*
Y00259750D01*
Y00255250D01*
X00148250Y00254750D01*
X00145750Y00252250D01*
X00109500D01*
X00107250Y00254500D01*
X00102750Y00259000D01*
X00100250D01*
X00099750Y00258500D01*
X00098250Y00257000D01*
X00084000D01*
X00083750Y00257250D01*
X00081250Y00259750D01*
Y00260750D01*
Y00273500D01*
X00081500Y00273750D01*
X00083750Y00276000D01*
X00101250D01*
X00104500Y00272750D01*
D02*
G37*
G36*
X01021126Y00333069D02*
X01021602Y00331921D01*
X01022750Y00331445D01*
X01042340D01*
X01043232Y00331268D01*
X01043988Y00330762D01*
X01046620Y00328130D01*
X01047768Y00327655D01*
X01049500D01*
X01050648Y00328130D01*
X01051124Y00329279D01*
Y00331086D01*
X01081376D01*
Y00320750D01*
Y00320334D01*
X01051124D01*
Y00320750D01*
Y00322141D01*
X01050648Y00323289D01*
X01049500Y00323765D01*
X01046450D01*
X01045558Y00323942D01*
X01044802Y00324448D01*
X01042170Y00327080D01*
X01041022Y00327555D01*
X01022750D01*
X01021602Y00327080D01*
X01021126Y00325931D01*
Y00322874D01*
X01010374D01*
Y00332376D01*
Y00336126D01*
X01021126D01*
Y00333069D01*
D02*
G37*
G36*
X00218500Y00362000D02*
X00221750Y00358750D01*
Y00321750D01*
Y00321250D01*
X00229000Y00314000D01*
X00231500Y00311500D01*
Y00258500D01*
Y00256750D01*
X00223250Y00248500D01*
X00220500Y00245750D01*
X00168000Y00193250D01*
X00150000D01*
Y00203250D01*
Y00210500D01*
Y00211500D01*
Y00215000D01*
X00150500Y00215500D01*
X00170750Y00235750D01*
Y00242500D01*
Y00248250D01*
X00169250Y00249750D01*
X00160423Y00258577D01*
X00160570Y00258930D01*
X00159750Y00259750D01*
Y00313000D01*
Y00314000D01*
X00163000Y00317250D01*
X00166000Y00320250D01*
X00199750D01*
X00202500Y00323000D01*
X00202750Y00323250D01*
Y00332500D01*
Y00340500D01*
X00201124Y00342126D01*
Y00343750D01*
Y00358500D01*
X00200648Y00359648D01*
X00199523Y00360773D01*
X00202750Y00364000D01*
X00203500Y00364750D01*
X00215750D01*
X00218500Y00362000D01*
D02*
G37*
G36*
X00198000Y00360000D02*
X00199500Y00358500D01*
Y00343750D01*
Y00340750D01*
X00195750Y00337000D01*
X00145250D01*
X00141250Y00341000D01*
Y00350750D01*
X00141250Y00350750D01*
X00141250Y00358500D01*
X00141250Y00358500D01*
X00141250D01*
Y00358500D01*
X00144750Y00362000D01*
X00147250Y00364500D01*
X00193500D01*
X00198000Y00360000D01*
D02*
G37*
D10*
X00666000Y00676450D02*
D03*
Y00689150D02*
D03*
Y00701850D02*
D03*
Y00714550D02*
D03*
X00615000Y00676450D02*
D03*
Y00689150D02*
D03*
Y00701850D02*
D03*
Y00714550D02*
D03*
X00153250Y00524600D02*
D03*
Y00511900D02*
D03*
Y00499200D02*
D03*
Y00486500D02*
D03*
Y00473800D02*
D03*
Y00461100D02*
D03*
Y00448400D02*
D03*
X00204250Y00524600D02*
D03*
Y00511900D02*
D03*
Y00499200D02*
D03*
Y00486500D02*
D03*
Y00473800D02*
D03*
Y00461100D02*
D03*
Y00448400D02*
D03*
X01106500Y00472900D02*
D03*
Y00485600D02*
D03*
Y00498300D02*
D03*
Y00511000D02*
D03*
Y00523700D02*
D03*
Y00536400D02*
D03*
Y00549100D02*
D03*
X01055500Y00472900D02*
D03*
Y00485600D02*
D03*
Y00498300D02*
D03*
Y00511000D02*
D03*
Y00523700D02*
D03*
Y00536400D02*
D03*
Y00549100D02*
D03*
D11*
X00753750Y00415500D02*
D03*
Y00432500D02*
D03*
X00073750Y00512750D02*
D03*
Y00495750D02*
D03*
X00705750Y00585250D02*
D03*
Y00602250D02*
D03*
X00073000Y00446000D02*
D03*
Y00463000D02*
D03*
X00307250Y00378500D02*
D03*
Y00395500D02*
D03*
X00307000Y00448750D02*
D03*
Y00431750D02*
D03*
X01000500Y00475500D02*
D03*
Y00492500D02*
D03*
X00999250Y00547250D02*
D03*
Y00530250D02*
D03*
X01262750Y00462000D02*
D03*
Y00479000D02*
D03*
X01261500Y00407500D02*
D03*
Y00424500D02*
D03*
D12*
X00149000Y00348500D02*
D03*
X00132000D02*
D03*
X01073750Y00415500D02*
D03*
X01090750D02*
D03*
X00071000Y00301500D02*
D03*
X00088000D02*
D03*
X00155000Y00201000D02*
D03*
X00138000D02*
D03*
X01113250Y00256250D02*
D03*
X01130250D02*
D03*
X00363500Y00352750D02*
D03*
X00346500D02*
D03*
X01014500Y00365750D02*
D03*
X00997500D02*
D03*
X01208000Y00308250D02*
D03*
X01225000D02*
D03*
X00504000Y00717750D02*
D03*
X00521000D02*
D03*
X00522000Y00685500D02*
D03*
X00505000D02*
D03*
X00764500Y00800250D02*
D03*
X00747500D02*
D03*
D13*
X00625250Y00793000D02*
D03*
X00607250D02*
D03*
D14*
X01254500Y00368000D02*
D03*
X01236000Y00361250D02*
D03*
Y00374500D02*
D03*
X00346500Y00428250D02*
D03*
Y00415000D02*
D03*
X00365000Y00421750D02*
D03*
D15*
X01260000Y00550250D02*
D03*
Y00575250D02*
D03*
X01186000Y00550250D02*
D03*
Y00575250D02*
D03*
X00269500Y00507250D02*
D03*
Y00482250D02*
D03*
X00343500Y00507250D02*
D03*
Y00482250D02*
D03*
D16*
X00130000Y00310790D02*
D03*
Y00260210D02*
D03*
X01066250Y00325710D02*
D03*
Y00376290D02*
D03*
D17*
X00194500Y00285500D02*
D03*
X01130750Y00351000D02*
D03*
D18*
X00734960Y00669750D02*
D03*
X00785540D02*
D03*
D19*
X00760250Y00734250D02*
D03*
D20*
X00089500Y00267500D02*
D03*
X00070500D02*
D03*
X00996750Y00329500D02*
D03*
X01015750D02*
D03*
D21*
X00265250Y00448750D02*
D03*
Y00429750D02*
D03*
Y00376250D02*
D03*
Y00395250D02*
D03*
X00644500Y00558750D02*
D03*
Y00577750D02*
D03*
X00629250Y00322250D02*
D03*
Y00341250D02*
D03*
X01204000Y00458000D02*
D03*
Y00477000D02*
D03*
X01204500Y00424750D02*
D03*
Y00405750D02*
D03*
X00648500Y00412750D02*
D03*
Y00431750D02*
D03*
X00574000Y00340500D02*
D03*
Y00321500D02*
D03*
D22*
X00191500Y00347750D02*
D03*
X00209000D02*
D03*
X01144000Y00414000D02*
D03*
X01126500D02*
D03*
D23*
X00745000Y00585500D02*
D03*
Y00603000D02*
D03*
D24*
X00624000Y00844500D02*
D03*
X00595000D02*
D03*
D25*
X00705000Y00403250D02*
D03*
Y00432250D02*
D03*
D26*
X01090750Y00415500D02*
X01092250Y00414000D01*
X01126500D01*
Y00429000D01*
X01130500Y00433000D01*
X00191500Y00347750D02*
Y00352942D01*
X00210750Y00312250D02*
Y00349500D01*
X01124600Y00112500D02*
Y00144600D01*
X01174250Y00194250D01*
X01130500Y00433000D02*
X01155250D01*
X01174250Y00414000D01*
Y00194250D02*
Y00414000D01*
D27*
X00996750Y00329500D02*
Y00383750D01*
X01077750Y00464750D01*
Y00490350D01*
X00108040Y00260210D02*
X00130000D01*
X00100750Y00267500D02*
X00108040Y00260210D01*
X00089500Y00267500D02*
X00100750D01*
X00071000Y00365250D02*
X00124250Y00418500D01*
X00071000Y00268000D02*
Y00301500D01*
Y00365250D01*
X00124250Y00418500D02*
X00150000D01*
X00190000Y00458500D01*
Y00465000D01*
X01085700Y00498300D02*
X01106500D01*
X01077750Y00490350D02*
X01085700Y00498300D01*
X00190000Y00465000D02*
X00198800Y00473800D01*
D28*
X00763500Y00457250D02*
Y00491750D01*
X00763250Y00491500D02*
X00763500Y00491750D01*
X00149000Y00348500D02*
X00190750D01*
X00745000Y00585500D02*
X00763500Y00567000D01*
X00705750Y00585250D02*
X00706000Y00585500D01*
X00745000D01*
X00763500Y00557500D02*
Y00567000D01*
D29*
X01011750Y00547250D02*
X01035300Y00523700D01*
X01013200D02*
X01035300D01*
X00963925Y00536825D02*
Y00538364D01*
Y00536825D02*
X00982250Y00518500D01*
X01008000D01*
X01013200Y00523700D01*
X00194500Y00240500D02*
Y00285500D01*
Y00296000D01*
X00210750Y00312250D01*
X00155000Y00201000D02*
X00194500Y00240500D01*
X00108000Y00512750D02*
X00121550Y00499200D01*
X00153250D01*
X00073750Y00512750D02*
X00108000D01*
X00999250Y00547250D02*
X01011750D01*
X01035300Y00523700D02*
X01055500D01*
X00103250Y00495000D02*
X00117350D01*
X00121550Y00499200D01*
D30*
X00070500Y00271500D02*
Y00301500D01*
X01174250Y00172750D02*
X01185500D01*
X01194250Y00181500D01*
X01206500Y00306750D02*
X01208000Y00308250D01*
X01206500Y00243250D02*
Y00306750D01*
Y00243250D02*
X01209750Y00240000D01*
X01207000Y00236250D02*
Y00240000D01*
X00978250Y00701750D02*
X01015350Y00738850D01*
X00978250Y00681000D02*
Y00701750D01*
X00978000Y00647750D02*
Y00683500D01*
X01254500Y00361000D02*
X01276750Y00338750D01*
X01254500Y00361000D02*
Y00368000D01*
X01204500Y00405750D02*
X01206250Y00404000D01*
Y00372550D02*
Y00404000D01*
X01290000Y00336000D02*
Y00520250D01*
X01277500Y00323500D02*
X01290000Y00336000D01*
X01216000Y00323500D02*
X01277500D01*
X01208000Y00315500D02*
X01216000Y00323500D01*
X01225000Y00308250D02*
X01288000D01*
X01260000Y00550250D02*
X01290000Y00520250D01*
X01268250Y00394500D02*
X01283000Y00409250D01*
X01282750D02*
X01283000D01*
X01282750D02*
Y00476500D01*
X01242250Y00394500D02*
X01268250D01*
X01129500Y00219250D02*
X01147750Y00237500D01*
X01272250Y00462000D02*
X01277250Y00457000D01*
Y00412000D02*
Y00457000D01*
X01273250Y00408000D02*
X01277250Y00412000D01*
X01280250Y00479000D02*
X01282750Y00476500D01*
X00265250Y00448750D02*
X00307000D01*
X00265250Y00395250D02*
Y00429750D01*
X00190750Y00348500D02*
X00191500Y00347750D01*
X00346500Y00415000D02*
X00346500Y00415000D01*
X00574750Y00341250D02*
X00629250D01*
X00557000Y00793000D02*
X00607250D01*
X00521000Y00757000D02*
X00557000Y00793000D01*
X00521000Y00717750D02*
Y00757000D01*
Y00717750D02*
X00575500D01*
X00591400Y00701850D01*
X00615000D01*
X00810750Y00650750D02*
Y00727250D01*
X00803750Y00734250D02*
X00810750Y00727250D01*
X00760250Y00734250D02*
X00803750D01*
X00764000Y00604000D02*
X00810750Y00650750D01*
X00346500Y00428250D02*
X00372450D01*
X00346500Y00428250D02*
X00346500Y00428250D01*
X01173500Y00575250D02*
X01186000D01*
X01134650Y00536400D02*
X01173500Y00575250D01*
X01106500Y00536400D02*
X01134650D01*
X01159450Y00523700D02*
X01186000Y00550250D01*
X01106500Y00523700D02*
X01159450D01*
X01106500Y00511000D02*
X01138250D01*
X00203000Y00486500D02*
X00240500D01*
X00254250Y00429750D02*
X00265250D01*
X00240500Y00486500D02*
X00251250Y00475750D01*
Y00432750D02*
X00254250Y00429750D01*
X00251250Y00432750D02*
Y00475750D01*
X00088000Y00301500D02*
X00103500D01*
X00112790Y00310790D01*
X00131500D02*
X00133750Y00313040D01*
X00112790Y00310790D02*
X00130000D01*
X00131500D01*
X00346500Y00352750D02*
Y00415000D01*
Y00264250D02*
Y00352750D01*
X00649000Y00432250D02*
X00705000D01*
X00479250Y00602000D02*
Y00874000D01*
X00037750Y00460500D02*
Y00798000D01*
Y00460500D02*
X00053250Y00445000D01*
X00073750Y00463750D02*
Y00495750D01*
X00073000Y00463000D02*
X00073750Y00463750D01*
X00064000Y00495750D02*
X00073750D01*
X00056250Y00503500D02*
X00064000Y00495750D01*
X00056250Y00503500D02*
Y00523750D01*
X00060250Y00527750D01*
X00110500D01*
X00126350Y00511900D01*
X00153250D01*
X01000500Y00475500D02*
X01012500D01*
X01035300Y00498300D01*
X01055500D01*
X00744000Y00604000D02*
X00764000D01*
X00523000Y00685500D02*
X00571250D01*
X00574900Y00689150D01*
X00615000D01*
X00723000Y00634250D02*
X00750040D01*
X00779395Y00663605D01*
X00648750Y00741750D02*
X00695000D01*
X00636000Y00729000D02*
X00648750Y00741750D01*
X00636000Y00694500D02*
Y00729000D01*
X00630650Y00689150D02*
X00636000Y00694500D01*
X00615000Y00689150D02*
X00630650D01*
X00709000Y00648250D02*
X00723000Y00634250D01*
X00709000Y00648250D02*
Y00727750D01*
X00695000Y00741750D02*
X00709000Y00727750D01*
X00644500Y00435750D02*
X00648500Y00431750D01*
X00644500Y00435750D02*
Y00436750D01*
Y00558750D01*
X00479250Y00602000D02*
X00644500Y00436750D01*
Y00577750D02*
X00664250D01*
X00644500D02*
Y00623500D01*
X00666000Y00645000D01*
Y00676450D01*
X00111000Y00120500D02*
X00172750D01*
X01138250Y00511000D02*
X01191250Y00458000D01*
X01204000D01*
Y00425250D02*
Y00458000D01*
Y00425250D02*
X01261500D01*
X01204000Y00477000D02*
X01260750D01*
X01262750Y00479000D01*
X01206250Y00372550D02*
X01217550Y00361250D01*
X01208000Y00351700D02*
X01217550Y00361250D01*
X01236000D01*
X01262750Y00479000D02*
X01280250D01*
X01208000Y00315500D02*
Y00351700D01*
X01144000Y00364250D02*
Y00414000D01*
X01130750Y00351000D02*
X01144000Y00364250D01*
X01073750Y00383790D02*
Y00415500D01*
X01066250Y00376290D02*
X01073750Y00383790D01*
X01015750Y00329500D02*
X01042500D01*
X01046290Y00325710D01*
X01066250D01*
X01014500Y00365750D02*
X01038500D01*
X01049040Y00376290D01*
X01066250D01*
X00980000Y00397400D02*
X01055500Y00472900D01*
X00980000Y00305750D02*
Y00397400D01*
Y00305750D02*
X01030400Y00255350D01*
Y00240250D02*
Y00255350D01*
X01090100Y00485600D02*
X01106500D01*
X01085500Y00481000D02*
X01090100Y00485600D01*
X01085500Y00446000D02*
Y00481000D01*
X01073750Y00434250D02*
X01085500Y00446000D01*
X01073750Y00415500D02*
Y00434250D01*
X00930620Y00519380D02*
X00954870D01*
X00963250Y00511000D01*
X01055500D01*
X01036850Y00567750D02*
X01055500Y00549100D01*
X00971000Y00567750D02*
X01036850D01*
X00952750Y00475500D02*
X01000500D01*
X00947500Y00480750D02*
X00952750Y00475500D01*
X00890250Y00480750D02*
X00947500D01*
X00841750Y00432250D02*
X00890250Y00480750D01*
X00705000Y00432250D02*
X00841750D01*
X00990000Y00475000D02*
X01009500D01*
X00535000Y00379750D02*
X00941750D01*
X00457500Y00302250D02*
X00535000Y00379750D01*
X00429250Y00302250D02*
X00457500D01*
X00422394Y00309106D02*
X00429250Y00302250D01*
X00422394Y00309106D02*
Y00316153D01*
X00153250Y00524600D02*
Y00561250D01*
X00175250Y00583250D01*
X00477250D01*
X00404000Y00362750D02*
X00410917Y00355833D01*
X00433514D01*
X00447794Y00341553D01*
X00714500Y00886250D02*
X00714750Y00886500D01*
X00029250Y00202250D02*
X00111000Y00120500D01*
X00029250Y00202250D02*
Y00799000D01*
X00693250Y00341250D02*
X00785500D01*
X00629250Y00341250D02*
X00694000D01*
X00204250Y00400750D02*
Y00448400D01*
X00490500Y00453750D02*
Y00527447D01*
X00447794Y00570153D02*
X00490500Y00527447D01*
X00073000Y00446000D02*
X00073000Y00446000D01*
X00088250D01*
X00053250Y00445000D02*
X00078250D01*
X00116050Y00473800D02*
X00153250D01*
X00088250Y00446000D02*
X00116050Y00473800D01*
X00126750Y00462000D02*
X00152350D01*
X00153250Y00461100D01*
X00204250D02*
X00218250D01*
X00056250Y00523750D02*
Y00645500D01*
X00108000Y00697250D01*
X00132000Y00348500D02*
Y00371500D01*
X00146750Y00386250D01*
X00209250D01*
X00365000Y00354250D02*
Y00421750D01*
X00363500Y00352750D02*
X00365000Y00354250D01*
X00307000Y00448750D02*
Y00486250D01*
X00218250Y00461100D02*
X00231750Y00447600D01*
X00365000Y00421750D02*
X00365000Y00421750D01*
X00209250Y00386250D02*
X00209750Y00385750D01*
X00231750D01*
X00209750D02*
X00253500Y00342000D01*
X00231750Y00385750D02*
Y00447600D01*
X00595000Y00829750D02*
Y00844500D01*
Y00829750D02*
X00614750Y00810000D01*
X00644000Y00783250D02*
Y00924000D01*
X00617750Y00950250D02*
X00644000Y00924000D01*
X00617750Y00950250D02*
Y00964250D01*
X00614750Y00714800D02*
X00615000Y00714550D01*
X00614750Y00714800D02*
Y00810000D01*
Y00777250D02*
X00615500Y00776500D01*
X00637250D01*
X00504000Y00687500D02*
Y00717750D01*
Y00687500D02*
X00506000Y00685500D01*
X00442865Y00504750D02*
X00443188Y00505073D01*
X00465927D02*
X00476250Y00494750D01*
X00443188Y00505073D02*
X00465927D01*
X00433191Y00504750D02*
X00442865D01*
X00422394Y00493953D02*
X00433191Y00504750D01*
X00662758Y00689150D02*
X00666000D01*
X00587250Y00531500D02*
X00620250Y00564500D01*
Y00646643D01*
X00662758Y00689150D01*
X00574750Y00844500D02*
X00595000D01*
X00504000Y00773750D02*
X00574750Y00844500D01*
X00504000Y00717750D02*
Y00773750D01*
X00661000Y00800250D02*
X00747500D01*
X00637250Y00776500D02*
X00644000Y00783250D01*
X00661000Y00800250D01*
X00760250Y00734250D02*
X00764500Y00738500D01*
Y00800250D01*
X00666000Y00714550D02*
X00676950D01*
X00684750Y00706750D01*
Y00573750D02*
Y00706750D01*
X00705750Y00602250D02*
X00727250Y00623750D01*
X00772750D01*
X00803750Y00654750D01*
Y00693250D01*
X00735750D02*
X00803750D01*
X00734960Y00692460D02*
X00735750Y00693250D01*
X00734960Y00669750D02*
Y00692460D01*
X00721250Y00774000D02*
X00747500Y00800250D01*
X00721250Y00683460D02*
Y00774000D01*
Y00683460D02*
X00734960Y00669750D01*
X00705000Y00403250D02*
X00741500D01*
X00753750Y00415500D01*
X00648500Y00412750D02*
X00674500D01*
X00675250Y00412000D01*
X00834500Y00572500D02*
Y00819750D01*
X00808500Y00845750D02*
X00834500Y00819750D01*
X00695250Y00876000D02*
X00725500Y00845750D01*
X00808500D01*
X00695250Y00876000D02*
Y00906500D01*
X00718400Y00929650D01*
Y00963500D01*
X00664250Y00577750D02*
X00715750Y00526250D01*
X00886690D01*
X00905220Y00519380D02*
X00916840Y00531000D01*
X00886690Y00526250D02*
X00905220Y00544780D01*
X00684750Y00573750D02*
X00722250Y00536250D01*
X00874500D01*
X00895500Y00557250D01*
X00918150D01*
X00930620Y00544780D01*
X00675250Y00469000D02*
X00712750Y00506500D01*
X00790250D01*
X01194250Y00181500D02*
Y00412700D01*
X01197300Y00415750D01*
X01221000D01*
X01225000Y00308250D02*
X01227000Y00306250D01*
X01130250Y00256250D02*
Y00350500D01*
X01130750Y00351000D01*
X01088750Y00280750D02*
X01113250Y00256250D01*
X01088750Y00280750D02*
Y00372000D01*
X01084460Y00376290D02*
X01088750Y00372000D01*
X01066250Y00376290D02*
X01084460D01*
X01015350Y00738850D02*
X01034670D01*
X00335350Y00659150D02*
X00393250Y00601250D01*
X00303580Y00659150D02*
X00335350D01*
X00422394Y00417753D02*
X00436500Y00403647D01*
X00850500Y00390000D02*
X00889400Y00428900D01*
X00946650D02*
X00969750Y00452000D01*
X00889400Y00428900D02*
X00946650D01*
X01105500Y00471900D02*
X01106500Y00472900D01*
X00916840Y00531000D02*
X00934250D01*
X00971000Y00567750D01*
X00978250Y00684000D02*
X00978500D01*
X00969750Y00452000D02*
X00988250D01*
X00436500Y00403647D02*
X00465603D01*
X00479250Y00390000D01*
X00850500D01*
X00702250Y00400500D02*
X00705000Y00403250D01*
X00582750Y00400500D02*
X00702250D01*
X00545000Y00341000D02*
X00564500Y00321500D01*
X00574000D01*
X01262750Y00462000D02*
X01272250D01*
X01058000Y00680900D02*
X01077850Y00700750D01*
X01058000Y00592250D02*
Y00680900D01*
Y00592250D02*
X01087500Y00562750D01*
X00138000Y00201000D02*
Y00225250D01*
X00154250Y00241500D01*
Y00286540D01*
X00130000Y00310790D02*
X00154250Y00286540D01*
X00133750Y00313040D02*
Y00350250D01*
X00336000Y00246750D02*
X00397350Y00185400D01*
X00336000Y00246750D02*
Y00321000D01*
X01105250Y00434500D02*
X01105500Y00434750D01*
Y00471900D01*
X00198800Y00473800D02*
X00204250D01*
X00176250Y00462000D02*
Y00479750D01*
X00169500Y00486500D02*
X00176250Y00479750D01*
X00153250Y00486500D02*
X00169500D01*
X00265250Y00376250D02*
X00286250D01*
X00253500Y00342000D02*
X00315000D01*
X00336000Y00321000D01*
X00307250Y00378500D02*
X00317500D01*
X00322750Y00383750D01*
Y00416000D01*
X00307000Y00431750D02*
X00322750Y00416000D01*
X01262750Y00405000D02*
X01265750Y00408000D01*
X01273250D01*
X00675250Y00456000D02*
Y00469000D01*
X00265250Y00395250D02*
X00302000D01*
X00231750Y00385750D02*
X00291750D01*
X00299000Y00378500D01*
X00307250D01*
X00286250Y00376250D02*
X00308750Y00353750D01*
X00346500D01*
X01288000Y00308250D02*
X01304000Y00324250D01*
Y00506000D01*
X01221000Y00415750D02*
X01236000Y00400750D01*
Y00374500D02*
Y00400750D01*
X01242250Y00394500D01*
X01087500Y00517000D02*
Y00520750D01*
Y00523500D01*
Y00562750D01*
X00941750Y00379750D02*
X01047600Y00485600D01*
X01055500D01*
X00337250Y00415000D02*
X00346500D01*
X00327500Y00424750D02*
X00337250Y00415000D01*
X00466600Y00151050D02*
X00468950D01*
X00494750Y00176850D01*
X00379250Y00301000D02*
X00494750Y00185500D01*
X00476300Y00179450D02*
X00480450D01*
X00451000Y00204750D02*
X00476300Y00179450D01*
X00406000Y00204750D02*
X00451000D01*
X00346500Y00264250D02*
X00406000Y00204750D01*
X00327500Y00424750D02*
Y00466250D01*
X00343500Y00482250D01*
X00203000Y00499200D02*
X00204250D01*
Y00511900D02*
X00254350D01*
X00262250Y00504000D01*
X00266250D01*
X00269500Y00507250D01*
X00204250Y00499200D02*
X00241550D01*
X00258500Y00482250D01*
X00269500D01*
X00307000Y00486250D02*
X00327000Y00506250D01*
X00360750D02*
X00379250Y00487750D01*
Y00421450D02*
Y00487750D01*
X00327000Y00506250D02*
X00360750D01*
X00379250Y00301000D02*
Y00421450D01*
X00372450Y00428250D02*
X00379250Y00421450D01*
X00379500Y00421200D01*
X00494750Y00176850D02*
Y00185500D01*
X00393250Y00351000D02*
Y00505500D01*
X00404000Y00362750D02*
Y00518750D01*
X00377500Y00545250D02*
X00404000Y00518750D01*
X00245000Y00545250D02*
X00377500D01*
X00204250Y00524600D02*
X00224350D01*
X00245000Y00545250D01*
X01204000Y00477000D02*
Y00534000D01*
X01245250Y00575250D01*
X01260000D01*
X00847200Y00178700D02*
X00887750Y00219250D01*
X01129500D01*
X00833350Y00150300D02*
X00854400Y00129250D01*
X01082750D01*
X01125750Y00172250D01*
X00029250Y00799000D02*
X00158000Y00927750D01*
X00625250Y00791000D02*
Y00887250D01*
X00584750Y00927750D02*
X00625250Y00887250D01*
X00158000Y00927750D02*
X00584750D01*
X00037750Y00798000D02*
X00159000Y00919250D01*
X00434000D01*
X00479250Y00874000D01*
X00714500Y00886250D02*
X00929500D01*
X01106500Y00549100D02*
Y00709250D01*
X00929500Y00886250D02*
X01078600Y00737150D01*
X01087406D01*
X01093850Y00730706D01*
Y00721900D02*
Y00730706D01*
Y00721900D02*
X01106500Y00709250D01*
D31*
X00194250Y00480000D02*
X00215250D01*
X00188750Y00485500D02*
X00194250Y00480000D01*
X00215250D02*
X00218250Y00477000D01*
X00273250Y00285750D02*
X00291400Y00303900D01*
X00273250Y00256500D02*
Y00285750D01*
X00062750Y00177500D02*
X00194250D01*
X00273250Y00256500D01*
X00291400Y00303900D02*
X00312750D01*
X00133900Y00448400D02*
X00153250D01*
X00218250Y00461100D02*
Y00477000D01*
X01220750Y00462000D02*
X01262750D01*
X01214750Y00468000D02*
X01220750Y00462000D01*
X01195800Y00468000D02*
X01214750D01*
X01193750Y00470050D02*
X01195800Y00468000D01*
X01021000Y00504500D02*
X01075000D01*
X01009000Y00492500D02*
X01021000Y00504500D01*
X01000500Y00492500D02*
X01009000D01*
X00990250Y00530250D02*
X00999250D01*
X00982750Y00537750D02*
X00990250Y00530250D01*
X00982750Y00537750D02*
Y00553250D01*
X00987250Y00557750D01*
X01019000D01*
X01040350Y00536400D01*
X01055500D01*
X01096750Y00504750D02*
X01119250D01*
X01125750Y00498250D01*
Y00489750D02*
Y00498250D01*
X01121600Y00485600D02*
X01125750Y00489750D01*
X01106500Y00485600D02*
X01121600D01*
X00153250Y00511900D02*
X00176100D01*
X00188750Y00499250D01*
Y00485500D02*
Y00499250D01*
X01055500Y00536400D02*
X01071850D01*
X01075000Y00504500D02*
X01087500Y00517000D01*
X01147000D02*
X01193750Y00470250D01*
X01094000Y00517000D02*
X01147000D01*
X01087500Y00523500D02*
X01094000Y00517000D01*
X01071850Y00536400D02*
X01087500Y00520750D01*
Y00514000D02*
X01096750Y00504750D01*
X01087500Y00514000D02*
Y00517000D01*
X00035250Y00205000D02*
X00062750Y00177500D01*
X00035250Y00205000D02*
Y00349750D01*
X00133900Y00448400D01*
D32*
X00559000Y00274500D02*
X00606750Y00322250D01*
X00480250Y00274500D02*
X00559000D01*
X00878250Y00272750D02*
X00972500D01*
X01005000Y00240250D01*
X00606750Y00322250D02*
X00629250D01*
X00640500D01*
X00647350Y00329100D02*
X00821900D01*
X00878250Y00272750D01*
X00640500Y00322250D02*
X00647350Y00329100D01*
X00397350Y00179450D02*
Y00185400D01*
D33*
X00693000Y00963500D02*
D03*
X00617750Y00964250D02*
D03*
X01005000Y00240250D02*
D03*
X01150000Y00112500D02*
D03*
X00172750Y00120000D02*
D03*
D34*
X00718400Y00963500D02*
D03*
X00643150Y00964250D02*
D03*
X00666000Y00319100D02*
D03*
X01322000Y00860650D02*
D03*
X00033500Y00868900D02*
D03*
X01030400Y00240250D02*
D03*
X00315500Y00307150D02*
D03*
X00785500Y00316600D02*
D03*
X01124600Y00112500D02*
D03*
X00198150Y00120000D02*
D03*
D35*
X00666000Y00344500D02*
D03*
X01322000Y00835250D02*
D03*
X00033500Y00843500D02*
D03*
X00315500Y00281750D02*
D03*
X00785500Y00342000D02*
D03*
D36*
X00447794Y00290753D02*
D03*
X00930620Y00290780D02*
D03*
D37*
X00422394Y00290753D02*
D03*
X00447794Y00493953D02*
D03*
X00422394Y00468553D02*
D03*
X00447794D02*
D03*
Y00417753D02*
D03*
X00422394Y00443153D02*
D03*
Y00417753D02*
D03*
X00447794Y00519353D02*
D03*
Y00443153D02*
D03*
X00422394Y00493953D02*
D03*
Y00595553D02*
D03*
X00447794Y00392353D02*
D03*
Y00366953D02*
D03*
X00422394D02*
D03*
Y00392353D02*
D03*
Y00620953D02*
D03*
X00447794D02*
D03*
Y00646353D02*
D03*
X00422394D02*
D03*
X00447794Y00849553D02*
D03*
X00422394Y00824153D02*
D03*
X00447794Y00798753D02*
D03*
X00422394D02*
D03*
X00447794Y00773353D02*
D03*
X00422394D02*
D03*
Y00747953D02*
D03*
Y00722553D02*
D03*
Y00697153D02*
D03*
X00447794Y00722553D02*
D03*
Y00697153D02*
D03*
Y00671753D02*
D03*
X00422394D02*
D03*
X00447794Y00341553D02*
D03*
X00422394D02*
D03*
Y00519353D02*
D03*
X00447794Y00595553D02*
D03*
X00422394Y00570153D02*
D03*
X00447794Y00747953D02*
D03*
X00422394Y00849553D02*
D03*
X00447794Y00824153D02*
D03*
Y00544753D02*
D03*
Y00570153D02*
D03*
X00422394Y00544753D02*
D03*
X00447794Y00316153D02*
D03*
X00422394D02*
D03*
X00905220Y00290780D02*
D03*
X00930620Y00493980D02*
D03*
X00905220Y00468580D02*
D03*
X00930620D02*
D03*
Y00417780D02*
D03*
X00905220Y00443180D02*
D03*
Y00417780D02*
D03*
X00930620Y00519380D02*
D03*
Y00443180D02*
D03*
X00905220Y00493980D02*
D03*
Y00595580D02*
D03*
X00930620Y00392380D02*
D03*
Y00366980D02*
D03*
X00905220D02*
D03*
Y00392380D02*
D03*
Y00620980D02*
D03*
X00930620D02*
D03*
Y00646380D02*
D03*
X00905220D02*
D03*
X00930620Y00849580D02*
D03*
X00905220Y00824180D02*
D03*
X00930620Y00798780D02*
D03*
X00905220D02*
D03*
X00930620Y00773380D02*
D03*
X00905220D02*
D03*
Y00747980D02*
D03*
Y00722580D02*
D03*
Y00697180D02*
D03*
X00930620Y00722580D02*
D03*
Y00697180D02*
D03*
Y00671780D02*
D03*
X00905220D02*
D03*
X00930620Y00341580D02*
D03*
X00905220D02*
D03*
Y00519380D02*
D03*
X00930620Y00595580D02*
D03*
X00905220Y00570180D02*
D03*
X00930620Y00747980D02*
D03*
X00905220Y00849580D02*
D03*
X00930620Y00824180D02*
D03*
Y00544780D02*
D03*
Y00570180D02*
D03*
X00905220Y00544780D02*
D03*
X00930620Y00316180D02*
D03*
X00905220D02*
D03*
D38*
X00327800Y00165250D02*
D03*
X00577700D02*
D03*
X00694550Y00164500D02*
D03*
X00944450D02*
D03*
D39*
X00508150Y00179450D02*
D03*
X00874900Y00178700D02*
D03*
D40*
X00494300Y00151050D02*
D03*
X00480450Y00179450D02*
D03*
X00466600Y00151050D02*
D03*
X00452750Y00179450D02*
D03*
X00438900Y00151050D02*
D03*
X00425050Y00179450D02*
D03*
X00411200Y00151050D02*
D03*
X00397350Y00179450D02*
D03*
X00861050Y00150300D02*
D03*
X00847200Y00178700D02*
D03*
X00833350Y00150300D02*
D03*
X00819500Y00178700D02*
D03*
X00805650Y00150300D02*
D03*
X00791800Y00178700D02*
D03*
X00777950Y00150300D02*
D03*
X00764100Y00178700D02*
D03*
D41*
X00303580Y00659150D02*
D03*
Y00684550D02*
D03*
Y00709950D02*
D03*
Y00735350D02*
D03*
X00260400Y00722650D02*
D03*
Y00671850D02*
D03*
Y00697250D02*
D03*
X01077850Y00700750D02*
D03*
Y00726150D02*
D03*
Y00675350D02*
D03*
X01034670Y00662650D02*
D03*
Y00688050D02*
D03*
Y00713450D02*
D03*
Y00738850D02*
D03*
D42*
X00084500Y00727500D02*
D03*
X00107750Y00728250D02*
D03*
X00131500D02*
D03*
X00084750Y00697250D02*
D03*
X00108000D02*
D03*
X00131250D02*
D03*
X00085500Y00667750D02*
D03*
X00109000Y00667000D02*
D03*
X00131250Y00666750D02*
D03*
X01230250Y00700750D02*
D03*
X01254750D02*
D03*
X01206250D02*
D03*
X01207000Y00671500D02*
D03*
X01230500Y00670750D02*
D03*
X01255250Y00670000D02*
D03*
X01231250Y00732000D02*
D03*
X01254500Y00731750D02*
D03*
X01207000Y00732000D02*
D03*
D43*
X00763250Y00491500D02*
D03*
X00763500Y00457250D02*
D03*
X00175250Y00348750D02*
D03*
X00763500Y00557500D02*
D03*
X01304000Y00506000D02*
D03*
X01207000Y00240000D02*
D03*
X00978000Y00647750D02*
D03*
X01125750Y00172250D02*
D03*
X01147750Y00237500D02*
D03*
X00480250Y00274500D02*
D03*
X00477250Y00583250D02*
D03*
X00714500Y00886250D02*
D03*
X00103250Y00495000D02*
D03*
X00204250Y00400750D02*
D03*
X00490500Y00453750D02*
D03*
X00126750Y00462000D02*
D03*
X00587250Y00531500D02*
D03*
X00476250Y00494750D02*
D03*
X00675250Y00412000D02*
D03*
Y00456000D02*
D03*
X00789750Y00507000D02*
D03*
X00834500Y00572500D02*
D03*
X01174250Y00172750D02*
D03*
X01276750Y00338750D02*
D03*
X00393250Y00351000D02*
D03*
Y00601250D02*
D03*
X00988250Y00452000D02*
D03*
X00963925Y00538364D02*
D03*
X00582750Y00400500D02*
D03*
X00545000Y00341000D02*
D03*
X01105250Y00434500D02*
D03*
X00176250Y00462000D02*
D03*
X00392750Y00506000D02*
D03*
M02*
