%FSLAX44Y44*%
%MOMM*%
G71*
G01*
G75*
G04 Layer_Color=8421504*
%ADD10O,1.9500X0.6000*%
%ADD11R,1.5000X1.0000*%
%ADD12R,1.0000X1.5000*%
%ADD13R,0.8000X1.2000*%
%ADD14R,1.2000X0.6000*%
%ADD15R,2.2000X1.2000*%
%ADD16R,3.0500X1.1000*%
%ADD17R,6.5000X5.5500*%
%ADD18R,1.1000X3.0500*%
%ADD19R,5.5500X6.5000*%
%ADD20R,1.1000X1.3500*%
%ADD21R,1.3500X1.1000*%
%ADD22R,1.2500X1.4500*%
%ADD23R,1.4500X1.2500*%
%ADD24R,1.5000X1.2000*%
%ADD25R,1.5000X1.0000*%
%ADD26C,1.0000*%
%ADD27C,0.6000*%
%ADD28C,1.5000*%
%ADD29C,0.8000*%
%ADD30C,0.4000*%
%ADD31C,0.3000*%
%ADD32C,0.2000*%
%ADD33R,1.5000X1.5000*%
%ADD34C,1.5000*%
%ADD35R,1.5000X1.5000*%
%ADD36R,1.5240X1.5240*%
%ADD37C,1.5240*%
%ADD38C,4.7600*%
%ADD39R,1.6900X1.6900*%
%ADD40C,1.6900*%
%ADD41O,2.5000X1.5000*%
%ADD42C,0.7000*%
%ADD43C,1.2700*%
%ADD44R,5.3000X2.8000*%
%ADD45R,6.0000X2.1000*%
%ADD46R,3.9500X2.0500*%
%ADD47R,9.4000X6.8000*%
%ADD48R,2.4500X2.5500*%
%ADD49R,8.0000X10.0000*%
%ADD50C,0.5000*%
%ADD51C,0.2500*%
%ADD52C,0.2540*%
%ADD53C,0.0254*%
%ADD54C,0.1000*%
%ADD55C,0.1540*%
%ADD56C,0.1500*%
D10*
X666000Y676450D02*
D03*
Y689150D02*
D03*
Y701850D02*
D03*
Y714550D02*
D03*
X615000Y676450D02*
D03*
Y689150D02*
D03*
Y701850D02*
D03*
Y714550D02*
D03*
X153250Y524600D02*
D03*
Y511900D02*
D03*
Y499200D02*
D03*
Y486500D02*
D03*
Y473800D02*
D03*
Y461100D02*
D03*
Y448400D02*
D03*
X204250Y524600D02*
D03*
Y511900D02*
D03*
Y499200D02*
D03*
Y486500D02*
D03*
Y473800D02*
D03*
Y461100D02*
D03*
Y448400D02*
D03*
X1106500Y472900D02*
D03*
Y485600D02*
D03*
Y498300D02*
D03*
Y511000D02*
D03*
Y523700D02*
D03*
Y536400D02*
D03*
Y549100D02*
D03*
X1055500Y472900D02*
D03*
Y485600D02*
D03*
Y498300D02*
D03*
Y511000D02*
D03*
Y523700D02*
D03*
Y536400D02*
D03*
Y549100D02*
D03*
D11*
X753750Y415500D02*
D03*
Y432500D02*
D03*
X73750Y512750D02*
D03*
Y495750D02*
D03*
X705750Y585250D02*
D03*
Y602250D02*
D03*
X73000Y446000D02*
D03*
Y463000D02*
D03*
X307250Y378500D02*
D03*
Y395500D02*
D03*
X307000Y448750D02*
D03*
Y431750D02*
D03*
X1000500Y475500D02*
D03*
Y492500D02*
D03*
X999250Y547250D02*
D03*
Y530250D02*
D03*
X1262750Y462000D02*
D03*
Y479000D02*
D03*
X1261500Y407500D02*
D03*
Y424500D02*
D03*
D12*
X149000Y348500D02*
D03*
X132000D02*
D03*
X1073750Y415500D02*
D03*
X1090750D02*
D03*
X71000Y301500D02*
D03*
X88000D02*
D03*
X155000Y201000D02*
D03*
X138000D02*
D03*
X1113250Y256250D02*
D03*
X1130250D02*
D03*
X363500Y352750D02*
D03*
X346500D02*
D03*
X1014500Y365750D02*
D03*
X997500D02*
D03*
X1208000Y308250D02*
D03*
X1225000D02*
D03*
X504000Y717750D02*
D03*
X521000D02*
D03*
X522000Y685500D02*
D03*
X505000D02*
D03*
X764500Y800250D02*
D03*
X747500D02*
D03*
D13*
X625250Y793000D02*
D03*
X607250D02*
D03*
D14*
X1254500Y368000D02*
D03*
X1236000Y361250D02*
D03*
Y374500D02*
D03*
X346500Y428250D02*
D03*
Y415000D02*
D03*
X365000Y421750D02*
D03*
D15*
X1260000Y550250D02*
D03*
Y575250D02*
D03*
X1186000Y550250D02*
D03*
Y575250D02*
D03*
X269500Y507250D02*
D03*
Y482250D02*
D03*
X343500Y507250D02*
D03*
Y482250D02*
D03*
D16*
X130000Y310790D02*
D03*
Y260210D02*
D03*
X1066250Y325710D02*
D03*
Y376290D02*
D03*
D17*
X194500Y285500D02*
D03*
X1130750Y351000D02*
D03*
D18*
X734960Y669750D02*
D03*
X785540D02*
D03*
D19*
X760250Y734250D02*
D03*
D20*
X89500Y267500D02*
D03*
X70500D02*
D03*
X996750Y329500D02*
D03*
X1015750D02*
D03*
D21*
X265250Y448750D02*
D03*
Y429750D02*
D03*
Y376250D02*
D03*
Y395250D02*
D03*
X644500Y558750D02*
D03*
Y577750D02*
D03*
X629250Y322250D02*
D03*
Y341250D02*
D03*
X1204000Y458000D02*
D03*
Y477000D02*
D03*
X1204500Y424750D02*
D03*
Y405750D02*
D03*
X648500Y412750D02*
D03*
Y431750D02*
D03*
X574000Y340500D02*
D03*
Y321500D02*
D03*
D22*
X191500Y347750D02*
D03*
X209000D02*
D03*
X1144000Y414000D02*
D03*
X1126500D02*
D03*
D23*
X745000Y585500D02*
D03*
Y603000D02*
D03*
D24*
X624000Y844500D02*
D03*
X595000D02*
D03*
D25*
X705000Y403250D02*
D03*
Y432250D02*
D03*
M02*
