%FSAX44Y44*%
%MOMM*%
G71*
G01*
G75*
G04 Layer_Color=8421504*
%ADD10O,1.9500X0.6000*%
%ADD11R,1.5000X1.0000*%
%ADD12R,1.0000X1.5000*%
%ADD13R,0.8000X1.2000*%
%ADD14R,1.2000X0.6000*%
%ADD15R,2.2000X1.2000*%
%ADD16R,3.0500X1.1000*%
%ADD17R,6.5000X5.5500*%
%ADD18R,1.1000X3.0500*%
%ADD19R,5.5500X6.5000*%
%ADD20R,1.1000X1.3500*%
%ADD21R,1.3500X1.1000*%
%ADD22R,1.2500X1.4500*%
%ADD23R,1.4500X1.2500*%
%ADD24R,1.5000X1.2000*%
%ADD25R,1.5000X1.0000*%
%ADD26C,1.0000*%
%ADD27C,0.6000*%
%ADD28C,1.5000*%
%ADD29C,0.8000*%
%ADD30C,0.4000*%
%ADD31C,0.3000*%
%ADD32C,0.2000*%
%ADD33R,1.5000X1.5000*%
%ADD34C,1.5000*%
%ADD35R,1.5000X1.5000*%
%ADD36R,1.5240X1.5240*%
%ADD37C,1.5240*%
%ADD38C,4.7600*%
%ADD39R,1.6900X1.6900*%
%ADD40C,1.6900*%
%ADD41O,2.5000X1.5000*%
%ADD42C,0.7000*%
%ADD43C,1.2700*%
%ADD44R,5.3000X2.8000*%
%ADD45R,6.0000X2.1000*%
%ADD46R,3.9500X2.0500*%
%ADD47R,9.4000X6.8000*%
%ADD48R,2.4500X2.5500*%
%ADD49R,8.0000X10.0000*%
%ADD50C,0.5000*%
%ADD51C,0.2500*%
%ADD52C,0.2540*%
%ADD53C,0.0254*%
%ADD54C,0.1000*%
%ADD55C,0.1540*%
%ADD56C,0.1500*%
D10*
X00666000Y00676450D02*
D03*
Y00689150D02*
D03*
Y00701850D02*
D03*
Y00714550D02*
D03*
X00615000Y00676450D02*
D03*
Y00689150D02*
D03*
Y00701850D02*
D03*
Y00714550D02*
D03*
X00153250Y00524600D02*
D03*
Y00511900D02*
D03*
Y00499200D02*
D03*
Y00486500D02*
D03*
Y00473800D02*
D03*
Y00461100D02*
D03*
Y00448400D02*
D03*
X00204250Y00524600D02*
D03*
Y00511900D02*
D03*
Y00499200D02*
D03*
Y00486500D02*
D03*
Y00473800D02*
D03*
Y00461100D02*
D03*
Y00448400D02*
D03*
X01106500Y00472900D02*
D03*
Y00485600D02*
D03*
Y00498300D02*
D03*
Y00511000D02*
D03*
Y00523700D02*
D03*
Y00536400D02*
D03*
Y00549100D02*
D03*
X01055500Y00472900D02*
D03*
Y00485600D02*
D03*
Y00498300D02*
D03*
Y00511000D02*
D03*
Y00523700D02*
D03*
Y00536400D02*
D03*
Y00549100D02*
D03*
D11*
X00753750Y00415500D02*
D03*
Y00432500D02*
D03*
X00073750Y00512750D02*
D03*
Y00495750D02*
D03*
X00705750Y00585250D02*
D03*
Y00602250D02*
D03*
X00073000Y00446000D02*
D03*
Y00463000D02*
D03*
X00307250Y00378500D02*
D03*
Y00395500D02*
D03*
X00307000Y00448750D02*
D03*
Y00431750D02*
D03*
X01000500Y00475500D02*
D03*
Y00492500D02*
D03*
X00999250Y00547250D02*
D03*
Y00530250D02*
D03*
X01262750Y00462000D02*
D03*
Y00479000D02*
D03*
X01261500Y00407500D02*
D03*
Y00424500D02*
D03*
D12*
X00149000Y00348500D02*
D03*
X00132000D02*
D03*
X01073750Y00415500D02*
D03*
X01090750D02*
D03*
X00071000Y00301500D02*
D03*
X00088000D02*
D03*
X00155000Y00201000D02*
D03*
X00138000D02*
D03*
X01113250Y00256250D02*
D03*
X01130250D02*
D03*
X00363500Y00352750D02*
D03*
X00346500D02*
D03*
X01014500Y00365750D02*
D03*
X00997500D02*
D03*
X01208000Y00308250D02*
D03*
X01225000D02*
D03*
X00504000Y00717750D02*
D03*
X00521000D02*
D03*
X00522000Y00685500D02*
D03*
X00505000D02*
D03*
X00764500Y00800250D02*
D03*
X00747500D02*
D03*
D13*
X00625250Y00793000D02*
D03*
X00607250D02*
D03*
D14*
X01254500Y00368000D02*
D03*
X01236000Y00361250D02*
D03*
Y00374500D02*
D03*
X00346500Y00428250D02*
D03*
Y00415000D02*
D03*
X00365000Y00421750D02*
D03*
D15*
X01260000Y00550250D02*
D03*
Y00575250D02*
D03*
X01186000Y00550250D02*
D03*
Y00575250D02*
D03*
X00269500Y00507250D02*
D03*
Y00482250D02*
D03*
X00343500Y00507250D02*
D03*
Y00482250D02*
D03*
D16*
X00130000Y00310790D02*
D03*
Y00260210D02*
D03*
X01066250Y00325710D02*
D03*
Y00376290D02*
D03*
D17*
X00194500Y00285500D02*
D03*
X01130750Y00351000D02*
D03*
D18*
X00734960Y00669750D02*
D03*
X00785540D02*
D03*
D19*
X00760250Y00734250D02*
D03*
D20*
X00089500Y00267500D02*
D03*
X00070500D02*
D03*
X00996750Y00329500D02*
D03*
X01015750D02*
D03*
D21*
X00265250Y00448750D02*
D03*
Y00429750D02*
D03*
Y00376250D02*
D03*
Y00395250D02*
D03*
X00644500Y00558750D02*
D03*
Y00577750D02*
D03*
X00629250Y00322250D02*
D03*
Y00341250D02*
D03*
X01204000Y00458000D02*
D03*
Y00477000D02*
D03*
X01204500Y00424750D02*
D03*
Y00405750D02*
D03*
X00648500Y00412750D02*
D03*
Y00431750D02*
D03*
X00574000Y00340500D02*
D03*
Y00321500D02*
D03*
D22*
X00191500Y00347750D02*
D03*
X00209000D02*
D03*
X01144000Y00414000D02*
D03*
X01126500D02*
D03*
D23*
X00745000Y00585500D02*
D03*
Y00603000D02*
D03*
D24*
X00624000Y00844500D02*
D03*
X00595000D02*
D03*
D25*
X00705000Y00403250D02*
D03*
Y00432250D02*
D03*
M02*
