M48
;Layer_Color=9474304
;FILE_FORMAT=4:4
METRIC,LZ
;TYPE=PLATED
T1F00S00C0.5000
T2F00S00C0.7112
T3F00S00C0.7620
T4F00S00C0.9000
T5F00S00C1.0900
T6F00S00C3.2600
%
T01
X01207Y006715
X012305Y0067075
X0125525Y0067
X0125475Y0070075
X0123025
X0120625
X01207Y00732
X0123125
X012545Y0073175
X001315Y0072825
X0010775
X000845Y007275
X0008475Y0069725
X00108
X0013125
Y0066675
X00109Y00667
X000855Y0066775
T02
X0017525Y0034875
X0039325Y00351
X00545Y00341
X0048025Y002745
X0114775Y002375
X0112575Y0017225
X0117425Y0017275
X01207Y0024
X0127675Y0033875
X01304Y00506
X0110525Y004345
X0098825Y00452
X00963925Y00538364
X00978Y0064775
X008345Y005725
X007635Y005575
X0076325Y004915
X007635Y0045725
X0078975Y00507
X0067525Y00456
Y00412
X0058275Y004005
X0058725Y005315
X0047625Y0049475
X004905Y0045375
X0047725Y0058325
X0039325Y0060125
X0039275Y00506
X0017625Y00462
X0012675
X0010325Y00495
X0020425Y0040075
X007145Y0088625
T03
X00422394Y00290753
X00447794
Y00316153
Y00341553
Y00366953
Y00392353
X00422394
Y00366953
Y00341553
Y00316153
X0090522Y0031618
Y0029078
X0093062
Y0031618
Y0034158
Y0036698
Y0039238
X0090522
Y0036698
Y0034158
Y0041778
X0093062
Y0044318
Y0046858
Y0049398
Y0051938
X0090522
Y0049398
Y0046858
Y0044318
Y0054478
Y0057018
Y0059558
Y0062098
X0093062
Y0064638
X0090522
Y0067178
Y0069718
Y0072258
Y0074798
Y0077338
X0093062
Y0074798
Y0072258
Y0069718
Y0067178
Y0059558
Y0057018
Y0054478
X0103467Y0066265
Y0068805
Y0071345
Y0073885
X0107785Y0072615
Y0070075
Y0067535
X00447794Y00671753
Y00646353
Y00620953
X00422394
Y00595553
X00447794
Y00570153
X00422394
Y00544753
Y00519353
X00447794
Y00493953
Y00468553
X00422394
Y00443153
Y00417753
X00447794
Y00443153
X00422394Y00493953
X00447794Y00544753
X00422394Y00646353
Y00671753
Y00697153
Y00722553
Y00747953
Y00773353
X00447794
Y00747953
Y00722553
Y00697153
X0030358Y0068455
Y0065915
Y0070995
Y0073535
X002604Y0072265
Y0069725
Y0067185
X00422394Y00798753
Y00824153
Y00849553
X00447794
Y00824153
Y00798753
X0090522Y0079878
Y0082418
Y0084958
X0093062
Y0082418
Y0079878
T04
X0017275Y0012
X0019815
X003155Y0028175
Y0030715
X00666Y003191
Y003445
X007855Y00342
Y003166
X01005Y0024025
X010304
X011246Y001125
X0115
X000335Y008435
Y008689
X0061775Y0096425
X0064315
X00693Y009635
X007184
X01322Y0086065
Y0083525
T05
X004112Y0015105
X004389
X004666
X004943
X0050815Y0017945
X0048045
X0045275
X0042505
X0039735
X007641Y001787
X007918
X0077795Y001503
X0080565
X0083335
X0086105
X008749Y001787
X008472
X008195
T06
X003278Y0016525
X005777
X0069455Y001645
X0094445
M30
